<svg xmlns="http://www.w3.org/2000/svg" width="703" height="280" fill="none"><g clip-path="url(#a)"><path stroke="silver" stroke-width="1.1" d="M195.5 22.3C230 22.3 213 140 247 140M491.8 252.8c-26.3 0-4.4-179.6-33.4-179.6"/><path stroke="#4A23EB" stroke-width="1.1" d="M491.8 186c-26.3 0-9.3-112.8-33.4-112.8"/><path fill="#fff" d="M183 .9H11.9A5.8 5.8 0 0 0 6 6.7V93c0 3.2 2.6 5.8 5.8 5.8h171.3c3.2 0 5.8-2.6 5.8-5.8V6.7c0-3.2-2.6-5.8-5.8-5.8Z"/><path fill="#1F2327" d="M23.9 17.6c0-.4-.3-.7-.6-1-.3-.2-.7-.3-1.2-.3l-1 .1-.6.5a1 1 0 0 0 0 1.2l.3.3.6.3.6.2.9.2 1 .3 1 .6.6.8.2 1a2.6 2.6 0 0 1-1.7 2.6c-.5.2-1.2.3-2 .3a5 5 0 0 1-2-.3 3 3 0 0 1-1.2-1 3 3 0 0 1-.5-1.7H20a1.5 1.5 0 0 0 1 1.4l1 .1 1-.1.7-.5c.2-.2.2-.5.2-.7 0-.3 0-.5-.2-.7l-.6-.4-.9-.3-1-.3c-.9-.2-1.5-.5-2-.9-.4-.4-.7-1-.7-1.7 0-.5.2-1 .5-1.4a3 3 0 0 1 1.3-1c.5-.3 1.1-.4 1.8-.4s1.3.1 1.8.4c.5.2 1 .5 1.2 1 .3.4.4.8.5 1.4h-1.7Zm6.4 7.1c-.7 0-1.3-.1-1.8-.4-.5-.4-1-.8-1.2-1.4-.3-.5-.4-1.2-.4-2 0-.7.1-1.3.4-1.9.3-.5.7-1 1.2-1.3.5-.3 1.1-.5 1.8-.5s1.3.2 1.9.5c.5.3.9.8 1.2 1.3.2.6.4 1.2.4 2 0 .7-.2 1.4-.4 2-.3.5-.7 1-1.2 1.3-.6.3-1.2.4-1.9.4Zm0-1.3c.4 0 .7-.2 1-.4.3-.2.4-.5.6-.8L32 21l-.2-1.2c-.2-.4-.3-.7-.6-.9-.3-.2-.6-.3-1-.3s-.7.1-1 .3a2 2 0 0 0-.5.9l-.2 1.2c0 .4 0 .8.2 1.2.1.3.3.6.6.8.2.2.5.4 1 .4Zm9.5-1.9v-4.2h1.8v7.3h-1.7v-1.3c-.2.4-.5.7-.9 1-.4.2-.8.4-1.4.4l-1.2-.3c-.4-.3-.7-.6-.9-1-.2-.4-.3-.9-.3-1.5v-4.6H37v4.4c0 .4.2.8.4 1 .3.3.6.5 1 .5a1.6 1.6 0 0 0 1.3-.7c.2-.3.2-.6.2-1Zm3.5 3v-7.2H45v1.2a1.8 1.8 0 0 1 1.8-1.3 4 4 0 0 1 .6 0V19l-.3-.1h-.5c-.3 0-.6 0-.8.2a1.5 1.5 0 0 0-.8 1.3v4.3h-1.7Zm8.1.2c-.7 0-1.3-.1-1.8-.5-.6-.3-1-.7-1.2-1.3-.3-.5-.4-1.2-.4-2 0-.6.1-1.3.4-1.9.3-.5.7-1 1.2-1.3.5-.3 1.1-.5 1.8-.5.6 0 1.1.2 1.6.4a2.7 2.7 0 0 1 1.5 2.2H53c0-.3-.2-.6-.5-.8-.2-.3-.6-.4-1-.4l-.9.3c-.2.2-.5.5-.6.8l-.2 1.3c0 .5 0 .9.2 1.2.1.4.3.7.6.8.3.2.6.3 1 .3l.6-.1.5-.4.3-.7h1.6c0 .5-.2 1-.4 1.4-.3.4-.6.7-1.1.9-.4.2-1 .3-1.6.3Zm7.7 0c-.7 0-1.3-.1-1.9-.4A3 3 0 0 1 56 23c-.3-.6-.4-1.2-.4-2 0-.7.1-1.4.4-2a3.2 3.2 0 0 1 3-1.8c.5 0 .9.1 1.3.3.4.1.7.3 1 .6.4.3.6.7.8 1.2l.2 1.6v.5h-5.9v-1.1h4.3c0-.3 0-.6-.2-.9-.1-.3-.3-.5-.6-.6l-.8-.2c-.4 0-.7 0-1 .2l-.6.7-.2.9v1c0 .4 0 .8.2 1 .2.4.4.6.7.8l1 .2.6-.1c.2 0 .4-.2.5-.3l.4-.5 1.6.1c-.1.5-.3.8-.6 1.1l-1 .8-1.6.2Z"/><path stroke="#6E767D" stroke-linecap="round" stroke-linejoin="round" d="M168.2 18c.3.2.3.6 0 1-.7.9-2.4 2.8-4.5 2.8-2 0-3.7-2-4.5-2.9a.8.8 0 0 1 0-1c.8-1 2.5-2.9 4.5-2.9s3.8 2 4.5 3Z"/><path stroke="#6E767D" stroke-linecap="round" stroke-linejoin="round" d="M163.7 19.9a1.5 1.5 0 1 0 0-3 1.5 1.5 0 0 0 0 3Z"/><path fill="#fff" d="M172.3 37.8H22.7c-2.6 0-4.6 2-4.6 4.6v39.4c0 2.5 2 4.5 4.6 4.5h149.6c2.5 0 4.5-2 4.5-4.5V42.4c0-2.5-2-4.6-4.5-4.6Z"/><mask id="b" width="19" height="14" x="23" y="43" maskUnits="userSpaceOnUse" style="mask-type:luminance"><path fill="#fff" d="M41 43.2H23.6V57h17.6V43.2Z"/></mask><g mask="url(#b)"><path fill="url(#c)" d="m26.4 53.7.4-.1h14c.2 0 .3.3.2.5l-2.8 2.7-.4.2h-14a.3.3 0 0 1-.2-.5l2.8-2.8Z"/><path fill="url(#d)" d="m26.4 43.4.4-.2h14c.2 0 .3.4.2.5l-2.8 2.8-.4.2h-14a.3.3 0 0 1-.2-.5l2.8-2.8Z"/><path fill="url(#e)" d="M38.2 48.5a.6.6 0 0 0-.4-.1h-14c-.2 0-.4.3-.2.5l2.8 2.7.4.2h14c.2 0 .3-.3.2-.5l-2.8-2.8Z"/></g><path fill="#1F2327" d="M49.7 55.2v-8.4h1v7.5h4v1h-5Zm8.3.2c-.4 0-.8 0-1-.2-.4-.2-.7-.4-.9-.7-.2-.3-.3-.6-.3-1s.1-.7.3-1l.5-.5.8-.3a9.6 9.6 0 0 1 1.8-.2l.6-.2.1-.3c0-.4 0-.7-.3-1-.2-.2-.6-.3-1-.3-.5 0-.8 0-1.1.3l-.6.6-.9-.3a2.2 2.2 0 0 1 1.6-1.3 3.8 3.8 0 0 1 1.7 0c.2 0 .5 0 .7.2.3.1.5.4.7.7l.2 1.2v4.1h-1v-.8l-.4.4c-.1.2-.3.3-.6.4l-.9.2Zm.1-.9c.4 0 .8 0 1-.2A1.5 1.5 0 0 0 60 53v-1l-.2.2a4.6 4.6 0 0 1-1 .2 25.8 25.8 0 0 0-1.2.2c-.2 0-.4.2-.5.3l-.2.6c0 .3.1.6.4.8l1 .2Zm7 .9a2.5 2.5 0 0 1-2.4-1.6c-.2-.5-.3-1-.3-1.7s0-1.2.3-1.7c.2-.5.6-.9 1-1.2.4-.2.8-.4 1.4-.4l1 .2.5.5.3.4v-3h1v8.3H67v-1l-.4.5-.6.5a2 2 0 0 1-1 .2Zm0-.9c.5 0 .8-.1 1-.3.4-.2.6-.5.7-.9l.2-1.2c0-.5 0-.9-.2-1.3a1.6 1.6 0 0 0-1.6-1.1c-.4 0-.8.1-1 .3-.3.2-.5.5-.6.9-.2.3-.3.7-.3 1.2l.3 1.2c.1.4.3.7.6.9.2.2.6.3 1 .3Zm7.2.9a2.5 2.5 0 0 1-2.4-1.6c-.2-.5-.3-1-.3-1.7s.1-1.2.3-1.7c.3-.5.6-.9 1-1.2.4-.2.9-.4 1.4-.4l1 .2.5.5.3.4h.1v-3h1v8.3h-1v-1l-.4.5-.6.5a2 2 0 0 1-1 .2Zm.1-.9c.4 0 .7-.1 1-.3.3-.2.5-.5.6-.9l.2-1.2c0-.5 0-.9-.2-1.3a1.6 1.6 0 0 0-1.6-1.1c-.4 0-.8.1-1 .3-.3.2-.5.5-.6.9-.2.3-.2.7-.2 1.2 0 .4 0 .8.2 1.2.1.4.3.7.6.9.3.2.6.3 1 .3Zm7.3.9a2.7 2.7 0 0 1-2.6-1.5c-.2-.6-.3-1.1-.3-1.8 0-.6.1-1.2.3-1.7.3-.5.6-.9 1-1.1.5-.3 1-.5 1.5-.5.4 0 .7 0 1 .2a2.4 2.4 0 0 1 1.5 1.5c.2.4.3 1 .3 1.5v.4h-5v-.8h4l-.2-1a1.6 1.6 0 0 0-1.6-.9c-.3 0-.7.1-1 .3-.2.2-.5.4-.6.7-.2.3-.2.7-.2 1v.6c0 .5 0 .9.2 1.2.2.3.4.6.7.7.3.2.6.3 1 .3l.7-.1.6-.3.3-.6 1 .3a2 2 0 0 1-.5.8l-.9.6-1.2.2Zm4.1-.2V49h1v1l.7-.8c.3-.2.6-.3 1-.3a11 11 0 0 1 .5 0v1a3 3 0 0 0-.6 0c-.3 0-.6 0-.8.2-.3 0-.4.3-.6.5l-.2.7v4h-1Zm11.3-5.8h-1a2.1 2.1 0 0 0-1-1.3l-.6-.3a2.8 2.8 0 0 0-2.2.2c-.4.3-.7.7-1 1.2-.2.5-.4 1.1-.4 1.8 0 .8.2 1.4.4 1.9.3.5.6.9 1 1.1.4.3.9.4 1.4.4l.8-.1.7-.4a2.2 2.2 0 0 0 .9-1.3h1l-.4 1.2a3.2 3.2 0 0 1-1.8 1.4 3.8 3.8 0 0 1-3.1-.4c-.6-.3-1-.8-1.4-1.5-.3-.6-.4-1.4-.4-2.3 0-.9.1-1.6.4-2.3.4-.6.8-1.1 1.4-1.5.5-.3 1.2-.5 1.9-.5.4 0 .8 0 1.2.2a3.3 3.3 0 0 1 1.8 1.4l.4 1.1Zm3.4 6c-.4 0-.8 0-1.1-.2a1.9 1.9 0 0 1-1-1.7c-.1-.4 0-.7.1-1l.6-.5.8-.3a9.6 9.6 0 0 1 1.8-.2l.5-.2c.1 0 .2-.1.2-.3 0-.4-.1-.7-.3-1-.3-.2-.6-.3-1-.3-.5 0-.9 0-1.1.3l-.6.6-1-.3A2.2 2.2 0 0 1 98 49a3.8 3.8 0 0 1 1.7 0c.3 0 .5 0 .8.2l.6.7c.2.3.3.7.3 1.2v4.1h-1v-.8l-.4.4a2 2 0 0 1-.6.4l-1 .2Zm.1-.9c.4 0 .7 0 1-.2a1.5 1.5 0 0 0 .8-1.3v-1c0 .1-.1.2-.3.2a4.6 4.6 0 0 1-1 .2 26 26 0 0 0-1.1.2c-.2 0-.4.2-.5.3-.2.2-.2.4-.2.6 0 .3.1.6.3.8l1 .2Zm9-4.2-.9.3c0-.2 0-.3-.2-.4l-.4-.4-.7-.1c-.4 0-.7 0-1 .2-.2.2-.4.4-.4.7 0 .3.1.4.3.6l.8.3 1 .3c.5.1 1 .3 1.2.6.3.3.4.6.4 1s0 .8-.3 1a2 2 0 0 1-.8.7c-.4.2-.8.3-1.3.3-.7 0-1.2-.2-1.6-.4-.5-.3-.7-.7-.8-1.3l.9-.2c0 .3.2.6.5.8l1 .2c.4 0 .8 0 1-.3.3-.2.4-.4.4-.7 0-.2 0-.4-.2-.5l-.7-.4-1-.2c-.6-.1-1-.4-1.3-.6-.3-.3-.4-.7-.4-1.1 0-.4 0-.7.3-1 .2-.3.4-.5.8-.6a3 3 0 0 1 1.2-.3c.6 0 1 .2 1.5.4.3.3.6.7.7 1.1ZM112 49v.8h-3.2V49h3.2Zm-2.3-1.5h1v6l.1.7.3.2h.4a1.7 1.7 0 0 0 .5 0l.2 1a2 2 0 0 1-.8 0 2 2 0 0 1-.8-.1l-.6-.6c-.2-.2-.3-.5-.3-.9v-6.3Zm6.4 8a3 3 0 0 1-1.6-.4c-.4-.3-.8-.7-1-1.2-.2-.5-.4-1-.4-1.7 0-.6.2-1.2.4-1.7s.6-.9 1-1.1c.4-.3 1-.5 1.5-.5.3 0 .7 0 1 .2a2.4 2.4 0 0 1 1.5 1.5l.2 1.5v.4h-4.9v-.8h4c0-.4-.1-.7-.3-1a1.6 1.6 0 0 0-1.5-.9c-.4 0-.7.1-1 .3l-.7.7-.2 1v.6c0 .5.1.9.3 1.2.1.3.4.6.7.7.3.2.6.3 1 .3l.7-.1c.2 0 .4-.2.5-.3l.4-.6 1 .3a2 2 0 0 1-.6.8c-.2.3-.5.4-.8.6l-1.2.2Zm4.1-.2V49h1v1c.1-.3.3-.6.6-.8.3-.2.7-.3 1-.3a11 11 0 0 1 .6 0v1a2.9 2.9 0 0 0-.6 0c-.3 0-.6 0-.9.2-.2 0-.4.3-.5.5-.2.2-.2.5-.2.7v4h-1Zm10.3 0h-2.6v-8.4h2.7c.8 0 1.5.2 2.1.5.6.3 1 .8 1.4 1.5.3.6.4 1.3.4 2.2a5 5 0 0 1-.4 2.3c-.3.6-.8 1.1-1.4 1.4-.6.4-1.3.5-2.2.5Zm-1.6-.9h1.5c.7 0 1.3-.1 1.8-.4.4-.2.8-.6 1-1.1.2-.5.3-1.1.3-1.8s0-1.3-.3-1.7c-.2-.5-.5-1-1-1.2-.4-.3-1-.4-1.6-.4h-1.7v6.6Zm9.9 1a3 3 0 0 1-1.6-.3c-.4-.3-.8-.7-1-1.2-.3-.5-.4-1-.4-1.7 0-.6.1-1.2.4-1.7.2-.5.5-.9 1-1.1.4-.3.9-.5 1.5-.5.3 0 .6 0 1 .2a2.4 2.4 0 0 1 1.5 1.5l.2 1.5v.4h-4.9v-.8h3.9c0-.4 0-.7-.2-1a1.6 1.6 0 0 0-1.5-.9c-.4 0-.8.1-1 .3l-.7.7-.2 1v.6c0 .5 0 .9.2 1.2.2.3.4.6.7.7.3.2.7.3 1 .3l.8-.1c.2 0 .3-.2.5-.3l.3-.6 1 .3a2 2 0 0 1-.5.8c-.2.3-.5.4-.9.6l-1.1.2Zm4 0v-6.4h1v1l.7-.8a2 2 0 0 1 1-.3c.5 0 .9.1 1.1.3l.7.8.8-.8c.3-.2.7-.3 1.1-.3.6 0 1 .2 1.4.6.4.3.6.9.6 1.6v4.2h-1V51c0-.5-.1-.8-.4-1-.2-.2-.5-.3-.9-.3s-.8.1-1 .4c-.3.3-.4.6-.4 1v4.1h-1V51c0-.3 0-.6-.3-.9-.3-.2-.6-.3-1-.3-.2 0-.4 0-.6.2-.3.1-.4.3-.6.6l-.2.8v4h-1Zm12.7 0c-.5 0-1 0-1.5-.3-.4-.3-.7-.7-1-1.2-.2-.5-.3-1-.3-1.7 0-.6 0-1.2.3-1.7s.6-.9 1-1.2c.4-.2 1-.4 1.5-.4.6 0 1 .2 1.5.4.5.3.8.7 1 1.2.3.5.4 1 .4 1.7s-.1 1.2-.4 1.7c-.2.5-.5.9-1 1.2-.4.2-1 .4-1.5.4Zm0-.8c.5 0 .8-.1 1-.3.4-.3.6-.5.7-1 .2-.3.2-.7.2-1 0-.5 0-.9-.2-1.3a2 2 0 0 0-.6-.9c-.3-.2-.6-.3-1-.3-.5 0-.9.1-1.1.3a2 2 0 0 0-.7 1l-.2 1.1c0 .4 0 .8.2 1.2l.7.9c.2.2.6.3 1 .3Z"/><path stroke="#A9A9A9" stroke-width="1.1" d="M29 68.9c0 3.2 2.6 5.8 5.8 5.8h3.4m0 0-2.9 2.8m2.9-2.8-2.9-3"/><path fill="#1F2327" d="M56.5 72h-1a2.1 2.1 0 0 0-.9-1.4l-.7-.4a2.8 2.8 0 0 0-2.2.3c-.4.3-.7.6-1 1.1-.2.5-.3 1.2-.3 1.9s.1 1.3.4 1.8c.2.5.5 1 1 1.2.4.2.8.4 1.3.4l.8-.1.7-.4a2.2 2.2 0 0 0 1-1.3h1l-.5 1.1a3.2 3.2 0 0 1-1.8 1.4 3.8 3.8 0 0 1-3-.3c-.6-.3-1-.8-1.4-1.5-.3-.6-.5-1.4-.5-2.3 0-.9.2-1.7.5-2.3.3-.7.8-1.2 1.3-1.5.6-.4 1.2-.5 2-.5l1.1.1a3.3 3.3 0 0 1 1.8 1.5c.2.3.4.7.4 1.1Zm3.4 5.9c-.4 0-.8-.1-1-.3-.4-.1-.7-.3-.9-.6-.2-.3-.2-.7-.2-1 0-.4 0-.7.2-1l.5-.5.8-.3a9.6 9.6 0 0 1 1.8-.3h.6l.1-.4c0-.5 0-.8-.3-1-.2-.2-.5-.3-1-.3s-.8 0-1 .3l-.6.6-1-.3a2.2 2.2 0 0 1 1.6-1.4 3.8 3.8 0 0 1 1.7 0c.2 0 .5.1.7.3.3.1.5.3.7.6l.2 1.2v4.2h-1V77l-.3.4-.7.4-.9.2Zm.2-1 1-.1a1.5 1.5 0 0 0 .7-1.4v-.9l-.2.2a4.6 4.6 0 0 1-1 .1 26.1 26.1 0 0 0-1.1.3c-.3 0-.4.1-.6.3l-.2.6c0 .3.2.6.4.7.3.2.6.3 1 .3Zm9-4.1-.9.3-.2-.5-.5-.3-.7-.2c-.4 0-.7.1-1 .3-.2.2-.3.4-.3.7 0 .2 0 .4.2.6l.9.3.9.2c.6.2 1 .4 1.3.7.2.2.4.6.4 1s-.1.7-.3 1a2 2 0 0 1-.9.7c-.4.2-.8.2-1.3.2-.6 0-1.2 0-1.6-.4-.4-.3-.7-.7-.8-1.2l1-.2c0 .3.2.6.4.7.3.2.6.3 1 .3.5 0 .8-.1 1-.3.3-.2.5-.4.5-.7l-.3-.6-.7-.3-1-.2c-.6-.2-1-.4-1.3-.7-.3-.3-.4-.6-.4-1s.1-.7.3-1l.8-.7a3 3 0 0 1 1.2-.2c.7 0 1.1.1 1.5.4.4.3.6.7.8 1.1Zm4.3-1.4v.8h-3.3v-.8h3.3Zm-2.3-1.5h1v6.6l.4.3H73.3l.2.9a2 2 0 0 1-.7.1 2 2 0 0 1-.8-.2l-.7-.5-.2-1V70Zm6.3 8a2.7 2.7 0 0 1-2.6-1.5l-.3-1.8c0-.6.1-1.2.4-1.7.2-.5.5-.9 1-1.2.4-.3.9-.4 1.5-.4.3 0 .6 0 1 .2a2.4 2.4 0 0 1 1.4 1.5c.2.4.3.9.3 1.5v.4h-5V74h4c0-.3 0-.6-.2-1a1.6 1.6 0 0 0-1.5-.8c-.4 0-.8 0-1 .3-.3.2-.6.4-.7.7-.2.3-.2.6-.2 1v.5c0 .5 0 1 .2 1.3l.7.7c.3.2.7.3 1 .3l.7-.1.6-.4.3-.5 1 .2a2 2 0 0 1-.5.9c-.3.2-.5.4-.9.5-.3.2-.7.2-1.2.2Zm4.1-.2v-6.3h1v1c.2-.4.4-.6.7-.8.3-.2.6-.3 1-.3a11 11 0 0 1 .5 0v1a3 3 0 0 0-.6 0l-.8.1-.6.5-.2.8v4h-1Zm4.8 1.7V69h2.5v.8h-1.5v9h1.5v.7h-2.5ZM92 69v10.5h-2.4v-.8H91v-9h-1.5V69H92Z"/><path stroke="#ECECEC" stroke-width=".8" d="M172.3 37.8H22.7c-2.6 0-4.6 2-4.6 4.6v39.4c0 2.5 2 4.5 4.6 4.5h149.6c2.5 0 4.5-2 4.5-4.5V42.4c0-2.5-2-4.6-4.5-4.6Z"/><path stroke="#E7EEF4" stroke-width=".7" d="M183 1.3H11.9c-3 0-5.4 2.4-5.4 5.4V93c0 3 2.4 5.5 5.4 5.5h171.3c3 0 5.5-2.5 5.5-5.5V6.7c0-3-2.5-5.4-5.5-5.4Z"/><mask id="f" width="14" height="14" x="182" y="15" maskUnits="userSpaceOnUse" style="mask-type:luminance"><path fill="#fff" d="M195.6 15.2h-13.3v13.3h13.3V15.2Z"/></mask><g mask="url(#f)"><path fill="#4A23EB" d="M189 28.5a6.6 6.6 0 1 0 0-13.3 6.6 6.6 0 0 0 0 13.3Z"/><path fill="#fff" d="M186.5 20v-.9h4.8v1h-1.9v5h-1v-5h-2Z"/></g><mask id="g" width="12" height="13" x="0" y="35" maskUnits="userSpaceOnUse" style="mask-type:luminance"><path fill="#fff" d="M12 36H.3v11.6H12V36Z"/></mask><g mask="url(#g)"><path fill="#004743" d="M6.1 47.6a5.8 5.8 0 1 0 0-11.7 5.8 5.8 0 0 0 0 11.7Z"/><path fill="#fff" d="M6 45H4v-6.4h2c.7 0 1.2.1 1.7.4.4.2.8.6 1 1 .2.5.4 1 .4 1.7s-.2 1.3-.4 1.8c-.2.4-.6.8-1 1-.5.3-1 .4-1.7.4ZM4.9 44h1c.5 0 1 0 1.3-.3.3-.2.5-.4.7-.8l.2-1.3c0-.5 0-.9-.2-1.2-.2-.4-.4-.6-.7-.8-.3-.2-.7-.3-1.2-.3H4.9v4.7Z"/></g><path fill="#fff" d="M689 165.2H503.3c-3.6 0-6.6 3-6.6 6.6V273c0 3.7 3 6.7 6.6 6.7H689c3.6 0 6.6-3 6.6-6.7V172c0-3.7-3-6.7-6.6-6.7Z"/><path fill="#1F2327" d="M516.2 183.5c0-.4-.3-.8-.6-1-.3-.2-.7-.3-1.2-.3l-1 .1-.6.5a1 1 0 0 0 0 1.1c0 .2.2.3.3.4l.6.3.5.1 1 .3 1 .3 1 .6c.2.2.4.4.5.8.2.3.3.6.3 1a2.6 2.6 0 0 1-1.7 2.5c-.5.3-1.2.4-2 .4a5 5 0 0 1-2-.3 3 3 0 0 1-1.2-1 3 3 0 0 1-.5-1.7h1.7a1.5 1.5 0 0 0 1 1.3c.3.2.6.2 1 .2s.7 0 1-.2c.3 0 .5-.2.7-.4l.2-.8c0-.2 0-.4-.2-.6-.1-.2-.3-.3-.6-.4l-.9-.3-1.1-.3c-.8-.2-1.4-.5-1.9-1-.4-.3-.7-.9-.7-1.6 0-.5.2-1 .5-1.5a3 3 0 0 1 1.3-1c.5-.2 1.1-.3 1.8-.3s1.3.1 1.8.3c.5.3.9.6 1.2 1 .3.4.4 1 .5 1.5h-1.7Zm6.4 7c-.7 0-1.3 0-1.8-.4-.5-.3-1-.7-1.2-1.3-.3-.5-.4-1.2-.4-2 0-.7 0-1.3.4-1.9.3-.6.7-1 1.2-1.3.5-.3 1.1-.5 1.8-.5s1.3.2 1.9.5c.5.3.9.7 1.2 1.3.2.6.4 1.2.4 2 0 .7-.2 1.4-.4 2-.3.5-.7 1-1.2 1.2-.6.3-1.2.5-1.9.5Zm0-1.3c.4 0 .7 0 1-.3l.6-.8.2-1.2-.2-1.2-.6-.9c-.3-.2-.6-.3-1-.3s-.7 0-1 .3a2 2 0 0 0-.5.9c-.2.3-.2.7-.2 1.2 0 .4 0 .8.2 1.2l.5.8c.3.2.6.3 1 .3Zm5 1.3v-7.3h1.6v1.2a1.8 1.8 0 0 1 1.8-1.3 4.1 4.1 0 0 1 .7 0v1.6h-.8l-.9.1-.6.6-.2.8v4.3h-1.7Zm9.2-7.3v1.3h-4.2v-1.3h4.2Zm-3.1-1.7h1.7v7.3l.3.3h.4a1.6 1.6 0 0 0 .5 0l.3 1.3a3.7 3.7 0 0 1-1 .2l-1.1-.2-.9-.7a2 2 0 0 1-.2-1.1v-7.1Z"/><mask id="h" width="174" height="27" x="509" y="203" maskUnits="userSpaceOnUse" style="mask-type:luminance"><path fill="#fff" d="M682.4 203.3H510v26.5h172.4v-26.5Z"/></mask><g mask="url(#h)"><path fill="#fff" stroke="#ECECEC" stroke-width=".8" d="M677.4 203.7H514.9c-2.5 0-4.5 2-4.5 4.6v16.6c0 2.5 2 4.5 4.5 4.5h162.5c2.5 0 4.5-2 4.5-4.5v-16.6c0-2.5-2-4.6-4.5-4.6Z"/><path fill="#B6265C" d="M520 220a3.3 3.3 0 1 0 0-6.7 3.3 3.3 0 0 0 0 6.6Z"/><path fill="#1F2327" d="M528.4 212.7v8.4h-1v-8.4h1Zm4.4 8.5a3 3 0 0 1-1.5-.4c-.5-.2-.8-.6-1-1-.3-.6-.4-1.2-.4-1.8 0-.6.1-1.2.4-1.7.2-.5.5-.9 1-1.2.4-.3.9-.4 1.4-.4.4 0 .7 0 1 .2a2.4 2.4 0 0 1 1.5 1.5c.2.4.3.9.3 1.5v.4h-5v-.9h4c0-.3 0-.6-.2-1a1.6 1.6 0 0 0-1.6-.8c-.3 0-.7 0-1 .3-.2.2-.5.4-.6.7-.2.3-.2.6-.2 1v.6c0 .4 0 .8.2 1.2l.7.7c.3.2.7.3 1 .3l.7-.1.6-.4.3-.5 1 .3a2 2 0 0 1-.5.8l-.9.6-1.2.1Zm9.1-6.4-2.3 6.3h-1l-2.3-6.3h1l1.8 5 1.8-5h1Zm3.7 6.4a3 3 0 0 1-1.5-.4c-.5-.2-.8-.6-1-1-.3-.6-.4-1.2-.4-1.8 0-.6.1-1.2.3-1.7.3-.5.6-.9 1-1.2a3 3 0 0 1 2.5-.3 2.4 2.4 0 0 1 1.5 1.6c.2.4.3.9.3 1.5v.4h-5v-.9h4l-.2-1a1.6 1.6 0 0 0-1.6-.8c-.3 0-.7 0-1 .3-.2.2-.5.4-.6.7-.2.3-.2.6-.2 1v.6c0 .4 0 .8.2 1.2l.7.7c.3.2.6.3 1 .3l.7-.1.6-.4.3-.5 1 .3a2 2 0 0 1-.5.8l-.9.6-1.2.1Zm5.1-8.5v8.4h-1v-8.4h1Z"/><path stroke="#6E767D" stroke-linecap="round" stroke-linejoin="round" stroke-width=".8" d="m667 215.3 3.4 3.3 3.3-3.3"/></g><mask id="i" width="174" height="28" x="509" y="239" maskUnits="userSpaceOnUse" style="mask-type:luminance"><path fill="#fff" d="M682.4 239.8H510v26.5h172.4v-26.5Z"/></mask><g mask="url(#i)"><path fill="#fff" stroke="#ECECEC" stroke-width=".8" d="M677.4 240.2H514.9c-2.5 0-4.5 2-4.5 4.6v16.5c0 2.5 2 4.6 4.5 4.6h162.5c2.5 0 4.5-2 4.5-4.6v-16.5c0-2.6-2-4.6-4.5-4.6Z"/><path fill="#1F2327" d="M518 257.6h-1.1l3.1-8.5h1l3.2 8.5H523l-2.5-7.1h-.1l-2.5 7Zm.4-3.3h4.3v.9h-4.3v-1Zm11.7-3c0-.5-.3-.8-.6-1-.4-.3-.8-.4-1.3-.4-.4 0-.7 0-1 .2-.3.1-.5.3-.6.5a1.2 1.2 0 0 0-.1 1.3l.4.4.5.3.6.1.8.3.7.2.8.4c.3.2.5.4.6.7.2.3.3.6.3 1s-.1.9-.4 1.2c-.2.4-.6.7-1 .9-.5.2-1 .3-1.7.3-.6 0-1 0-1.5-.3-.5-.2-.8-.4-1-.8-.3-.3-.5-.7-.5-1.2h1c0 .3.2.6.4.8l.7.5a2.9 2.9 0 0 0 2 0l.7-.6c.2-.2.3-.5.3-.8 0-.3 0-.5-.2-.7l-.7-.4-.8-.3-1-.3c-.7-.2-1.2-.5-1.6-.8-.4-.4-.6-.8-.6-1.4 0-.5.2-.9.4-1.3l1-.8 1.5-.3c.6 0 1 .1 1.5.3l1 .8c.2.3.4.7.4 1.2h-1Zm9.6.5h-1a2.1 2.1 0 0 0-1-1.4l-.6-.3a2.8 2.8 0 0 0-2.2.3c-.4.2-.8.6-1 1.1-.3.5-.4 1.1-.4 1.9 0 .7.1 1.3.4 1.8.2.5.6.9 1 1.2.4.2.9.3 1.4.3h.8l.7-.4a2.2 2.2 0 0 0 .8-1.4h1a3.4 3.4 0 0 1-1.1 2c-.3.3-.7.5-1 .6a3.8 3.8 0 0 1-3.2-.3c-.5-.4-1-.9-1.3-1.5-.3-.7-.5-1.4-.5-2.3 0-1 .2-1.7.5-2.3.3-.7.8-1.2 1.3-1.5a3.8 3.8 0 0 1 3.1-.3 3.3 3.3 0 0 1 1.8 1.3l.5 1.2Z"/><path stroke="#6E767D" stroke-linecap="round" stroke-linejoin="round" stroke-width=".8" d="m667 251.8 3.3 3.3 3.4-3.3"/></g><path stroke="#E7EEF4" stroke-width=".7" d="M689 165.6H503.3a6.3 6.3 0 0 0-6.2 6.2V273c0 3.5 2.8 6.3 6.2 6.3H689c3.4 0 6.2-2.8 6.2-6.3V172c0-3.5-2.8-6.3-6.2-6.3Z"/><mask id="j" width="14" height="15" x="490" y="245" maskUnits="userSpaceOnUse" style="mask-type:luminance"><path fill="#fff" d="M503.3 245.9h-13.2V259h13.2V246Z"/></mask><g mask="url(#j)"><path fill="#235794" d="M496.7 259.1a6.6 6.6 0 1 0 0-13.2 6.6 6.6 0 0 0 0 13.2Z"/><path fill="#fff" d="M495.8 254v-1l.4-.5.4-.3.3-.3.3-.3v-.8l-.4-.2-.4-.1h-.4l-.3.3-.1.5h-1c0-.4 0-.7.2-1l.7-.5 1-.2c.3 0 .6 0 1 .2l.6.6c.2.2.2.5.2.8a1.6 1.6 0 0 1-.4 1l-.4.5a2 2 0 0 0-.4.3 1 1 0 0 0-.3.3v.6h-1Zm.5 1.8c-.2 0-.3 0-.5-.2a.6.6 0 0 1-.1-.5l.1-.4.5-.2c.2 0 .3 0 .5.2l.1.4v.4l-.3.2h-.3Z"/></g><mask id="k" width="15" height="14" x="688" y="179" maskUnits="userSpaceOnUse" style="mask-type:luminance"><path fill="#fff" d="M702.2 179.3H689v13.2h13.2v-13.2Z"/></mask><g mask="url(#k)"><path fill="#4A23EB" d="M695.6 192.5a6.6 6.6 0 1 0 0-13.2 6.6 6.6 0 0 0 0 13.2Z"/><path fill="#fff" d="M693.2 184.1v-.9h4.8v1H696v5h-1v-5h-2Z"/></g><mask id="l" width="14" height="14" x="490" y="179" maskUnits="userSpaceOnUse" style="mask-type:luminance"><path fill="#fff" d="M503.3 179.3h-13.2v13.2h13.2v-13.2Z"/></mask><g mask="url(#l)"><path fill="#4A23EB" d="M496.7 192.5a6.6 6.6 0 1 0 0-13.2 6.6 6.6 0 0 0 0 13.2Z"/><path fill="#fff" d="M494.3 184.1v-.9h4.8v1h-1.9v5h-1v-5h-2Z"/></g><g filter="url(#m)"><path fill="#fff" d="M445.8 52.4H260.2c-3.7 0-6.6 3-6.6 6.6v137.3c0 3.7 3 6.6 6.6 6.6h185.6c3.7 0 6.6-3 6.6-6.6V59c0-3.7-3-6.6-6.6-6.6Z"/><path fill="#1F2327" d="M269 77.6h-1.9l3.4-9.6h2.2l3.4 9.6h-1.9l-2.6-7.6-2.6 7.6Zm0-3.7h5.1v1.4h-5v-1.4Zm11.2 6.6c-.6 0-1.1 0-1.6-.3-.4-.1-.8-.3-1-.6-.3-.3-.5-.6-.6-1l1.5-.3.4.4c0 .2.3.3.5.4l.8.1a2 2 0 0 0 1.2-.3c.4-.3.5-.7.5-1.2v-1.4l-.5.6a2 2 0 0 1-.6.4c-.3.2-.6.2-1 .2a3 3 0 0 1-1.6-.4c-.4-.2-.8-.6-1-1.1-.3-.6-.4-1.2-.4-2s.1-1.5.4-2c.2-.6.6-1 1-1.3a2.8 2.8 0 0 1 2.6-.2l.7.5.3.6h.1v-1.2h1.7v7.3c0 .7-.1 1.2-.4 1.6-.3.4-.7.7-1.3.9-.5.2-1 .3-1.7.3Zm0-4.3a1.6 1.6 0 0 0 1.5-1c.2-.4.2-.8.2-1.2 0-.5 0-.9-.2-1.2-.1-.4-.3-.6-.6-.8-.2-.2-.5-.3-.9-.3s-.7.1-1 .3l-.5.8-.2 1.2c0 .4 0 .8.2 1.1.1.4.3.6.6.8.2.2.5.3 1 .3Zm8.3 4.3c-.6 0-1.1 0-1.6-.3-.4-.1-.8-.3-1-.6-.3-.3-.5-.6-.6-1l1.5-.3.3.4.6.4.8.1a2 2 0 0 0 1.2-.3c.3-.3.5-.7.5-1.2v-1.4l-.5.6a2 2 0 0 1-.6.4c-.3.2-.7.2-1 .2a3 3 0 0 1-1.6-.4c-.4-.2-.8-.6-1-1.1-.3-.6-.4-1.2-.4-2s0-1.5.3-2c.3-.6.7-1 1.1-1.3a2.8 2.8 0 0 1 2.6-.2l.6.5.4.6h.1v-1.2h1.7v7.3c0 .7-.2 1.2-.5 1.6-.2.4-.7.7-1.2.9-.5.2-1 .3-1.7.3Zm0-4.3a1.6 1.6 0 0 0 1.5-1l.2-1.2c0-.5 0-.9-.2-1.2-.1-.4-.3-.6-.6-.8-.2-.2-.5-.3-.9-.3s-.7.1-1 .3l-.5.8-.2 1.2c0 .4 0 .8.2 1.1.1.4.3.6.6.8.2.2.5.3 1 .3Zm5.1 1.4v-7.2h1.7v1.2a1.8 1.8 0 0 1 1.8-1.3 4 4 0 0 1 .7 0V72h-.8l-.9.1a1.5 1.5 0 0 0-.8 1.4v4.2h-1.7Zm8.2.2c-.7 0-1.4-.2-1.9-.5a3 3 0 0 1-1.2-1.3c-.3-.5-.4-1.2-.4-2 0-.7.1-1.3.4-1.9a3.2 3.2 0 0 1 3-1.8c.5 0 .9 0 1.3.2l1 .7c.3.3.6.7.7 1.1.2.5.3 1 .3 1.7v.5h-6v-1.2h4.4c0-.3 0-.6-.2-.8l-.6-.6c-.3-.2-.5-.3-.9-.3l-.9.3-.6.6-.2 1v1c0 .4 0 .7.2 1l.7.7c.2.2.6.2 1 .2h.6l.5-.4.4-.5 1.5.2c0 .4-.3.8-.5 1-.3.4-.7.6-1.1.8-.4.2-1 .3-1.5.3Zm7.8 2.7c-.6 0-1.1 0-1.6-.3-.4-.1-.8-.3-1-.6-.3-.3-.5-.6-.6-1l1.5-.3.3.4.6.4.8.1a2 2 0 0 0 1.2-.3c.3-.3.5-.7.5-1.2v-1.4l-.5.6a2 2 0 0 1-.6.4c-.3.2-.6.2-1 .2a3 3 0 0 1-1.6-.4c-.4-.2-.8-.6-1-1.1-.3-.6-.4-1.2-.4-2s0-1.5.4-2c.2-.6.6-1 1-1.3a2.8 2.8 0 0 1 2.6-.2l.6.5.4.6h.1v-1.2h1.7v7.3c0 .7-.2 1.2-.4 1.6-.3.4-.7.7-1.3.9-.5.2-1 .3-1.7.3Zm0-4.3a1.6 1.6 0 0 0 1.5-1l.2-1.2c0-.5 0-.9-.2-1.2-.1-.4-.3-.6-.6-.8-.2-.2-.5-.3-.9-.3s-.7.1-1 .3l-.5.8-.2 1.2c0 .4 0 .8.2 1.1.1.4.3.6.6.8.2.2.5.3 1 .3Zm7.2 1.6a3 3 0 0 1-1.2-.3 2 2 0 0 1-.9-.7c-.2-.3-.3-.7-.3-1.2 0-.4 0-.7.2-1l.6-.7 1-.3 1-.2a39.7 39.7 0 0 0 1.6-.3l.1-.3a1 1 0 0 0-.3-.9c-.2-.2-.5-.3-.9-.3s-.7.1-1 .3l-.5.6-1.6-.2a2.5 2.5 0 0 1 1.7-1.8 4.5 4.5 0 0 1 2.4-.1l1 .4.7.8c.2.3.2.7.2 1.2v4.8H319v-1a2.1 2.1 0 0 1-1.2 1l-1 .2Zm.5-1.3c.3 0 .6 0 .9-.2l.5-.5c.2-.2.2-.5.2-.8v-.8l-.2.1-.5.1a13.2 13.2 0 0 1-.8.1 3 3 0 0 0-.7.2c-.2 0-.4.2-.5.3l-.2.6c0 .3.2.5.4.7l.9.2Zm8.7-6.1v1.3h-4.2v-1.3h4.2Zm-3.2-1.7h1.7v6.8l.1.5.3.2h.4a1.7 1.7 0 0 0 .5 0l.3 1.4a3.8 3.8 0 0 1-1 .1c-.4 0-.8 0-1.2-.2-.3-.1-.6-.3-.8-.6a2 2 0 0 1-.3-1.2v-7Zm7.7 9c-.7 0-1.3 0-1.9-.4a3 3 0 0 1-1.2-1.3c-.3-.5-.4-1.2-.4-2 0-.7.1-1.3.4-1.9a3.2 3.2 0 0 1 3-1.8c.5 0 .9 0 1.3.2l1 .7c.4.3.6.7.8 1.1l.2 1.7v.5h-5.9v-1.2h4.3c0-.3 0-.6-.2-.8-.1-.3-.3-.5-.6-.6-.2-.2-.5-.3-.8-.3-.4 0-.7.1-1 .3l-.6.6-.2 1v1c0 .4 0 .7.2 1l.7.7c.2.2.6.2 1 .2h.6l.5-.4.4-.5 1.6.2c-.1.4-.3.8-.6 1-.3.4-.6.6-1 .8-.5.2-1 .3-1.6.3Z"/><mask id="n" width="174" height="28" x="266" y="90" maskUnits="userSpaceOnUse" style="mask-type:luminance"><path fill="#fff" d="M439.2 90.5H266.8V117h172.4V90.5Z"/></mask><g mask="url(#n)"><path fill="#F3F0FF" stroke="#4A23EB" stroke-width=".8" d="M434.2 91H271.8c-2.5 0-4.6 2-4.6 4.5V112c0 2.6 2 4.6 4.6 4.6h162.4c2.5 0 4.6-2 4.6-4.6V95.5c0-2.6-2-4.6-4.6-4.6Z"/><path stroke="#4A23EB" stroke-width="1.1" d="M282.6 108.1c0-3.2-2.6-5.7-5.8-5.7h-3.4m0 0 3-3m-3 3 3 2.8"/><path fill="#1F2327" d="M295.9 102.5h-1a2.1 2.1 0 0 0-.9-1.3l-.7-.4-.8-.1c-.5 0-1 .1-1.4.4-.4.2-.7.6-1 1.1-.2.5-.3 1.1-.3 1.9 0 .7 0 1.3.3 1.8s.6 1 1 1.2c.4.2.9.4 1.4.4.3 0 .6 0 .8-.2.3 0 .5-.2.7-.3a2.2 2.2 0 0 0 .9-1.3h1c0 .4-.2.8-.4 1.1a3.2 3.2 0 0 1-1.8 1.4 3.8 3.8 0 0 1-3.1-.3c-.6-.4-1-.9-1.3-1.5-.4-.7-.5-1.4-.5-2.3 0-1 .1-1.7.5-2.3.3-.7.7-1.2 1.3-1.5.5-.4 1.2-.6 2-.6l1.1.2a3.3 3.3 0 0 1 1.8 1.4l.4 1.2Zm4.1 6c-.6 0-1-.2-1.5-.5-.4-.3-.8-.6-1-1.1-.3-.5-.4-1-.4-1.7s.1-1.3.4-1.8a2.8 2.8 0 0 1 2.5-1.6c.6 0 1 .2 1.5.5.4.3.8.6 1 1.1.2.5.4 1.1.4 1.8 0 .6-.2 1.2-.4 1.7s-.6.8-1 1.1c-.4.3-1 .4-1.5.4Zm0-1c.4 0 .8 0 1-.3.3-.2.6-.5.7-.9l.2-1.1c0-.5 0-.9-.2-1.2a2 2 0 0 0-.6-.9c-.3-.2-.7-.3-1.1-.3-.4 0-.8 0-1 .3a2 2 0 0 0-.7.9l-.2 1.2c0 .4 0 .8.2 1.1.1.4.3.7.6 1 .3.1.7.3 1.1.3Zm5.3-3v3.8h-1V102h1v1c.2-.4.4-.6.7-.8.3-.2.7-.3 1.2-.3.4 0 .8 0 1.1.2.4.2.6.5.8.8.2.4.3.8.3 1.4v4h-1v-4c0-.5-.1-.8-.4-1.1-.3-.3-.6-.4-1-.4s-.7 0-.9.2c-.2 0-.4.3-.6.5a2 2 0 0 0-.2 1Zm6.8 0v3.8h-1V102h1v1c.2-.4.4-.6.7-.8.3-.2.7-.3 1.2-.3.4 0 .8 0 1.1.2l.8.8c.2.4.2.8.2 1.4v4h-1v-4c0-.5 0-.8-.3-1.1-.3-.3-.6-.4-1-.4s-.7 0-1 .2c-.2 0-.3.3-.5.5a2 2 0 0 0-.2 1Zm8.5 4a3 3 0 0 1-1.6-.5c-.4-.2-.8-.6-1-1.1-.3-.5-.4-1-.4-1.7s.1-1.2.4-1.7c.2-.5.6-1 1-1.2.4-.3.9-.4 1.5-.4l1 .1c.3.2.6.3.8.6.3.2.5.6.7 1l.2 1.4v.5h-4.9v-.9h4l-.3-1a1.6 1.6 0 0 0-1.5-.8c-.4 0-.7 0-1 .2l-.7.8-.2 1v.5c0 .5 0 1 .2 1.2.2.4.4.6.7.8.3.2.7.3 1 .3.3 0 .6 0 .8-.2.2 0 .4-.1.5-.3l.4-.5.9.2a2 2 0 0 1-.5.9c-.2.2-.5.4-.9.5-.3.2-.7.2-1.1.2Zm6.6 0c-.5 0-1-.2-1.5-.5-.4-.3-.7-.7-1-1.2a4 4 0 0 1-.3-1.6c0-.7.1-1.2.3-1.7.3-.5.6-1 1-1.2.5-.3 1-.4 1.5-.4s.9 0 1.2.2l1 .7.3 1h-1l-.4-.7c-.3-.2-.6-.3-1-.3s-.8 0-1 .3a2 2 0 0 0-.7.8 3 3 0 0 0-.3 1.2c0 .5.1 1 .3 1.3.1.4.4.7.6.9.3.2.7.3 1 .3.3 0 .5 0 .7-.2a1.4 1.4 0 0 0 .9-1h1a2.3 2.3 0 0 1-1.3 1.8l-1.3.2Zm6.7-6.5v.8h-3.3v-.8h3.3Zm-2.3-1.5h1v6.6l.4.3h.4a1.7 1.7 0 0 0 .4 0l.2.9a2.1 2.1 0 0 1-1.5-.1l-.7-.5-.2-1v-6.2Zm7 7.8V102h1v6.3h-1Zm.5-7.4c-.2 0-.3 0-.5-.2a.6.6 0 0 1-.2-.4l.2-.5.5-.2c.2 0 .4 0 .5.2.2.1.2.3.2.5 0 .1 0 .3-.2.4l-.5.2Zm3.3 3.6v3.8h-1V102h1v1c.2-.4.4-.6.7-.8.3-.2.7-.3 1.2-.3.4 0 .8 0 1 .2.4.2.6.5.8.8.2.4.3.8.3 1.4v4h-1v-4c0-.5-.1-.8-.4-1.1-.2-.3-.6-.4-1-.4-.3 0-.6 0-.9.2-.2 0-.4.3-.5.5a2 2 0 0 0-.2 1Zm5.8 6.2V102h1v1l.3-.4c.2-.2.3-.4.6-.5a2 2 0 0 1 1-.2 2.5 2.5 0 0 1 2.3 1.5 4.1 4.1 0 0 1 0 3.5c-.2.5-.5.9-1 1.1-.3.3-.8.4-1.3.4a2 2 0 0 1-1-.2l-.6-.4a6 6 0 0 1-.3-.5v3.4h-1Zm1-5.6.1 1.3c.2.4.4.6.7.8.2.3.6.4 1 .4.3 0 .7-.2 1-.4l.6-.8.2-1.3c0-.4 0-.8-.2-1.2l-.6-.8c-.3-.2-.6-.3-1-.3a1.6 1.6 0 0 0-1.7 1l-.2 1.3Zm10 .6V102h1v6.3h-1v-1a2 2 0 0 1-1.9 1.2c-.4-.1-.8-.2-1-.4-.4-.2-.6-.4-.8-.8a3 3 0 0 1-.3-1.3v-4h1v4c0 .4.1.8.4 1 .3.3.6.4 1 .4l.7-.1a1.6 1.6 0 0 0 1-1.6Zm5.5-3.7v.8h-3.2v-.8h3.2Zm-2.3-1.5h1v6l.1.6.3.3h.4a1.7 1.7 0 0 0 .5 0l.2.9a2.1 2.1 0 0 1-1.6-.1l-.6-.5c-.2-.3-.3-.6-.3-1v-6.2Z"/></g><mask id="o" width="174" height="28" x="266" y="126" maskUnits="userSpaceOnUse" style="mask-type:luminance"><path fill="#fff" d="M439.2 127H266.8v26.5h172.4V127Z"/></mask><g mask="url(#o)"><path fill="#fff" stroke="#ECECEC" stroke-width=".8" d="M434.2 127.4H271.8c-2.5 0-4.6 2-4.6 4.5v16.6c0 2.5 2 4.6 4.6 4.6h162.4c2.5 0 4.6-2 4.6-4.6V132c0-2.5-2-4.5-4.6-4.5Z"/><path fill="#B6265C" d="M276.8 143.6a3.3 3.3 0 1 0 0-6.7 3.3 3.3 0 0 0 0 6.7Z"/><path fill="#1F2327" d="M285.2 136.3v8.5h-1v-8.5h1Zm4.5 8.6a2.7 2.7 0 0 1-2.6-1.5c-.3-.5-.4-1.1-.4-1.8 0-.6.1-1.2.4-1.7.2-.5.6-.9 1-1.1.4-.3 1-.5 1.5-.5l1 .2a2.4 2.4 0 0 1 1.5 1.5l.2 1.5v.4h-4.9v-.8h4c0-.4-.2-.7-.3-1a1.6 1.6 0 0 0-1.5-.9c-.4 0-.7.1-1 .3-.3.2-.5.4-.7.8l-.2 1v.5c0 .5 0 .9.2 1.2l.7.8 1 .2h.8l.5-.4.4-.6.9.3a2 2 0 0 1-.5.8c-.2.3-.5.5-.9.6l-1.1.2Zm9-6.5-2.3 6.4h-1l-2.3-6.4h1l1.8 5 1.8-5h1Zm3.8 6.5a2.7 2.7 0 0 1-2.6-1.5c-.3-.5-.4-1.1-.4-1.8 0-.6.1-1.2.4-1.7.2-.5.5-.9 1-1.1.4-.3.9-.5 1.5-.5l1 .2a2.4 2.4 0 0 1 1.5 1.5l.2 1.5v.4h-4.9v-.8h3.9c0-.4 0-.7-.2-1a1.6 1.6 0 0 0-1.5-.9c-.4 0-.7.1-1 .3-.3.2-.5.4-.7.8l-.2 1v.5c0 .5 0 .9.2 1.2l.7.8 1 .2h.8l.5-.4.4-.6.9.3a2 2 0 0 1-.5.8c-.2.3-.5.5-.9.6l-1.1.2Zm5-8.6v8.5h-1v-8.5h1Z"/><path stroke="#6E767D" stroke-linecap="round" stroke-linejoin="round" stroke-width=".8" d="m423.9 139 3.3 3.3 3.3-3.3"/></g><path fill="#fff" d="M436.2 163.7H270.1a3 3 0 0 0-3 3v19.7a3 3 0 0 0 3 3h166.1a3 3 0 0 0 3-3v-19.7a3 3 0 0 0-3-3Z"/><path stroke="#576169" stroke-linecap="round" stroke-linejoin="round" stroke-width=".5" d="M334 176.5H332m2.2 0v2.2m0-2.2v-2.1m0 2.1h2.1"/><path fill="#576169" d="M340.5 179.5h-.9l2-5.5h1l2 5.5h-1l-1.5-4.5-1.6 4.5Zm.2-2.1h2.8v.7h-2.8v-.7Zm6 2.2a1.6 1.6 0 0 1-1.4-1c-.2-.3-.2-.7-.2-1.1 0-.5 0-.8.2-1.2.1-.3.3-.5.6-.7.3-.2.6-.2.9-.2h.6l.4.4.2.3v-2h.8v5.4h-.8v-.6l-.2.3-.4.3-.6.1Zm.3-.7.5-.1.4-.6.1-.7v-.8l-.5-.5a1 1 0 0 0-.5-.2 1 1 0 0 0-.6.2l-.4.5-.1.8v.7l.5.5c.1.2.3.2.6.2Zm4.5.7a1.6 1.6 0 0 1-1.5-1l-.2-1.1c0-.5 0-.8.2-1.2l.6-.7c.3-.2.6-.2 1-.2h.5l.4.4.2.3v-2h.9v5.4h-.8v-.6l-.3.3-.4.3-.6.1Zm.2-.7.6-.1c.1-.2.3-.3.3-.6l.2-.7c0-.3 0-.6-.2-.8 0-.2-.2-.4-.3-.5a1 1 0 0 0-.6-.2 1 1 0 0 0-.6.2l-.4.5v1.5l.4.5c.2.2.4.2.6.2Zm5 .6v-4h.8v.6l.5-.5c.2-.2.4-.2.7-.2.2 0 .5 0 .7.2l.4.5.5-.5c.2-.2.5-.2.8-.2.3 0 .6 0 .9.3.2.2.3.6.3 1v2.8h-.8V177c0-.3 0-.5-.2-.7a.8.8 0 0 0-.6-.1c-.2 0-.4 0-.6.2l-.2.6v2.6h-.8v-2.7c0-.2 0-.4-.2-.5a.8.8 0 0 0-.5-.2h-.5c0 .2-.2.3-.3.4v3h-.9Zm8.4.1c-.3 0-.7 0-1-.2-.3-.2-.5-.5-.6-.8-.2-.3-.3-.7-.3-1.1 0-.4.1-.8.3-1.1a1.8 1.8 0 0 1 1.6-1c.4 0 .8 0 1 .2.3.2.6.5.7.8a2.5 2.5 0 0 1 0 2.2 1.8 1.8 0 0 1-1.7 1Zm0-.6.7-.2.3-.6.2-.7c0-.3 0-.5-.2-.7 0-.3-.2-.4-.3-.6a1 1 0 0 0-.7-.2 1 1 0 0 0-.6.2l-.4.6v1.4l.4.6.6.2Zm2.9.5v-4h.7v.6l.5-.6.6-.1a3 3 0 0 1 .4 0v.7h-.4a1 1 0 0 0-.6.1.9.9 0 0 0-.4.8v2.5h-.8Zm4.5.1a2 2 0 0 1-1-.2c-.3-.2-.6-.5-.7-.8-.2-.3-.3-.7-.3-1 0-.5.1-.9.3-1.2l.6-.8 1-.2h.7a1.6 1.6 0 0 1 1 1l.2 1v.3H371v-.6h2.5l-.1-.5a1 1 0 0 0-1-.6 1 1 0 0 0-.5.2l-.4.4-.2.6v.5c0 .2 0 .5.2.7 0 .2.2.3.4.4l.6.2.4-.1.4-.2.2-.3.7.1-.3.6-.6.4-.8.1Z"/><path stroke="#ECECEC" stroke-width=".5" d="M436.2 163.7H270.1a3 3 0 0 0-3 3v19.7a3 3 0 0 0 3 3h166.1a3 3 0 0 0 3-3v-19.7a3 3 0 0 0-3-3Z"/><path stroke="#4A23EB" stroke-width=".7" d="M445.8 52.7H260.2a6.3 6.3 0 0 0-6.3 6.3v137.3c0 3.5 2.8 6.3 6.3 6.3h185.6c3.5 0 6.3-2.8 6.3-6.3V59c0-3.5-2.8-6.3-6.3-6.3Z"/></g><mask id="p" width="14" height="14" x="445" y="64" maskUnits="userSpaceOnUse" style="mask-type:luminance"><path fill="#fff" d="M458.5 64.4h-13.3v13.3h13.3V64.4Z"/></mask><g mask="url(#p)"><path fill="#4A23EB" d="M451.9 77.7a6.6 6.6 0 1 0 0-13.3 6.6 6.6 0 0 0 0 13.3Z"/><path fill="#fff" d="M449.4 69.3v-1h4.8v1h-1.8v5h-1.1v-5h-1.9Z"/></g><mask id="q" width="15" height="14" x="246" y="97" maskUnits="userSpaceOnUse" style="mask-type:luminance"><path fill="#fff" d="M260.2 97.1h-13.3v13.3h13.3V97Z"/></mask><g mask="url(#q)"><path fill="#B6265C" d="M253.5 110.4a6.6 6.6 0 1 0 0-13.3 6.6 6.6 0 0 0 0 13.3Z"/><path fill="#fff" d="M256.2 100.8v6h-1l-2.8-4v4h-1.1v-6h1l2.8 4.1v-4.1h1.1Z"/></g><mask id="r" width="15" height="14" x="246" y="133" maskUnits="userSpaceOnUse" style="mask-type:luminance"><path fill="#fff" d="M260.2 133h-13.3v13.3h13.3V133Z"/></mask><g mask="url(#r)"><path fill="#235794" d="M253.5 146.3a6.6 6.6 0 1 0 0-13.3 6.6 6.6 0 0 0 0 13.3Z"/><path fill="#fff" d="m252.6 141.1.1-.9c0-.2.2-.4.3-.5l.4-.4.4-.2.2-.3v-.8l-.3-.3h-.8l-.3.3-.2.5h-1c0-.4 0-.7.2-1l.7-.5c.3-.2.6-.2 1-.2.3 0 .7 0 1 .2l.6.5.3.9a1.6 1.6 0 0 1-.4 1l-.5.4a2 2 0 0 0-.4.3 1 1 0 0 0-.2.4l-.1.5v.1h-1Zm.5 1.9-.4-.2a.6.6 0 0 1-.2-.5c0-.2 0-.3.2-.4.1-.2.3-.2.4-.2.2 0 .4 0 .5.2l.2.4-.1.3-.2.3h-.4Z"/></g><g filter="url(#s)"><path fill="#7E7E7E" d="M582.7 66.6 580 52.4l12 7-6 1.7-3.3 5.5Z"/><path stroke="#fff" stroke-width="1.1" d="m580.2 51.9-1-.6.2 1.2 2.8 14.2.2 1.4.8-1.2 3.1-5.3 5.9-1.6 1.2-.3-1.1-.7-12-7.1Z"/></g><g filter="url(#t)"><path fill="#7E7E7E" d="M682.3 64.4h-83.7c-3.6 0-6.6 3-6.6 6.6v13.6c0 3.6 3 6.6 6.6 6.6h83.7c3.7 0 6.6-3 6.6-6.6V71c0-3.6-3-6.6-6.6-6.6Z"/><path fill="#fff" d="M607.7 73.2h1.5V80c0 .6-.2 1.2-.4 1.6-.2.4-.6.8-1 1-.4.2-1 .3-1.5.3-.6 0-1 0-1.5-.3-.4-.2-.8-.4-1-.8-.2-.4-.4-.8-.4-1.4h1.5l.1.7.6.5.7.1c.3 0 .6 0 .8-.2.2-.1.4-.3.5-.6l.1-.9v-6.8Zm5 9.8a3 3 0 0 1-1.2-.3 2 2 0 0 1-.9-.7l-.3-1.2c0-.4 0-.8.2-1 .2-.3.4-.5.7-.6l.8-.4 1-.2a1818 1818 0 0 0 1.7-.3s.2-.1.2-.3c0-.5-.2-.8-.4-1-.2-.2-.6-.3-1-.3-.5 0-.8 0-1.1.3-.3.2-.5.4-.6.7l-1.3-.3a2.5 2.5 0 0 1 1.7-1.7 4 4 0 0 1 2.2 0l.9.3c.3.2.5.4.7.8.2.3.3.7.3 1.2v4.8h-1.4v-1l-.5.6-.7.4-1 .2Zm.3-1.2c.4 0 .7 0 1-.2a1.6 1.6 0 0 0 .9-1.4v-1l-.3.2-.5.1a55 55 0 0 1-1.7.3l-.5.4c-.2.1-.2.3-.2.6s0 .6.3.8c.3.2.6.2 1 .2Zm7.6 1.1c-.7 0-1.3-.1-1.8-.4-.5-.3-.9-.8-1.1-1.3-.3-.6-.4-1.2-.4-2 0-.7.1-1.3.4-1.9.3-.5.6-1 1.1-1.3.5-.3 1.1-.5 1.8-.5l1.5.3c.4.2.7.5 1 .9l.5 1.2h-1.4c0-.3-.3-.6-.5-.8-.3-.3-.6-.4-1-.4-.5 0-.8.1-1.1.3a2 2 0 0 0-.7.9l-.2 1.3c0 .5 0 1 .2 1.4l.7.9c.3.2.6.3 1 .3.3 0 .5 0 .7-.2.3 0 .4-.2.6-.4l.3-.7h1.4c-.1.5-.2 1-.5 1.3l-1 .8c-.4.2-1 .3-1.5.3Zm7 0c-.7 0-1.3-.1-1.8-.4-.5-.3-1-.8-1.2-1.3-.3-.6-.4-1.2-.4-2 0-.7.1-1.3.4-1.9a3.1 3.1 0 0 1 3-1.8c.6 0 1.2.2 1.7.5s.9.7 1.2 1.3c.2.6.4 1.2.4 2 0 .7-.2 1.3-.4 1.9a3.1 3.1 0 0 1-3 1.7Zm0-1.1c.4 0 .7-.1 1-.4.3-.2.5-.5.7-.9l.2-1.3-.2-1.2a2 2 0 0 0-.7-1c-.3-.2-.6-.3-1-.3-.5 0-.9.1-1.1.4a2 2 0 0 0-.7.9l-.2 1.2c0 .5 0 1 .2 1.3l.7 1c.2.2.6.3 1 .3Zm4.4 1v-9.6h1.4v3.6h.1c0-.2.2-.3.4-.5.1-.2.3-.4.6-.5.3-.2.6-.3 1-.3a2.8 2.8 0 0 1 2.7 1.7c.2.6.4 1.3.4 2 0 .8-.2 1.5-.4 2a2.8 2.8 0 0 1-2.6 1.7c-.5 0-.8 0-1-.2a2 2 0 0 1-.7-.5 4 4 0 0 1-.4-.5h-.1v1.1H632Zm1.4-3.6c0 .5 0 1 .2 1.3l.6 1 1 .3c.5 0 .8-.2 1.1-.4.3-.2.5-.5.6-.9.2-.4.3-.8.3-1.3L637 78a2 2 0 0 0-.7-.8c-.3-.3-.6-.4-1-.4s-.8.1-1 .3a2 2 0 0 0-.7 1l-.2 1.2Zm13-6h1.4V80c0 .6 0 1.2-.3 1.6-.3.4-.6.8-1 1-.5.2-1 .3-1.6.3-.5 0-1 0-1.4-.3-.5-.2-.8-.4-1-.8-.3-.4-.4-.8-.4-1.4h1.4c0 .3 0 .5.2.7l.5.5.8.1c.3 0 .5 0 .7-.2.3-.1.4-.3.5-.6l.2-.9v-6.8Zm6 9.7c-.8 0-1.3-.1-1.8-.4-.5-.3-1-.8-1.2-1.3-.3-.6-.4-1.2-.4-2 0-.7.1-1.3.4-1.9a3.1 3.1 0 0 1 3-1.8c.6 0 1.2.2 1.7.5s.9.7 1.1 1.3c.3.6.5 1.2.5 2 0 .7-.2 1.3-.5 1.9a3.1 3.1 0 0 1-2.9 1.7Zm0-1.1c.4 0 .7-.1 1-.4.3-.2.5-.5.6-.9.2-.4.2-.8.2-1.3 0-.4 0-.8-.2-1.2a2 2 0 0 0-.6-1c-.3-.2-.6-.3-1-.3-.5 0-.9.1-1.2.4a2 2 0 0 0-.6.9l-.2 1.2c0 .5 0 1 .2 1.3.1.4.3.7.6 1 .3.2.7.3 1.1.3Zm5.7-3.3v4.3h-1.4v-7.2h1.3v1.2h.1c.2-.4.4-.7.8-1 .3-.1.8-.3 1.3-.3s1 .1 1.3.3c.4.3.7.6.9 1 .2.4.3.9.3 1.4v4.6h-1.4v-4.4c0-.5-.2-1-.4-1.2-.3-.3-.7-.5-1.1-.5-.4 0-.7.1-1 .3-.2.1-.4.3-.5.6a2 2 0 0 0-.2 1Zm9 4.4c-.7 0-1.3-.1-1.8-.4a3 3 0 0 1-1.2-1.3c-.3-.5-.4-1.2-.4-2 0-.7.1-1.3.4-1.9a3.2 3.2 0 0 1 2.9-1.8l1.2.2a2.8 2.8 0 0 1 1.7 1.8c.2.4.3 1 .3 1.6v.5h-5.7v-1h4.3c0-.4 0-.7-.2-1a1.7 1.7 0 0 0-1.6-1c-.4 0-.7.2-1 .4a2 2 0 0 0-.7.7l-.2 1v.8c0 .5 0 1 .2 1.3.2.3.5.6.8.7.3.2.6.3 1 .3l.7-.1c.3-.1.5-.2.6-.4l.4-.5 1.3.2c-.1.4-.3.7-.6 1-.2.3-.6.5-1 .7-.4.2-.9.2-1.4.2Zm9.5-5.5-1.3.2-.2-.5-.5-.3-.7-.2c-.4 0-.7.1-1 .3-.3.2-.4.4-.4.7 0 .2 0 .4.3.6l.8.3 1.2.3a3 3 0 0 1 1.4.7c.4.3.5.7.5 1.2s-.1.8-.4 1.2c-.2.3-.5.6-1 .8-.4.2-1 .2-1.5.2-.8 0-1.5-.1-2-.5-.5-.3-.8-.8-1-1.4l1.4-.2c.1.3.3.6.6.8l1 .2c.4 0 .8 0 1-.3.4-.2.5-.4.5-.7 0-.2 0-.4-.3-.5-.1-.2-.4-.3-.7-.4l-1.2-.2a3 3 0 0 1-1.5-.8 1.8 1.8 0 0 1-.1-2.4c.2-.3.5-.5 1-.7.4-.2.8-.3 1.4-.3a3 3 0 0 1 1.8.5c.4.4.7.8.9 1.4Z"/><path stroke="#fff" stroke-width="1.1" d="M682.3 63.9h-83.7c-4 0-7.1 3.2-7.1 7v13.7c0 4 3.2 7.1 7 7.1h83.8c4 0 7.2-3.2 7.2-7V71c0-4-3.2-7.1-7.2-7.1Z"/></g><g filter="url(#u)"><path fill="#191919" d="m187.8 145.6 2.7-14.2-12 7.1 6 1.6 3.3 5.5Z"/><path stroke="#fff" stroke-width="1.1" d="m190.2 131 1-.7-.2 1.2-2.7 14.2-.3 1.4-.7-1.2-3.2-5.3-5.8-1.6-1.3-.3 1.2-.7 12-7Z"/></g><g filter="url(#v)"><path fill="#191919" d="M171.9 143.4H78c-3.6 0-6.6 3-6.6 6.6v13.6c0 3.7 3 6.6 6.6 6.6H172c3.6 0 6.5-3 6.5-6.6V150c0-3.6-2.9-6.6-6.5-6.6Z"/><path fill="#fff" d="M86.6 161.8h-3v-9.5h3.1c1 0 1.8.1 2.4.5.7.4 1.2 1 1.6 1.7.4.7.5 1.5.5 2.5s-.1 1.9-.5 2.6c-.4.7-.9 1.3-1.6 1.6a5 5 0 0 1-2.5.6Zm-1.6-1.2h1.6c.7 0 1.3-.2 1.8-.5.5-.2.8-.6 1-1.2.3-.5.4-1.1.4-1.9 0-.7-.1-1.4-.3-1.9-.3-.5-.6-1-1.1-1.2-.5-.2-1-.4-1.8-.4H85v7Zm7.4 1.2v-7.2h1.4v7.2h-1.4Zm.7-8.3c-.2 0-.5 0-.6-.2a.8.8 0 0 1-.3-.6l.3-.6.6-.2c.2 0 .4 0 .6.2l.3.6-.3.6c-.2.2-.4.2-.6.2Zm4.1 8.5a3 3 0 0 1-1.2-.3 2 2 0 0 1-.9-.7c-.2-.3-.3-.7-.3-1.2 0-.4 0-.7.2-1 .2-.3.4-.5.7-.6l.8-.4 1-.2h1l.7-.2.2-.4c0-.4-.2-.8-.4-1-.2-.2-.6-.3-1-.3-.5 0-.8 0-1.1.3-.3.2-.5.4-.6.7l-1.3-.3a2.5 2.5 0 0 1 1.7-1.7 4 4 0 0 1 2.2 0l.9.3.7.8c.2.3.3.7.3 1.3v4.7h-1.4v-1l-.5.6-.7.4-1 .2Zm.3-1.1c.4 0 .7-.1 1-.3a1.6 1.6 0 0 0 .9-1.4v-.9l-.3.1a4.6 4.6 0 0 1-1 .2h-.5l-.7.3c-.2 0-.4.2-.5.3-.2.2-.2.4-.2.6 0 .4 0 .6.3.8.3.2.6.3 1 .3Zm6-3.3v4.2H102v-7.2h1.3v1.2h.1c.2-.4.4-.7.8-.9.4-.2.8-.3 1.3-.3s1 0 1.3.3c.4.2.7.5.9.9.2.4.3.9.3 1.5v4.5h-1.4v-4.4c0-.5-.2-.9-.4-1.2-.3-.3-.7-.4-1.1-.4-.4 0-.7 0-.9.2-.3.1-.5.3-.6.6a2 2 0 0 0-.2 1Zm7.3 0v4.2h-1.4v-7.2h1.4v1.2c.2-.4.5-.7.8-.9.4-.2.8-.3 1.4-.3.5 0 .9 0 1.3.3.3.2.6.5.8.9.2.4.3.9.3 1.5v4.5H114v-4.4c0-.5-.1-.9-.4-1.2-.3-.3-.6-.4-1.1-.4-.3 0-.6 0-.9.2l-.6.6a2 2 0 0 0-.2 1Zm9 4.4c-.7 0-1.3-.2-1.8-.5a3 3 0 0 1-1.2-1.3c-.2-.5-.4-1.2-.4-2 0-.7.2-1.3.4-1.9a3.2 3.2 0 0 1 2.9-1.8c.5 0 .8.1 1.2.3a2.8 2.8 0 0 1 1.8 1.7l.2 1.7v.5h-5.7v-1h4.4c0-.5-.1-.8-.3-1a1.7 1.7 0 0 0-1.5-1c-.4 0-.8.1-1 .3a2 2 0 0 0-.7.7c-.2.3-.3.7-.3 1v.9l.3 1.2c.1.3.4.6.7.7.3.2.7.3 1 .3l.8-.1c.2 0 .4-.2.5-.3l.4-.6 1.3.2c0 .4-.3.8-.5 1-.3.3-.6.6-1 .7l-1.5.3Zm7.2-.2v-9.5h3.4a4 4 0 0 1 1.9.3c.4.3.8.6 1 1.1.3.4.4 1 .4 1.6l-.3 1.5c-.3.4-.7.8-1.1 1-.5.3-1.2.4-1.9.4h-2.6V157h2.5l1.1-.2.7-.6.2-1-.2-.9c-.2-.2-.4-.5-.7-.6l-1.1-.2h-1.9v8.3H127Zm4.7-4.3 2.4 4.3h-1.7l-2.3-4.3h1.6Zm7.7 1.3v-4.2h1.4v7.2h-1.4v-1.2c-.2.4-.5.7-.9 1-.3.2-.8.3-1.3.3s-.9 0-1.2-.3c-.4-.2-.7-.5-.9-.9-.2-.4-.3-.9-.3-1.5v-4.6h1.4v4.4c0 .5.2 1 .4 1.2.3.3.7.4 1.1.4a1.7 1.7 0 0 0 1.7-1.8Zm8.1-2.4-1.3.2-.2-.4-.5-.4-.7-.1c-.4 0-.7 0-1 .2-.2.2-.4.4-.4.7l.3.6.8.3 1.2.3a3 3 0 0 1 1.5.7c.3.3.4.7.4 1.2s0 .9-.3 1.2l-1 .8c-.5.2-1 .3-1.6.3-.8 0-1.4-.2-2-.6-.5-.3-.8-.8-.9-1.4l1.4-.2c0 .3.2.6.5.8l1 .2c.5 0 .8 0 1.1-.2.3-.2.4-.5.4-.8 0-.2 0-.4-.2-.5l-.8-.4-1.2-.2a3 3 0 0 1-1.5-.8 1.8 1.8 0 0 1-.1-2.4c.2-.3.5-.5 1-.7.4-.2.9-.2 1.4-.2a3 3 0 0 1 1.8.5c.5.3.8.7 1 1.3Zm6.5 0-1.2.2-.3-.4-.4-.4-.8-.1c-.4 0-.7 0-1 .2-.2.2-.4.4-.4.7l.3.6.9.3 1.1.3a3 3 0 0 1 1.5.7c.3.3.5.7.5 1.2s-.2.9-.4 1.2l-1 .8c-.5.2-1 .3-1.6.3-.8 0-1.4-.2-2-.6-.4-.3-.7-.8-.9-1.4l1.4-.2c0 .3.2.6.5.8l1 .2c.5 0 .8 0 1.1-.2.3-.2.4-.5.4-.8 0-.2 0-.4-.2-.5l-.8-.4-1.2-.2a3 3 0 0 1-1.5-.8 1.8 1.8 0 0 1-.1-2.4c.2-.3.6-.5 1-.7.4-.2.9-.2 1.4-.2a3 3 0 0 1 1.8.5c.5.3.8.7 1 1.3Zm4.3 5.6c-.7 0-1.4-.2-1.9-.5a3 3 0 0 1-1.1-1.3c-.3-.5-.4-1.2-.4-2 0-.7 0-1.3.4-1.9.2-.5.6-1 1.1-1.3.5-.3 1.1-.4 1.8-.4.4 0 .8 0 1.1.2a2.8 2.8 0 0 1 1.8 1.7c.2.5.2 1 .2 1.7v.5h-5.7v-1h4.4c0-.5-.1-.8-.3-1a1.7 1.7 0 0 0-1.5-1c-.4 0-.8.1-1 .3a2 2 0 0 0-.7.7c-.2.3-.3.7-.3 1v.9l.3 1.2c.2.3.4.6.7.7.3.2.7.3 1 .3l.8-.1.6-.3.3-.6 1.4.2c-.2.4-.3.8-.6 1-.3.3-.6.6-1 .7-.4.2-1 .3-1.4.3Zm5.5-9.7v9.5h-1.4v-9.5h1.4Zm2.7 0v9.5h-1.4v-9.5h1.4Z"/><path stroke="#fff" stroke-width="1.1" d="M171.9 142.9H78c-4 0-7.1 3.2-7.1 7.1v13.6c0 4 3.2 7.1 7.1 7.1H172c3.9 0 7-3.1 7-7V150c0-4-3.1-7.1-7-7.1Z"/></g></g><defs><filter id="m" width="298.3" height="250" x="203.8" y="26.6" color-interpolation-filters="sRGB" filterUnits="userSpaceOnUse"><feFlood flood-opacity="0" result="BackgroundImageFix"/><feColorMatrix in="SourceAlpha" result="hardAlpha" values="0 0 0 0 0 0 0 0 0 0 0 0 0 0 0 0 0 0 127 0"/><feOffset dy="23.9"/><feGaussianBlur stdDeviation="24.9"/><feComposite in2="hardAlpha" operator="out"/><feColorMatrix values="0 0 0 0 0.132056 0 0 0 0 0.0694444 0 0 0 0 0.133333 0 0 0 0.05 0"/><feBlend in2="BackgroundImageFix" result="effect1_dropShadow_320_13733"/><feBlend in="SourceGraphic" in2="effect1_dropShadow_320_13733" result="shape"/></filter><filter id="s" width="33.9" height="37" x="569.7" y="45.8" color-interpolation-filters="sRGB" filterUnits="userSpaceOnUse"><feFlood flood-opacity="0" result="BackgroundImageFix"/><feColorMatrix in="SourceAlpha" result="hardAlpha" values="0 0 0 0 0 0 0 0 0 0 0 0 0 0 0 0 0 0 127 0"/><feOffset dy="4.4"/><feGaussianBlur stdDeviation="4.4"/><feComposite in2="hardAlpha" operator="out"/><feColorMatrix values="0 0 0 0 0 0 0 0 0 0 0 0 0 0 0 0 0 0 0.25 0"/><feBlend in2="BackgroundImageFix" result="effect1_dropShadow_320_13733"/><feBlend in="SourceGraphic" in2="effect1_dropShadow_320_13733" result="shape"/></filter><filter id="t" width="116.6" height="46.5" x="582.2" y="58.9" color-interpolation-filters="sRGB" filterUnits="userSpaceOnUse"><feFlood flood-opacity="0" result="BackgroundImageFix"/><feColorMatrix in="SourceAlpha" result="hardAlpha" values="0 0 0 0 0 0 0 0 0 0 0 0 0 0 0 0 0 0 127 0"/><feOffset dy="4.4"/><feGaussianBlur stdDeviation="4.4"/><feComposite in2="hardAlpha" operator="out"/><feColorMatrix values="0 0 0 0 0 0 0 0 0 0 0 0 0 0 0 0 0 0 0.25 0"/><feBlend in2="BackgroundImageFix" result="effect1_dropShadow_320_13733"/><feBlend in="SourceGraphic" in2="effect1_dropShadow_320_13733" result="shape"/></filter><filter id="u" width="33.9" height="37" x="166.9" y="124.8" color-interpolation-filters="sRGB" filterUnits="userSpaceOnUse"><feFlood flood-opacity="0" result="BackgroundImageFix"/><feColorMatrix in="SourceAlpha" result="hardAlpha" values="0 0 0 0 0 0 0 0 0 0 0 0 0 0 0 0 0 0 127 0"/><feOffset dy="4.4"/><feGaussianBlur stdDeviation="4.4"/><feComposite in2="hardAlpha" operator="out"/><feColorMatrix values="0 0 0 0 0 0 0 0 0 0 0 0 0 0 0 0 0 0 0.25 0"/><feBlend in2="BackgroundImageFix" result="effect1_dropShadow_320_13733"/><feBlend in="SourceGraphic" in2="effect1_dropShadow_320_13733" result="shape"/></filter><filter id="v" width="126.6" height="46.5" x="61.7" y="138" color-interpolation-filters="sRGB" filterUnits="userSpaceOnUse"><feFlood flood-opacity="0" result="BackgroundImageFix"/><feColorMatrix in="SourceAlpha" result="hardAlpha" values="0 0 0 0 0 0 0 0 0 0 0 0 0 0 0 0 0 0 127 0"/><feOffset dy="4.4"/><feGaussianBlur stdDeviation="4.4"/><feComposite in2="hardAlpha" operator="out"/><feColorMatrix values="0 0 0 0 0 0 0 0 0 0 0 0 0 0 0 0 0 0 0.25 0"/><feBlend in2="BackgroundImageFix" result="effect1_dropShadow_320_13733"/><feBlend in="SourceGraphic" in2="effect1_dropShadow_320_13733" result="shape"/></filter><linearGradient id="c" x1="39.4" x2="29.7" y1="41.6" y2="60.1" gradientUnits="userSpaceOnUse"><stop stop-color="#00FFA3"/><stop offset="1" stop-color="#DC1FFF"/></linearGradient><linearGradient id="d" x1="35.2" x2="25.5" y1="39.4" y2="57.9" gradientUnits="userSpaceOnUse"><stop stop-color="#00FFA3"/><stop offset="1" stop-color="#DC1FFF"/></linearGradient><linearGradient id="e" x1="37.3" x2="27.6" y1="40.5" y2="59" gradientUnits="userSpaceOnUse"><stop stop-color="#00FFA3"/><stop offset="1" stop-color="#DC1FFF"/></linearGradient><clipPath id="a"><path fill="#fff" d="M0 0h703v280H0z"/></clipPath></defs></svg>