<svg xmlns="http://www.w3.org/2000/svg" fill="none" viewBox="0 0 1886 752">
  <path stroke="silver" stroke-width="1.1" d="M524.5 59.8c92.5 0 47 316.2 138 316.2m656.9 303c-70.6 0-11.8-482.4-89.7-482.4"/>
  <path stroke="#4A23EB" stroke-width="1.1" d="M1319.4 499.6c-70.6 0-25-303-89.7-303"/>
  <path fill="#fff" d="M491.2 2.4H31.8C23 2.4 16 9.4 16 18v231.4c0 8.7 7 15.7 15.7 15.7h459.4c8.6 0 15.6-7 15.6-15.7V18.1c0-8.7-7-15.7-15.6-15.7Z"/>
  <path fill="#1F2327" d="M64 47.2c0-1-.6-2-1.4-2.6a6 6 0 0 0-3.4-.9c-1 0-1.8.2-2.5.5s-1.3.7-1.6 1.2a3 3 0 0 0-.2 3.1c.2.4.6.7 1 1l1.4.7 1.6.5 2.4.6c1 .2 2 .5 2.8.9 1 .4 1.8.9 2.5 1.5s1.3 1.3 1.7 2.1c.4.8.6 1.8.6 3a7 7 0 0 1-4.5 6.6c-1.5.7-3.2 1-5.3 1-2 0-3.8-.3-5.2-1a7.8 7.8 0 0 1-3.5-2.7 8.1 8.1 0 0 1-1.3-4.3h4.6a4 4 0 0 0 2.7 3.5c.8.3 1.7.5 2.7.5 1 0 1.9-.2 2.6-.5.8-.3 1.4-.7 1.9-1.3.4-.5.6-1.2.6-2 0-.6-.2-1.1-.6-1.6-.3-.4-.9-.8-1.6-1-.7-.4-1.5-.7-2.4-.9l-3-.8c-2-.5-3.8-1.3-5-2.4a5.8 5.8 0 0 1-1.9-4.5c0-1.5.5-2.9 1.3-4 .8-1.2 2-2 3.4-2.7a12 12 0 0 1 9.7 0 7 7 0 0 1 3.2 2.7 6.8 6.8 0 0 1 1.3 3.8H64Zm17.4 19.2c-2 0-3.6-.4-5-1.3-1.4-.8-2.4-2-3.2-3.5-.8-1.5-1.1-3.2-1.1-5.2s.3-3.8 1.1-5.3a8.5 8.5 0 0 1 3.2-3.5c1.4-.9 3-1.3 5-1.3a8.8 8.8 0 0 1 8.1 4.8c.8 1.5 1.2 3.3 1.2 5.3s-.4 3.7-1.2 5.2a8.4 8.4 0 0 1-3.2 3.5c-1.4.9-3 1.3-5 1.3Zm0-3.7A4 4 0 0 0 84 62c.7-.6 1.2-1.4 1.5-2.3a10.7 10.7 0 0 0 0-6.5c-.3-1-.8-1.7-1.5-2.3-.7-.6-1.6-.8-2.6-.8s-2 .2-2.6.8c-.7.6-1.3 1.4-1.6 2.3a10.9 10.9 0 0 0 0 6.5c.3 1 .9 1.7 1.6 2.3a4 4 0 0 0 2.6.8Zm25.5-4.9V46.6h4.6V66H107v-3.4h-.2c-.4 1-1.1 2-2.1 2.6-1 .7-2.2 1-3.7 1-1.3 0-2.4-.2-3.4-.8-1-.6-1.7-1.4-2.2-2.5a8.8 8.8 0 0 1-.9-4V46.6h4.6v11.6c0 1.3.3 2.2 1 3 .7.7 1.6 1 2.7 1a4.2 4.2 0 0 0 3.5-1.9c.4-.7.6-1.5.6-2.5Zm9.3 8.2V46.6h4.4v3.2h.2a4.8 4.8 0 0 1 4.8-3.5 10.5 10.5 0 0 1 1.6.1v4.2l-.9-.1-1.2-.1a5 5 0 0 0-2.2.5 4 4 0 0 0-2.1 3.7V66h-4.6Zm21.7.4c-1.9 0-3.6-.4-5-1.3-1.3-.8-2.4-2-3.1-3.5a11 11 0 0 1-1.1-5.2c0-2 .3-3.7 1-5.3a8.5 8.5 0 0 1 3.3-3.5c1.4-.8 3-1.3 5-1.3 1.5 0 2.9.3 4.1.9a7.1 7.1 0 0 1 4.2 6.1h-4.4c-.2-1-.6-1.7-1.3-2.3-.6-.7-1.5-1-2.6-1-1 0-1.8.3-2.5.8s-1.2 1.2-1.6 2.1c-.4 1-.6 2-.6 3.4a9 9 0 0 0 .6 3.4 5 5 0 0 0 1.6 2.2c.7.5 1.5.8 2.5.8.7 0 1.3-.2 1.8-.4a4.3 4.3 0 0 0 2.1-3h4.4a7.2 7.2 0 0 1-4 6.1 9 9 0 0 1-4.4 1Zm20.7 0c-2 0-3.6-.4-5-1.2-1.4-.8-2.5-2-3.3-3.5-.7-1.5-1.1-3.3-1.1-5.3s.4-3.7 1.1-5.3a8.6 8.6 0 0 1 8-4.8c1.3 0 2.4.2 3.5.6a8.3 8.3 0 0 1 4.8 4.8c.4 1.3.6 2.7.6 4.4v1.4h-15.9v-3H163a5 5 0 0 0-.6-2.4 4.4 4.4 0 0 0-3.9-2.2 4 4 0 0 0-2.4.7c-.7.4-1.3 1-1.7 1.7-.4.8-.6 1.6-.6 2.4v2.7a7 7 0 0 0 .6 3c.4.7 1 1.4 1.8 1.8.7.4 1.6.6 2.6.6.6 0 1.2 0 1.8-.3a4 4 0 0 0 1.4-.8c.4-.4.7-.8.9-1.4l4.2.5a6.7 6.7 0 0 1-1.5 3c-.7.8-1.7 1.4-2.9 1.9a11 11 0 0 1-4 .7Z"/>
  <path stroke="#6E767D" stroke-linecap="round" stroke-linejoin="round" d="M451.3 48.1c.7.8.7 2 0 2.7-1.9 2.6-6.6 7.8-12 7.8-5.5 0-10.2-5.2-12.1-7.8a2.2 2.2 0 0 1 0-2.7c2-2.5 6.6-7.8 12-7.8 5.5 0 10.2 5.3 12.1 7.8Z"/>
  <path stroke="#6E767D" stroke-linecap="round" stroke-linejoin="round" d="M439.3 53.4a4 4 0 1 0 0-7.9 4 4 0 0 0 0 7.9Z"/>
  <path fill="#fff" d="M462.2 101.6H60.8c-6.8 0-12.2 5.4-12.2 12.2v105.8c0 6.7 5.4 12.2 12.2 12.2h401.4c6.7 0 12.2-5.5 12.2-12.2V113.8c0-6.8-5.5-12.2-12.2-12.2Z"/>
  <mask id="a" width="48" height="38" x="63" y="116" maskUnits="userSpaceOnUse" style="mask-type:luminance">
    <path fill="#fff" d="M110.1 116.1h-47v37h47v-37Z"/>
  </mask>
  <g mask="url(#a)">
    <path fill="url(#b)" d="M70.8 144.3c.2-.3.6-.4 1-.4h37.6c.6 0 1 .8.5 1.3l-7.4 7.4c-.3.3-.7.4-1 .4H63.8c-.7 0-1-.8-.6-1.3l7.5-7.4Z"/>
    <path fill="url(#c)" d="M70.8 116.6c.2-.3.6-.5 1-.5h37.6c.6 0 1 .9.5 1.4l-7.4 7.4c-.3.3-.7.4-1 .4H63.8c-.7 0-1-.8-.6-1.3l7.5-7.4Z"/>
    <path fill="url(#d)" d="M102.5 130.4c-.3-.3-.7-.5-1-.5H63.8c-.7 0-1 .8-.6 1.3l7.5 7.4c.2.3.6.5 1 .5h37.6c.6 0 1-.8.5-1.3l-7.4-7.4Z"/>
  </g>
  <path fill="#1F2327" d="M133.4 148.4v-22.7h2.8V146h10.5v2.5h-13.3Zm22.2.4c-1 0-2-.2-3-.6a5 5 0 0 1-2-1.8 5 5 0 0 1-.8-2.9 4 4 0 0 1 2.1-3.8 8 8 0 0 1 2.1-.7 25.7 25.7 0 0 1 4.9-.8c.7 0 1.1-.1 1.4-.3.3-.2.5-.5.5-.9 0-1.2-.3-2-1-2.6-.5-.6-1.4-1-2.6-1a4.8 4.8 0 0 0-4.4 2.6l-2.5-.9a6 6 0 0 1 1.8-2.4c.7-.6 1.5-1 2.4-1.2a10 10 0 0 1 4.5-.1 6 6 0 0 1 2 .7c.7.4 1.3 1 1.7 1.8.5.8.7 2 .7 3.3v11.2h-2.6V146h-.2l-.8 1.2a5 5 0 0 1-1.7 1c-.7.3-1.5.5-2.5.5Zm.4-2.4c1 0 1.9-.2 2.6-.6a4.1 4.1 0 0 0 2.2-3.6v-2.4c-.1.2-.4.3-.8.4a12.6 12.6 0 0 1-2.6.5 73 73 0 0 0-3 .5c-.6.2-1 .5-1.5 1-.3.3-.5.8-.5 1.5 0 .9.3 1.6 1 2 .7.5 1.6.7 2.6.7Zm18.6 2.3a6.6 6.6 0 0 1-6.3-4.1 11 11 0 0 1-1-4.7c0-1.8.3-3.3 1-4.6a6.7 6.7 0 0 1 6.3-4.1c1.1 0 2 .1 2.6.5.7.4 1.2.8 1.5 1.2l.8 1.2h.2v-8.4h2.6v22.7h-2.5v-2.6h-.3l-.8 1.1c-.4.5-.9 1-1.5 1.3-.7.3-1.6.5-2.6.5Zm.3-2.3c1 0 2-.3 2.7-.8.7-.6 1.2-1.4 1.6-2.3a9 9 0 0 0 .6-3.4 9 9 0 0 0-.6-3.4c-.4-1-.9-1.7-1.6-2.2-.7-.5-1.6-.8-2.7-.8s-2 .3-2.8.9a5 5 0 0 0-1.6 2.2c-.4 1-.5 2-.5 3.3 0 1.2.1 2.3.5 3.3s1 1.7 1.7 2.3a4 4 0 0 0 2.7.9Zm19 2.3a6.6 6.6 0 0 1-6.3-4.1 11 11 0 0 1-1-4.7c0-1.8.4-3.3 1-4.6a6.7 6.7 0 0 1 6.3-4.1c1.1 0 2 .1 2.6.5.7.4 1.2.8 1.5 1.2l.8 1.2h.3v-8.4h2.6v22.7H199v-2.6h-.3l-.8 1.1c-.3.5-.8 1-1.5 1.3-.7.3-1.5.5-2.6.5Zm.3-2.3c1 0 2-.3 2.7-.8.7-.6 1.3-1.4 1.6-2.3a9 9 0 0 0 .6-3.4 9 9 0 0 0-.6-3.4 4.4 4.4 0 0 0-4.3-3c-1 0-2 .3-2.7.9-.8.5-1.3 1.3-1.7 2.2a10.9 10.9 0 0 0 0 6.6c.4 1 1 1.7 1.7 2.3a4 4 0 0 0 2.7.9Zm19.7 2.3a7.3 7.3 0 0 1-7-4.1c-.6-1.3-.9-2.9-.9-4.6 0-1.7.3-3.3 1-4.6a7.2 7.2 0 0 1 6.7-4.2 8 8 0 0 1 2.6.4 6.5 6.5 0 0 1 4 4c.4 1.1.7 2.5.7 4v1.2h-13.1v-2.3h10.4c0-1-.2-1.8-.6-2.6a4.3 4.3 0 0 0-4-2.4c-1 0-2 .3-2.7.8a5 5 0 0 0-1.8 2c-.4.8-.6 1.7-.6 2.6v1.5c0 1.3.2 2.4.7 3.3.4.9 1 1.5 1.8 2s1.8.7 2.8.7c.7 0 1.3-.1 1.9-.3a4 4 0 0 0 1.4-.9 4 4 0 0 0 1-1.5l2.5.7c-.3.9-.7 1.6-1.3 2.3a7.6 7.6 0 0 1-5.4 2Zm11-.3v-17h2.5v2.5h.2a4 4 0 0 1 1.7-2 5 5 0 0 1 2.7-.8 30.9 30.9 0 0 1 1.4 0v2.7a7.8 7.8 0 0 0-1.6-.2c-.8 0-1.5.2-2.2.6a3.8 3.8 0 0 0-2 3.5v10.7h-2.7Zm30.2-15.6h-2.8a5.7 5.7 0 0 0-2.3-3.6c-.5-.4-1.2-.7-1.9-1a7.6 7.6 0 0 0-5.9.8c-1 .7-2 1.7-2.6 3-.7 1.4-1 3-1 5s.3 3.7 1 5a7.2 7.2 0 0 0 2.6 3c1.2.8 2.4 1.1 3.8 1.1.7 0 1.4 0 2.1-.3.7-.2 1.4-.5 2-1a5.8 5.8 0 0 0 2.2-3.5h2.8a8.5 8.5 0 0 1-5.9 6.9 10.2 10.2 0 0 1-8.4-1 9.7 9.7 0 0 1-3.5-4c-.9-1.7-1.3-3.8-1.3-6.2 0-2.3.4-4.4 1.3-6.2.8-1.7 2-3 3.5-4s3.2-1.4 5.2-1.4c1.1 0 2.2.2 3.2.5a8.8 8.8 0 0 1 4.7 3.8c.6.9 1 2 1.2 3Zm9 16c-1 0-2-.2-2.9-.6a5 5 0 0 1-2-1.8 5 5 0 0 1-.8-2.9c0-1 .1-1.7.5-2.3.4-.6 1-1.1 1.6-1.5a8 8 0 0 1 2-.7 25.8 25.8 0 0 1 5-.8c.6 0 1-.1 1.4-.3.3-.2.4-.5.4-.9 0-1.2-.3-2-.9-2.6-.6-.6-1.5-1-2.7-1-1.2 0-2.2.3-2.9.9-.7.5-1.2 1.1-1.5 1.7l-2.5-.9a6 6 0 0 1 1.8-2.4c.8-.6 1.6-1 2.4-1.2a10 10 0 0 1 4.5-.1 6 6 0 0 1 2 .7c.8.4 1.3 1 1.8 1.8.4.8.6 2 .6 3.3v11.2h-2.6V146h-.1l-.9 1.2c-.4.4-1 .7-1.6 1-.7.3-1.6.5-2.6.5Zm.4-2.4c1 0 2-.2 2.7-.6a4.1 4.1 0 0 0 2.1-3.6v-2.4c0 .2-.3.3-.7.4a12.5 12.5 0 0 1-2.7.5 74.6 74.6 0 0 0-3 .5c-.6.2-1 .5-1.4 1-.4.3-.5.8-.5 1.5 0 .9.3 1.6 1 2 .6.5 1.5.7 2.5.7Zm24.2-11.2-2.3.6-.7-1c-.3-.5-.6-.8-1.1-1-.5-.3-1.1-.4-1.9-.4-1 0-1.9.3-2.6.7-.7.5-1 1.1-1 1.8s.2 1.2.7 1.6c.5.3 1.2.7 2.2 1l2.5.5a7 7 0 0 1 3.4 1.7 4 4 0 0 1 1.1 3c0 1-.3 1.8-.8 2.5-.6.8-1.3 1.4-2.3 1.9-1 .4-2.2.6-3.5.6-1.7 0-3.2-.3-4.3-1.1a5 5 0 0 1-2.2-3.3l2.5-.6a3 3 0 0 0 1.4 2c.6.5 1.5.7 2.5.7 1.3 0 2.2-.2 3-.7.7-.6 1-1.2 1-2 0-.5-.2-1-.6-1.4a4 4 0 0 0-1.9-1l-2.8-.6c-1.6-.4-2.7-1-3.4-1.7a4 4 0 0 1-1.1-3c0-.9.2-1.7.8-2.5.5-.7 1.3-1.3 2.2-1.7 1-.4 2-.6 3.2-.6 1.7 0 3 .3 4 1a6 6 0 0 1 2 3Zm11.6-3.8v2.2h-8.8v-2.2h8.8Zm-6.2-4h2.6v16.1c0 .7.1 1.3.3 1.7.3.3.5.6.9.7l1 .2h.8l.4-.2.5 2.4a5.3 5.3 0 0 1-1.9.3c-.7 0-1.5-.2-2.2-.5a4 4 0 0 1-1.7-1.4 4 4 0 0 1-.7-2.5v-16.9Zm17 21.3a8 8 0 0 1-4.1-1 8.4 8.4 0 0 1-2.8-3.1 11.1 11.1 0 0 1 0-9.2 7.2 7.2 0 0 1 6.7-4.2 8 8 0 0 1 2.6.4 6.3 6.3 0 0 1 4.1 4c.4 1.1.6 2.5.6 4v1.2h-13v-2.3h10.4c0-1-.2-1.8-.6-2.6a4.3 4.3 0 0 0-4-2.4c-1.1 0-2 .3-2.8.8a5 5 0 0 0-1.7 2c-.4.8-.6 1.7-.6 2.6v1.5c0 1.3.2 2.4.7 3.3.4.9 1 1.5 1.8 2s1.7.7 2.8.7c.7 0 1.3-.1 1.9-.3a4 4 0 0 0 1.4-.9 4 4 0 0 0 1-1.5l2.5.7c-.3.9-.8 1.6-1.4 2.3-.6.6-1.4 1.1-2.3 1.5a8 8 0 0 1-3.1.5Zm11-.3v-17h2.6v2.5h.2a4 4 0 0 1 1.7-2 5 5 0 0 1 2.7-.8 30.7 30.7 0 0 1 1.4 0v2.7a7.8 7.8 0 0 0-1.6-.2 4 4 0 0 0-2.2.6 3.8 3.8 0 0 0-2 3.5v10.7h-2.7Zm27.8 0h-7v-22.7h7.3c2.2 0 4 .5 5.6 1.4 1.6.9 2.8 2.2 3.6 3.9.8 1.6 1.3 3.7 1.3 6 0 2.4-.5 4.4-1.3 6a9 9 0 0 1-3.7 4c-1.6 1-3.5 1.4-5.8 1.4Zm-4.3-2.5h4a9 9 0 0 0 4.7-1 6.7 6.7 0 0 0 2.8-3.1c.6-1.4.9-3 .9-4.8 0-1.8-.3-3.4-.9-4.7a6.6 6.6 0 0 0-2.7-3 7.6 7.6 0 0 0-4.4-1.2h-4.4V146Zm26.4 2.8a8 8 0 0 1-4.2-1 7.4 7.4 0 0 1-2.7-3.1c-.7-1.3-1-2.9-1-4.6 0-1.7.3-3.3 1-4.6a7.2 7.2 0 0 1 6.7-4.2 8 8 0 0 1 2.6.4 6.5 6.5 0 0 1 4 4c.4 1.1.6 2.5.6 4v1.2h-13v-2.3h10.4c0-1-.2-1.8-.6-2.6a4.3 4.3 0 0 0-4-2.4c-1 0-2 .3-2.7.8a5 5 0 0 0-1.8 2c-.4.8-.6 1.7-.6 2.6v1.5c0 1.3.2 2.4.7 3.3.4.9 1 1.5 1.8 2s1.8.7 2.8.7c.7 0 1.3-.1 1.9-.3a4 4 0 0 0 1.4-.9 4 4 0 0 0 1-1.5l2.5.7c-.3.9-.7 1.6-1.4 2.3-.6.6-1.4 1.1-2.3 1.5-.9.4-2 .5-3 .5Zm11-.3v-17h2.5v2.6h.3c.3-.9.9-1.6 1.7-2 .8-.6 1.7-.8 2.8-.8a5 5 0 0 1 2.8.7 5 5 0 0 1 1.8 2.1h.1a5 5 0 0 1 2-2 6 6 0 0 1 3.1-.8 5 5 0 0 1 3.8 1.4c1 1 1.4 2.4 1.4 4.4v11.4h-2.6V137c0-1.3-.4-2.2-1-2.7-.7-.5-1.5-.8-2.5-.8-1.2 0-2 .4-2.7 1a4 4 0 0 0-1 2.8v11h-2.7v-11.6a3 3 0 0 0-1-2.3c-.5-.6-1.3-.9-2.3-.9a5 5 0 0 0-2 .5c-.5.4-1 1-1.3 1.5-.4.7-.6 1.4-.6 2.3v10.6H383Zm34 .3a7 7 0 0 1-4-1 8.4 8.4 0 0 1-2.8-3.1 11.1 11.1 0 0 1 0-9.3 7.4 7.4 0 0 1 2.7-3 6.9 6.9 0 0 1 4-1.1 7 7 0 0 1 4 1c1.2.8 2.1 1.8 2.8 3.1a11.2 11.2 0 0 1 0 9.3 7.3 7.3 0 0 1-2.7 3 6.9 6.9 0 0 1-4 1.1Zm0-2.3a4 4 0 0 0 2.8-1c.8-.5 1.3-1.3 1.7-2.3a9.1 9.1 0 0 0 0-6.3c-.4-1-1-1.8-1.7-2.4-.7-.6-1.7-.9-2.8-.9-1.2 0-2.2.3-3 1a5 5 0 0 0-1.6 2.3c-.3 1-.5 2-.5 3.2a9 9 0 0 0 .5 3.1c.4 1 1 1.8 1.7 2.4.7.6 1.7.9 2.9.9Z"/>
  <path stroke="#A9A9A9" stroke-width="1.1" d="M77.8 185c0 8.6 7 15.5 15.5 15.5h9.1m0 0-7.7 7.8m7.7-7.8-7.7-7.7"/>
  <path fill="#1F2327" d="M151.7 193.1h-2.8a5.7 5.7 0 0 0-2.3-3.5 5 5 0 0 0-1.9-1 7.5 7.5 0 0 0-5.9.8c-1 .7-2 1.7-2.6 3-.7 1.4-1 3-1 5s.3 3.6 1 5a7.2 7.2 0 0 0 2.6 3 7 7 0 0 0 3.8 1c.7 0 1.4 0 2.1-.2l2-1a5.8 5.8 0 0 0 2.2-3.6h2.8a8.5 8.5 0 0 1-5.9 6.9 10.2 10.2 0 0 1-8.4-.9 9.7 9.7 0 0 1-3.5-4c-1-1.8-1.3-3.8-1.3-6.2 0-2.4.4-4.5 1.3-6.2.8-1.7 2-3 3.5-4s3.2-1.5 5.2-1.5c1 0 2.2.2 3.2.5a8.8 8.8 0 0 1 4.7 3.8c.6 1 1 2 1.2 3.1Zm9 16c-1 0-2-.2-2.9-.6a5 5 0 0 1-2-1.8 5 5 0 0 1-.9-2.8c0-1 .2-1.8.6-2.4.4-.6 1-1 1.6-1.4a8 8 0 0 1 2-.8 26 26 0 0 1 5-.7c.6 0 1-.2 1.4-.4.3-.1.4-.4.4-.9 0-1.1-.3-2-.9-2.6-.6-.6-1.5-.9-2.7-.9a5 5 0 0 0-2.9.8 6 6 0 0 0-1.5 1.8l-2.5-1a6 6 0 0 1 4.2-3.5 10 10 0 0 1 4.5-.2 6 6 0 0 1 2 .8c.8.4 1.3 1 1.8 1.8.4.8.6 1.9.6 3.2v11.2H166v-2.3h-.1c-.2.4-.5.8-1 1.2-.3.4-.9.8-1.6 1-.6.4-1.5.5-2.5.5Zm.4-2.3c1 0 2-.2 2.6-.6a4.1 4.1 0 0 0 2.2-3.6v-2.4l-.7.3a12 12 0 0 1-2.7.5 71.4 71.4 0 0 0-3 .6c-.6.2-1 .5-1.4.9-.4.3-.5.9-.5 1.5 0 1 .3 1.6 1 2a4 4 0 0 0 2.5.8Zm24.2-11.3-2.3.7-.7-1.1-1.1-1c-.5-.2-1.2-.3-2-.3a4 4 0 0 0-2.5.7c-.7.5-1 1-1 1.8 0 .6.2 1.1.7 1.5a6 6 0 0 0 2.2 1l2.5.6a7 7 0 0 1 3.4 1.7 4 4 0 0 1 1.1 2.9c0 1-.3 1.8-.8 2.6-.6.8-1.4 1.4-2.4 1.8-1 .5-2.1.7-3.4.7a7 7 0 0 1-4.3-1.2 5 5 0 0 1-2.2-3.3l2.5-.6a3 3 0 0 0 1.3 2c.7.5 1.6.8 2.6.8 1.3 0 2.2-.3 3-.8.7-.5 1-1.2 1-1.9 0-.6-.2-1-.6-1.5a4 4 0 0 0-2-.9l-2.7-.6c-1.6-.4-2.7-1-3.5-1.8-.7-.7-1-1.7-1-2.9 0-1 .2-1.8.8-2.5a5 5 0 0 1 2.2-1.8c1-.4 2-.6 3.2-.6 1.7 0 3 .4 4 1.1a6 6 0 0 1 2 3Zm11.6-3.8v2.2h-8.8v-2.2h8.8Zm-6.2-4h2.6v16.2c0 .7.1 1.2.3 1.6.2.4.5.6.9.7.3.2.7.2 1 .2h.8l.4-.1.5 2.3a5.2 5.2 0 0 1-2 .3c-.7 0-1.4-.1-2-.4a4.2 4.2 0 0 1-2.4-4v-16.8Zm17 21.4a7.3 7.3 0 0 1-7-4.1c-.5-1.4-.8-2.9-.8-4.6 0-1.8.3-3.3 1-4.6a7.2 7.2 0 0 1 6.7-4.2 8 8 0 0 1 2.5.3 6.5 6.5 0 0 1 4 4c.5 1.2.7 2.5.7 4.1v1.1h-13v-2.3h10.4c0-1-.2-1.8-.6-2.5a4.3 4.3 0 0 0-4-2.5c-1.1 0-2 .3-2.8.8a5.5 5.5 0 0 0-2.3 4.6v1.6a8 8 0 0 0 .6 3.2c.5.9 1.1 1.6 2 2 .7.5 1.6.7 2.7.7.7 0 1.3 0 1.8-.3a4 4 0 0 0 1.5-.8 4 4 0 0 0 1-1.5l2.4.7a5 5 0 0 1-1.3 2.2c-.6.7-1.4 1.2-2.3 1.5-1 .4-2 .6-3.1.6Zm11-.4v-17h2.6v2.6h.2a4 4 0 0 1 1.7-2 5 5 0 0 1 2.7-.8 30.8 30.8 0 0 1 1.4 0v2.7a7.7 7.7 0 0 0-1.6-.2 5 5 0 0 0-2.2.5 3.8 3.8 0 0 0-2 3.5v10.7h-2.7Zm13 4.6V185h6.5v2.2h-4v24h4v2.1h-6.6Zm15.2-28.3v28.3h-6.6v-2.1h4v-24h-4V185h6.6Z"/>
  <path stroke="#ECECEC" stroke-width=".8" d="M462.2 101.6H60.8c-6.8 0-12.2 5.4-12.2 12.2v105.8c0 6.7 5.4 12.2 12.2 12.2h401.4c6.7 0 12.2-5.5 12.2-12.2V113.8c0-6.8-5.5-12.2-12.2-12.2Z"/>
  <path stroke="#E7EEF4" stroke-width=".7" d="M491.2 3.4H31.8C23.7 3.4 17 10 17 18v231.4c0 8.1 6.6 14.7 14.7 14.7h459.4c8 0 14.7-6.6 14.7-14.7V18.1c0-8.1-6.6-14.7-14.7-14.7Z"/>
  <mask id="e" width="36" height="37" x="489" y="40" maskUnits="userSpaceOnUse" style="mask-type:luminance">
    <path fill="#fff" d="M524.6 40.8h-35.5v35.6h35.5V40.8Z"/>
  </mask>
  <g mask="url(#e)">
    <path fill="#4A23EB" d="M506.8 76.4a17.8 17.8 0 1 0 0-35.6 17.8 17.8 0 0 0 0 35.6Z"/>
    <path fill="#fff" d="M500.3 53.9v-2.5h13v2.5h-5v13.7h-3V53.9h-5Z"/>
  </g>
  <mask id="f" width="33" height="32" x="0" y="96" maskUnits="userSpaceOnUse" style="mask-type:luminance">
    <path fill="#fff" d="M32.1 96.5H.8V128H32V96.5Z"/>
  </mask>
  <g mask="url(#f)">
    <path fill="#004743" d="M16.4 128a15.7 15.7 0 1 0 0-31.5 15.7 15.7 0 0 0 0 31.4Z"/>
    <path fill="#fff" d="M16 120.7h-5.5v-17.1h5.8c1.6 0 3 .3 4.3 1 1.2.7 2.1 1.7 2.7 3a10 10 0 0 1 1 4.5 10 10 0 0 1-1 4.6 6.9 6.9 0 0 1-2.8 3 9 9 0 0 1-4.4 1Zm-2.9-2.3H16c1.3 0 2.4-.2 3.3-.7a5 5 0 0 0 2-2.1c.4-1 .6-2.1.6-3.5 0-1.3-.2-2.5-.7-3.4a4 4 0 0 0-1.9-2.1 6 6 0 0 0-3.1-.8h-3v12.6Z"/>
  </g>
  <path fill="#fff" d="M1848.4 443.7h-498c-9.9 0-17.8 8-17.8 17.8V733c0 9.8 8 17.8 17.8 17.8h498c9.8 0 17.8-8 17.8-17.8V461.5c0-9.9-8-17.8-17.8-17.8Z"/>
  <path fill="#1F2327" d="M1384.8 492.7c-.1-1-.6-2-1.5-2.6a6 6 0 0 0-3.4-.9c-1 0-1.8.2-2.5.5s-1.3.7-1.6 1.2a3 3 0 0 0-.2 3.1c.2.4.6.7 1 1l1.4.7 1.6.5 2.4.6c1 .2 2 .5 2.8.9 1 .4 1.8.9 2.5 1.5.7.5 1.3 1.3 1.7 2.1.4.8.6 1.8.6 3a7 7 0 0 1-4.5 6.6 13 13 0 0 1-5.3 1c-2 0-3.7-.3-5.2-1a7.8 7.8 0 0 1-3.5-2.7 8 8 0 0 1-1.3-4.3h4.6a4 4 0 0 0 2.7 3.5 7.6 7.6 0 0 0 5.4 0c.7-.3 1.3-.7 1.8-1.3a4 4 0 0 0 .7-2c0-.6-.3-1.1-.6-1.6a4 4 0 0 0-1.7-1c-.7-.4-1.5-.7-2.4-.9l-3-.8c-2-.5-3.8-1.3-5-2.4a5.7 5.7 0 0 1-1.8-4.5c0-1.5.4-2.9 1.2-4 .8-1.2 2-2 3.4-2.7a12.2 12.2 0 0 1 9.7 0 8 8 0 0 1 3.3 2.7 6.7 6.7 0 0 1 1.2 3.8h-4.5ZM1402 512c-2 0-3.6-.4-5-1.3a9 9 0 0 1-3.2-3.5c-.7-1.5-1.1-3.2-1.1-5.2s.4-3.8 1.1-5.3a8.5 8.5 0 0 1 3.3-3.5c1.3-.9 3-1.3 4.9-1.3a8.8 8.8 0 0 1 8.1 4.8c.8 1.5 1.2 3.3 1.2 5.3s-.4 3.7-1.2 5.2a8.4 8.4 0 0 1-3.2 3.5c-1.4.9-3 1.3-5 1.3Zm0-3.7a4 4 0 0 0 2.6-.8c.7-.6 1.2-1.4 1.5-2.3.4-1 .5-2 .5-3.2 0-1.2-.1-2.3-.5-3.3-.3-1-.8-1.7-1.5-2.3-.7-.6-1.6-.8-2.6-.8s-2 .2-2.6.8c-.7.6-1.2 1.4-1.6 2.3a10.9 10.9 0 0 0 0 6.5c.4 1 .9 1.7 1.6 2.3a4 4 0 0 0 2.6.8Zm13.2 3.3v-19.4h4.4v3.2h.2a4.8 4.8 0 0 1 4.8-3.5 11 11 0 0 1 1.6.1v4.2l-.9-.1-1.2-.1a6 6 0 0 0-2.3.5c-.6.4-1.1.9-1.5 1.5a4 4 0 0 0-.6 2.2v11.4h-4.5Zm24.8-19.4v3.5h-11.2v-3.5h11.2Zm-8.4-4.7h4.6v18.3c0 .6 0 1 .2 1.4.2.3.5.5.8.6.3.2.7.2 1 .2a4.5 4.5 0 0 0 1.4-.2l.7 3.6a10 10 0 0 1-2.7.5c-1 0-2.1-.2-3-.6-1-.3-1.7-1-2.2-1.7-.6-.9-.8-1.9-.8-3v-19Z"/>
  <mask id="g" width="463" height="72" x="1368" y="546" maskUnits="userSpaceOnUse" style="mask-type:luminance">
    <path fill="#fff" d="M1830.6 546h-462.4v71.3h462.4V546Z"/>
  </mask>
  <g mask="url(#g)">
    <path fill="#fff" stroke="#ECECEC" stroke-width=".8" d="M1817.3 547.2h-435.8c-6.8 0-12.2 5.4-12.2 12.2v44.5c0 6.8 5.5 12.3 12.2 12.3h435.8c6.7 0 12.2-5.5 12.2-12.3v-44.5c0-6.8-5.5-12.2-12.2-12.2Z"/>
    <path fill="#B6265C" d="M1394.8 590.7a8.9 8.9 0 1 0 0-17.8 8.9 8.9 0 0 0 0 17.8Z"/>
    <path fill="#1F2327" d="M1417.6 571.2v22.7h-2.6v-22.7h2.6Zm12 23a8 8 0 0 1-4.3-1 7.4 7.4 0 0 1-2.7-3.1c-.7-1.3-1-2.9-1-4.6 0-1.8.3-3.3 1-4.6a7.2 7.2 0 0 1 6.7-4.2 8 8 0 0 1 2.6.4 6.6 6.6 0 0 1 4 4c.4 1.1.6 2.4.6 4v1.1h-13V584h10.4c0-1-.2-1.8-.6-2.6a4.3 4.3 0 0 0-4-2.4c-1 0-2 .2-2.7.8a5 5 0 0 0-1.8 2 6 6 0 0 0-.6 2.6v1.5c0 1.3.2 2.4.7 3.3a5 5 0 0 0 1.8 2c.8.4 1.8.7 2.8.7.7 0 1.3-.1 1.9-.3a4 4 0 0 0 1.4-1 4 4 0 0 0 1-1.4l2.5.7c-.3.9-.7 1.6-1.4 2.3-.6.6-1.4 1.1-2.3 1.5-.9.3-2 .5-3 .5Zm24.3-17.3-6.3 17h-2.6l-6.3-17h2.8l4.7 13.5h.2l4.6-13.5h2.9Zm10 17.3a8 8 0 0 1-4.3-1c-1.2-.8-2-1.8-2.7-3.1-.7-1.3-1-2.9-1-4.6 0-1.8.3-3.3 1-4.6a7.2 7.2 0 0 1 6.7-4.2 8 8 0 0 1 2.6.4 6.6 6.6 0 0 1 4 4c.5 1.1.7 2.4.7 4v1.1h-13.1V584h10.4c0-1-.2-1.8-.6-2.6a4.4 4.4 0 0 0-4-2.4c-1 0-2 .2-2.7.8a5 5 0 0 0-1.8 2c-.4.8-.6 1.6-.6 2.6v1.5a8 8 0 0 0 .7 3.3 4.8 4.8 0 0 0 4.6 2.7c.7 0 1.3-.1 1.9-.3a4 4 0 0 0 1.4-1 4 4 0 0 0 1-1.4l2.5.7c-.3.9-.7 1.6-1.3 2.3-.7.6-1.4 1.1-2.4 1.5-.9.3-2 .5-3 .5Zm13.5-23v22.7h-2.6v-22.7h2.6Z"/>
    <path stroke="#6E767D" stroke-linecap="round" stroke-linejoin="round" stroke-width=".8" d="m1789.6 578.3 8.9 9 8.9-9"/>
  </g>
  <mask id="h" width="463" height="73" x="1368" y="643" maskUnits="userSpaceOnUse" style="mask-type:luminance">
    <path fill="#fff" d="M1830.6 644h-462.4v71.2h462.4V644Z"/>
  </mask>
  <g mask="url(#h)">
    <path fill="#fff" stroke="#ECECEC" stroke-width=".8" d="M1817.3 645h-435.8c-6.8 0-12.2 5.6-12.2 12.3v44.5c0 6.8 5.5 12.3 12.2 12.3h435.8c6.7 0 12.2-5.5 12.2-12.3v-44.5c0-6.7-5.5-12.2-12.2-12.2Z"/>
    <path fill="#1F2327" d="M1389.6 691.8h-2.9l8.3-22.7h2.9l8.3 22.7h-2.9l-6.7-19h-.2l-6.8 19Zm1-8.9h11.7v2.5h-11.6v-2.5Zm31.5-8.1c-.1-1.1-.7-2-1.6-2.6a6.7 6.7 0 0 0-6.1-.5c-.8.4-1.3.8-1.8 1.4a3.2 3.2 0 0 0-.1 3.5c.3.4.6.8 1 1 .5.3 1 .6 1.5.7l1.4.5 2.3.6 2 .6c.7.3 1.4.7 2 1.2.7.4 1.3 1 1.7 1.7a6 6 0 0 1-.3 6c-.6 1-1.6 1.8-2.8 2.4-1.2.6-2.7.9-4.4.9-1.6 0-3-.3-4.2-.8a6.3 6.3 0 0 1-4-5.5h2.9c0 .9.3 1.6.8 2.2.5.5 1.2 1 2 1.2a7.8 7.8 0 0 0 5.3-.1c.8-.3 1.5-.8 2-1.4.5-.7.7-1.4.7-2.2 0-.8-.2-1.4-.6-1.8-.4-.5-1-.9-1.7-1.2l-2.2-.8-2.8-.8a11 11 0 0 1-4.2-2.1 5 5 0 0 1-1.5-3.8c0-1.2.3-2.3 1-3.3s1.6-1.7 2.8-2.2a9.8 9.8 0 0 1 7.8 0 7 7 0 0 1 2.7 2.1c.7 1 1 2 1 3h-2.6Zm25.7 1.4h-2.8a5.8 5.8 0 0 0-2.3-3.6c-.5-.4-1.2-.7-1.9-1l-2.1-.2a6.9 6.9 0 0 0-6.4 4 12.7 12.7 0 0 0 0 10 6.9 6.9 0 0 0 6.4 4.1c.7 0 1.5 0 2.1-.3.7-.2 1.4-.5 2-.9a6 6 0 0 0 2.3-3.6h2.7a9.1 9.1 0 0 1-3.2 5.4c-.8.7-1.7 1.2-2.7 1.5a10.2 10.2 0 0 1-8.4-1 9.7 9.7 0 0 1-3.5-4 13 13 0 0 1-1.3-6.1c0-2.4.4-4.5 1.3-6.2.8-1.8 2-3.1 3.5-4a10.2 10.2 0 0 1 8.4-1 8.8 8.8 0 0 1 4.8 3.8c.5 1 .9 2 1 3.1Z"/>
    <path stroke="#6E767D" stroke-linecap="round" stroke-linejoin="round" stroke-width=".8" d="m1789.5 676.3 8.9 8.9 8.9-9"/>
  </g>
  <path stroke="#E7EEF4" stroke-width=".7" d="M1848.4 444.6h-498c-9.3 0-16.8 7.6-16.8 16.9V733c0 9.3 7.5 16.8 16.8 16.8h498c9.3 0 16.8-7.5 16.8-16.8V461.5c0-9.3-7.5-16.9-16.8-16.9Z"/>
  <mask id="i" width="37" height="36" x="1314" y="660" maskUnits="userSpaceOnUse" style="mask-type:luminance">
    <path fill="#fff" d="M1350.4 660.3h-35.6v35.6h35.6v-35.6Z"/>
  </mask>
  <g mask="url(#i)">
    <path fill="#235794" d="M1332.6 696a17.8 17.8 0 1 0 0-35.7 17.8 17.8 0 0 0 0 35.6Z"/>
    <path fill="#fff" d="M1330.1 682v-.2c0-1 .1-1.7.3-2.3.1-.5.4-1 .7-1.3l1.2-1 .9-.6.6-.8.2-1a2 2 0 0 0-.3-1.1 2 2 0 0 0-.8-.7 2 2 0 0 0-1-.3c-.4 0-.8 0-1.1.3a2 2 0 0 0-.9.7c-.2.3-.3.7-.3 1.2h-2.8c0-1 .2-1.8.7-2.5.5-.7 1-1.2 1.8-1.5.8-.4 1.6-.5 2.5-.5 1 0 2 .1 2.7.5.8.3 1.4.9 1.8 1.5.4.7.6 1.4.6 2.3 0 .6 0 1.2-.3 1.6-.1.5-.4 1-.8 1.3a6 6 0 0 1-1.2 1c-.4.2-.8.5-1 .8l-.7 1-.2 1.4v.2h-2.6Zm1.4 5c-.5 0-1-.2-1.3-.6-.3-.3-.5-.7-.5-1.2s.2-.9.5-1.2c.4-.3.8-.5 1.3-.5.4 0 .8.2 1.2.5.3.3.5.7.5 1.2 0 .3 0 .6-.2.9-.2.3-.4.5-.7.6-.2.2-.5.2-.8.2Z"/>
  </g>
  <mask id="j" width="36" height="37" x="1848" y="481" maskUnits="userSpaceOnUse" style="mask-type:luminance">
    <path fill="#fff" d="M1884 481.5h-35.6v35.6h35.6v-35.6Z"/>
  </mask>
  <g mask="url(#j)">
    <path fill="#4A23EB" d="M1866.2 517.1a17.8 17.8 0 1 0 0-35.6 17.8 17.8 0 0 0 0 35.6Z"/>
    <path fill="#fff" d="M1859.7 494.6V492h12.9v2.4h-5v13.8h-3v-13.8h-5Z"/>
  </g>
  <mask id="k" width="37" height="37" x="1314" y="481" maskUnits="userSpaceOnUse" style="mask-type:luminance">
    <path fill="#fff" d="M1350.4 481.5h-35.6v35.6h35.6v-35.6Z"/>
  </mask>
  <g mask="url(#k)">
    <path fill="#4A23EB" d="M1332.6 517.1a17.8 17.8 0 1 0 0-35.6 17.8 17.8 0 0 0 0 35.6Z"/>
    <path fill="#fff" d="M1326 494.6V492h13v2.4h-5v13.8h-3v-13.8h-5Z"/>
  </g>
  <g filter="url(#l)">
    <path fill="#fff" d="M1196 140.7H698c-9.8 0-17.8 8-17.8 17.8v368.7c0 9.8 8 17.8 17.8 17.8h498c9.8 0 17.8-8 17.8-17.8V158.5c0-9.9-8-17.8-17.8-17.8Z"/>
    <path fill="#1F2327" d="M721.7 208.5h-5l9-25.9h5.9l9 25.9h-5l-6.8-20.6h-.2l-7 20.6Zm.1-10.2h13.7v3.8h-13.7v-3.8Zm30 17.9a11 11 0 0 1-4.3-.7c-1.2-.4-2.1-1-2.8-1.8a6.1 6.1 0 0 1-1.5-2.4l4-1 .9 1.1c.4.4.8.7 1.4 1a6 6 0 0 0 2.3.3c1.3 0 2.4-.3 3.2-1 .9-.6 1.3-1.6 1.3-3V205h-.2l-1 1.5a6.1 6.1 0 0 1-4.6 1.7 8 8 0 0 1-4-1 7.5 7.5 0 0 1-3-3.2c-.6-1.4-1-3.2-1-5.3 0-2.1.4-4 1-5.4a7.4 7.4 0 0 1 9.8-4c.8.5 1.3 1 1.8 1.5.4.5.8 1 1 1.5h.2V189h4.5v19.7c0 1.7-.4 3-1.1 4.1-.8 1.1-2 2-3.3 2.5-1.4.5-3 .8-4.7.8Zm0-11.6c1 0 1.8-.2 2.4-.7.7-.5 1.2-1.1 1.6-2 .4-.9.5-2 .5-3.2a9 9 0 0 0-.5-3.2c-.3-1-.9-1.6-1.5-2.2a4 4 0 0 0-2.5-.7 4 4 0 0 0-2.6.8 4 4 0 0 0-1.5 2.2 9 9 0 0 0-.5 3.1c0 1.2.1 2.2.5 3.1.3 1 .8 1.6 1.5 2 .7.6 1.6.8 2.6.8Zm22.2 11.6c-1.7 0-3-.2-4.3-.7-1.1-.4-2-1-2.8-1.8a6.1 6.1 0 0 1-1.5-2.4l4.1-1 .8 1.1c.4.4.9.7 1.5 1a6 6 0 0 0 2.2.3c1.3 0 2.4-.3 3.3-1 .8-.6 1.2-1.6 1.2-3V205h-.2a5.3 5.3 0 0 1-2.8 2.7c-.7.4-1.7.5-2.8.5a8 8 0 0 1-4-1 7.5 7.5 0 0 1-3-3.2c-.6-1.4-1-3.2-1-5.3 0-2.1.4-4 1-5.4a7.4 7.4 0 0 1 9.8-4c.8.5 1.4 1 1.8 1.5.5.5.8 1 1 1.5h.3V189h4.5v19.7a6.6 6.6 0 0 1-4.5 6.6 13 13 0 0 1-4.6.8Zm0-11.6a4 4 0 0 0 2.5-.7c.7-.5 1.2-1.1 1.5-2 .4-.9.6-2 .6-3.2a9 9 0 0 0-.6-3.2c-.3-1-.8-1.6-1.5-2.2a4 4 0 0 0-2.5-.7 4 4 0 0 0-2.5.8c-.7.5-1.2 1.2-1.6 2.2a10 10 0 0 0 0 6.2c.4 1 .9 1.6 1.6 2 .7.6 1.5.8 2.5.8Zm13.8 3.9v-19.4h4.4v3.2h.2a4.9 4.9 0 0 1 4.8-3.5 10.7 10.7 0 0 1 1.6.1v4.2l-.9-.1-1.2-.1a4 4 0 0 0-2.2.5 4 4 0 0 0-2.2 3.7v11.4h-4.5Zm21.9.4c-2 0-3.7-.4-5-1.2a8 8 0 0 1-3.3-3.5c-.8-1.5-1.2-3.3-1.2-5.3s.4-3.8 1.2-5.3a8.6 8.6 0 0 1 8-4.8c1.2 0 2.3.2 3.4.6a8.3 8.3 0 0 1 4.8 4.8c.4 1.3.7 2.7.7 4.4v1.4h-16v-3H814a5 5 0 0 0-.6-2.4c-.3-.7-.9-1.2-1.5-1.6-.7-.4-1.4-.6-2.3-.6a4 4 0 0 0-2.5.7c-.7.4-1.2 1-1.6 1.7a5 5 0 0 0-.6 2.4v2.7a7 7 0 0 0 .6 3c.4.7 1 1.3 1.7 1.8.8.4 1.6.6 2.6.6.7 0 1.3 0 1.8-.3a4 4 0 0 0 1.4-.8 5 5 0 0 0 1-1.4l4.2.5a6.7 6.7 0 0 1-1.5 3 9 9 0 0 1-3 1.9 11 11 0 0 1-4 .7Zm20.9 7.3c-1.7 0-3-.2-4.2-.7-1.2-.4-2.2-1-2.9-1.8a6.1 6.1 0 0 1-1.5-2.4l4.1-1 .9 1.1c.3.4.8.7 1.4 1a6 6 0 0 0 2.3.3c1.3 0 2.3-.3 3.2-1 .8-.6 1.3-1.6 1.3-3V205h-.3a5.3 5.3 0 0 1-2.8 2.7c-.7.4-1.6.5-2.7.5a8 8 0 0 1-4.1-1 7.5 7.5 0 0 1-2.9-3.2 12 12 0 0 1-1-5.3c0-2.1.3-4 1-5.4a7.4 7.4 0 0 1 9.8-4 7.6 7.6 0 0 1 2.8 2.9h.2v-3.1h4.5v19.7c0 1.7-.4 3-1.2 4.1-.8 1.1-1.9 2-3.2 2.5-1.4.5-3 .8-4.7.8Zm0-11.6a4 4 0 0 0 2.5-.7c.7-.5 1.2-1.1 1.6-2a10.2 10.2 0 0 0 0-6.4c-.4-1-.9-1.6-1.6-2.2a4 4 0 0 0-2.5-.7 4 4 0 0 0-2.5.8c-.7.5-1.2 1.2-1.6 2.2a10 10 0 0 0 0 6.2 4.3 4.3 0 0 0 4 2.8ZM850 209a8 8 0 0 1-3.4-.7c-1-.4-1.7-1-2.3-2a6 6 0 0 1-.8-3.2c0-1 .2-2 .6-2.7.4-.7 1-1.3 1.6-1.7l2.4-1 2.7-.5a109.8 109.8 0 0 0 4.4-.7c.3-.2.4-.6.4-1 0-1-.2-1.8-.8-2.3-.6-.5-1.4-.8-2.4-.8-1.2 0-2 .3-2.7.8-.7.4-1 1-1.3 1.7l-4.3-.6a6.8 6.8 0 0 1 4.5-4.8 12 12 0 0 1 6.5-.3c1 .3 1.8.6 2.6 1.1a7 7 0 0 1 1.8 2c.5 1 .7 2 .7 3.3v13h-4.4v-2.7h-.1a5.6 5.6 0 0 1-3 2.7c-.8.3-1.7.4-2.7.4Zm1.2-3.4a5 5 0 0 0 2.3-.5 4 4 0 0 0 1.6-1.5c.4-.6.6-1.3.6-2v-2.3l-.8.4-1.1.2-1.3.2-1 .2a8 8 0 0 0-1.9.4 3 3 0 0 0-1.2 1c-.4.3-.5.8-.5 1.4 0 .8.3 1.5 1 1.9a4 4 0 0 0 2.3.6Zm23.3-16.4v3.5h-11.2v-3.5h11.2Zm-8.4-4.7h4.6v18.3c0 .6 0 1 .3 1.4.1.3.4.5.7.6l1 .2a4.4 4.4 0 0 0 1.4-.2l.8 3.6a10.2 10.2 0 0 1-2.7.5c-1.2 0-2.2-.2-3.1-.6a4 4 0 0 1-2.2-1.8c-.5-.8-.8-1.8-.8-3v-19Zm20.6 24.5c-2 0-3.6-.4-5-1.2-1.4-.9-2.5-2-3.3-3.5-.7-1.5-1.1-3.3-1.1-5.3s.4-3.8 1.1-5.3a8.6 8.6 0 0 1 8-4.8c1.3 0 2.4.2 3.5.6a8.3 8.3 0 0 1 4.8 4.8c.4 1.3.6 2.7.6 4.4v1.4h-15.9v-3H891a5 5 0 0 0-.6-2.4 4.4 4.4 0 0 0-3.9-2.2 4 4 0 0 0-2.4.7c-.7.4-1.3 1-1.7 1.7-.4.8-.6 1.6-.6 2.4v2.7a7 7 0 0 0 .6 3c.5.7 1 1.3 1.8 1.8.7.4 1.6.6 2.6.6.6 0 1.2 0 1.8-.3a4 4 0 0 0 1.4-.8c.4-.4.7-.8.9-1.4l4.2.5a6.7 6.7 0 0 1-1.5 3c-.7.8-1.7 1.4-2.9 1.9a11 11 0 0 1-4 .7Z"/>
    <mask id="m" width="464" height="72" x="715" y="243" maskUnits="userSpaceOnUse" style="mask-type:luminance">
      <path fill="#fff" d="M1178.2 243H715.8v71.3h462.4V243Z"/>
    </mask>
    <g mask="url(#m)">
      <path fill="#F3F0FF" stroke="#4A23EB" stroke-width=".8" d="M1164.9 244.2H729.1c-6.7 0-12.2 5.4-12.2 12.2v44.5c0 6.8 5.5 12.3 12.2 12.3H1165c6.8 0 12.2-5.5 12.2-12.3v-44.5c0-6.8-5.4-12.2-12.2-12.2Z"/>
      <path stroke="#4A23EB" stroke-width="1.1" d="M758.2 290.4c0-8.6-7-15.5-15.5-15.5h-9.1m0 0 7.7-7.8m-7.7 7.8 7.7 7.7"/>
      <path fill="#1F2327" d="M793.9 275.3H791a5.7 5.7 0 0 0-2.3-3.6l-1.9-1c-.7-.1-1.4-.3-2.2-.3-1.3 0-2.6.4-3.7 1-1 .8-2 1.8-2.6 3.2-.7 1.3-1 3-1 5 0 1.9.3 3.5 1 4.9a6.9 6.9 0 0 0 6.4 4.1l2.1-.3a5 5 0 0 0 1.9-1 5.8 5.8 0 0 0 2.3-3.5h2.8a8.6 8.6 0 0 1-5.9 6.9 10.2 10.2 0 0 1-8.4-1 9.7 9.7 0 0 1-3.6-4c-.8-1.7-1.2-3.8-1.2-6.2 0-2.4.4-4.4 1.2-6.2a9.5 9.5 0 0 1 8.7-5.4c1.2 0 2.3.1 3.3.5a8.8 8.8 0 0 1 4.7 3.8c.6.9 1 2 1.2 3Zm11 15.9c-1.6 0-3-.4-4.1-1-1.2-.8-2-1.8-2.7-3.2a11.1 11.1 0 0 1 0-9.2 7.4 7.4 0 0 1 2.7-3 6.8 6.8 0 0 1 4-1.2 7.2 7.2 0 0 1 6.7 4.2c.7 1.3 1 2.9 1 4.6 0 1.8-.3 3.3-1 4.6a7.3 7.3 0 0 1-2.7 3.1 7.2 7.2 0 0 1-4 1.1Zm0-2.3c1 0 2-.3 2.8-1 .8-.5 1.3-1.3 1.7-2.3a10.7 10.7 0 0 0 0-6.3c-.4-1-1-1.8-1.7-2.4-.8-.6-1.7-1-2.9-1-1.1 0-2.1.4-2.8 1-.8.6-1.4 1.4-1.7 2.4a9 9 0 0 0-.6 3.1 9 9 0 0 0 .6 3.2c.3 1 .9 1.8 1.7 2.4.7.6 1.7.9 2.8.9Zm14.2-8.3V291h-2.6v-17h2.5v2.6h.2a4 4 0 0 1 1.9-2 5 5 0 0 1 3.1-.9c1.1 0 2.1.3 3 .7.9.5 1.5 1.2 2 2.2.5 1 .7 2.1.7 3.6V291h-2.6v-10.7c0-1.3-.3-2.3-1-3a3.7 3.7 0 0 0-2.9-1.2c-.8 0-1.5.2-2.2.5-.6.4-1.2 1-1.5 1.6-.4.7-.6 1.5-.6 2.5Zm18.2 0V291h-2.6v-17h2.5v2.6h.3c.3-.9 1-1.5 1.8-2a5 5 0 0 1 3.1-.9c1.2 0 2.2.3 3 .7.9.5 1.6 1.2 2 2.2.5 1 .7 2.1.7 3.6V291h-2.6v-10.7c0-1.3-.3-2.3-1-3a3.7 3.7 0 0 0-2.9-1.2c-.8 0-1.5.2-2.2.5-.6.4-1.1 1-1.5 1.6-.4.7-.6 1.5-.6 2.5Zm22.7 10.6a8 8 0 0 1-4.2-1c-1.2-.8-2-1.8-2.7-3.1-.7-1.3-1-2.9-1-4.6 0-1.8.3-3.3 1-4.6a7.2 7.2 0 0 1 6.7-4.2 8 8 0 0 1 2.6.4c.9.3 1.6.8 2.3 1.4a6 6 0 0 1 1.7 2.6c.5 1.1.7 2.4.7 4v1.1H854V281h10.4c0-1-.2-1.8-.6-2.6a4.3 4.3 0 0 0-4-2.4c-1 0-2 .2-2.7.8a5 5 0 0 0-1.8 2c-.4.8-.6 1.6-.6 2.6v1.5c0 1.3.3 2.4.7 3.2.4 1 1 1.6 1.9 2a5 5 0 0 0 2.7.8c.7 0 1.3-.1 1.9-.3a4 4 0 0 0 1.4-1 4 4 0 0 0 1-1.4l2.5.7c-.3.9-.7 1.6-1.3 2.3-.7.6-1.4 1.1-2.4 1.5-.9.3-2 .5-3 .5Zm18 0a8 8 0 0 1-4.2-1.1c-1.1-.8-2-1.8-2.6-3.1a10.6 10.6 0 0 1 0-9.1 7.2 7.2 0 0 1 6.7-4.2 8 8 0 0 1 3.2.6 5 5 0 0 1 2.4 1.9c.6.8 1 1.7 1.1 2.7H882a4 4 0 0 0-4-3c-1 0-2 .3-2.7.9-.8.5-1.4 1.2-1.8 2.2a8.6 8.6 0 0 0 0 6.8c.4 1 1 1.7 1.7 2.3a5 5 0 0 0 2.7.8c.7 0 1.3-.2 1.9-.4a3.8 3.8 0 0 0 2.2-2.6h2.6a6 6 0 0 1-3.4 4.6 7 7 0 0 1-3.3.7Zm17.8-17.3v2.2H887v-2.2h8.8Zm-6.2-4.1h2.6V286c0 .7 0 1.3.3 1.6.2.4.5.6.8.8l1.1.2.7-.1h.5l.5 2.3a5.6 5.6 0 0 1-4.1-.2c-.7-.3-1.3-.8-1.7-1.5-.5-.6-.7-1.4-.7-2.4v-17Zm18.9 21v-17h2.6v17h-2.6Zm1.3-19.8c-.5 0-1-.2-1.3-.5-.4-.3-.5-.8-.5-1.2 0-.5.1-1 .5-1.3.4-.3.8-.5 1.3-.5s1 .2 1.3.5c.4.3.6.8.6 1.3 0 .4-.2.9-.6 1.2-.3.3-.8.5-1.3.5Zm8.7 9.6V291h-2.6v-17h2.5v2.6h.2c.4-.9 1-1.5 1.8-2 .8-.6 1.9-.9 3.2-.9 1.1 0 2.1.3 3 .7.8.5 1.5 1.2 2 2.2.5 1 .7 2.1.7 3.6V291h-2.6v-10.7c0-1.3-.3-2.3-1-3a3.7 3.7 0 0 0-2.9-1.2 5 5 0 0 0-2.2.5c-.7.4-1.2 1-1.6 1.6-.3.7-.5 1.5-.5 2.5Zm15.6 16.6V274h2.5v2.7h.3l.8-1.2c.3-.4.8-.9 1.5-1.2.6-.4 1.5-.6 2.6-.6a6.7 6.7 0 0 1 6.3 4.1 11 11 0 0 1 1 4.7 11 11 0 0 1-1 4.7 6.6 6.6 0 0 1-6.3 4.1c-1 0-2-.2-2.6-.5-.6-.4-1.1-.8-1.5-1.3l-.8-1.2h-.2v9H934Zm2.5-14.8c0 1.2.2 2.4.6 3.3.4 1 1 1.8 1.7 2.3.7.6 1.6.9 2.6.9s2-.3 2.7-.9c.8-.6 1.3-1.4 1.7-2.4a9 9 0 0 0 0-6.5 5 5 0 0 0-1.6-2.3c-.8-.5-1.7-.8-2.8-.8a4.3 4.3 0 0 0-4.3 3c-.4 1-.6 2-.6 3.4Zm27.1 1.5v-10h2.7v17h-2.7v-3h-.1a5.3 5.3 0 0 1-5 3.1c-1.1 0-2-.2-2.9-.6a4.9 4.9 0 0 1-2-2.2 8 8 0 0 1-.7-3.5v-10.8h2.7v10.6c0 1.2.3 2.2 1 3 .7.7 1.6 1 2.7 1a5 5 0 0 0 2-.4 4.3 4.3 0 0 0 2.3-4.2Zm14.8-10v2.2h-8.8v-2.2h8.8Zm-6.2-4.1h2.6V286c0 .7 0 1.3.3 1.6.2.4.5.6.8.8l1.1.2.8-.1h.4l.5 2.3a5.6 5.6 0 0 1-4-.2c-.8-.3-1.4-.8-1.8-1.5-.5-.6-.7-1.4-.7-2.4v-17Z"/>
    </g>
    <mask id="n" width="464" height="73" x="715" y="340" maskUnits="userSpaceOnUse" style="mask-type:luminance">
      <path fill="#fff" d="M1178.2 341H715.8v71.2h462.4V341Z"/>
    </mask>
    <g mask="url(#n)">
      <path fill="#fff" stroke="#ECECEC" stroke-width=".8" d="M1164.9 342H729.1c-6.7 0-12.2 5.6-12.2 12.3v44.5c0 6.8 5.5 12.3 12.2 12.3H1165c6.8 0 12.2-5.5 12.2-12.3v-44.5c0-6.7-5.4-12.2-12.2-12.2Z"/>
      <path fill="#B6265C" d="M742.5 385.6a8.9 8.9 0 1 0 0-17.8 8.9 8.9 0 0 0 0 17.8Z"/>
      <path fill="#1F2327" d="M765.3 366.1v22.7h-2.7V366h2.7Zm11.9 23a7.3 7.3 0 0 1-7-4.1 11.1 11.1 0 0 1 0-9.2 7.2 7.2 0 0 1 6.7-4.2 8 8 0 0 1 2.6.4 6.5 6.5 0 0 1 4 4c.5 1.1.7 2.5.7 4v1.2H771v-2.3h10.4a7 7 0 0 0-.5-2.6 4.3 4.3 0 0 0-4.1-2.4 4.8 4.8 0 0 0-4.4 2.8c-.5.8-.7 1.7-.7 2.6v1.5a8 8 0 0 0 .7 3.3 5 5 0 0 0 4.7 2.7c.6 0 1.3-.1 1.8-.3a4 4 0 0 0 1.5-.9 4 4 0 0 0 .9-1.5l2.5.7c-.2.9-.7 1.7-1.3 2.3-.6.6-1.4 1.1-2.3 1.5a8 8 0 0 1-3.1.5Zm24.3-17.3-6.3 17h-2.6l-6.3-17h2.8l4.7 13.5h.2l4.7-13.5h2.8Zm10 17.3a7.3 7.3 0 0 1-7-4.1 11.1 11.1 0 0 1 0-9.2 7.2 7.2 0 0 1 6.7-4.2 8 8 0 0 1 2.6.4 6.5 6.5 0 0 1 4 4c.5 1.1.7 2.5.7 4v1.2h-13v-2.3h10.3c0-1-.1-1.8-.5-2.6a4.3 4.3 0 0 0-4.1-2.4c-1 0-2 .3-2.7.8a5 5 0 0 0-1.7 2c-.4.8-.6 1.7-.6 2.6v1.5c0 1.3.2 2.4.6 3.3a5 5 0 0 0 4.7 2.7c.7 0 1.3-.1 1.8-.3a4 4 0 0 0 1.5-.9 4 4 0 0 0 1-1.5l2.4.7c-.2.9-.7 1.7-1.3 2.3-.6.6-1.4 1.1-2.3 1.5a8 8 0 0 1-3.1.5Zm13.6-23v22.7h-2.6V366h2.6Z"/>
      <path stroke="#6E767D" stroke-linecap="round" stroke-linejoin="round" stroke-width=".8" d="m1137.2 373.2 9 9 8.8-9"/>
    </g>
    <path fill="#fff" d="M1170.3 439.6H724.5a8 8 0 0 0-8 8v53a8 8 0 0 0 8 8h445.8a8 8 0 0 0 8-8v-53a8 8 0 0 0-8-8Z"/>
    <path stroke="#576169" stroke-linecap="round" stroke-linejoin="round" stroke-width=".5" d="M896.2 474.1h-5.8m5.8 0v5.9m0-5.9v-5.8m0 5.8h5.8"/>
    <path fill="#576169" d="M913.6 482.2h-2.4l5.3-14.8h2.6l5.3 14.8H922l-4.1-12h-.1l-4.2 12Zm.4-5.8h7.6v1.9H914v-1.9Zm16.3 6a4.3 4.3 0 0 1-4-2.6c-.4-.9-.6-2-.6-3.1 0-1.2.2-2.2.6-3 .4-1 1-1.6 1.7-2a4 4 0 0 1 2.4-.7c.6 0 1.2 0 1.6.3.4.2.8.5 1 .8l.5.8h.2v-5.5h2.1v14.8h-2v-1.7h-.3c0 .2-.3.5-.5.8a3.1 3.1 0 0 1-2.7 1.1Zm.5-1.8c.6 0 1.2-.2 1.6-.5a3 3 0 0 0 1-1.4c.2-.6.3-1.3.3-2 0-.8-.1-1.5-.3-2a3 3 0 0 0-1-1.4c-.4-.3-1-.5-1.6-.5-.6 0-1.2.2-1.6.5a3 3 0 0 0-1 1.4 6 6 0 0 0-.3 2c0 .7.1 1.4.3 2 .2.6.6 1 1 1.4.4.3 1 .5 1.6.5Zm12.3 1.8a4.3 4.3 0 0 1-4-2.6c-.5-.9-.7-2-.7-3.1 0-1.2.2-2.2.6-3 .4-1 1-1.6 1.7-2a4 4 0 0 1 2.4-.7c.7 0 1.2 0 1.6.3.4.2.8.5 1 .8l.6.8v-5.5h2.2v14.8h-2v-1.7h-.2l-.6.8a3 3 0 0 1-1 .8c-.4.2-1 .3-1.6.3Zm.4-1.8c.6 0 1.2-.2 1.6-.5a3 3 0 0 0 1-1.4c.2-.6.3-1.3.3-2 0-.8 0-1.5-.3-2a3 3 0 0 0-1-1.4c-.4-.3-1-.5-1.6-.5-.6 0-1.2.2-1.6.5a3 3 0 0 0-1 1.4 6 6 0 0 0-.3 2c0 .7.1 1.4.3 2 .3.6.6 1 1 1.4.5.3 1 .5 1.6.5Zm13.5 1.6v-11h2v1.7h.2c.2-.6.6-1 1.1-1.4.6-.4 1.2-.5 2-.5.7 0 1.3.1 1.8.5.5.3.9.8 1 1.4h.2c.3-.6.7-1 1.3-1.4.5-.4 1.2-.5 2-.5 1 0 1.9.3 2.5 1 .6.5 1 1.5 1 2.8v7.4h-2.2V475c0-.8-.2-1.3-.6-1.7-.4-.3-1-.5-1.5-.5a2 2 0 0 0-1.6.7c-.4.4-.6 1-.6 1.6v7.1h-2.2v-7.4c0-.6-.1-1-.5-1.4a2 2 0 0 0-1.5-.6 2 2 0 0 0-1.1.4c-.4.2-.6.5-.8.8-.2.4-.4.9-.4 1.4v6.8H957Zm22.6.2c-1 0-2-.2-2.7-.7a4.8 4.8 0 0 1-1.8-2 6.6 6.6 0 0 1 0-6 4.8 4.8 0 0 1 4.5-2.7 4.8 4.8 0 0 1 4.5 2.7c.5.9.7 1.9.7 3 0 1.2-.2 2.2-.7 3a4.8 4.8 0 0 1-4.5 2.7Zm0-1.8c.7 0 1.2-.2 1.7-.5.4-.4.8-.8 1-1.4.2-.6.3-1.3.3-2s-.1-1.4-.3-2c-.2-.5-.6-1-1-1.4a3.1 3.1 0 0 0-3.4 0c-.4.4-.7.9-1 1.5a6.4 6.4 0 0 0 0 3.9c.3.6.6 1 1 1.4.5.3 1 .5 1.7.5Zm7.6 1.6v-11h2v1.7h.2c.2-.6.5-1 1-1.4a3 3 0 0 1 1.8-.6 8 8 0 0 1 .9.1v2H992c-.5 0-1 0-1.4.3a2.4 2.4 0 0 0-1.3 2.1v6.8h-2.1Zm12.1.2c-1 0-2-.2-2.8-.7a4.8 4.8 0 0 1-1.8-2c-.4-.8-.6-1.8-.6-3 0-1.1.2-2.1.6-3a5 5 0 0 1 1.8-2 5.4 5.4 0 0 1 4.5-.4 4.3 4.3 0 0 1 2.7 2.7c.3.7.4 1.5.4 2.5v.8h-8.8v-1.6h6.7c0-.6-.1-1-.4-1.5a2.6 2.6 0 0 0-2.4-1.4 3 3 0 0 0-1.6.4 3 3 0 0 0-1 1.2c-.3.4-.4 1-.4 1.5v1.3c0 .7.2 1.3.4 1.8.3.6.6 1 1.1 1.2.5.3 1 .4 1.7.4l1-.1a2 2 0 0 0 1-.6l.5-.8 2 .3a3 3 0 0 1-.8 1.6c-.4.5-1 .8-1.6 1-.6.3-1.3.4-2.2.4Z"/>
    <path stroke="#ECECEC" stroke-width=".5" d="M1170.3 439.6H724.5a8 8 0 0 0-8 8v53a8 8 0 0 0 8 8h445.8a8 8 0 0 0 8-8v-53a8 8 0 0 0-8-8Z"/>
    <path stroke="#4A23EB" stroke-width=".7" d="M1196 141.6H698c-9.3 0-16.8 7.6-16.8 16.9v368.7c0 9.3 7.5 16.8 16.8 16.8h498c9.3 0 16.8-7.5 16.8-16.8V158.5c0-9.3-7.5-16.9-16.8-16.9Z"/>
  </g>
  <mask id="o" width="37" height="36" x="1194" y="173" maskUnits="userSpaceOnUse" style="mask-type:luminance">
    <path fill="#fff" d="M1230 173h-35.5v35.6h35.5V173Z"/>
  </mask>
  <g mask="url(#o)">
    <path fill="#4A23EB" d="M1212.3 208.6a17.8 17.8 0 1 0 0-35.6 17.8 17.8 0 0 0 0 35.6Z"/>
    <path fill="#fff" d="M1205.7 186v-2.4h13v2.5h-5v13.7h-3V186h-5Z"/>
  </g>
  <mask id="p" width="37" height="37" x="662" y="260" maskUnits="userSpaceOnUse" style="mask-type:luminance">
    <path fill="#fff" d="M698 260.8h-35.6v35.7H698v-35.7Z"/>
  </mask>
  <g mask="url(#p)">
    <path fill="#B6265C" d="M680.2 296.5a17.8 17.8 0 1 0 0-35.6 17.8 17.8 0 0 0 0 35.6Z"/>
    <path fill="#fff" d="M687.4 270.7V287h-2.6l-7.6-11h-.1v11h-3v-16.2h2.7l7.6 11h.1v-11h3Z"/>
  </g>
  <mask id="q" width="37" height="36" x="662" y="357" maskUnits="userSpaceOnUse" style="mask-type:luminance">
    <path fill="#fff" d="M698 357.3h-35.6v35.6H698v-35.6Z"/>
  </mask>
  <g mask="url(#q)">
    <path fill="#235794" d="M680.2 392.9a17.8 17.8 0 1 0 0-35.6 17.8 17.8 0 0 0 0 35.6Z"/>
    <path fill="#fff" d="M677.7 379v-.2c0-1 .1-1.7.3-2.3.2-.5.4-1 .8-1.3a4 4 0 0 1 1.2-1l.8-.6.6-.9a2.2 2.2 0 0 0 0-2 2 2 0 0 0-.8-.7c-.4-.2-.7-.3-1.1-.3-.4 0-.8 0-1.1.2a2 2 0 0 0-.8.8c-.2.3-.4.7-.4 1.2h-2.8c0-1 .3-1.8.7-2.5a4 4 0 0 1 1.9-1.5c.7-.4 1.6-.5 2.5-.5 1 0 1.9.1 2.6.5.8.3 1.4.8 1.8 1.5.5.6.7 1.4.7 2.3a4.2 4.2 0 0 1-1.1 2.9l-1.3 1c-.4.2-.8.5-1 .8a2 2 0 0 0-.6 1c-.2.4-.2.8-.2 1.4v.2h-2.7Zm1.4 5c-.5 0-.9-.2-1.2-.6-.4-.3-.5-.7-.5-1.2s.1-.9.5-1.2c.3-.4.7-.5 1.2-.5s.9.1 1.2.5c.4.3.5.7.5 1.2 0 .3 0 .6-.2.9l-.6.6c-.3.2-.6.2-.9.2Z"/>
  </g>
  <g filter="url(#r)">
    <path fill="#7E7E7E" d="m1563.3 178.9-7.4-38.2 32.3 19-16.1 4.5-8.8 14.7Z"/>
    <path stroke="#fff" stroke-width="1.1" d="m1556.7 139.4-2.8-1.7.6 3.2 7.3 38.3.8 3.8 2-3.3 8.4-14.2 15.6-4.3 3.4-1-3-1.7-32.3-19.1Z"/>
  </g>
  <g filter="url(#s)">
    <path fill="#7E7E7E" d="M1830.6 173h-224.7c-9.8 0-17.7 8-17.7 17.7v36.5c0 9.8 8 17.7 17.7 17.7h224.7c9.7 0 17.6-8 17.6-17.7v-36.5c0-9.8-7.9-17.7-17.6-17.7Z"/>
    <path fill="#fff" d="M1630.4 196.7h3.9V215a8 8 0 0 1-1 4.2 5.9 5.9 0 0 1-2.7 2.7 9.2 9.2 0 0 1-8 .1c-1.2-.5-2-1.2-2.7-2.3a6 6 0 0 1-1-3.6h3.8c0 .7.2 1.3.5 1.8s.8 1 1.4 1.2c.6.3 1.2.4 2 .4a4 4 0 0 0 2-.5c.6-.3 1-.8 1.4-1.5.3-.7.4-1.5.4-2.5v-18.2Zm13.4 26.1c-1.2 0-2.3-.2-3.3-.7-1-.4-1.8-1-2.4-2a6 6 0 0 1-.8-3.2c0-1 .2-2 .6-2.6.4-.7 1-1.3 1.7-1.7l2.4-1 2.7-.4 2.8-.3c.7-.1 1.2-.3 1.5-.5.4-.2.5-.5.5-1 0-1.1-.3-2-.9-2.6-.6-.6-1.5-.9-2.7-.9-1.3 0-2.3.3-3 .8-.7.6-1.2 1.2-1.5 1.9l-3.5-.8a6.8 6.8 0 0 1 4.6-4.4 10.9 10.9 0 0 1 5.8-.2c.8.1 1.6.5 2.4 1 .8.4 1.4 1 1.9 2 .4.9.7 2 .7 3.4v12.8h-3.7v-2.7h-.1c-.3.5-.6 1-1.1 1.5a7.2 7.2 0 0 1-4.6 1.6Zm.8-3c1 0 2-.2 2.7-.6a4.3 4.3 0 0 0 2.2-3.8V213a2 2 0 0 1-.7.3l-1.3.3-1.4.2-1.2.2c-.7 0-1.4.2-2 .4a5 5 0 0 0-1.4 1c-.4.4-.5 1-.5 1.6 0 1 .3 1.6 1 2.1s1.5.7 2.6.7Zm20.4 3a9 9 0 0 1-4.8-1.3c-1.4-.8-2.4-2-3.1-3.5-.7-1.5-1.1-3.2-1.1-5.2s.4-3.6 1.1-5.1a8.4 8.4 0 0 1 3.1-3.6c1.3-.8 3-1.2 4.7-1.2a9 9 0 0 1 4 .8 6.8 6.8 0 0 1 4 5.7h-3.7a4 4 0 0 0-1.4-2.4 4 4 0 0 0-2.8-1c-1 0-2 .3-2.8.9-.7.5-1.3 1.3-1.8 2.3-.4 1-.6 2.2-.6 3.6s.2 2.6.6 3.6c.4 1 1 1.8 1.8 2.4.8.5 1.7.8 2.8.8.7 0 1.3-.1 2-.4a4 4 0 0 0 1.4-1.1c.4-.5.7-1.1.8-1.8h3.7a7 7 0 0 1-4 5.6c-1.1.6-2.4.9-4 .9Zm18.6 0a8.3 8.3 0 0 1-7.8-4.7c-.8-1.5-1.2-3.3-1.2-5.3s.4-3.7 1.1-5.2a8.3 8.3 0 0 1 7.9-4.7c1.8 0 3.3.4 4.7 1.2 1.3.8 2.4 2 3.1 3.5.8 1.5 1.1 3.2 1.1 5.2s-.3 3.8-1 5.3a8.3 8.3 0 0 1-8 4.7Zm0-3.2c1.1 0 2.1-.3 2.9-.9a5 5 0 0 0 1.7-2.5c.3-1 .5-2.1.5-3.4a10 10 0 0 0-.5-3.4c-.4-1-1-1.8-1.7-2.4-.8-.7-1.8-1-3-1-1.1 0-2 .3-2.9 1-.7.6-1.3 1.4-1.7 2.4a10 10 0 0 0-.5 3.4c0 1.3.2 2.4.5 3.4.4 1 1 1.9 1.7 2.5a5 5 0 0 0 3 1Zm12 2.8v-25.7h3.7v9.5h.3l.9-1.3c.4-.6 1-1 1.7-1.4a6 6 0 0 1 2.9-.6 7.5 7.5 0 0 1 7 4.6 12 12 0 0 1 1 5.3c0 2-.3 3.9-1 5.3a7.4 7.4 0 0 1-7 4.6c-1.1 0-2.1-.1-2.8-.5-.8-.4-1.3-.9-1.8-1.4l-1-1.4h-.3v3h-3.6Zm3.7-9.6c0 1.3.2 2.5.5 3.5.4 1 1 1.8 1.8 2.4.7.6 1.6.9 2.7.9s2-.3 2.8-1a5 5 0 0 0 1.7-2.4c.4-1 .6-2.2.6-3.4 0-1.3-.2-2.5-.6-3.5-.4-1-1-1.8-1.7-2.4-.8-.5-1.7-.8-2.8-.8-1.1 0-2 .2-2.8.8-.7.6-1.3 1.3-1.7 2.3-.3 1-.5 2.2-.5 3.6Zm34.9-16h3.8v18.1a8 8 0 0 1-1 4.2 5.9 5.9 0 0 1-2.7 2.7 9.2 9.2 0 0 1-8 .1 6 6 0 0 1-2.7-2.3 6 6 0 0 1-1-3.6h3.9c0 .7.1 1.3.4 1.8.4.5.8 1 1.4 1.2.6.3 1.3.4 2 .4a4 4 0 0 0 2-.5c.7-.3 1-.8 1.4-1.5.3-.7.5-1.5.5-2.5v-18.2Zm15.8 26a8.5 8.5 0 0 1-7.8-4.7c-.8-1.5-1.1-3.3-1.1-5.3s.3-3.7 1-5.2a8.3 8.3 0 0 1 8-4.7c1.7 0 3.3.4 4.7 1.2a8 8 0 0 1 3 3.5 12.5 12.5 0 0 1 .1 10.5 8.4 8.4 0 0 1-3.2 3.4 8.1 8.1 0 0 1-4.7 1.3Zm0-3.2c1.2 0 2.2-.3 3-.9.7-.6 1.3-1.4 1.7-2.5.3-1 .5-2.1.5-3.4a10 10 0 0 0-.5-3.4c-.4-1-1-1.8-1.8-2.4-.7-.7-1.7-1-2.9-1-1.1 0-2.1.3-2.9 1-.8.6-1.3 1.4-1.7 2.4a10.2 10.2 0 0 0 0 6.8c.4 1 1 1.9 1.7 2.5a5 5 0 0 0 3 1Zm15.5-8.7v11.5h-3.7V203h3.5v3.2h.3c.4-1 1.1-1.9 2-2.5a7 7 0 0 1 3.7-1 7 7 0 0 1 3.4.9c1 .5 1.8 1.4 2.3 2.4.5 1.1.8 2.4.8 4v12.3h-3.7v-11.8c0-1.4-.4-2.5-1.1-3.3a3.9 3.9 0 0 0-3-1.2c-.9 0-1.7.2-2.3.6a4 4 0 0 0-1.6 1.6c-.4.8-.6 1.6-.6 2.6Zm24.2 11.9c-1.9 0-3.5-.4-4.9-1.2-1.3-.9-2.4-2-3.1-3.5-.8-1.5-1.1-3.2-1.1-5.2s.3-3.7 1-5.2a8.6 8.6 0 0 1 3.2-3.6 9.4 9.4 0 0 1 7.8-.7 7.6 7.6 0 0 1 4.7 4.7c.4 1.2.7 2.7.7 4.5v1.3h-15.3V211h11.6c0-1-.2-1.9-.6-2.6a4.5 4.5 0 0 0-4.2-2.5 5 5 0 0 0-4.6 2.8c-.4.8-.6 1.7-.6 2.6v2.2c0 1.3.2 2.4.7 3.3.4 1 1 1.6 1.9 2 .8.5 1.8.8 2.8.8a6 6 0 0 0 2-.3c.6-.2 1-.5 1.5-1a4 4 0 0 0 1-1.5l3.5.7c-.3 1-.8 2-1.5 2.7-.7.8-1.6 1.4-2.7 1.8-1.1.5-2.4.7-3.8.7Zm25.4-15-3.4.6-.6-1.2c-.3-.4-.8-.7-1.3-1a5 5 0 0 0-2-.4c-1 0-1.9.3-2.6.8-.7.4-1 1-1 1.8 0 .6.2 1.1.7 1.5.5.4 1.2.7 2.3 1l3 .7c1.8.4 3.1 1 4 1.9.9.8 1.3 2 1.3 3.3a5 5 0 0 1-1 3.1c-.7.9-1.6 1.6-2.8 2.1-1.2.5-2.5.8-4 .8-2.2 0-4-.5-5.3-1.4a5.8 5.8 0 0 1-2.5-4l3.6-.5a3 3 0 0 0 1.4 2.1c.7.5 1.6.8 2.7.8a5 5 0 0 0 3-.8c.7-.5 1-1.2 1-2a2 2 0 0 0-.6-1.4c-.5-.4-1.1-.7-2-1l-3.3-.7c-1.8-.4-3.1-1-4-2-.9-.8-1.3-2-1.3-3.3 0-1.2.3-2.2 1-3 .6-.9 1.5-1.5 2.6-2s2.4-.7 3.8-.7c2.1 0 3.8.4 5 1.3 1.2 1 2 2.1 2.3 3.6Z"/>
    <path stroke="#fff" stroke-width="1.1" d="M1830.6 171.5h-224.7a19.1 19.1 0 0 0-19.1 19.2v36.5c0 10.6 8.5 19.2 19 19.2h224.8c10.5 0 19.1-8.6 19.1-19.2v-36.5c0-10.6-8.6-19.2-19.1-19.2Z"/>
  </g>
  <g filter="url(#t)">
    <path fill="#191919" d="m503.7 391.1 7.4-38.2-32.4 19 16.2 4.5 8.8 14.7Z"/>
    <path stroke="#fff" stroke-width="1.1" d="m510.3 351.6 2.8-1.7-.6 3.2-7.4 38.3-.7 3.8-2-3.3-8.5-14.2-15.6-4.3-3.3-1 3-1.7 32.3-19.1Z"/>
  </g>
  <g filter="url(#u)">
    <path fill="#191919" d="M461 385.2H209.6c-9.7 0-17.6 8-17.6 17.7v36.6c0 9.7 8 17.6 17.6 17.6h251.6c9.7 0 17.6-7.9 17.6-17.6v-36.6c0-9.8-7.9-17.7-17.6-17.7Z"/>
    <path fill="#fff" d="M232.4 434.6h-8.3v-25.7h8.6c2.5 0 4.7.5 6.5 1.6 1.8 1 3.1 2.4 4.1 4.4a15 15 0 0 1 1.5 6.8c0 2.7-.5 5-1.5 7-1 1.8-2.4 3.3-4.2 4.4-1.9 1-4 1.5-6.7 1.5Zm-4.4-3.4h4.2c2 0 3.6-.4 4.9-1a7 7 0 0 0 2.9-3.3 13.4 13.4 0 0 0 0-10.3 6.8 6.8 0 0 0-2.9-3.2c-1.2-.7-2.8-1-4.7-1H228v18.8Zm19.9 3.4v-19.3h3.7v19.3h-3.7Zm1.8-22.2c-.6 0-1.2-.3-1.6-.7a2 2 0 0 1-.7-1.6c0-.6.2-1.1.7-1.5a2 2 0 0 1 1.6-.7c.7 0 1.3.2 1.7.7.5.4.7 1 .7 1.5a2 2 0 0 1-.7 1.6c-.4.4-1 .7-1.7.7Zm11.1 22.6c-1.2 0-2.3-.2-3.3-.7-1-.4-1.7-1-2.3-2-.6-.8-.9-1.9-.9-3.1 0-1.1.2-2 .7-2.7.4-.7 1-1.3 1.6-1.7l2.4-1 2.7-.4 2.8-.3a5 5 0 0 0 1.6-.5c.3-.2.5-.5.5-1 0-1.1-.3-2-1-2.6-.6-.6-1.5-.9-2.7-.9-1.3 0-2.2.3-3 .9-.7.5-1.2 1.1-1.5 1.8l-3.5-.8a6.8 6.8 0 0 1 4.6-4.4 10.8 10.8 0 0 1 5.8-.2c.9.1 1.7.5 2.4 1 .8.4 1.4 1.1 1.9 2 .5.9.7 2 .7 3.4v12.8h-3.6V432h-.2a5.4 5.4 0 0 1-3 2.6 7 7 0 0 1-2.7.4Zm.8-3c1 0 2-.2 2.7-.6a4.3 4.3 0 0 0 2.3-3.8v-2.4a2 2 0 0 1-.8.3c-.4.2-.8.2-1.3.3l-1.4.2-1.2.2a5 5 0 0 0-2 .5c-.5.2-1 .5-1.4.9-.3.4-.5 1-.5 1.6 0 1 .3 1.6 1 2.1s1.6.7 2.6.7Zm16-8.8v11.4H274v-19.3h3.6v3.2h.2c.5-1 1.2-1.9 2.1-2.5a7 7 0 0 1 3.6-1 7 7 0 0 1 3.4 1c1 .5 1.8 1.3 2.3 2.3.6 1.1.8 2.5.8 4v12.3h-3.7v-11.8c0-1.4-.4-2.5-1-3.3a3.9 3.9 0 0 0-3-1.2c-1 0-1.7.2-2.4.6a4 4 0 0 0-1.6 1.7 5 5 0 0 0-.6 2.6Zm19.7 0v11.4h-3.7v-19.3h3.6v3.2h.2c.4-1 1.1-1.9 2-2.5a7 7 0 0 1 3.7-1 7 7 0 0 1 3.4 1c1 .5 1.8 1.3 2.3 2.3.5 1.1.8 2.5.8 4v12.3H306v-11.8c0-1.4-.4-2.5-1.1-3.3a3.9 3.9 0 0 0-3-1.2c-.9 0-1.7.2-2.3.6a4 4 0 0 0-1.6 1.7 5 5 0 0 0-.6 2.6Zm24.2 11.8a8.2 8.2 0 0 1-8-4.7c-.8-1.5-1.1-3.2-1.1-5.2s.3-3.7 1-5.2a8.6 8.6 0 0 1 3.2-3.5 9.4 9.4 0 0 1 7.8-.7 7.6 7.6 0 0 1 4.7 4.6c.4 1.2.7 2.7.7 4.5v1.3h-15.3v-2.8H326c0-1-.2-1.9-.6-2.6a4.5 4.5 0 0 0-4.2-2.5c-1 0-2 .2-2.8.8-.8.5-1.4 1.1-1.8 2-.4.8-.6 1.7-.6 2.6v2.2c0 1.3.2 2.4.7 3.3.4 1 1 1.6 1.9 2a6 6 0 0 0 4.8.4c.6-.1 1-.4 1.5-.8.4-.5.8-1 1-1.6l3.5.7c-.3 1-.8 2-1.5 2.7-.7.8-1.6 1.4-2.7 1.8-1.1.5-2.4.7-3.8.7Zm19.2-.4v-25.7h9.2c2 0 3.6.4 5 1a8 8 0 0 1 2.9 2.9 9.3 9.3 0 0 1 0 8.3 6.7 6.7 0 0 1-3 2.8c-1.3.6-3 1-5 1H343v-3.4h6.6c1.3 0 2.3-.1 3-.5.9-.4 1.4-.9 1.8-1.6.4-.6.6-1.5.6-2.4 0-1-.2-1.8-.6-2.6-.4-.7-1-1.2-1.7-1.6a7 7 0 0 0-3.1-.6h-4.9v22.4h-3.9Zm12.7-11.6 6.3 11.6h-4.4l-6.2-11.6h4.3Zm20.5 3.6v-11.3h3.8v19.3H374v-3.3h-.2a6 6 0 0 1-2.1 2.5 6 6 0 0 1-3.6 1 5.7 5.7 0 0 1-5.5-3.3 9 9 0 0 1-.9-4v-12.2h3.8v11.8c0 1.3.4 2.4 1 3.2a4.6 4.6 0 0 0 7.3-3.7Zm21.8-6.6-3.4.6a4 4 0 0 0-.6-1.2c-.3-.4-.8-.7-1.3-1-.5-.2-1.1-.3-2-.3-1 0-1.9.2-2.6.7-.7.4-1 1-1 1.8 0 .6.2 1.2.7 1.5a5 5 0 0 0 2.3 1l3 .7c1.8.4 3.1 1 4 1.9.9.9 1.3 2 1.3 3.3a5 5 0 0 1-1 3.1 6 6 0 0 1-2.8 2.1c-1.1.5-2.5.8-4 .8-2.2 0-4-.5-5.3-1.4a5.8 5.8 0 0 1-2.5-4l3.6-.5a3 3 0 0 0 1.4 2.1c.7.5 1.6.8 2.7.8a5 5 0 0 0 3-.8c.7-.5 1-1.2 1-1.9a2 2 0 0 0-.6-1.5c-.5-.4-1.1-.7-2-1l-3.3-.7c-1.8-.4-3.1-1-4-2-.9-.8-1.3-2-1.3-3.3 0-1.1.3-2.1 1-3 .6-.8 1.5-1.5 2.6-2s2.4-.7 3.8-.7c2.1 0 3.8.4 5 1.3 1.2 1 2 2.1 2.3 3.6Zm17.5 0-3.4.6a4 4 0 0 0-.7-1.2 4 4 0 0 0-1.2-1c-.5-.2-1.1-.3-2-.3-1 0-1.9.2-2.6.7-.7.4-1 1-1 1.8 0 .6.2 1.2.7 1.5a5 5 0 0 0 2.3 1l3 .7c1.8.4 3.1 1 4 1.9.9.9 1.3 2 1.3 3.3a5 5 0 0 1-1 3.1 6 6 0 0 1-2.8 2.1c-1.2.5-2.5.8-4 .8-2.2 0-4-.5-5.3-1.4a5.8 5.8 0 0 1-2.5-4l3.6-.5a3 3 0 0 0 1.4 2.1c.7.5 1.6.8 2.7.8a5 5 0 0 0 3-.8c.7-.5 1-1.2 1-1.9a2 2 0 0 0-.6-1.5c-.5-.4-1.2-.7-2-1l-3.3-.7c-1.8-.4-3.1-1-4-2-.9-.8-1.3-2-1.3-3.3 0-1.1.3-2.1 1-3 .6-.8 1.5-1.5 2.6-2s2.4-.7 3.8-.7c2.1 0 3.8.4 5 1.3 1.1 1 2 2.1 2.3 3.6Zm11.4 15c-2 0-3.5-.4-5-1.2-1.3-.9-2.3-2-3-3.5-.8-1.5-1.2-3.2-1.2-5.2s.4-3.7 1.1-5.2a8.6 8.6 0 0 1 3.1-3.5 9.4 9.4 0 0 1 7.8-.7 7.6 7.6 0 0 1 4.7 4.6c.5 1.2.7 2.7.7 4.5v1.3h-15.2v-2.8h11.6c0-1-.2-1.9-.6-2.6a4.5 4.5 0 0 0-4.2-2.5c-1.1 0-2 .2-2.8.8-.8.5-1.4 1.1-1.8 2-.4.8-.6 1.7-.6 2.6v2.2c0 1.3.2 2.4.6 3.3.5 1 1.1 1.6 2 2 .8.5 1.7.8 2.8.8a6 6 0 0 0 2-.3c.6-.2 1-.5 1.5-1 .4-.4.7-.9 1-1.5l3.5.7a6.5 6.5 0 0 1-4.3 4.5c-1 .5-2.3.7-3.7.7Zm14.7-26v25.6h-3.7v-25.7h3.7Zm7.4 0v25.6H443v-25.7h3.7Z"/>
    <path stroke="#fff" stroke-width="1.1" d="M461 383.8H209.6a19.1 19.1 0 0 0-19 19v36.7a19 19 0 0 0 19 19h251.6a19 19 0 0 0 19-19v-36.6a19 19 0 0 0-19-19.1Z"/>
  </g>
  <defs>
    <filter id="l" width="633" height="503.8" x="630.5" y="114.9" color-interpolation-filters="sRGB" filterUnits="userSpaceOnUse">
      <feFlood flood-opacity="0" result="BackgroundImageFix"/>
      <feColorMatrix in="SourceAlpha" result="hardAlpha" values="0 0 0 0 0 0 0 0 0 0 0 0 0 0 0 0 0 0 127 0"/>
      <feOffset dy="23.9"/>
      <feGaussianBlur stdDeviation="24.9"/>
      <feComposite in2="hardAlpha" operator="out"/>
      <feColorMatrix values="0 0 0 0 0.132056 0 0 0 0 0.0694444 0 0 0 0 0.133333 0 0 0 0.05 0"/>
      <feBlend in2="BackgroundImageFix" result="effect1_dropShadow_325_13608"/>
      <feBlend in="SourceGraphic" in2="effect1_dropShadow_325_13608" result="shape"/>
    </filter>
    <filter id="r" width="57.8" height="65.4" x="1544.3" y="132.3" color-interpolation-filters="sRGB" filterUnits="userSpaceOnUse">
      <feFlood flood-opacity="0" result="BackgroundImageFix"/>
      <feColorMatrix in="SourceAlpha" result="hardAlpha" values="0 0 0 0 0 0 0 0 0 0 0 0 0 0 0 0 0 0 127 0"/>
      <feOffset dy="4.4"/>
      <feGaussianBlur stdDeviation="4.4"/>
      <feComposite in2="hardAlpha" operator="out"/>
      <feColorMatrix values="0 0 0 0 0 0 0 0 0 0 0 0 0 0 0 0 0 0 0.25 0"/>
      <feBlend in2="BackgroundImageFix" result="effect1_dropShadow_325_13608"/>
      <feBlend in="SourceGraphic" in2="effect1_dropShadow_325_13608" result="shape"/>
    </filter>
    <filter id="s" width="281.5" height="93.4" x="1577.5" y="166.6" color-interpolation-filters="sRGB" filterUnits="userSpaceOnUse">
      <feFlood flood-opacity="0" result="BackgroundImageFix"/>
      <feColorMatrix in="SourceAlpha" result="hardAlpha" values="0 0 0 0 0 0 0 0 0 0 0 0 0 0 0 0 0 0 127 0"/>
      <feOffset dy="4.4"/>
      <feGaussianBlur stdDeviation="4.4"/>
      <feComposite in2="hardAlpha" operator="out"/>
      <feColorMatrix values="0 0 0 0 0 0 0 0 0 0 0 0 0 0 0 0 0 0 0.25 0"/>
      <feBlend in2="BackgroundImageFix" result="effect1_dropShadow_325_13608"/>
      <feBlend in="SourceGraphic" in2="effect1_dropShadow_325_13608" result="shape"/>
    </filter>
    <filter id="t" width="57.8" height="65.4" x="464.8" y="344.5" color-interpolation-filters="sRGB" filterUnits="userSpaceOnUse">
      <feFlood flood-opacity="0" result="BackgroundImageFix"/>
      <feColorMatrix in="SourceAlpha" result="hardAlpha" values="0 0 0 0 0 0 0 0 0 0 0 0 0 0 0 0 0 0 127 0"/>
      <feOffset dy="4.4"/>
      <feGaussianBlur stdDeviation="4.4"/>
      <feComposite in2="hardAlpha" operator="out"/>
      <feColorMatrix values="0 0 0 0 0 0 0 0 0 0 0 0 0 0 0 0 0 0 0.25 0"/>
      <feBlend in2="BackgroundImageFix" result="effect1_dropShadow_325_13608"/>
      <feBlend in="SourceGraphic" in2="effect1_dropShadow_325_13608" result="shape"/>
    </filter>
    <filter id="u" width="308.4" height="93.4" x="181.1" y="378.8" color-interpolation-filters="sRGB" filterUnits="userSpaceOnUse">
      <feFlood flood-opacity="0" result="BackgroundImageFix"/>
      <feColorMatrix in="SourceAlpha" result="hardAlpha" values="0 0 0 0 0 0 0 0 0 0 0 0 0 0 0 0 0 0 127 0"/>
      <feOffset dy="4.4"/>
      <feGaussianBlur stdDeviation="4.4"/>
      <feComposite in2="hardAlpha" operator="out"/>
      <feColorMatrix values="0 0 0 0 0 0 0 0 0 0 0 0 0 0 0 0 0 0 0.25 0"/>
      <feBlend in2="BackgroundImageFix" result="effect1_dropShadow_325_13608"/>
      <feBlend in="SourceGraphic" in2="effect1_dropShadow_325_13608" result="shape"/>
    </filter>
    <linearGradient id="b" x1="105.8" x2="79.8" y1="111.7" y2="161.5" gradientUnits="userSpaceOnUse">
      <stop stop-color="#00FFA3"/>
      <stop offset="1" stop-color="#DC1FFF"/>
    </linearGradient>
    <linearGradient id="c" x1="94.4" x2="68.4" y1="105.8" y2="155.6" gradientUnits="userSpaceOnUse">
      <stop stop-color="#00FFA3"/>
      <stop offset="1" stop-color="#DC1FFF"/>
    </linearGradient>
    <linearGradient id="d" x1="100.1" x2="74.1" y1="108.7" y2="158.5" gradientUnits="userSpaceOnUse">
      <stop stop-color="#00FFA3"/>
      <stop offset="1" stop-color="#DC1FFF"/>
    </linearGradient>
  </defs>
</svg>
