<svg width="605" height="556" viewBox="0 0 605 556" fill="none" xmlns="http://www.w3.org/2000/svg">
<g filter="url(#filter0_d_303_13557)">
<rect width="64" height="64" rx="8" transform="matrix(0.985556 0.16935 0.0247811 0.999693 109.249 305.089)" fill="#EBEBEB"/>
</g>
<g filter="url(#filter1_d_303_13557)">
<rect width="64" height="64" rx="8" transform="matrix(0.985556 0.16935 0.0247811 0.999693 69 27.4144)" fill="#EBEBEB"/>
</g>
<g filter="url(#filter2_d_303_13557)">
<rect width="64" height="64" rx="8" transform="matrix(0.985556 0.16935 0.0247811 0.999693 486.326 393.772)" fill="#EAEAEA"/>
</g>
<g filter="url(#filter3_d_303_13557)">
<rect width="64" height="64" rx="8" transform="matrix(0.985556 0.16935 0.0247811 0.999693 446.077 116.099)" fill="#EBEBEB" shape-rendering="crispEdges"/>
<path d="M470.722 160.151C470.647 157.152 474.59 157.829 476.511 156.168C477.472 155.338 474.515 154.83 474.391 149.832C474.309 146.5 475.581 145.059 478.21 145.51C480.838 145.962 482.193 147.854 482.276 151.186C482.4 156.185 479.443 155.677 480.453 156.846C482.474 159.184 486.416 159.861 486.491 162.86" stroke="#FF008A" stroke-width="1.5" stroke-linecap="round" stroke-linejoin="round"/>
<circle cx="7.2" cy="7.2" r="4.5" transform="matrix(0.985556 0.16935 0.0247811 0.999693 439.798 139.906)" fill="white" stroke="#FF008A" stroke-width="5.4"/>
</g>
<g filter="url(#filter4_d_303_13557)">
<rect width="184" height="184.164" rx="8" transform="matrix(0.985556 0.16935 0.0247811 0.999693 221.043 136.451)" fill="#ECECEC"/>
</g>
<path d="M394.397 321.652C477.184 335.877 429.558 425.744 479.625 434.347" stroke="#7102F3"/>
<path d="M299.714 164.031L297.533 76.058" stroke="url(#paint0_linear_303_13557)"/>
<path d="M304.274 347.974L306.455 435.947" stroke="url(#paint1_linear_303_13557)"/>
<path d="M392.665 271.583L479.394 286.486" stroke="url(#paint2_linear_303_13557)"/>
<path d="M124.594 225.52L211.323 240.422" stroke="url(#paint3_linear_303_13557)"/>
<path d="M391.438 222.098C441.702 230.735 390.184 147.722 439.856 156.258" stroke="#7102F3"/>
<path d="M165.13 356.417C215.394 365.054 163.876 282.041 213.548 290.577" stroke="#FF008A"/>
<path d="M124.869 78.2426C207.655 92.4679 160.03 182.335 210.096 190.938" stroke="#FF008A"/>
<g filter="url(#filter5_d_303_13557)">
<rect width="64" height="64" rx="8" transform="matrix(0.985556 0.16935 0.0247811 0.999693 61 35.4141)" fill="white" shape-rendering="crispEdges"/>
<path d="M89.4033 80.3518L88.9818 63.35C88.9681 62.7976 89.3985 62.4257 89.943 62.5193L95.8588 63.5358C96.4033 63.6294 96.8559 64.153 96.8696 64.7053L97.291 81.7072" stroke="#FF008A" stroke-width="1.5" stroke-linecap="round" stroke-linejoin="round"/>
<path d="M102.221 82.5543L101.897 69.4659C101.884 68.9616 101.471 68.4835 100.974 68.3981L96.9443 67.7057" stroke="#FF008A" stroke-width="1.5" stroke-linecap="round" stroke-linejoin="round"/>
<path d="M89.0563 66.3503L85.0267 65.6579C84.5295 65.5724 84.1366 65.912 84.1491 66.4163L84.4735 79.5047" stroke="#FF008A" stroke-width="1.5" stroke-linecap="round" stroke-linejoin="round"/>
<path d="M97.0183 70.706L99.4832 71.1295" stroke="#FF008A" stroke-width="1.5" stroke-linecap="round" stroke-linejoin="round"/>
<path d="M97.093 73.7062L99.5579 74.1298" stroke="#FF008A" stroke-width="1.5" stroke-linecap="round" stroke-linejoin="round"/>
<path d="M97.1672 76.7066L99.6321 77.1301" stroke="#FF008A" stroke-width="1.5" stroke-linecap="round" stroke-linejoin="round"/>
<path d="M86.6657 68.9271L89.1306 69.3506" stroke="#FF008A" stroke-width="1.5" stroke-linecap="round" stroke-linejoin="round"/>
<path d="M86.7404 71.9274L89.2053 72.351" stroke="#FF008A" stroke-width="1.5" stroke-linecap="round" stroke-linejoin="round"/>
<path d="M86.8146 74.9277L89.2796 75.3512" stroke="#FF008A" stroke-width="1.5" stroke-linecap="round" stroke-linejoin="round"/>
<path d="M91.6701 72.7745L94.628 73.2827" stroke="#FF008A" stroke-width="1.5" stroke-linecap="round" stroke-linejoin="round"/>
<path d="M91.7443 75.7748L94.7022 76.2831" stroke="#FF008A" stroke-width="1.5" stroke-linecap="round" stroke-linejoin="round"/>
<path d="M91.5959 69.7741L94.5538 70.2824" stroke="#FF008A" stroke-width="1.5" stroke-linecap="round" stroke-linejoin="round"/>
<path d="M91.5212 66.7739L94.4791 67.2821" stroke="#FF008A" stroke-width="1.5" stroke-linecap="round" stroke-linejoin="round"/>
<path d="M93.2977 79.0293L93.3473 81.0295" stroke="#FF008A" stroke-width="1.5" stroke-linecap="round" stroke-linejoin="round"/>
<path d="M103.207 82.7237L83.4875 79.3353" stroke="#FF008A" stroke-width="1.5" stroke-linecap="round" stroke-linejoin="round"/>
<rect x="0.505169" y="0.584521" width="63" height="63" rx="7.5" transform="matrix(0.985556 0.16935 0.0247811 0.999693 60.9928 35.3287)" stroke="#E6E6E6" shape-rendering="crispEdges"/>
</g>
<circle cx="7.2" cy="7.2" r="4.5" transform="matrix(0.985556 0.16935 0.0247811 0.999693 117.796 70.0593)" fill="white" stroke="#FF008A" stroke-width="5.4"/>
<g filter="url(#filter6_d_303_13557)">
<rect width="64" height="64" rx="8" transform="matrix(0.985556 0.16935 0.0247811 0.999693 101.25 313.088)" fill="white" shape-rendering="crispEdges"/>
<path d="M129.404 358.351L128.982 341.349C128.969 340.797 129.399 340.425 129.943 340.519L135.859 341.535C136.404 341.629 136.856 342.152 136.87 342.705L137.291 359.707" stroke="#FF008A" stroke-width="1.5" stroke-linecap="round" stroke-linejoin="round"/>
<path d="M142.222 360.554L141.897 347.465C141.885 346.961 141.472 346.483 140.974 346.398L136.945 345.705" stroke="#FF008A" stroke-width="1.5" stroke-linecap="round" stroke-linejoin="round"/>
<path d="M129.057 344.35L125.027 343.657C124.53 343.572 124.137 343.911 124.15 344.416L124.474 357.504" stroke="#FF008A" stroke-width="1.5" stroke-linecap="round" stroke-linejoin="round"/>
<path d="M137.019 348.705L139.484 349.129" stroke="#FF008A" stroke-width="1.5" stroke-linecap="round" stroke-linejoin="round"/>
<path d="M137.093 351.706L139.558 352.129" stroke="#FF008A" stroke-width="1.5" stroke-linecap="round" stroke-linejoin="round"/>
<path d="M137.168 354.706L139.633 355.13" stroke="#FF008A" stroke-width="1.5" stroke-linecap="round" stroke-linejoin="round"/>
<path d="M126.666 346.927L129.131 347.35" stroke="#FF008A" stroke-width="1.5" stroke-linecap="round" stroke-linejoin="round"/>
<path d="M126.741 349.927L129.206 350.35" stroke="#FF008A" stroke-width="1.5" stroke-linecap="round" stroke-linejoin="round"/>
<path d="M126.815 352.927L129.28 353.351" stroke="#FF008A" stroke-width="1.5" stroke-linecap="round" stroke-linejoin="round"/>
<path d="M131.671 350.774L134.628 351.282" stroke="#FF008A" stroke-width="1.5" stroke-linecap="round" stroke-linejoin="round"/>
<path d="M131.745 353.774L134.703 354.283" stroke="#FF008A" stroke-width="1.5" stroke-linecap="round" stroke-linejoin="round"/>
<path d="M131.596 347.774L134.554 348.282" stroke="#FF008A" stroke-width="1.5" stroke-linecap="round" stroke-linejoin="round"/>
<path d="M131.522 344.773L134.48 345.282" stroke="#FF008A" stroke-width="1.5" stroke-linecap="round" stroke-linejoin="round"/>
<path d="M133.298 357.029L133.348 359.029" stroke="#FF008A" stroke-width="1.5" stroke-linecap="round" stroke-linejoin="round"/>
<path d="M143.207 360.723L123.488 357.335" stroke="#FF008A" stroke-width="1.5" stroke-linecap="round" stroke-linejoin="round"/>
<rect x="0.505169" y="0.584521" width="63" height="63" rx="7.5" transform="matrix(0.985556 0.16935 0.0247811 0.999693 101.242 313.003)" stroke="#E6E6E6" shape-rendering="crispEdges"/>
</g>
<circle cx="7.2" cy="7.2" r="4.5" transform="matrix(0.985556 0.16935 0.0247811 0.999693 158.046 347.734)" fill="white" stroke="#FF008A" stroke-width="5.4"/>
<g filter="url(#filter7_d_303_13557)">
<rect width="64" height="64" rx="8" transform="matrix(0.985556 0.16935 0.0247811 0.999693 438.077 124.098)" fill="white" shape-rendering="crispEdges"/>
<path d="M466.403 169.351L465.982 152.35C465.968 151.797 466.398 151.425 466.943 151.519L472.859 152.535C473.403 152.629 473.856 153.153 473.87 153.705L474.291 170.707" stroke="#7102F3" stroke-width="1.5" stroke-linecap="round" stroke-linejoin="round"/>
<path d="M479.221 171.554L478.897 158.466C478.884 157.961 478.471 157.483 477.974 157.398L473.944 156.705" stroke="#7102F3" stroke-width="1.5" stroke-linecap="round" stroke-linejoin="round"/>
<path d="M466.056 155.35L462.027 154.657C461.529 154.572 461.137 154.912 461.149 155.416L461.474 168.504" stroke="#7102F3" stroke-width="1.5" stroke-linecap="round" stroke-linejoin="round"/>
<path d="M474.018 159.706L476.483 160.129" stroke="#7102F3" stroke-width="1.5" stroke-linecap="round" stroke-linejoin="round"/>
<path d="M474.093 162.706L476.558 163.129" stroke="#7102F3" stroke-width="1.5" stroke-linecap="round" stroke-linejoin="round"/>
<path d="M474.167 165.706L476.632 166.13" stroke="#7102F3" stroke-width="1.5" stroke-linecap="round" stroke-linejoin="round"/>
<path d="M463.666 157.927L466.131 158.35" stroke="#7102F3" stroke-width="1.5" stroke-linecap="round" stroke-linejoin="round"/>
<path d="M463.74 160.927L466.205 161.351" stroke="#7102F3" stroke-width="1.5" stroke-linecap="round" stroke-linejoin="round"/>
<path d="M463.815 163.927L466.28 164.351" stroke="#7102F3" stroke-width="1.5" stroke-linecap="round" stroke-linejoin="round"/>
<path d="M468.67 161.774L471.628 162.282" stroke="#7102F3" stroke-width="1.5" stroke-linecap="round" stroke-linejoin="round"/>
<path d="M468.744 164.774L471.702 165.283" stroke="#7102F3" stroke-width="1.5" stroke-linecap="round" stroke-linejoin="round"/>
<path d="M468.596 158.774L471.554 159.282" stroke="#7102F3" stroke-width="1.5" stroke-linecap="round" stroke-linejoin="round"/>
<path d="M468.521 155.773L471.479 156.282" stroke="#7102F3" stroke-width="1.5" stroke-linecap="round" stroke-linejoin="round"/>
<path d="M470.298 168.029L470.347 170.029" stroke="#7102F3" stroke-width="1.5" stroke-linecap="round" stroke-linejoin="round"/>
<path d="M480.207 171.723L460.487 168.335" stroke="#7102F3" stroke-width="1.5" stroke-linecap="round" stroke-linejoin="round"/>
<rect x="0.505169" y="0.584521" width="63" height="63" rx="7.5" transform="matrix(0.985556 0.16935 0.0247811 0.999693 438.07 124.013)" stroke="#E6E6E6" shape-rendering="crispEdges"/>
</g>
<circle cx="7.2" cy="7.2" r="4.5" transform="matrix(0.985556 0.16935 0.0247811 0.999693 431.798 147.905)" fill="white" stroke="#7102F3" stroke-width="5.4"/>
<g filter="url(#filter8_d_303_13557)">
<rect width="64" height="64" rx="8" transform="matrix(0.985556 0.16935 0.0247811 0.999693 478.327 401.773)" fill="white" shape-rendering="crispEdges"/>
<path d="M506.404 447.352L505.982 430.35C505.969 429.798 506.399 429.426 506.943 429.519L512.859 430.536C513.404 430.629 513.856 431.153 513.87 431.705L514.291 448.707" stroke="#7102F3" stroke-width="1.5" stroke-linecap="round" stroke-linejoin="round"/>
<path d="M519.221 449.554L518.897 436.466C518.884 435.962 518.471 435.484 517.974 435.398L513.944 434.706" stroke="#7102F3" stroke-width="1.5" stroke-linecap="round" stroke-linejoin="round"/>
<path d="M506.057 433.35L502.027 432.658C501.53 432.573 501.137 432.912 501.149 433.416L501.474 446.505" stroke="#7102F3" stroke-width="1.5" stroke-linecap="round" stroke-linejoin="round"/>
<path d="M514.019 437.706L516.484 438.13" stroke="#7102F3" stroke-width="1.5" stroke-linecap="round" stroke-linejoin="round"/>
<path d="M514.093 440.706L516.558 441.13" stroke="#7102F3" stroke-width="1.5" stroke-linecap="round" stroke-linejoin="round"/>
<path d="M514.167 443.707L516.632 444.13" stroke="#7102F3" stroke-width="1.5" stroke-linecap="round" stroke-linejoin="round"/>
<path d="M503.666 435.927L506.131 436.351" stroke="#7102F3" stroke-width="1.5" stroke-linecap="round" stroke-linejoin="round"/>
<path d="M503.74 438.928L506.205 439.351" stroke="#7102F3" stroke-width="1.5" stroke-linecap="round" stroke-linejoin="round"/>
<path d="M503.815 441.928L506.28 442.351" stroke="#7102F3" stroke-width="1.5" stroke-linecap="round" stroke-linejoin="round"/>
<path d="M508.67 439.775L511.628 440.283" stroke="#7102F3" stroke-width="1.5" stroke-linecap="round" stroke-linejoin="round"/>
<path d="M508.745 442.775L511.702 443.283" stroke="#7102F3" stroke-width="1.5" stroke-linecap="round" stroke-linejoin="round"/>
<path d="M508.596 436.774L511.554 437.282" stroke="#7102F3" stroke-width="1.5" stroke-linecap="round" stroke-linejoin="round"/>
<path d="M508.522 433.774L511.48 434.282" stroke="#7102F3" stroke-width="1.5" stroke-linecap="round" stroke-linejoin="round"/>
<path d="M510.298 446.029L510.347 448.03" stroke="#7102F3" stroke-width="1.5" stroke-linecap="round" stroke-linejoin="round"/>
<path d="M520.207 449.724L500.488 446.335" stroke="#7102F3" stroke-width="1.5" stroke-linecap="round" stroke-linejoin="round"/>
<rect x="0.505169" y="0.584521" width="63" height="63" rx="7.5" transform="matrix(0.985556 0.16935 0.0247811 0.999693 478.319 401.687)" stroke="#E6E6E6" shape-rendering="crispEdges"/>
</g>
<circle cx="7.2" cy="7.2" r="4.5" transform="matrix(0.985556 0.16935 0.0247811 0.999693 472.047 425.579)" fill="white" stroke="#7102F3" stroke-width="5.4"/>
<g filter="url(#filter9_d_303_13557)">
<rect width="184" height="184.164" rx="8" transform="matrix(0.985556 0.16935 0.0247811 0.999693 209.043 148.451)" fill="white" shape-rendering="crispEdges"/>
<path d="M250.436 155.563C249.42 114.576 210.283 99.4893 209.45 65.8997" stroke="url(#paint4_linear_303_13557)"/>
<path d="M254.996 339.507C256.012 380.494 217.291 382.203 218.124 415.792" stroke="url(#paint5_linear_303_13557)"/>
<path d="M348.992 172.498C347.976 131.511 386.697 129.803 385.865 96.2133" stroke="url(#paint6_linear_303_13557)"/>
<path d="M353.552 356.442C354.568 397.429 393.705 412.516 394.538 446.106" stroke="url(#paint7_linear_303_13557)"/>
<g clip-path="url(#clip0_303_13557)">
<path d="M318.328 224.955C317.985 224.605 317.632 224.257 317.27 223.917C317.673 224.235 318.069 224.565 318.466 224.908C321.463 227.498 324.042 230.591 326.052 234.009C328.062 237.426 329.464 241.099 330.176 244.815C330.085 239.898 328.82 234.847 326.493 230.099C324.166 225.351 320.846 221.05 316.822 217.57L316.667 217.436C304.694 207.176 288.624 207.195 280.619 217.632L280.38 217.95C276.563 223.12 275.124 230.027 276.36 237.246C277.597 244.464 281.415 251.443 287.026 256.743C286.625 256.425 286.227 256.094 285.833 255.753C282.852 253.171 280.285 250.093 278.28 246.693C276.274 243.294 274.869 239.641 274.144 235.941C273.42 232.242 273.39 228.57 274.057 225.134C274.724 221.698 276.074 218.566 278.031 215.917C278.359 215.471 278.701 215.045 279.057 214.639C276.098 217.256 273.862 220.638 272.507 224.546C271.152 228.454 270.711 232.793 271.214 237.261C271.718 241.728 273.154 246.215 275.421 250.406C277.689 254.597 280.733 258.391 284.34 261.521C290.824 267.155 298.731 270.29 306.346 270.244L308.715 270.131L308.891 270.112C329.445 268.066 334.962 241.956 318.328 224.955ZM317.596 249.938C317.196 254.442 314.434 257.921 310.874 259.894C310.182 260.282 309.451 260.605 308.687 260.86C305.016 262.058 300.887 261.497 296.746 259.412C289.74 255.881 285.263 246.88 286.775 239.972C287.952 234.586 291.684 231 293.984 226.344C294.646 225.003 295.304 223.264 294.425 221.572C294.425 221.572 297.95 224.911 298.047 228.826C298.047 228.826 302.174 225.369 301.479 216.22C301.483 216.369 302.106 216.916 302.21 217.03C302.879 217.792 303.53 218.565 304.162 219.35C306.277 221.942 308.243 224.649 310.047 227.452C314.452 234.305 318.268 242.387 317.596 249.938ZM299.528 246.562C299.537 247.227 299.352 247.842 298.998 248.328C298.644 248.815 298.136 249.153 297.539 249.298C296.941 249.444 296.28 249.391 295.639 249.146C294.998 248.902 294.406 248.476 293.936 247.923C293.467 247.37 293.142 246.715 293.001 246.039C292.861 245.364 292.912 244.698 293.148 244.126C293.384 243.555 293.794 243.102 294.326 242.826C294.859 242.55 295.491 242.462 296.142 242.574C297.023 242.731 297.875 243.239 298.51 243.987C299.145 244.735 299.511 245.661 299.528 246.562ZM308.346 244.671C309.008 244.775 309.664 245.08 310.228 245.546C310.793 246.012 311.242 246.618 311.517 247.287C311.792 247.956 311.882 248.657 311.774 249.303C311.667 249.948 311.367 250.508 310.914 250.911C310.46 251.314 309.873 251.542 309.227 251.566C308.58 251.59 307.904 251.409 307.285 251.046C306.665 250.683 306.129 250.154 305.746 249.527C305.363 248.9 305.149 248.203 305.132 247.525C305.105 246.623 305.428 245.816 306.03 245.281C306.633 244.746 307.465 244.526 308.346 244.671Z" fill="url(#paint8_linear_303_13557)"/>
</g>
<path fill-rule="evenodd" clip-rule="evenodd" d="M325.374 282.046C324.892 282.065 324.356 282.398 324.155 282.804C323.757 283.61 324.159 284.708 325.07 285.303C325.374 285.501 325.394 285.508 325.83 285.583C326.251 285.656 326.296 285.655 326.552 285.578C326.916 285.469 327.257 285.183 327.42 284.849C327.528 284.63 327.544 284.547 327.548 284.199C327.553 283.864 327.539 283.761 327.46 283.555C327.266 283.044 326.845 282.553 326.387 282.303C326.125 282.161 325.633 282.035 325.374 282.046ZM257.109 271.205C257.099 271.231 257.123 272.721 257.162 274.516L257.233 277.779L256.946 277.385C256.461 276.719 255.824 276.133 255.052 275.642C254.211 275.107 253.391 274.811 252.368 274.672C250.819 274.462 249.582 274.78 248.531 275.658C248.037 276.07 247.752 276.415 247.442 276.973C246.338 278.958 246.412 281.975 247.624 284.357C247.973 285.043 248.241 285.437 248.77 286.04C249.943 287.379 251.284 288.146 252.957 288.435C254.154 288.641 255.153 288.518 256.091 288.051C256.493 287.85 257.005 287.448 257.291 287.107L257.477 286.886L257.513 287.905L257.549 288.924L259.122 289.205L260.695 289.485L260.464 280.599L260.234 271.713L258.68 271.435C257.459 271.217 257.123 271.168 257.109 271.205ZM279.356 277.817L279.4 279.624L278.447 279.46L277.493 279.297L277.525 280.561L277.556 281.826L278.509 281.99L279.463 282.154L279.556 285.858C279.612 288.12 279.667 289.675 279.696 289.851C279.805 290.508 280.025 291.098 280.359 291.626C280.699 292.166 281.323 292.781 281.853 293.101C282.365 293.409 282.7 293.525 283.445 293.654C284.228 293.788 284.573 293.781 285.202 293.619C285.538 293.532 286.15 293.27 286.242 293.174C286.279 293.135 286.198 292.909 285.829 292.035C285.576 291.436 285.363 290.938 285.356 290.929C285.349 290.92 285.258 290.957 285.154 291.011C284.855 291.166 284.6 291.201 284.166 291.149C283.81 291.106 283.755 291.089 283.549 290.962C283.25 290.777 283.004 290.491 282.839 290.137L282.704 289.848L282.604 286.262L282.504 282.677L284.007 282.935L285.509 283.193L285.478 281.928L285.446 280.663L283.945 280.405L282.444 280.147L282.399 278.34L282.354 276.533L280.832 276.272L279.311 276.01L279.356 277.817ZM268.6 277.493C267.748 277.444 267.005 277.488 266.09 277.643C265.438 277.753 264.474 277.991 264.374 278.066C264.326 278.103 264.399 278.277 264.877 279.265L265.436 280.421L265.813 280.311C266.578 280.089 267.417 279.968 268.176 279.971C268.652 279.973 269.582 280.152 270.044 280.331C270.6 280.546 271.06 280.856 271.402 281.245C271.984 281.908 272.281 282.659 272.304 283.528L272.315 283.915L271.829 283.679C270.683 283.124 269.801 282.834 268.646 282.636C267.736 282.479 267.414 282.462 266.765 282.536C265.622 282.666 264.666 283.122 264.066 283.823C263.824 284.105 263.514 284.702 263.436 285.038C263.291 285.652 263.311 286.516 263.483 287.133C263.794 288.251 264.566 289.284 265.628 290.002C266.13 290.342 266.485 290.527 267.051 290.743C267.645 290.969 268.927 291.201 269.452 291.177C270.527 291.127 271.475 290.804 272.15 290.257L272.464 290.002L272.493 290.75L272.523 291.497L274.055 291.771L275.587 292.044L275.486 287.978C275.426 285.547 275.364 283.732 275.333 283.463C275.171 282.069 274.702 280.967 273.832 279.934C273.148 279.122 272.192 278.444 271.179 278.05C270.504 277.788 269.338 277.536 268.6 277.493ZM292.756 281.661C291.578 281.608 290.45 281.74 289.199 282.075C288.901 282.155 288.646 282.23 288.632 282.243C288.598 282.273 289.723 284.579 289.77 284.576C289.79 284.575 290.005 284.519 290.248 284.452C291.531 284.097 292.718 284.055 293.76 284.329C294.803 284.603 295.447 285.012 295.935 285.71C296.341 286.29 296.54 286.867 296.597 287.624L296.633 288.097L296.141 287.859C294.978 287.295 294.107 287.01 292.932 286.81C292.121 286.672 291.993 286.66 291.528 286.678C290.325 286.724 289.413 287.049 288.678 287.694C287.906 288.37 287.561 289.277 287.64 290.416C287.781 292.435 289.196 294.124 291.442 294.955C291.966 295.149 293.297 295.376 293.75 295.35C294.89 295.283 295.807 294.966 296.469 294.409L296.771 294.154L296.79 294.923L296.809 295.691L298.341 295.944L299.872 296.196L299.767 291.94C299.656 287.447 299.655 287.444 299.447 286.647C299.141 285.477 298.532 284.439 297.674 283.626C296.872 282.867 295.983 282.359 294.862 282.021C294.31 281.854 293.327 281.686 292.756 281.661ZM334.864 288.878C333.08 288.795 331.689 289.474 331.124 290.702C330.686 291.655 330.762 293.06 331.304 293.997C331.64 294.58 332.289 295.218 332.976 295.643C333.586 296.021 334.509 296.486 335.528 296.931C336.817 297.494 337.788 298.027 338.097 298.342C338.544 298.797 338.63 299.573 338.279 299.985C337.663 300.709 335.951 300.556 334.084 299.61C333.493 299.31 332.673 298.783 332.119 298.345L331.697 298.011L331.585 298.159C331.488 298.287 330.515 299.655 330.434 299.777C330.395 299.835 331.264 300.538 331.883 300.951C332.662 301.469 333.689 301.992 334.51 302.289C335.696 302.719 337.132 302.949 338.123 302.868C339.529 302.754 340.633 302.094 341.108 301.085C341.339 300.595 341.389 300.285 341.369 299.488C341.348 298.659 341.303 298.45 341.017 297.854C340.713 297.22 340.014 296.473 339.262 295.978C338.852 295.708 337.864 295.189 337.031 294.807C335.979 294.324 334.753 293.704 334.491 293.524C333.967 293.162 333.792 292.89 333.78 292.421C333.763 291.747 334.274 291.337 335.17 291.302C335.535 291.287 336.367 291.451 336.831 291.629C337.721 291.97 338.599 292.477 339.563 293.206L339.693 293.304L340.235 292.447C340.534 291.976 340.798 291.554 340.823 291.509C340.865 291.434 340.853 291.415 340.672 291.271C340.352 291.018 339.193 290.275 338.752 290.04C338.186 289.74 337.376 289.406 336.778 289.227C336.25 289.07 335.314 288.899 334.864 288.878ZM351.054 291.643C350.7 291.628 349.981 291.687 349.659 291.757C348.809 291.943 348.045 292.388 347.403 293.068L347.257 293.223L347.232 292.249L347.207 291.276L345.624 291.004L344.041 290.732L344.268 299.477L344.495 308.222L346.058 308.491L347.62 308.759L347.562 305.594L347.503 302.428L347.683 302.682C348.162 303.357 348.935 304.08 349.681 304.552C350.886 305.315 352.474 305.696 353.802 305.542C356.062 305.281 357.645 303.531 357.967 300.941C358.375 297.66 356.901 294.346 354.309 292.721C353.474 292.196 352.903 291.974 351.906 291.784C351.516 291.71 351.132 291.646 351.054 291.643ZM301.638 283.46C301.638 283.468 302.002 284.525 302.447 285.808C302.892 287.092 303.468 288.754 303.727 289.502C304.773 292.524 305.183 293.709 305.799 295.486L306.444 297.346L307.868 297.59L309.291 297.835L309.371 297.579C309.637 296.72 310.407 294.201 311.273 291.358C311.591 290.313 311.861 289.433 311.873 289.402C311.897 289.342 312.035 289.75 312.823 292.204C313.103 293.077 313.498 294.306 313.701 294.934C313.903 295.563 314.264 296.686 314.503 297.431L314.937 298.785L316.368 299.031L317.799 299.277L318.043 298.559C318.177 298.164 318.47 297.297 318.693 296.632C318.916 295.966 319.438 294.419 319.852 293.192C320.266 291.966 320.91 290.057 321.282 288.95L321.96 286.937L320.39 286.668L318.819 286.398L318.6 287.13C318.375 287.886 318.267 288.247 317.685 290.181C317.496 290.808 317.183 291.852 316.988 292.5C316.794 293.149 316.567 293.901 316.485 294.173C316.402 294.445 316.326 294.699 316.315 294.738C316.284 294.847 316.241 294.763 316.091 294.305C316.015 294.072 315.788 293.395 315.588 292.799C315.387 292.204 314.965 290.944 314.649 289.999C314.333 289.054 313.908 287.785 313.704 287.178C313.5 286.571 313.284 285.927 313.223 285.745L313.114 285.416L311.792 285.2L310.47 284.983L310.31 285.475C310.222 285.746 309.902 286.735 309.6 287.672C309.298 288.61 308.926 289.761 308.775 290.229C308.623 290.698 308.331 291.6 308.127 292.235L307.754 293.388L307.684 293.178C307.606 292.945 304.857 284.276 304.808 284.11L304.777 284.005L303.207 283.725C302.344 283.57 301.637 283.451 301.638 283.46ZM324.483 293.908L324.646 300.473L326.208 300.742L327.771 301.01L327.608 294.445L327.445 287.88L325.883 287.611L324.321 287.343L324.483 293.908ZM254.559 277.811C255.206 278.11 255.658 278.462 256.146 279.048C256.817 279.853 257.175 280.702 257.317 281.824C257.394 282.432 257.356 283.142 257.216 283.69C256.937 284.783 256.192 285.604 255.225 285.883C254.693 286.036 254.49 286.038 253.676 285.896C252.986 285.777 252.926 285.76 252.598 285.597C251.798 285.201 251.213 284.691 250.685 283.928C249.953 282.871 249.628 281.345 249.855 280.032C250.121 278.492 251.2 277.497 252.678 277.427C253.188 277.403 254.063 277.582 254.559 277.811ZM351.995 294.532C353.388 295.129 354.481 296.522 354.81 298.12C354.893 298.523 354.936 299.347 354.895 299.754C354.779 300.914 354.283 301.801 353.46 302.319C353.13 302.528 352.668 302.686 352.238 302.739C351.887 302.782 350.996 302.673 350.572 302.535C349.86 302.303 349.248 301.895 348.706 301.289C348.028 300.533 347.657 299.789 347.45 298.774C347.332 298.195 347.343 297.012 347.47 296.51C347.782 295.279 348.645 294.418 349.757 294.229C350.234 294.147 350.458 294.156 351.099 294.281C351.51 294.361 351.758 294.431 351.995 294.532ZM270.185 285.081C270.736 285.229 271.583 285.526 272.016 285.723L272.343 285.872L272.364 286.715L272.385 287.559L272.234 287.851C271.889 288.517 271.09 288.929 269.986 289.01C269.487 289.046 268.555 288.887 268.104 288.688C266.911 288.162 266.239 287.212 266.357 286.219C266.459 285.361 267.254 284.804 268.397 284.79C268.75 284.785 269.601 284.924 270.185 285.081ZM294.624 289.298C295.2 289.46 295.733 289.65 296.302 289.895L296.649 290.045L296.67 290.888L296.691 291.731L296.546 292.007C296.288 292.498 295.904 292.789 295.219 293.013C294.06 293.392 292.517 293.128 291.596 292.392C290.719 291.692 290.396 290.668 290.804 289.88C291.095 289.317 291.973 288.926 292.865 288.963C293.167 288.975 294.131 289.159 294.624 289.298Z" fill="black"/>
<rect x="0.505169" y="0.584521" width="183" height="183.164" rx="7.5" transform="matrix(0.985556 0.16935 0.0247811 0.999693 209.036 148.365)" stroke="#E6E6E6" shape-rendering="crispEdges"/>
</g>
<circle cx="7.2" cy="7.2" r="4.5" transform="matrix(0.985556 0.16935 0.0247811 0.999693 384.354 213.415)" fill="white" stroke="#7102F3" stroke-width="5.4"/>
<circle cx="7.2" cy="7.2" r="4.5" transform="matrix(0.985556 0.16935 0.0247811 0.999693 203.011 182.255)" fill="white" stroke="#FF008A" stroke-width="5.4"/>
<circle cx="7.2" cy="7.2" r="4.5" transform="matrix(0.0247811 0.999693 -0.985556 -0.16935 360.672 350.697)" fill="white" stroke="#8701E3" stroke-width="5.4"/>
<circle cx="7.2" cy="7.2" r="4.5" transform="matrix(0.0247811 0.999693 -0.985556 -0.16935 356.112 166.754)" fill="white" stroke="#9901D6" stroke-width="5.4"/>
<circle cx="7.2" cy="7.2" r="4.5" transform="matrix(0.985556 0.16935 0.0247811 0.999693 385.593 263.4)" fill="white" stroke="#7102F3" stroke-width="5.4"/>
<circle cx="7.2" cy="7.2" r="4.5" transform="matrix(0.985556 0.16935 0.0247811 0.999693 204.25 232.239)" fill="white" stroke="#FF008A" stroke-width="5.4"/>
<circle cx="7.2" cy="7.2" r="4.5" transform="matrix(0.0247811 0.999693 -0.985556 -0.16935 311.394 342.23)" fill="white" stroke="#AD01C7" stroke-width="5.4"/>
<circle cx="7.2" cy="7.2" r="4.5" transform="matrix(0.0247811 0.999693 -0.985556 -0.16935 306.834 158.286)" fill="white" stroke="#BD01BC" stroke-width="5.4"/>
<circle cx="7.2" cy="7.2" r="4.5" transform="matrix(0.985556 0.16935 0.0247811 0.999693 386.832 313.384)" fill="white" stroke="#7102F3" stroke-width="5.4"/>
<circle cx="7.2" cy="7.2" r="4.5" transform="matrix(0.985556 0.16935 0.0247811 0.999693 205.49 282.224)" fill="white" stroke="#FF008A" stroke-width="5.4"/>
<circle cx="7.2" cy="7.2" r="4.5" transform="matrix(0.0247811 0.999693 -0.985556 -0.16935 262.116 333.762)" fill="white" stroke="#D001AD" stroke-width="5.4"/>
<circle cx="7.2" cy="7.2" r="4.5" transform="matrix(0.0247811 0.999693 -0.985556 -0.16935 257.556 149.819)" fill="white" stroke="#BD01BC" stroke-width="5.4"/>
<defs>
<filter id="filter0_d_303_13557" x="55.249" y="277.089" width="172.662" height="182.819" filterUnits="userSpaceOnUse" color-interpolation-filters="sRGB">
<feFlood flood-opacity="0" result="BackgroundImageFix"/>
<feColorMatrix in="SourceAlpha" type="matrix" values="0 0 0 0 0 0 0 0 0 0 0 0 0 0 0 0 0 0 127 0" result="hardAlpha"/>
<feOffset dy="26"/>
<feGaussianBlur stdDeviation="27"/>
<feComposite in2="hardAlpha" operator="out"/>
<feColorMatrix type="matrix" values="0 0 0 0 0.132056 0 0 0 0 0.0694444 0 0 0 0 0.133333 0 0 0 0.05 0"/>
<feBlend mode="normal" in2="BackgroundImageFix" result="effect1_dropShadow_303_13557"/>
<feBlend mode="normal" in="SourceGraphic" in2="effect1_dropShadow_303_13557" result="shape"/>
</filter>
<filter id="filter1_d_303_13557" x="15" y="-0.585571" width="172.662" height="182.819" filterUnits="userSpaceOnUse" color-interpolation-filters="sRGB">
<feFlood flood-opacity="0" result="BackgroundImageFix"/>
<feColorMatrix in="SourceAlpha" type="matrix" values="0 0 0 0 0 0 0 0 0 0 0 0 0 0 0 0 0 0 127 0" result="hardAlpha"/>
<feOffset dy="26"/>
<feGaussianBlur stdDeviation="27"/>
<feComposite in2="hardAlpha" operator="out"/>
<feColorMatrix type="matrix" values="0 0 0 0 0.132056 0 0 0 0 0.0694444 0 0 0 0 0.133333 0 0 0 0.05 0"/>
<feBlend mode="normal" in2="BackgroundImageFix" result="effect1_dropShadow_303_13557"/>
<feBlend mode="normal" in="SourceGraphic" in2="effect1_dropShadow_303_13557" result="shape"/>
</filter>
<filter id="filter2_d_303_13557" x="432.326" y="365.772" width="172.662" height="182.819" filterUnits="userSpaceOnUse" color-interpolation-filters="sRGB">
<feFlood flood-opacity="0" result="BackgroundImageFix"/>
<feColorMatrix in="SourceAlpha" type="matrix" values="0 0 0 0 0 0 0 0 0 0 0 0 0 0 0 0 0 0 127 0" result="hardAlpha"/>
<feOffset dy="26"/>
<feGaussianBlur stdDeviation="27"/>
<feComposite in2="hardAlpha" operator="out"/>
<feColorMatrix type="matrix" values="0 0 0 0 0.132056 0 0 0 0 0.0694444 0 0 0 0 0.133333 0 0 0 0.05 0"/>
<feBlend mode="normal" in2="BackgroundImageFix" result="effect1_dropShadow_303_13557"/>
<feBlend mode="normal" in="SourceGraphic" in2="effect1_dropShadow_303_13557" result="shape"/>
</filter>
<filter id="filter3_d_303_13557" x="385.974" y="88.0986" width="178.765" height="182.819" filterUnits="userSpaceOnUse" color-interpolation-filters="sRGB">
<feFlood flood-opacity="0" result="BackgroundImageFix"/>
<feColorMatrix in="SourceAlpha" type="matrix" values="0 0 0 0 0 0 0 0 0 0 0 0 0 0 0 0 0 0 127 0" result="hardAlpha"/>
<feOffset dy="26"/>
<feGaussianBlur stdDeviation="27"/>
<feComposite in2="hardAlpha" operator="out"/>
<feColorMatrix type="matrix" values="0 0 0 0 0.132056 0 0 0 0 0.0694444 0 0 0 0 0.133333 0 0 0 0.05 0"/>
<feBlend mode="normal" in2="BackgroundImageFix" result="effect1_dropShadow_303_13557"/>
<feBlend mode="normal" in="SourceGraphic" in2="effect1_dropShadow_303_13557" result="shape"/>
</filter>
<filter id="filter4_d_303_13557" x="167.043" y="108.451" width="293.906" height="323.268" filterUnits="userSpaceOnUse" color-interpolation-filters="sRGB">
<feFlood flood-opacity="0" result="BackgroundImageFix"/>
<feColorMatrix in="SourceAlpha" type="matrix" values="0 0 0 0 0 0 0 0 0 0 0 0 0 0 0 0 0 0 127 0" result="hardAlpha"/>
<feOffset dy="26"/>
<feGaussianBlur stdDeviation="27"/>
<feComposite in2="hardAlpha" operator="out"/>
<feColorMatrix type="matrix" values="0 0 0 0 0.132056 0 0 0 0 0.0694444 0 0 0 0 0.133333 0 0 0 0.05 0"/>
<feBlend mode="normal" in2="BackgroundImageFix" result="effect1_dropShadow_303_13557"/>
<feBlend mode="normal" in="SourceGraphic" in2="effect1_dropShadow_303_13557" result="shape"/>
</filter>
<filter id="filter5_d_303_13557" x="7" y="7.41406" width="172.662" height="182.819" filterUnits="userSpaceOnUse" color-interpolation-filters="sRGB">
<feFlood flood-opacity="0" result="BackgroundImageFix"/>
<feColorMatrix in="SourceAlpha" type="matrix" values="0 0 0 0 0 0 0 0 0 0 0 0 0 0 0 0 0 0 127 0" result="hardAlpha"/>
<feOffset dy="26"/>
<feGaussianBlur stdDeviation="27"/>
<feComposite in2="hardAlpha" operator="out"/>
<feColorMatrix type="matrix" values="0 0 0 0 0.132056 0 0 0 0 0.0694444 0 0 0 0 0.133333 0 0 0 0.05 0"/>
<feBlend mode="normal" in2="BackgroundImageFix" result="effect1_dropShadow_303_13557"/>
<feBlend mode="normal" in="SourceGraphic" in2="effect1_dropShadow_303_13557" result="shape"/>
</filter>
<filter id="filter6_d_303_13557" x="47.2495" y="285.088" width="172.662" height="182.819" filterUnits="userSpaceOnUse" color-interpolation-filters="sRGB">
<feFlood flood-opacity="0" result="BackgroundImageFix"/>
<feColorMatrix in="SourceAlpha" type="matrix" values="0 0 0 0 0 0 0 0 0 0 0 0 0 0 0 0 0 0 127 0" result="hardAlpha"/>
<feOffset dy="26"/>
<feGaussianBlur stdDeviation="27"/>
<feComposite in2="hardAlpha" operator="out"/>
<feColorMatrix type="matrix" values="0 0 0 0 0.132056 0 0 0 0 0.0694444 0 0 0 0 0.133333 0 0 0 0.05 0"/>
<feBlend mode="normal" in2="BackgroundImageFix" result="effect1_dropShadow_303_13557"/>
<feBlend mode="normal" in="SourceGraphic" in2="effect1_dropShadow_303_13557" result="shape"/>
</filter>
<filter id="filter7_d_303_13557" x="384.077" y="96.0983" width="172.662" height="182.819" filterUnits="userSpaceOnUse" color-interpolation-filters="sRGB">
<feFlood flood-opacity="0" result="BackgroundImageFix"/>
<feColorMatrix in="SourceAlpha" type="matrix" values="0 0 0 0 0 0 0 0 0 0 0 0 0 0 0 0 0 0 127 0" result="hardAlpha"/>
<feOffset dy="26"/>
<feGaussianBlur stdDeviation="27"/>
<feComposite in2="hardAlpha" operator="out"/>
<feColorMatrix type="matrix" values="0 0 0 0 0.132056 0 0 0 0 0.0694444 0 0 0 0 0.133333 0 0 0 0.05 0"/>
<feBlend mode="normal" in2="BackgroundImageFix" result="effect1_dropShadow_303_13557"/>
<feBlend mode="normal" in="SourceGraphic" in2="effect1_dropShadow_303_13557" result="shape"/>
</filter>
<filter id="filter8_d_303_13557" x="424.327" y="373.773" width="172.662" height="182.819" filterUnits="userSpaceOnUse" color-interpolation-filters="sRGB">
<feFlood flood-opacity="0" result="BackgroundImageFix"/>
<feColorMatrix in="SourceAlpha" type="matrix" values="0 0 0 0 0 0 0 0 0 0 0 0 0 0 0 0 0 0 127 0" result="hardAlpha"/>
<feOffset dy="26"/>
<feGaussianBlur stdDeviation="27"/>
<feComposite in2="hardAlpha" operator="out"/>
<feColorMatrix type="matrix" values="0 0 0 0 0.132056 0 0 0 0 0.0694444 0 0 0 0 0.133333 0 0 0 0.05 0"/>
<feBlend mode="normal" in2="BackgroundImageFix" result="effect1_dropShadow_303_13557"/>
<feBlend mode="normal" in="SourceGraphic" in2="effect1_dropShadow_303_13557" result="shape"/>
</filter>
<filter id="filter9_d_303_13557" x="154.958" y="37.8149" width="294.073" height="488.375" filterUnits="userSpaceOnUse" color-interpolation-filters="sRGB">
<feFlood flood-opacity="0" result="BackgroundImageFix"/>
<feColorMatrix in="SourceAlpha" type="matrix" values="0 0 0 0 0 0 0 0 0 0 0 0 0 0 0 0 0 0 127 0" result="hardAlpha"/>
<feOffset dy="26"/>
<feGaussianBlur stdDeviation="27"/>
<feComposite in2="hardAlpha" operator="out"/>
<feColorMatrix type="matrix" values="0 0 0 0 0.132056 0 0 0 0 0.0694444 0 0 0 0 0.133333 0 0 0 0.05 0"/>
<feBlend mode="normal" in2="BackgroundImageFix" result="effect1_dropShadow_303_13557"/>
<feBlend mode="normal" in="SourceGraphic" in2="effect1_dropShadow_303_13557" result="shape"/>
</filter>
<linearGradient id="paint0_linear_303_13557" x1="298.026" y1="76.1427" x2="283.406" y2="161.229" gradientUnits="userSpaceOnUse">
<stop stop-color="#BD01BC" stop-opacity="0"/>
<stop offset="1" stop-color="#BD01BC"/>
</linearGradient>
<linearGradient id="paint1_linear_303_13557" x1="306.947" y1="436.032" x2="321.568" y2="350.946" gradientUnits="userSpaceOnUse">
<stop stop-color="#AD01C7" stop-opacity="0"/>
<stop offset="1" stop-color="#AD01C7"/>
</linearGradient>
<linearGradient id="paint2_linear_303_13557" x1="479.382" y1="285.986" x2="393.075" y2="288.125" gradientUnits="userSpaceOnUse">
<stop stop-color="#7102F3" stop-opacity="0"/>
<stop offset="1" stop-color="#7102F3"/>
</linearGradient>
<linearGradient id="paint3_linear_303_13557" x1="211.31" y1="239.923" x2="125.004" y2="242.062" gradientUnits="userSpaceOnUse">
<stop stop-color="#FF008A"/>
<stop offset="1" stop-color="#FF008A" stop-opacity="0"/>
</linearGradient>
<linearGradient id="paint4_linear_303_13557" x1="228.915" y1="69.2443" x2="215.125" y2="149.496" gradientUnits="userSpaceOnUse">
<stop stop-color="#BD01BC" stop-opacity="0"/>
<stop offset="1" stop-color="#BD01BC"/>
</linearGradient>
<linearGradient id="paint5_linear_303_13557" x1="237.588" y1="419.137" x2="251.378" y2="338.885" gradientUnits="userSpaceOnUse">
<stop stop-color="#D001AD" stop-opacity="0"/>
<stop offset="1" stop-color="#D001AD"/>
</linearGradient>
<linearGradient id="paint6_linear_303_13557" x1="366.4" y1="92.8686" x2="352.61" y2="173.12" gradientUnits="userSpaceOnUse">
<stop stop-color="#9901D6" stop-opacity="0"/>
<stop offset="1" stop-color="#9901D6"/>
</linearGradient>
<linearGradient id="paint7_linear_303_13557" x1="375.073" y1="442.761" x2="388.863" y2="362.509" gradientUnits="userSpaceOnUse">
<stop stop-color="#8701E3" stop-opacity="0"/>
<stop offset="1" stop-color="#8701E3"/>
</linearGradient>
<linearGradient id="paint8_linear_303_13557" x1="283.3" y1="212.281" x2="314.755" y2="268.989" gradientUnits="userSpaceOnUse">
<stop stop-color="#FF0F69"/>
<stop offset="0.9" stop-color="#6200FF"/>
</linearGradient>
<clipPath id="clip0_303_13557">
<rect width="60" height="60" fill="white" transform="matrix(0.985556 0.16935 0.0247811 0.999693 270.302 204.767)"/>
</clipPath>
</defs>
</svg>
