<svg fill="none" xmlns="http://www.w3.org/2000/svg" width="134" height="24" viewBox="0 0 134 24">
  <g clip-path="url(#a)">
    <path d="M19.37 4.8a11 11 0 0 0-.42-.35 10.81 10.81 0 0 1 3.48 3.45A11.15 11.15 0 0 1 24 11.96a12.19 12.19 0 0 0-5.17-10.03l-.06-.04a10.62 10.62 0 0 0-14.7 2.57l-.1.14A11.2 11.2 0 0 0 6.3 19.73a11.09 11.09 0 0 1-5.04-7.47 11.21 11.21 0 0 1 2.22-8.9A12.13 12.13 0 0 0 .04 13a12.2 12.2 0 0 0 5.1 8.85 11.88 11.88 0 0 0 8.89 1.98l.97-.2.07-.03c8.4-2.24 10.91-13.11 4.3-18.8Zm-.55 10.09a6.53 6.53 0 0 1-2.84 4.46 6.33 6.33 0 0 1-5.75.78c-2.82-.93-4.56-4.24-3.87-7.12.53-2.25 2.09-3.95 3.07-5.97.29-.59.57-1.33.23-1.95 0 0 1.4 1.1 1.4 2.66 0 0 1.72-1.67 1.53-5.3 0 .06.25.24.3.27l.76.8a27 27 0 0 1 2.32 2.85c1.73 2.45 3.2 5.44 2.85 8.52Zm-7.33-.11a1.36 1.36 0 0 1-.84 1.23 1.33 1.33 0 0 1-1.45-.3 1.36 1.36 0 0 1 .95-2.3c.36 0 .7.15.95.4.25.26.4.6.39.97Zm3.61-1.37a1.35 1.35 0 0 1 1.27.83 1.38 1.38 0 0 1-.28 1.5 1.35 1.35 0 0 1-2.33-.96c0-.36.14-.71.4-.97.24-.25.59-.4.94-.4Z" fill="url(#b)"/>
  </g>
  <path fill-rule="evenodd" clip-rule="evenodd" d="M103.2 1.02c-.46.1-.98.51-1.18.93-.4.84-.04 1.83.81 2.25.29.14.3.14.72.14.4 0 .45 0 .7-.12.34-.16.68-.5.84-.84.1-.23.13-.31.14-.65 0-.32 0-.42-.07-.6a1.81 1.81 0 0 0-1-1.03c-.24-.09-.71-.13-.96-.08Zm-65 .86c0 .02-.02 1.45-.02 3.17l-.01 3.12-.27-.33a5.19 5.19 0 0 0-4.31-1.85 5.26 5.26 0 0 0-3.7 1.58c-.47.47-.75.85-1.06 1.44a7.95 7.95 0 0 0 0 7.06c.31.6.56.93 1.05 1.43a5.27 5.27 0 0 0 3.95 1.6A5.2 5.2 0 0 0 38 17.11l.18-.24.01.97.02.98h1.5l1.49.02-.01-8.5-.01-8.49-1.48-.01c-1.16 0-1.48 0-1.5.04Zm21.11 2.68v1.72H57.5V8.7h1.81v3.54c0 2.16.02 3.65.04 3.81.1.62.29 1.15.6 1.6.3.46.89.95 1.39 1.17.48.2.8.26 1.5.26.75 0 1.08-.06 1.69-.32.32-.14.91-.49 1-.6.04-.04-.03-.24-.37-1.02a49.5 49.5 0 0 0-.42-.99l-.2.12c-.29.2-.53.27-.95.3-.33 0-.39 0-.58-.09a1.37 1.37 0 0 1-.66-.67l-.12-.26-.01-3.42-.01-3.43h2.86V6.28H62.2V2.83h-2.9v1.73ZM49.04 6.02c-.81.1-1.53.26-2.4.56-.63.21-1.56.6-1.65.69-.05.04.02.2.45 1.06l.5 1.02.37-.17c.73-.34 1.54-.59 2.27-.71a6.14 6.14 0 0 1 1.77.04c.53.11.96.33 1.28.65.54.54.8 1.21.8 2.04v.37l-.45-.14a9.14 9.14 0 0 0-4.81-.27c-1.1.32-2.02.91-2.61 1.68-.24.31-.55.94-.64 1.27a4.49 4.49 0 0 0 0 2 3.82 3.82 0 0 0 1.98 2.4c.47.25.8.37 1.34.48.57.12 1.79.14 2.29.03a5.4 5.4 0 0 0 2.6-1.33l.3-.3.02.71v.72h1.46l1.46.02v-3.9c0-2.31-.01-4.05-.04-4.3a4.94 4.94 0 0 0-1.35-3.14 4.95 4.95 0 0 0-2.49-1.37 9.01 9.01 0 0 0-2.45-.11Zm23 .02a12.13 12.13 0 0 0-3.97 1.23c-.03.04 1 2.07 1.04 2.06l.46-.2a6.83 6.83 0 0 1 3.36-.7c.99.1 1.6.38 2.04.97.38.49.55 1 .6 1.73l.01.44-.46-.14a9.1 9.1 0 0 0-3.04-.48c-.78 0-.9.01-1.34.1-1.15.25-2.03.71-2.75 1.45a3.6 3.6 0 0 0-1.06 2.78c.09 1.92 1.4 3.3 3.53 3.73.5.1 1.76.1 2.2 0 1.09-.25 1.97-.7 2.62-1.35l.3-.3v1.48l1.45-.01 1.46-.01v-4.07c0-4.3 0-4.3-.18-5.03a4.72 4.72 0 0 0-1.63-2.6 5.13 5.13 0 0 0-2.64-1.09 9.7 9.7 0 0 0-2.01 0Zm40.07-.02c-1.7.21-3.05 1.1-3.62 2.37-.44.98-.4 2.32.1 3.13.3.5.9 1 1.55 1.3.58.27 1.45.56 2.41.82 1.22.33 2.14.68 2.43.93.41.36.48 1.1.13 1.55-.6.8-2.24.93-4 .33a9.88 9.88 0 0 1-1.85-.9l-.4-.24-.1.16-1.14 1.74c-.04.06.77.6 1.35.89.74.37 1.7.7 2.48.85 1.13.22 2.5.2 3.44-.04a4.25 4.25 0 0 0 2.9-2.2c.23-.51.29-.82.29-1.58 0-.8-.04-.99-.3-1.51a3.78 3.78 0 0 0-1.64-1.51c-.38-.2-1.31-.53-2.1-.76-1-.29-2.15-.68-2.4-.81-.49-.26-.65-.5-.65-.94 0-.65.5-1.12 1.36-1.3a5.05 5.05 0 0 1 1.58.03c.84.18 1.66.53 2.57 1.07l.12.07.54-.91.58-1c.05-.08.03-.1-.14-.2-.3-.2-1.38-.72-1.8-.87-.53-.2-1.3-.38-1.87-.45-.5-.07-1.4-.08-1.82-.02ZM127.52 6A5.42 5.42 0 0 0 124 7.97l-.15.17V6.28h-3.01v8.36l.02 8.36h2.98l.01-3.03.02-3.03.17.22a5.44 5.44 0 0 0 1.86 1.46c1.13.53 2.64.64 3.92.27 2.16-.62 3.72-2.56 4.09-5.1.47-3.22-.87-6.16-3.3-7.3a4.9 4.9 0 0 0-2.28-.5l-.81.01Zm-47.04.3.72 2.12a7433.2 7433.2 0 0 1 2.97 8.74l.57 1.68h2.71l.08-.26a2204.58 2204.58 0 0 0 2.6-8.27c.01-.06.14.31.83 2.54a3257.42 3257.42 0 0 0 1.48 4.74l.39 1.23h2.72l.25-.73a896.44 896.44 0 0 0 1.86-5.45l1.47-4.31.7-2.05h-3l-.23.74a1539.92 1539.92 0 0 1-2.36 7.68c-.03.11-.07.04-.2-.38a216.43 216.43 0 0 0-1.28-3.9 1762.45 1762.45 0 0 0-1.26-3.84l-.1-.3-1.26.01-1.26.01-.16.5a1375.47 1375.47 0 0 0-2.25 6.85l-.38 1.17-.06-.19-2.54-8.23-.02-.1h-3Zm21.59 6.26v6.28h2.98V6.28h-2.98v6.28ZM35.6 8.64c.61.18 1.04.44 1.49.93.62.66.94 1.41 1.05 2.47.06.57 0 1.26-.14 1.8-.3 1.1-1.02 2.01-1.95 2.44-.52.23-.71.27-1.49.27-.65 0-.7 0-1.02-.11a3.47 3.47 0 0 1-1.79-1.29c-.67-.9-.95-2.3-.7-3.6a3.63 3.63 0 0 1 2.76-2.97c.49-.1 1.32-.08 1.79.06Zm92.74-.02a3.7 3.7 0 0 1 2.6 2.98c.08.37.1 1.16.05 1.55a3.96 3.96 0 0 1-1.43 2.7 3.7 3.7 0 0 1-1.18.6c-.34.1-1.19.15-1.59.09-.67-.1-1.25-.4-1.75-.9a3.81 3.81 0 0 1-1.14-2.2c-.1-.53-.06-1.67.07-2.17a3.64 3.64 0 0 1 2.24-2.57c.46-.16.67-.19 1.28-.17.4 0 .63.03.85.09Zm-77.98 4.42c.53.05 1.33.2 1.74.32l.3.09v1.6l-.14.31c-.35.7-1.12 1.23-2.18 1.49-.48.11-1.36.11-1.79 0-1.13-.3-1.75-1.11-1.61-2.08.12-.84.89-1.51 1.98-1.71a8.07 8.07 0 0 1 1.7-.02Zm23.27.02c.54.06 1.05.15 1.58.3l.33.08v1.61l-.14.3c-.26.5-.63.85-1.3 1.18-1.11.55-2.58.55-3.44 0-.82-.53-1.1-1.46-.7-2.28.3-.6 1.14-1.11 2-1.22.28-.04 1.2-.02 1.67.03Z" fill="#000"/>
  <defs>
    <linearGradient id="b" x1="5.22" y1="2.12" x2="19.02" y2="21.65" gradientUnits="userSpaceOnUse">
      <stop stop-color="#FF0F69"/>
      <stop offset=".9" stop-color="#6200FF"/>
    </linearGradient>
    <clipPath id="a">
      <path fill="#fff" d="M0 0h24v24H0z"/>
    </clipPath>
  </defs>
</svg>
