<?xml version="1.0" encoding="UTF-8"?>
<svg xmlns="http://www.w3.org/2000/svg">
  <symbol id="globe" viewBox="0 0 60 60">
    <path
      d="M29.9767 6.66663C17.0967 6.66663 6.66666 17.12 6.66666 30C6.66666 42.88 17.0967 53.3333 29.9767 53.3333C42.88 53.3333 53.3333 42.88 53.3333 30C53.3333 17.12 42.88 6.66663 29.9767 6.66663ZM46.1467 20.6666H39.2633C38.533 17.7767 37.4517 14.9871 36.0433 12.36C40.2996 13.8253 43.8861 16.774 46.1467 20.6666ZM30 11.4266C31.9367 14.2266 33.4533 17.33 34.4567 20.6666H25.5433C26.5467 17.33 28.0633 14.2266 30 11.4266ZM11.94 34.6666C11.5667 33.1733 11.3333 31.61 11.3333 30C11.3333 28.39 11.5667 26.8266 11.94 25.3333H19.8267C19.64 26.8733 19.5 28.4133 19.5 30C19.5 31.5866 19.64 33.1266 19.8267 34.6666H11.94ZM13.8533 39.3333H20.7367C21.4833 42.25 22.5567 45.05 23.9567 47.64C19.6959 46.1826 16.1069 43.2319 13.8533 39.3333ZM20.7367 20.6666H13.8533C16.1069 16.768 19.6959 13.8173 23.9567 12.36C22.5483 14.9871 21.4669 17.7767 20.7367 20.6666ZM30 48.5733C28.0633 45.7733 26.5467 42.67 25.5433 39.3333H34.4567C33.4533 42.67 31.9367 45.7733 30 48.5733ZM35.46 34.6666H24.54C24.33 33.1266 24.1667 31.5866 24.1667 30C24.1667 28.4133 24.33 26.85 24.54 25.3333H35.46C35.67 26.85 35.8333 28.4133 35.8333 30C35.8333 31.5866 35.67 33.1266 35.46 34.6666ZM36.0433 47.64C37.4433 45.05 38.5167 42.25 39.2633 39.3333H46.1467C43.8861 43.2259 40.2996 46.1746 36.0433 47.64ZM40.1733 34.6666C40.36 33.1266 40.5 31.5866 40.5 30C40.5 28.4133 40.36 26.8733 40.1733 25.3333H48.06C48.4333 26.8266 48.6667 28.39 48.6667 30C48.6667 31.61 48.4333 33.1733 48.06 34.6666H40.1733Z" />
  </symbol>
  <symbol id="icon-twitter" fill="none" viewBox="0 0 20 20">
    <path
      d="M18.468 4.714a6.987 6.987 0 0 1-2.001.548A3.497 3.497 0 0 0 18 3.334a6.964 6.964 0 0 1-2.213.846 3.485 3.485 0 0 0-5.939 3.178 9.895 9.895 0 0 1-7.183-3.642A3.485 3.485 0 0 0 3.743 8.37a3.473 3.473 0 0 1-1.578-.435v.043a3.487 3.487 0 0 0 2.796 3.418c-.514.139-1.052.16-1.575.06a3.487 3.487 0 0 0 3.256 2.42 6.995 6.995 0 0 1-5.16 1.444 9.858 9.858 0 0 0 5.342 1.566c6.41 0 9.917-5.31 9.917-9.916 0-.15-.004-.302-.011-.45a7.08 7.08 0 0 0 1.74-1.804l-.002-.001Z" fill="currentColor"/>
  </symbol>
  <symbol id="icon-linkedin" fill="none" viewBox="0 0 20 20">
    <path
      d="M5.7833 4.1675a1.6667 1.6667 0 1 1-3.3334-.0017 1.6667 1.6667 0 0 1 3.3334.0017Zm.05 2.9H2.4999v10.4333h3.3334V7.0675Zm5.2667 0H7.7833v10.4333h3.2833v-5.475c0-3.05 3.975-3.3333 3.975 0v5.475h3.2917v-6.6083c0-5.1417-5.8833-4.95-7.2667-2.425l.0334-1.4Z" fill="currentColor"/>
  </symbol>
  <symbol id="icon-facebook" fill="none" viewBox="0 0 20 20">
    <path
      d="M10.666 11.25h2.084l.833-3.334h-2.917V6.249c0-.858 0-1.666 1.667-1.666h1.25v-2.8a23.474 23.474 0 0 0-2.38-.117c-2.263 0-3.87 1.38-3.87 3.917v2.333h-2.5v3.333h2.5v7.084h3.333v-7.084Z" fill="currentColor"/>
  </symbol>
  <symbol id="icon-box" fill="none"  viewBox="0 0 20 20">
    <path
      d="M17.5 13.33V6.67a1.67 1.67 0 0 0-.83-1.45L10.83 1.9a1.67 1.67 0 0 0-1.66 0L3.33 5.22a1.67 1.67 0 0 0-.83 1.45v6.66a1.67 1.67 0 0 0 .83 1.44l5.84 3.34a1.67 1.67 0 0 0 1.66 0l5.84-3.34a1.67 1.67 0 0 0 .83-1.44Z" stroke="currentColor" stroke-width="1.5" stroke-linecap="round" stroke-linejoin="round"/>
    <path
      d="M2.72 5.8 10 10l7.27-4.2M10 18.4V10" stroke="currentColor" stroke-width="1.5" stroke-linecap="round" stroke-linejoin="round"/>
  </symbol>
  <symbol id="icon-arrow-link" viewBox="0 0 20 20">
    <path d="m13.34 7.84-7.18 7.18L5 13.84l7.17-7.17H5.84V5H15v9.17h-1.66V7.84Z"/>
  </symbol>
  <symbol id="icon-arrow-right" fill="none" xmlns="http://www.w3.org/2000/svg" viewBox="0 0 20 20">
    <path
      d="M13.887 10.842H3.744V9.176l10.143-.001-4.47-4.47 1.179-1.178 6.482 6.482-6.482 6.482-1.179-1.179 4.47-4.47Z" fill="currentColor"/>
  </symbol>
  <symbol id="icon-arrows" fill="none" viewBox="0 0 20 20">
    <path
      d="M2 7 6.7 18.31 8.4 13.4l4.92-1.68L2 7ZM8.67 13.67l4 4M12.9 9.09l.32-.95L17 6.86 8.31 3.24l1.81 4.34M13.43 8.36l3.07 3.07" stroke="currentColor" stroke-width="1.5" stroke-linecap="round" stroke-linejoin="round"/>
  </symbol>
  <symbol id="icon-upload-cloud" fill="none" viewBox="0 0 20 20">
    <path
      d="M13.333 13.333 10 10l-3.333 3.333M10 10v7.5" stroke="currentColor" stroke-width="1.5" stroke-linecap="round" stroke-linejoin="round"/>
    <path
      d="M16.992 15.325A4.168 4.168 0 0 0 15 7.5h-1.05A6.667 6.667 0 1 0 2.5 13.583" stroke="currentColor" stroke-width="1.5" stroke-linecap="round" stroke-linejoin="round"/>
    <path
      d="M13.333 13.333 10 10l-3.333 3.333" stroke="currentColor" stroke-width="1.5" stroke-linecap="round" stroke-linejoin="round"/>
  </symbol>
</svg>
