<svg xmlns="http://www.w3.org/2000/svg" fill="none" viewBox="0 0 217 56">
  <path fill="#161616" d="M189.82 12H196v.6l-.1 30.33a.21.21 0 0 1-.2.21l-5.1-.02a.31.31 0 0 1-.18-.05.18.18 0 0 1-.08-.13l-.14-1.37c-.05-.47-.22-.55-.53-.24a7.8 7.8 0 0 1-6.33 2.38c-2.73-.16-4.9-1.1-6.52-2.84a10.74 10.74 0 0 1-2.72-6.04c-.37-2.7.18-5.35 1.65-7.92a8.25 8.25 0 0 1 6.92-4.43 9.74 9.74 0 0 1 6.82 2.14c.1.08.15.05.16-.08l.17-12.54Zm.29 20.42a4.44 4.44 0 0 0-4.53-4.35l-.87.02a4.44 4.44 0 0 0-4.35 4.52l.02 1.27a4.44 4.44 0 0 0 4.53 4.35l.87-.01a4.44 4.44 0 0 0 4.35-4.53l-.02-1.27ZM36.45 44h-2.1c-5.8-.33-10-3.03-12.61-8.12A23.58 23.58 0 0 1 20 30.64l.05-3.88c.9-5.91 3.8-9.94 8.69-12.1a16.42 16.42 0 0 1 7.4-1.44c3.59.16 6.76 1.63 9.52 4.4a.16.16 0 0 1 .05.12.17.17 0 0 1-.07.13l-2.6 2a.53.53 0 0 1-.26.1c-.1.02-.18 0-.26-.04-.83-.45-1.65-.9-2.44-1.35a9.91 9.91 0 0 0-11.86 1.1 11.38 11.38 0 0 0-3.53 5.96 12.4 12.4 0 0 0 .64 8.2 10.77 10.77 0 0 0 3.83 4.63 10.1 10.1 0 0 0 6.08 1.72 10.2 10.2 0 0 0 7.48-3.55c.05-.06.12-.1.2-.1a.3.3 0 0 1 .22.05l2.9 2.15a.31.31 0 0 1 .13.22.32.32 0 0 1-.08.25A13.36 13.36 0 0 1 36.45 44Zm38.5-24.8a2.7 2.7 0 1 0 0-5.41 2.7 2.7 0 0 0 0 5.41Zm36.78.82.07 5.47c0 .06.03.11.07.16.05.04.1.06.17.06h11.4a.34.34 0 0 1 .34.34l.03 5.32a.42.42 0 0 1-.43.42l-11.31-.08a.4.4 0 0 0-.38.39l.02 10.54a.5.5 0 0 1-.5.5h-5.6a.39.39 0 0 1-.26-.1.37.37 0 0 1-.11-.28V14.08a.2.2 0 0 1 .2-.2l19-.07a.3.3 0 0 1 .3.3l.04 5.25c0 .1-.03.18-.1.25a.37.37 0 0 1-.26.11l-12.5.1a.2.2 0 0 0-.13.07.19.19 0 0 0-.06.14Zm45.91 5.18c0 .18.08.2.2.07 2.15-2.27 4.69-3.14 7.6-2.62 2.93.53 4.66 2.28 5.17 5.23.22 1.23.34 2.48.37 3.74.08 3.78.1 7.56.07 11.34a.28.28 0 0 1-.28.28h-5.71a.3.3 0 0 1-.3-.3c-.01-3.86-.04-7.77-.1-11.7 0-1-.34-1.82-1-2.43a3.13 3.13 0 0 0-2.25-.8c-1.54 0-2.56.67-3.07 2-.22.57-.35 1.65-.38 3.26-.08 3.02-.09 6.16-.05 9.42a.46.46 0 0 1-.12.32.44.44 0 0 1-.31.13l-5.5-.02a.26.26 0 0 1-.19-.08.27.27 0 0 1-.07-.2l-.03-19.5a.2.2 0 0 1 .2-.2h5.31c.09 0 .17.03.23.1.06.05.1.13.1.21l.1 1.75Zm-89.67 3.15c1.36 2.33 1.66 4.95.91 7.86a9.62 9.62 0 0 1-5.66 6.62c-1.99.9-4 1.18-6.07.84a10.66 10.66 0 0 1-5.3-2.5 9.41 9.41 0 0 1-3.4-6.96c-.14-2.63.5-4.94 1.88-6.93 1.5-2.17 3.71-3.51 6.62-4.04 2.35-.43 4.52-.15 6.5.85 1.92.96 3.43 2.38 4.52 4.26Zm-5.09-.28a6.37 6.37 0 0 0-3.59-1.42 6.63 6.63 0 0 0-3.6.78c-1.98 1.04-3.09 2.82-3.3 5.33a6.9 6.9 0 0 0 1.57 5.28c.7.83 1.54 1.41 2.5 1.74a7.2 7.2 0 0 0 3.16.32 5.79 5.79 0 0 0 4.63-2.96 7.35 7.35 0 0 0 .84-5.45 6.13 6.13 0 0 0-2.21-3.62Zm22.95-2.17c0 .23.08.26.24.08a8.26 8.26 0 0 1 4.86-2.85 7.53 7.53 0 0 1 5.21.85 6.31 6.31 0 0 1 3.02 3.89c.24.83.36 2.39.36 4.68V42.7a.54.54 0 0 1-.15.38.52.52 0 0 1-.37.15l-3.02-.01a.36.36 0 0 1-.26-.11.37.37 0 0 1-.1-.26V32.64c0-1.65-.14-2.82-.43-3.5a3.76 3.76 0 0 0-2.97-2.4 5.22 5.22 0 0 0-3.57.52 4.9 4.9 0 0 0-2.36 3.12 9.92 9.92 0 0 0-.38 2.38c-.1 3.27-.14 6.63-.1 10.09a.39.39 0 0 1-.39.39h-2.95a.38.38 0 0 1-.37-.38V24.11a.4.4 0 0 1 .39-.4h3.02a.3.3 0 0 1 .22.1c.06.06.09.14.1.22v1.87Zm42.01 4.74c-.05-2.35-.06-4.74-.03-7.15a.35.35 0 0 1 .35-.35h5.72a.22.22 0 0 1 .15.07.21.21 0 0 1 .06.15v8.83c0 1.21.1 2.42.3 3.62.27 1.6 1.25 2.42 2.94 2.48 1.57.05 2.62-.62 3.15-2 .45-1.19.64-2.04.56-4.1-.1-2.73-.1-6.18 0-8.83a.25.25 0 0 1 .26-.24l5.64.02c.03 0 .06 0 .09.02a.22.22 0 0 1 .12.12l.02.08-.03 19.49a.39.39 0 0 1-.39.39h-5.08a.33.33 0 0 1-.23-.1.37.37 0 0 1-.11-.23l-.13-1.6c-.02-.3-.14-.33-.35-.11-2.23 2.27-4.83 3.06-7.82 2.35a6.15 6.15 0 0 1-3.74-2.35c-.6-.83-1-2.15-1.2-3.93a33.9 33.9 0 0 1-.23-3.77l-.02-2.86Zm-51.47-7.02h-2.84a.39.39 0 0 0-.39.38v18.75c0 .22.18.4.4.4h2.83a.4.4 0 0 0 .4-.4V24a.39.39 0 0 0-.4-.38Z"/>
</svg>
