<svg xmlns="http://www.w3.org/2000/svg" fill="none" viewBox="0 0 217 56">
  <g fill="#000" clip-path="url(#a)">
    <path d="M16.5 40 6.24 21.47V40H.62V16h8.8l9.48 16.97L28.38 16h8.68v24H31.4V21.47L21.18 40H16.5Zm38.36 0h-5.78V16h5.78v24Zm11.28-11.2h17.42c3.38 0 5.3-1.44 5.3-3.94 0-2.53-1.92-3.98-5.3-3.98H66.14V16h17.73c6.4 0 10.73 3.05 10.73 8.83 0 4.29-2.52 7.15-6.53 8.23l7.2 6.94h-6.64l-6.65-6.4H71.92V40h-5.78V28.8Zm52.84-7.14L107.69 40h-6.17l14.23-24h6.49l14.23 24h-6.25l-11.24-18.34ZM173.5 40h-5.11l-18.44-16.7V40h-5.58V16h5.9l17.6 15.77V16h5.63v24Zm25.63-18.34L187.85 40h-6.17l14.23-24h6.48l14.23 24h-6.25l-11.24-18.34Z"/>
  </g>
  <defs>
    <clipPath id="a">
      <path fill="#fff" d="M.62 16h216v24H.62z"/>
    </clipPath>
  </defs>
</svg>
