<svg xmlns="http://www.w3.org/2000/svg" fill="none" viewBox="0 0 216 56">
  <path fill="#C6C7C8" d="M93.72 31.9c-.22-.16-.4-.68-.5-1.11-.13-.43-.33-2.16-.06-4.16a15.51 15.51 0 0 1 5.21-9.94 21.22 21.22 0 0 1 14.61-5.42c3.13.02 6.22.58 9.28 1.69.04.02.1.01.14 0a.18.18 0 0 0 .1-.1c.98-2.57 1.99-5.05 3.01-7.45a.9.9 0 0 1 .3-.4c.38-.28.55-.17.5.32-.01.14-.05.3-.12.47a2724.17 2724.17 0 0 0-3.34 8.2.24.24 0 0 1-.27.04 19.3 19.3 0 0 0-4.67-1.5c-6.7-1.24-12.71.19-18.02 4.3a16.28 16.28 0 0 0-5.63 8c-.34 1.03-.51 2.1-.53 3.19-.02 1.29-.02 2.58-.01 3.88Z"/>
  <path fill="#182B55" d="M110.56 14.05c0-.15.07-.3.18-.4.1-.12.25-.18.4-.2 1.7-.1 3.2.02 4.53.33.3.07.3.15 0 .23a6.05 6.05 0 0 0-4.28 4.18c-.08.24-.16.4-.26.5-.19.16-.38.14-.57-.06a.36.36 0 0 1-.09-.13.5.5 0 0 1-.02-.17l.11-4.28Zm-2.22 5.03a.41.41 0 0 1-.21-.1.4.4 0 0 1-.12-.2L107 14.54a.46.46 0 0 1 .06-.35.45.45 0 0 1 .28-.2l1.39-.32a.46.46 0 0 1 .56.43l.17 4.5a.3.3 0 0 1-.14.27c-.31.2-.64.27-.97.21Zm-2.94-4.43a.4.4 0 0 1 .26.04c.07.04.13.11.15.2l1.29 4.25c.01.05.02.1 0 .16a.32.32 0 0 1-.06.14c-.4.49-.8.6-1.2.37-.21-.13-.43-.4-.65-.83-.54-1.04-1.08-2.09-1.6-3.15a.23.23 0 0 1 .05-.27 3.82 3.82 0 0 1 1.76-.91Zm-4.4 2.58c.36-.44.77-.74 1.23-.9.05-.01.1-.01.14 0 .05.02.1.06.12.1l2.33 3.93a.3.3 0 0 1 0 .3c-.26.45-.57.59-.93.42a1.9 1.9 0 0 1-.61-.59l-2.29-2.98a.23.23 0 0 1-.05-.14c0-.05.02-.1.06-.14Zm-2.47 2.95a.45.45 0 0 1-.11-.6c.45-.68.92-1.1 1.4-1.26a.26.26 0 0 1 .28.07l2.8 3.27c.07.09.1.2.09.31a.48.48 0 0 1-.15.3c-.42.38-.81.42-1.2.11l-.38-.3a62 62 0 0 1-2.73-1.9ZM126.9 35.8l-.34-1.07c-2.17-3.13-4.77-3.57-7.78-1.33a1 1 0 0 0-.35.42c-.14.35.01.53.46.52.2.5.55.8 1.06.95a9.36 9.36 0 0 0 4.79.98c.6-.04.83.23.7.82-.1.5-.02.94.25 1.33.07.1.1.2.12.3.05.9.09 1.77.09 2.66 0 1.06.04 1.94.13 2.64.29 2.28.7 4.84 1.23 7.66.25 1.31.53 2.4.85 3.28a.46.46 0 0 0-.24-.1c.01-.5-.27-.78-.85-.87-.89-.12-2.35-.7-4.38-1.76a66.15 66.15 0 0 1-9.22-5.8 1.15 1.15 0 0 0-.95-.18l-11.51 2.87c-.45.12-.59-.04-.4-.48a10.4 10.4 0 0 0 .6-6.57 26.1 26.1 0 0 0-.94-3.2 17.3 17.3 0 0 1-1.07-5.49 12.96 12.96 0 0 1 6.72-11.78 13.7 13.7 0 0 1 6.6-1.75c2.76-.04 5.35.64 7.77 2.04 1.31.75 2.4 1.54 3.27 2.37.98.94 1.78 2.05 2.4 3.31.6 1.22 1.14 2.46 1.65 3.72a38.9 38.9 0 0 0 5.48 9.61c.17.22.11.3-.16.25l-4.82-.87a.69.69 0 0 1-.42-.25.62.62 0 0 1-.14-.46 6.75 6.75 0 0 0-.6-3.77ZM98.7 21.75l2.48 1.49c.08.04.13.11.16.2.02.08.02.16-.02.24-.17.34-.4.6-.68.8a.34.34 0 0 1-.15.06.3.3 0 0 1-.16-.03l-3.81-1.78a.2.2 0 0 1-.1-.1.23.23 0 0 1 0-.15c.08-.3.2-.58.38-.84l.33-.5c.18-.18.42-.16.72.05.32.23.6.41.85.56ZM17.4 24.5c-.4-.23-.83-.35-1.29-.34-.46 0-.85.17-1.17.48-.46.44-.58.98-.37 1.6.12.36.41.76.89 1.2.5.48 1 .94 1.52 1.4.67.6 1.1 1.1 1.31 1.55.41.9.39 1.75-.07 2.56a3.07 3.07 0 0 1-2.01 1.5c-.88.23-1.78.16-2.7-.21a.85.85 0 0 1-.57-.86v-1.32l.03-.12c.08-.17.14-.15.16.06.14 1.17.8 1.83 1.97 1.98.56.08 1.06 0 1.5-.26.41-.24.68-.62.79-1.13.18-.86-.1-1.62-.84-2.3a27.13 27.13 0 0 0-1.53-1.32 4.04 4.04 0 0 1-1.25-1.5 2.84 2.84 0 0 1-.24-1.86c.23-1.08.99-1.74 2.27-1.96a6.35 6.35 0 0 1 2.13-.04.48.48 0 0 1 .4.42c.2 1.38.03 1.69-.5.91-.13-.2-.27-.35-.42-.43Zm37.68 9.76c.14.1.08.15-.2.17-.91.06-1.82.08-2.74.07-.57 0-.6-.11-.06-.32.18-.07.34-.18.47-.32a.46.46 0 0 0 .12-.31l.07-8.67c0-.43-.21-.65-.65-.65-.35 0-.77-.02-1.26-.05a2.4 2.4 0 0 0-2.03.86.19.19 0 0 1-.06.05.17.17 0 0 1-.07.02l-.06-.01a.1.1 0 0 1-.05-.04c-.06-.1-.04-.2.07-.31a.5.5 0 0 0 .13-.29c.03-.28.15-.52.34-.7a.39.39 0 0 1 .13-.1l.17-.02h8.16a.4.4 0 0 1 .18.05c.05.02.1.06.14.11a.5.5 0 0 1 .09.18c.02.06.02.13.02.2l-.09.89c0 .02 0 .05-.02.07a.19.19 0 0 1-.04.06.12.12 0 0 1-.05.03h-.05c-.11-.04-.16-.15-.16-.33a.46.46 0 0 0-.38-.47c-.99-.18-1.96-.23-2.92-.16a.2.2 0 0 0-.18.2l-.04 9.15.03.16a.4.4 0 0 0 .1.12c.22.16.46.27.74.31.07.01.12.03.15.05Zm81.93-7.85a4.86 4.86 0 0 0-.32 3.57 5.09 5.09 0 0 0 1.93 2.75c1.6 1.17 3.57 1.45 5.93.84a.81.81 0 0 0 .53-.44c.56-1.29.77-1.45.61-.48-.02.12-.03.26-.02.42.02.7-.3 1.13-.95 1.28a10.7 10.7 0 0 1-4.75.02 6.07 6.07 0 0 1-3.66-2.13c-1.07-1.4-1.3-3.09-.67-5.08a4.64 4.64 0 0 1 1.69-2.42 6.01 6.01 0 0 1 2.63-1 14.3 14.3 0 0 1 5.4.27.4.4 0 0 1 .3.36c.03.51 0 1.07-.1 1.67-.02.15-.07.25-.15.3-.1.06-.16 0-.15-.15.02-.75-.33-1.27-1.05-1.55a6.52 6.52 0 0 0-5.53.1 3.7 3.7 0 0 0-1.67 1.67Zm37.09-2.58a.4.4 0 0 1 .35-.2l8.57-.07c.05 0 .1.01.15.04.05.03.08.07.1.11.2.42.19.86-.04 1.31-.21.45-.33.4-.34-.12 0-.33-.16-.56-.45-.67-.47-.19-1.43-.2-2.88-.05a.2.2 0 0 0-.17.2 124.32 124.32 0 0 0 .05 9.42c.03.05.06.1.1.13.2.18.45.3.72.38.1.03.11.06 0 .09a6.3 6.3 0 0 1-2.8.01c-.16-.03-.17-.1-.03-.18.47-.3.7-.67.69-1.11a408 408 0 0 1-.09-8.68.3.3 0 0 0-.3-.3h-2.07c-.4 0-.7.06-.93.17-.28.15-.53.36-.74.63-.2.27-.3.24-.26-.1.03-.27.15-.6.37-1Zm-151.3.5.07 9.41c0 .1.04.19.1.26a.4.4 0 0 0 .25.12c.44.04.73.09.86.15.29.14.18.2-.32.22-.96.01-1.92 0-2.87-.04-.37-.01-.24-.14.4-.4a.46.46 0 0 0 .29-.42v-8.8c0-.59-.28-.86-.85-.82a.2.2 0 0 1-.08 0 .17.17 0 0 1-.06-.04.11.11 0 0 1-.03-.05v-.06c.03-.07.11-.1.24-.12 1.35-.12 2.7-.15 4.06-.1 1.28.05 2.18.55 2.68 1.51.33.63.4 1.3.24 2a2.8 2.8 0 0 1-1.27 1.77c-.51.32-.96.55-1.35.68-.45.16-.92.18-1.41.05-.12-.03-.11-.05 0-.06 1.3-.1 2.17-.64 2.6-1.6a2.6 2.6 0 0 0-.2-2.62c-.64-1-1.7-1.42-3.17-1.23a.2.2 0 0 0-.13.06.2.2 0 0 0-.05.13Zm6.54 9.49c.08.2.2.35.34.44.24.16.22.24-.07.24-.8 0-1.62.01-2.42.03-.19 0-.29-.03-.3-.1l.01-.06a.17.17 0 0 1 .05-.06.32.32 0 0 1 .08-.04.43.43 0 0 1 .1-.02 2 2 0 0 0 .83-.28c.2-.13.36-.36.48-.67a309 309 0 0 1 3.6-9.49c.14-.33.27-.33.4 0 1.2 3.23 2.46 6.44 3.75 9.63.2.5.67.77 1.4.8.04 0 .07.01.09.03.04.03 0 .07-.13.1-.73.2-1.48.25-2.22.14a.28.28 0 0 1-.15-.06.3.3 0 0 1-.09-.14l-1.2-3.36a.64.64 0 0 0-.23-.3.61.61 0 0 0-.36-.12l-2.8.02a.3.3 0 0 0-.16.04.23.23 0 0 0-.08.12l-.93 2.78a.47.47 0 0 0 .01.33Zm2.46-7.39a11.7 11.7 0 0 0-1.02 3.22.18.18 0 0 0 .14.2 5.95 5.95 0 0 0 2.32-.05.25.25 0 0 0 .1-.2c0-.03 0-.07-.02-.1l-1.13-3.05c-.12-.32-.25-.32-.4-.02Zm9.9 7.54c.18.1.38.17.6.18.07 0 .12.02.16.04.2.1.16.17-.07.22-.6.13-1.56.15-2.92.08-.18 0-.2-.06-.1-.16l.6-.5c.05-.04.1-.1.12-.16a.44.44 0 0 0 .05-.2v-9.03c0-.1-.04-.2-.1-.26a.37.37 0 0 0-.26-.12c-.47-.01-.68-.09-.62-.22a.2.2 0 0 1 .1-.1.5.5 0 0 1 .19-.04c1.9-.13 3.26-.15 4.06-.08 1.7.16 2.64.94 2.83 2.35.09.65-.05 1.3-.41 1.94-.3.54-.7 1.04-1.15 1.49a.2.2 0 0 0-.03.26c.86 1.13 1.75 2.25 2.65 3.35.6.72 1.36 1.1 2.3 1.17.48.03.49.1.02.23-1.46.41-2.64.05-3.56-1.09-.81-1-1.6-2.03-2.37-3.07-.2-.27-.53-.39-1.01-.37H42c-.48-.01-.72.23-.7.73l.03.71c-.04.8.02 1.6.18 2.39l.06.15a.4.4 0 0 0 .12.11Zm1.4-9.8c-.42-.05-.9-.04-1.47.04a.33.33 0 0 0-.2.1.29.29 0 0 0-.07.2l.05 4.15c0 .16.07.32.19.44s.28.2.46.22c1.45.14 2.35-.16 2.69-.9.64-1.4.5-2.6-.42-3.57a2.1 2.1 0 0 0-1.24-.67Zm36.22 7.95-.15-7.68a.38.38 0 0 0-.35-.37c-.81-.05-.92-.18-.34-.36.37-.12.9-.13 1.6-.03l.41-.01c.14 0 .24.03.31.12.07.1.04.14-.1.14-.4 0-.59.25-.58.73.03 3.1 0 6.27-.1 9.5 0 .34-.14.4-.4.17a95.5 95.5 0 0 1-7.61-7.82c-.51-.58-.76-.48-.73.3l.21 6.92c0 .1.04.18.1.24.06.07.14.11.22.12.8.1 1.03.18.7.24-.77.15-1.6.2-2.52.16-.49-.02-.5-.12-.05-.3.46-.19.67-.5.63-.96l-.04-.4c-.03-3.01 0-5.89.06-8.62.01-.5.19-.56.53-.21l8.01 8.2c.13.12.2.1.19-.08Zm71.14-1.32-.54 1.55-.3.64c-.23.44-.17.87.15 1.3a.1.1 0 0 1 .02.04v.05a.1.1 0 0 1-.03.05 7.05 7.05 0 0 1-2.41.01.27.27 0 0 1-.08-.05.14.14 0 0 1-.04-.05v-.06c.02-.06.13-.08.3-.06.47.05.83-.24 1.06-.84l3.6-9.39c.2-.51.4-.52.6 0a473.37 473.37 0 0 0 3.9 9.53c.26.37.64.6 1.14.7.47.08.47.15 0 .2l-1.86.17a.4.4 0 0 1-.28-.07.49.49 0 0 1-.18-.24l-1.11-3.04c-.17-.46-.47-.68-.91-.67l-2.81.04a.2.2 0 0 0-.14.06.29.29 0 0 0-.08.13Zm1.62-4.62-1.2 3.45a.22.22 0 0 0-.02.1.24.24 0 0 0 .2.22 6.35 6.35 0 0 0 2.6-.13.26.26 0 0 0 .06-.08.26.26 0 0 0 .02-.2l-1.25-3.35c-.14-.4-.28-.4-.41-.01Zm8.66 7.44v-9.11a.37.37 0 0 0-.03-.17.28.28 0 0 0-.1-.11l-.53-.33c-.1-.06-.09-.1.01-.11a13.6 13.6 0 0 1 5.5.1c.66.15 1.1.62 1.35 1.4.23.77.22 1.5-.05 2.18-.23.6-.7 1.08-1.41 1.44a7.12 7.12 0 0 1-2.11.67c1.97-.35 2.83-1.48 2.57-3.37a2.45 2.45 0 0 0-2.28-2.1c-.46-.04-.88-.06-1.26-.06a.52.52 0 0 0-.52.52v7.59l.01 1.23c.1.52.48.8 1.14.85.05 0 .1.02.12.04.08.08.03.13-.14.16-.83.14-1.67.18-2.5.1-.54-.05-.55-.21-.03-.5a.5.5 0 0 0 .26-.42Zm10.46.52.27.08c.07.02.13.05.17.08.05.03.07.07.08.1.02.1-.08.14-.28.12-.1-.01-.2 0-.28 0-.74.12-1.47.1-2.2-.07-.1-.02-.12-.07-.03-.14.37-.28.55-.59.55-.93v-8.05l-.01-.82c-.08-.25-.3-.46-.67-.62-.19-.08-.18-.14.02-.17a7.8 7.8 0 0 1 2.5-.02c.36.05.37.14.03.25a.9.9 0 0 0-.45.3.86.86 0 0 0-.12.5v8.53c0 .2.04.4.12.56.07.16.17.26.3.3Zm16.98-10.24c.18-.47.35-.47.53 0 1.26 3.24 2.62 6.45 4.08 9.6.14.32.43.55.85.71.38.15.37.23-.02.25l-1.84.12a.21.21 0 0 1-.14-.05.28.28 0 0 1-.09-.13l-1.19-3.2c-.15-.41-.4-.62-.76-.62h-2.87c-.05 0-.1.01-.14.05a.3.3 0 0 0-.1.12c-.31.75-.6 1.5-.88 2.26-.2.53-.14.96.15 1.28.08.09.06.14-.04.16-.81.14-1.62.11-2.42-.09-.26-.06-.23-.1.09-.11.61-.02 1-.3 1.17-.82l.13-.4c1.22-3.03 2.39-6.08 3.5-9.13Zm-.15 2.37-1.13 3.3a.34.34 0 0 0 .04.3.3.3 0 0 0 .26.13l2.24-.07c.04 0 .09-.02.13-.04a.28.28 0 0 0 .1-.1.34.34 0 0 0 .03-.29l-1.17-3.22c-.17-.48-.34-.48-.5 0Zm8.29-2.2c-.11.05-.28.03-.5-.06-.1-.04-.1-.09 0-.13a4.05 4.05 0 0 1 2.56-.14l.28.05c.81.11.68.23-.39.36a.22.22 0 0 0-.19.2 50.4 50.4 0 0 0 .15 9.06c.01.13.07.25.16.34.09.09.2.14.32.14l3 .04a.2.2 0 0 0 .14-.04.29.29 0 0 0 .08-.14c.13-.39.31-.72.56-.99.15-.16.2-.14.17.07l-.24 1.48a.2.2 0 0 1-.08.13.28.28 0 0 1-.15.05 33.6 33.6 0 0 1-6.1-.1c-.25-.02-.11-.16.42-.4a.45.45 0 0 0 .26-.4v-9.2a.34.34 0 0 0-.14-.27.34.34 0 0 0-.3-.05ZM60.13 34.1c.4.26.36.4-.13.4-.7 0-1.38-.01-2.07-.04-.41-.02-.2-.18.62-.46a.53.53 0 0 0 .19-.12.5.5 0 0 0 .12-.18l3.52-9.36c.27-.71.54-.72.82 0l3.36 8.52c.17.42.35.72.55.9.28.25.62.4 1 .47.36.05.36.12.01.19-.75.14-1.47.18-2.16.1a.49.49 0 0 1-.41-.38 15.96 15.96 0 0 0-1.22-3.34.47.47 0 0 0-.17-.19.4.4 0 0 0-.22-.07l-2.76.04c-.05 0-.1.02-.14.05a.32.32 0 0 0-.1.12c-.48.97-.8 1.93-1 2.9a.43.43 0 0 0 .2.44Zm2.2-7.86-1.08 3.37a.25.25 0 0 0 .03.22l.07.07.1.02 2.19-.01a.26.26 0 0 0 .2-.1.24.24 0 0 0 .04-.23l-1.24-3.36c-.1-.3-.2-.29-.3.02Zm36.9-1.1c.83.26.94.71.33 1.36a.33.33 0 0 1-.14.09.29.29 0 0 1-.15 0l-3.9-.91a.23.23 0 0 1-.12-.08.24.24 0 0 1-.06-.14c0-.48.13-.96.43-1.45a.22.22 0 0 1 .11-.1h.15a203.2 203.2 0 0 0 3.35 1.23Zm-.48 2.53c.45.1.5.3.16.6-.22.2-.5.34-.83.44-1.3.4-2.44 1.1-3.4 2.12-.17.17-.24.14-.23-.1l.27-3.71a.18.18 0 0 1 .08-.14.22.22 0 0 1 .17-.03l3.78.82Z"/>
  <path fill="#C6C7C8" d="m126.56 34.73.34 1.07a5.85 5.85 0 0 0-4.47-1.82 3.02 3.02 0 0 0-2.48 1.3 1.52 1.52 0 0 1-1.06-.94c2.63-2.12 5.19-2 7.67.39Zm-33.03-1.55c.43 1.77.65 3.68.66 5.72 0 1.55-.18 2.97-.55 4.27-.6 2.1-1.8 3.8-3.59 5.06a4.7 4.7 0 0 1-1.82.78c-.73.14-.81-.05-.23-.59.38-.35.78-.67 1.2-.96a9.47 9.47 0 0 0 4.31-8.04l.02-6.24Zm39.87 9.11c.18.19.34.45.5.76.05.11.02.15-.1.13l-5.22-1.06a.32.32 0 0 1-.24-.2c-.21-.61-.04-.86.53-.74l.42.09c1.12.17 2.23.38 3.34.62.36.08.61.21.78.4Zm-5.53 12.57c.09.01.17.05.24.1l.17.72a.26.26 0 0 1-.09.25.3.3 0 0 1-.28.06 27.25 27.25 0 0 1-5.9-2.5 70.33 70.33 0 0 1-6.77-4.38 6.93 6.93 0 0 0-1.61-.88.55.55 0 0 0-.32-.02l-11.5 2.84c-.7.17-.84-.04-.43-.63.32-.48.76-.76 1.31-.86l.6-.11c3.27-.82 6.47-1.61 9.62-2.38a1.02 1.02 0 0 1 .85.17 72.55 72.55 0 0 0 7.95 5.16 23.52 23.52 0 0 0 6.16 2.46Z"/>
  <path fill="#182B55" d="M92.56 27.8c.01.8.16 1.95.25 2.38.09.44.7 2.25 1.04 5.88.34 3.62-.32 5.36-1.04 6.73a10.53 10.53 0 0 1-4.86 4.47c-.35.17-.67.15-.95-.06a.13.13 0 0 1-.04-.05.14.14 0 0 1-.01-.06l.01-.07.04-.05c2.33-2.29 3.17-5.12 2.53-8.5-.33-1.73-.69-3.2-1.08-4.43a58.3 58.3 0 0 1-1.13-4.12 21.47 21.47 0 0 1-.6-4.22c-.07-2.35.21-4.71.84-7.07.98-3.64 2.8-6.74 5.45-9.31a30.6 30.6 0 0 1 11.34-7.02 23.4 23.4 0 0 1 6.75-1.27 33.92 33.92 0 0 1 14.11 2.44l.03.04.02.06c0 .02 0 .04-.02.06l-3.44 8.47a.19.19 0 0 1-.1.1.18.18 0 0 1-.13 0 25.06 25.06 0 0 0-10.37-1.68c-4.09.2-7.82 1.44-11.21 3.7a17.86 17.86 0 0 0-5.63 6.02 13.53 13.53 0 0 0-1.8 7.56Z"/>
</svg>
