<svg xmlns="http://www.w3.org/2000/svg" fill="none" viewBox="0 0 216 56">
  <g fill="#000" clip-path="url(#a)">
    <path d="M73.87 47.68h-1.14a1.43 1.43 0 0 0-.51-.88 1.6 1.6 0 0 0-.45-.23 1.74 1.74 0 0 0-1.44.18c-.26.17-.47.42-.62.75a2.9 2.9 0 0 0-.22 1.2c0 .48.07.88.22 1.21.15.33.36.58.62.74a1.82 1.82 0 0 0 1.43.17 1.44 1.44 0 0 0 .78-.58c.09-.14.15-.3.19-.49h1.14a2.47 2.47 0 0 1-1.63 2 3 3 0 0 1-1.02.17 2.67 2.67 0 0 1-2.5-1.49 3.74 3.74 0 0 1-.38-1.73c0-.68.13-1.26.38-1.74a2.7 2.7 0 0 1 2.5-1.49c.35 0 .67.05.97.15.3.1.57.24.8.43a2.58 2.58 0 0 1 .88 1.62Zm17.9 4.16h-1.21l2.2-6.28h1.4l2.22 6.28h-1.22l-1.67-5h-.05l-1.67 5Zm.04-2.46h3.3v.9h-3.3v-.9Zm21.52 2.46v-6.28h2.35c.48 0 .89.09 1.21.27.33.18.58.43.75.74.17.31.25.67.25 1.07s-.08.76-.25 1.07c-.17.31-.42.56-.75.74-.33.18-.74.27-1.22.27h-1.56v-.94h1.4c.28 0 .52-.05.7-.15.17-.1.3-.23.4-.4.08-.17.13-.37.13-.6 0-.22-.05-.41-.14-.58a.9.9 0 0 0-.4-.4c-.18-.1-.41-.14-.7-.14h-1.03v5.33h-1.14Zm22.81-6.28v6.28h-1.13v-6.28h1.13Zm17.08.95v-.95h5v.95h-1.93v5.33h-1.13V46.5h-1.94Zm22.14 5.33h-1.2l2.2-6.28h1.4l2.21 6.28h-1.21l-1.67-5h-.05l-1.68 5Zm.04-2.46h3.31v.9h-3.3v-.9Zm21.53 2.46v-6.28h1.13v5.32h2.76v.96h-3.9Z"/>
    <path fill-rule="evenodd" d="M80.23 4.66c3.18 1.04 5.54 2.75 7.15 5.19 1.65 2.48 2.6 6.5 2.34 9.88-.46 6.01-3.5 10.5-8.33 12.27-2.3.84-4.2 1.08-8.79 1.08l-4.26.01V4l5.21.09c4.72.07 5.34.13 6.68.57Zm-7.26 23.8V8.39l2.4.14c3.7.21 6.23 1.22 7.67 3.06 3.1 3.95 2.82 11.22-.57 14.4-1.92 1.79-3.93 2.47-7.33 2.47h-2.17Z" clip-rule="evenodd"/>
    <path d="M99.06 13.53c2.22 5.22 4.11 9.4 4.2 9.31.08-.1 1.7-4.07 3.58-8.85 1.89-4.77 3.5-8.63 3.57-8.59.08.05 1.78 3.96 3.78 8.68 2 4.72 3.72 8.67 3.8 8.77.09.1 1.85-4.1 3.91-9.32l3.76-9.49h4.94c-.41 1.2-12.33 30.1-12.41 30.1-.06 0-1.78-3.81-3.83-8.47a159.73 159.73 0 0 0-3.86-8.47 159 159 0 0 0-3.63 8.47 193.44 193.44 0 0 1-3.6 8.47c-.09 0-12.64-28.47-13.26-30.1h5l4.05 9.49Zm53.58 4.35-.06 2.05-8.88.06-8.9.05v-4.21h17.9l-.06 2.05Zm.16 13.11v2l-9 .05-9 .05v-4.21l9 .05 9 .06v2Zm0-24.95v1.9l-9 .05-9 .05v-4l9 .05 9 .05v1.9Z"/>
    <path fill-rule="evenodd" d="M168.28 4.34c3.72.79 5.8 2.98 6.02 6.35a7.37 7.37 0 0 1-1.3 4.89l-.74 1.07 1.22 1.22a9.05 9.05 0 0 1 2.57 8.02c-.62 3.38-2.87 5.57-6.85 6.7-.96.26-2.44.37-6.15.45l-4.9.1V4.03h4.37c2.93 0 4.82.1 5.76.3Zm-5.5 12.55V7.98l2.26.11c3.38.18 4.7.78 5.12 2.32.6 2.24-1.18 4.25-5.17 5.8-.58.22-1.31.46-1.63.54l-.58.14Zm.62 4.07c.33-.07 1.5-.43 2.57-.8 1.08-.38 2.16-.7 2.4-.72.47-.04 1.77.82 2.55 1.68 1.13 1.23 1.49 3.8.73 5.24-.84 1.57-3.4 2.52-6.8 2.52h-2.07v-7.8l.62-.12Z" clip-rule="evenodd"/>
    <path d="M197.9 4.04c-.06.19-1.25 2.58-2.52 4.9a81.1 81.1 0 0 0-2.3 4.37c0 .1.6.37 1.33.61 3.69 1.23 6.19 4.35 6.4 8a10 10 0 0 1-2.78 7.73c-3.6 3.98-9.52 4.48-15.48 1.3a16 16 0 0 1-2.31-1.44l1.26-1.77c.7-1 1.32-1.8 1.35-1.8.04 0 .62.32 1.3.73a10.26 10.26 0 0 0 5.56 1.74c1.94.09 2.03.07 3.36-.62 3.73-1.94 4.44-6.9 1.27-8.9-1.36-.86-2.94-1.17-6.05-1.17h-2.8c0-.05 1.1-2.18 2.43-4.62s2.42-4.49 2.42-4.54c0-.06-1.85-.1-4.1-.1h-4.1V4.04h15.77Z"/>
    <path fill-rule="evenodd" d="M61.82 4H14.5v48h47.32V4ZM30 29.9h-5.73v15.36H30V29.9Zm5.52-8h5.73v23.36h-5.73V21.9Zm16.76-10.95h-5.73v34.31h5.73V10.95Z" clip-rule="evenodd"/>
  </g>
  <defs>
    <clipPath id="a">
      <path fill="#fff" d="M14.5 4h186.35v48H14.5z"/>
    </clipPath>
  </defs>
</svg>
