<svg width="288" height="364" viewBox="0 0 288 364" fill="none" xmlns="http://www.w3.org/2000/svg">
<g clip-path="url(#clip0_2975_80146)">
<rect width="288" height="364" rx="8" fill="#14191E"/>
<path fill-rule="evenodd" clip-rule="evenodd" d="M109.482 167.243C104.267 168.359 100.609 172.204 99.3715 177.872C98.7587 180.678 98.9167 184.714 99.7518 187.585C101.613 193.987 107.241 197.642 114.1 196.907C117.702 196.52 120.437 195.296 122.783 193.02L123.826 192.009V185.563V179.118H116.988H110.15V181.857V184.597L113.944 184.641L117.738 184.686L117.782 187.013L117.826 189.34L117.243 189.734C115.627 190.824 113.051 191.285 110.997 190.853C107.22 190.058 105.294 187.028 105.28 181.86C105.269 177.498 106.641 174.737 109.482 173.402C110.433 172.955 110.782 172.885 112.318 172.832C115.133 172.735 117.088 173.34 119.263 174.981L120.333 175.787L121.996 173.552C122.911 172.323 123.657 171.258 123.654 171.187C123.642 170.869 121.256 169.216 119.717 168.461C117.484 167.365 115.669 166.985 112.735 167C111.542 167.006 110.079 167.116 109.482 167.243ZM128.329 181.682V195.905H131.331H134.333V191.002V186.099L136.376 186.103L138.419 186.108L141.331 191.006L144.243 195.905H147.623H151.002L149.866 194.035C149.241 193.007 147.742 190.543 146.535 188.56C145.328 186.578 144.34 184.881 144.34 184.79C144.34 184.7 144.502 184.574 144.699 184.512C144.896 184.449 145.553 183.902 146.159 183.296C147.987 181.467 148.838 179.267 148.838 176.376C148.838 171.904 146.708 169.08 142.422 167.871C141.579 167.633 140.392 167.579 134.875 167.524L128.329 167.46V181.682ZM155.348 181.694V195.905H158.267H161.185V181.694V167.484H158.267H155.348V181.694ZM166.189 181.693V195.928L172.068 195.863C178.768 195.79 178.976 195.759 181.783 194.41C185.831 192.465 188.281 188.735 188.88 183.606C189.134 181.426 188.983 179.098 188.451 177.008C187.254 172.307 184.235 169.271 179.448 167.956C178.214 167.617 177.667 167.584 172.152 167.523L166.189 167.458V181.693ZM141.014 173.507C142.283 174.126 142.709 174.883 142.709 176.517C142.709 178.43 142.097 179.525 140.672 180.164C140.048 180.443 139.456 180.513 137.128 180.58L134.333 180.66V176.795V172.931L137.211 172.993C139.938 173.053 140.138 173.079 141.014 173.507ZM178.677 173.594C180.009 174.122 180.797 174.735 181.507 175.794C182.541 177.338 182.784 178.432 182.782 181.528C182.778 185.108 182.335 186.588 180.765 188.262C179.423 189.691 177.542 190.25 174.07 190.253L172.193 190.254V181.677V173.101L174.987 173.17C177.345 173.228 177.92 173.294 178.677 173.594Z" fill="white"/>
<g filter="url(#filter0_f_2975_80146)">
<circle cx="143.5" cy="399.5" r="95.5" fill="#5DCAF1"/>
</g>
</g>
<defs>
<filter id="filter0_f_2975_80146" x="-100" y="156" width="487" height="487" filterUnits="userSpaceOnUse" color-interpolation-filters="sRGB">
<feFlood flood-opacity="0" result="BackgroundImageFix"/>
<feBlend mode="normal" in="SourceGraphic" in2="BackgroundImageFix" result="shape"/>
<feGaussianBlur stdDeviation="74" result="effect1_foregroundBlur_2975_80146"/>
</filter>
<clipPath id="clip0_2975_80146">
<rect width="288" height="364" rx="8" fill="white"/>
</clipPath>
</defs>
</svg>
