<?xml version="1.0" standalone="no"?>
<!DOCTYPE svg PUBLIC "-//W3C//DTD SVG 20010904//EN"
 "http://www.w3.org/TR/2001/REC-SVG-20010904/DTD/svg10.dtd">
<svg version="1.0" xmlns="http://www.w3.org/2000/svg"
 width="700.000000pt" height="700.000000pt" viewBox="0 0 700.000000 700.000000"
 preserveAspectRatio="xMidYMid meet">
<metadata>
Created by potrace 1.14, written by Peter Selinger 2001-2017
</metadata>
<g transform="translate(0.000000,700.000000) scale(0.100000,-0.100000)"
fill="#000000" stroke="none">
<path d="M3508 6996 c-1 -2 -37 -6 -78 -10 -156 -13 -307 -38 -480 -80 -667
-165 -1284 -573 -1707 -1132 -227 -301 -408 -658 -520 -1029 -26 -87 -78 -306
-87 -370 -4 -22 -8 -53 -11 -70 -9 -61 -13 -93 -30 -260 -11 -102 -6 -442 9
-560 3 -27 8 -72 11 -100 24 -228 106 -538 214 -808 68 -171 223 -465 298
-563 12 -17 23 -34 23 -37 0 -4 6 -15 14 -24 8 -10 36 -47 62 -83 126 -172
324 -385 489 -525 93 -79 95 -81 75 -70 -45 25 -282 200 -350 259 -53 46 -300
295 -344 346 -85 99 -306 406 -306 424 0 3 -12 22 -26 43 -41 61 -167 318
-216 443 -123 310 -198 627 -225 955 -12 151 -6 506 11 630 2 17 7 53 11 80 3
28 9 61 11 75 3 14 6 34 8 45 76 468 321 1030 610 1395 48 61 -88 -84 -155
-165 -289 -349 -495 -721 -639 -1154 -78 -236 -126 -453 -166 -761 -9 -73 -13
-600 -4 -665 5 -33 11 -87 15 -120 3 -33 8 -72 11 -87 12 -77 16 -99 29 -168
36 -191 124 -492 187 -640 11 -25 27 -63 36 -85 229 -540 645 -1071 1112
-1419 41 -30 80 -59 85 -63 6 -5 48 -33 95 -64 75 -49 119 -77 181 -114 60
-36 291 -150 379 -188 341 -145 704 -234 1090 -267 96 -8 544 -5 590 4 14 3
50 7 80 10 30 3 64 8 76 10 12 2 44 7 72 11 29 3 65 10 82 15 16 5 30 7 30 5
0 -3 11 0 26 5 14 6 39 12 57 15 73 13 201 46 308 81 879 282 1568 912 1935
1771 73 173 153 422 189 596 6 25 43 254 49 297 36 261 25 649 -25 930 -33
189 -60 296 -120 473 -124 368 -334 736 -585 1025 -72 82 -243 254 -344 345
l-75 68 89 -62 c79 -54 161 -114 176 -129 3 -3 32 -27 65 -54 61 -51 296 -282
351 -346 221 -257 412 -566 533 -860 24 -58 49 -118 56 -135 41 -96 130 -413
142 -505 11 -90 15 -52 9 95 -4 83 -8 164 -10 180 -2 17 -7 59 -11 95 -8 74
-14 118 -20 140 -2 8 -7 35 -10 60 -18 129 -77 361 -137 535 -148 432 -377
830 -677 1175 -67 77 -255 268 -326 331 -456 402 -1020 676 -1575 764 -19 3
-42 8 -50 10 -8 2 -44 7 -80 10 -36 4 -74 9 -85 12 -22 5 -501 13 -507 9z"/>
</g>
</svg>
