<svg width="160" height="160" viewBox="0 0 160 160" fill="none" xmlns="http://www.w3.org/2000/svg">
<g filter="url(#filter0_d_986_25308)">
<rect width="72" height="72" rx="8" fill="white"/>
<g clip-path="url(#clip0_986_25308)">
<path d="M32.9592 31.6039C32.0785 36.4227 30.9236 39.9206 29.4799 42.0977C28.3567 43.7814 27.1267 44.6232 25.7841 44.6232C25.4275 44.6232 24.9872 44.5148 24.4646 44.2995V43.1384C24.7201 43.1761 25.0189 43.1962 25.364 43.1962C25.9891 43.1962 26.4929 43.022 26.8798 42.6751C27.3389 42.2513 27.5685 41.7752 27.5685 41.2483C27.5685 40.8884 27.3895 40.1482 27.0329 39.0277L24.6652 31.5964H26.7874L28.491 37.1553C28.8736 38.4166 29.0338 39.3034 28.9688 39.7969C29.9 37.286 30.5569 34.5573 30.9178 31.5964H32.9678M23.5839 41.2048H21.4184C21.3423 37.5327 21.1311 34.0638 20.7875 30.8271H20.7685L17.4769 41.2048H15.8311L12.5539 30.8271H12.5346C12.292 33.9332 12.139 37.4021 12.0755 41.2048H10.0977C10.225 36.5748 10.5438 32.235 11.0534 28.1855H13.7386L16.857 37.7504H16.8762L20.0089 28.1855H22.5787C23.1403 32.9317 23.4723 37.2715 23.5734 41.2048" fill="#00758F"/>
<path d="M61.8324 41.2123H55.6968V28.193H57.7612V39.6157H61.8324V41.2123ZM46.385 38.6142C45.8624 37.7652 45.5997 36.4081 45.5997 34.5212C45.5997 31.241 46.5886 29.6009 48.5592 29.6009C49.5929 29.6009 50.3494 29.9928 50.8402 30.7766C51.3628 31.6256 51.6256 32.9827 51.6256 34.826C51.6256 38.1353 50.6367 39.7899 48.6661 39.7899C47.6324 39.7899 46.8759 39.398 46.385 38.6128M54.0799 41.5301L51.7122 40.3501C51.923 40.176 52.1251 39.9873 52.3056 39.7681C53.3133 38.5736 53.8214 36.8072 53.8214 34.4704C53.8214 30.1597 52.1468 28.0116 48.783 28.0116C47.1372 28.0116 45.8523 28.5573 44.9428 29.6517C43.9337 30.8477 43.4269 32.6126 43.4269 34.9349C43.4269 37.2281 43.873 38.8973 44.7667 39.9713C45.5809 40.9351 46.8167 41.4184 48.4625 41.4184C49.0775 41.4184 49.6405 41.342 50.1516 41.1891L53.2411 43.0033L54.0842 41.5374M42.5348 37.6186C42.5348 38.7231 42.132 39.636 41.3293 40.3327C40.5266 41.0396 39.4525 41.3923 38.0954 41.3923C36.8322 41.3923 35.6123 40.9844 34.4141 40.176L34.9684 39.0569C35.9891 39.5707 36.9174 39.8276 37.7403 39.8276C38.5184 39.8276 39.1277 39.6535 39.5738 39.308C40.0126 38.9611 40.2768 38.4764 40.2768 37.8624C40.2768 37.0888 39.7412 36.4284 38.761 35.874C37.8543 35.3732 36.0469 34.3209 36.0469 34.3209C35.0652 33.5996 34.5743 32.826 34.5743 31.5487C34.5743 30.4935 34.941 29.6473 35.6744 28.9942C36.4092 28.344 37.3491 28.0189 38.5184 28.0189C39.7181 28.0189 40.8139 28.3411 41.7956 28.984L41.2961 30.1016C40.4559 29.7431 39.6214 29.5617 38.813 29.5617C38.1503 29.5617 37.6392 29.7228 37.2827 30.045C36.9246 30.3644 36.7037 30.7766 36.7037 31.2787C36.7037 32.0495 37.2509 32.7186 38.2629 33.2817C39.1796 33.7839 41.0348 34.8492 41.0348 34.8492C42.0439 35.5692 42.5506 36.3442 42.5506 37.607" fill="#F29111"/>
</g>
<rect x="0.5" y="0.5" width="71" height="71" rx="7.5" stroke="#E7EEF4"/>
</g>
<g filter="url(#filter1_d_986_25308)">
<rect x="88" y="88" width="72" height="72" rx="8" fill="white"/>
<path d="M124 148C137.255 148 148 137.255 148 124C148 110.745 137.255 100 124 100C110.745 100 100 110.745 100 124C100 137.255 110.745 148 124 148Z" fill="#13AA52"/>
<path d="M130.416 121.068C128.9 114.377 125.317 112.177 124.932 111.337C124.51 110.744 124.082 109.689 124.082 109.689C124.075 109.671 124.064 109.64 124.051 109.609C124.007 110.202 123.985 110.431 123.424 111.029C122.556 111.708 118.102 115.445 117.74 123.047C117.402 130.136 122.861 134.36 123.599 134.899L123.683 134.958V134.953C123.688 134.989 123.917 136.641 124.079 138.391H124.657C124.793 137.154 124.996 135.925 125.266 134.71L125.313 134.68C125.643 134.443 125.958 134.185 126.256 133.908L126.29 133.878C127.859 132.428 130.68 129.075 130.653 123.728C130.647 122.836 130.568 121.946 130.416 121.068ZM124.017 130.896C124.017 130.896 124.017 120.953 124.345 120.955C124.601 120.955 124.933 133.78 124.933 133.78C124.477 133.726 124.017 131.67 124.017 130.896Z" fill="white"/>
<rect x="88.5" y="88.5" width="71" height="71" rx="7.5" stroke="#E7EEF4"/>
</g>
<path d="M72 36C109.242 36 126.013 34.7998 124 87.9998" stroke="url(#paint0_linear_986_25308)"/>
<path d="M88 124C50.7578 124 33.9869 125.2 36 72" stroke="url(#paint1_linear_986_25308)"/>
<circle cx="72" cy="36" r="4" fill="#FF008A"/>
<circle cx="36" cy="72" r="4" fill="#6901F8"/>
<circle cx="88" cy="124" r="4" fill="#6901F8"/>
<circle cx="124" cy="88" r="4" fill="#FF008A"/>
<path d="M35.6207 74V71.2727H36.3771V74H35.6207ZM36.0007 70.9212C35.8882 70.9212 35.7917 70.8839 35.7112 70.8093C35.6319 70.7335 35.5923 70.643 35.5923 70.5376C35.5923 70.4335 35.6319 70.3441 35.7112 70.2695C35.7917 70.1938 35.8882 70.1559 36.0007 70.1559C36.1131 70.1559 36.209 70.1938 36.2883 70.2695C36.3688 70.3441 36.409 70.4335 36.409 70.5376C36.409 70.643 36.3688 70.7335 36.2883 70.8093C36.209 70.8839 36.1131 70.9212 36.0007 70.9212Z" fill="white"/>
<path d="M87.6207 126V123.273H88.3771V126H87.6207ZM88.0007 122.921C87.8882 122.921 87.7917 122.884 87.7112 122.809C87.6319 122.734 87.5923 122.643 87.5923 122.538C87.5923 122.433 87.6319 122.344 87.7112 122.27C87.7917 122.194 87.8882 122.156 88.0007 122.156C88.1131 122.156 88.209 122.194 88.2883 122.27C88.3688 122.344 88.409 122.433 88.409 122.538C88.409 122.643 88.3688 122.734 88.2883 122.809C88.209 122.884 88.1131 122.921 88.0007 122.921Z" fill="white"/>
<path d="M71.6207 38V35.2727H72.3771V38H71.6207ZM72.0007 34.9212C71.8882 34.9212 71.7917 34.8839 71.7112 34.8093C71.6319 34.7335 71.5923 34.643 71.5923 34.5376C71.5923 34.4335 71.6319 34.3441 71.7112 34.2695C71.7917 34.1938 71.8882 34.1559 72.0007 34.1559C72.1131 34.1559 72.209 34.1938 72.2883 34.2695C72.3688 34.3441 72.409 34.4335 72.409 34.5376C72.409 34.643 72.3688 34.7335 72.2883 34.8093C72.209 34.8839 72.1131 34.9212 72.0007 34.9212Z" fill="white"/>
<path d="M123.621 90V87.2727H124.377V90H123.621ZM124.001 86.9212C123.888 86.9212 123.792 86.8839 123.711 86.8093C123.632 86.7335 123.592 86.643 123.592 86.5376C123.592 86.4335 123.632 86.3441 123.711 86.2695C123.792 86.1938 123.888 86.1559 124.001 86.1559C124.113 86.1559 124.209 86.1938 124.288 86.2695C124.369 86.3441 124.409 86.4335 124.409 86.5376C124.409 86.643 124.369 86.7335 124.288 86.8093C124.209 86.8839 124.113 86.9212 124.001 86.9212Z" fill="white"/>
<defs>
<filter id="filter0_d_986_25308" x="-45.3956" y="-23.5385" width="162.791" height="162.791" filterUnits="userSpaceOnUse" color-interpolation-filters="sRGB">
<feFlood flood-opacity="0" result="BackgroundImageFix"/>
<feColorMatrix in="SourceAlpha" type="matrix" values="0 0 0 0 0 0 0 0 0 0 0 0 0 0 0 0 0 0 127 0" result="hardAlpha"/>
<feOffset dy="21.8571"/>
<feGaussianBlur stdDeviation="22.6978"/>
<feComposite in2="hardAlpha" operator="out"/>
<feColorMatrix type="matrix" values="0 0 0 0 0.132056 0 0 0 0 0.0694444 0 0 0 0 0.133333 0 0 0 0.05 0"/>
<feBlend mode="normal" in2="BackgroundImageFix" result="effect1_dropShadow_986_25308"/>
<feBlend mode="normal" in="SourceGraphic" in2="effect1_dropShadow_986_25308" result="shape"/>
</filter>
<filter id="filter1_d_986_25308" x="42.6044" y="64.4615" width="162.791" height="162.791" filterUnits="userSpaceOnUse" color-interpolation-filters="sRGB">
<feFlood flood-opacity="0" result="BackgroundImageFix"/>
<feColorMatrix in="SourceAlpha" type="matrix" values="0 0 0 0 0 0 0 0 0 0 0 0 0 0 0 0 0 0 127 0" result="hardAlpha"/>
<feOffset dy="21.8571"/>
<feGaussianBlur stdDeviation="22.6978"/>
<feComposite in2="hardAlpha" operator="out"/>
<feColorMatrix type="matrix" values="0 0 0 0 0.132056 0 0 0 0 0.0694444 0 0 0 0 0.133333 0 0 0 0.05 0"/>
<feBlend mode="normal" in2="BackgroundImageFix" result="effect1_dropShadow_986_25308"/>
<feBlend mode="normal" in="SourceGraphic" in2="effect1_dropShadow_986_25308" result="shape"/>
</filter>
<linearGradient id="paint0_linear_986_25308" x1="72" y1="35" x2="124" y2="91" gradientUnits="userSpaceOnUse">
<stop stop-color="#FF008A" stop-opacity="0"/>
<stop offset="0.541667" stop-color="#FF008A"/>
</linearGradient>
<linearGradient id="paint1_linear_986_25308" x1="88" y1="124.5" x2="36" y2="68.5" gradientUnits="userSpaceOnUse">
<stop stop-color="#6901F8" stop-opacity="0"/>
<stop offset="0.625" stop-color="#6901F8"/>
</linearGradient>
<clipPath id="clip0_986_25308">
<rect width="52" height="16.25" fill="white" transform="translate(10 28)"/>
</clipPath>
</defs>
</svg>
