<svg width="160" height="160" viewBox="0 0 160 160" fill="none" xmlns="http://www.w3.org/2000/svg">
<g filter="url(#filter0_d_986_25273)">
<rect x="88" width="72" height="72" rx="8" fill="white"/>
<path d="M141.465 28.3154L136.913 43.3239C136.868 43.4591 136.822 43.5042 136.687 43.5493L133.307 43.8647C133.217 43.8647 133.127 43.8197 133.127 43.6845L129.611 29.4422C129.521 29.2619 129.656 29.0816 129.837 29.0816L132.676 28.8112C132.811 28.8112 132.901 28.8563 132.901 28.9915L135.29 40.3493L138.445 28.4957C138.49 28.3605 138.535 28.2704 138.715 28.2704L141.284 28.045C141.375 28.045 141.51 28.1802 141.465 28.3154ZM128.575 30.2084L127.583 32.1915C127.538 32.3267 127.403 32.4169 127.222 32.3718C126.456 32.1014 125.69 32.0112 124.744 32.1014C123.482 32.1915 122.806 32.8225 122.896 33.9943C122.941 34.4901 123.166 34.9408 125.194 35.6169C127.673 36.5183 128.259 37.6901 128.394 39.0873C128.71 42.6478 126.321 44.5859 123.301 44.8563C121.679 44.9915 120.372 44.9464 119.065 44.3605C118.975 44.3155 118.884 44.2253 118.93 44.1352L119.921 41.8816C120.011 41.7014 120.056 41.6563 120.282 41.7014C121.093 42.0169 121.769 42.2422 123.121 42.1521C124.293 42.0619 125.149 41.4309 125.059 40.214C125.014 39.6732 124.744 39.2225 122.851 38.5014C120.417 37.6 119.651 36.3831 119.515 34.7605C119.245 31.7408 121.363 29.6676 124.293 29.3971C126.141 29.2169 126.997 29.307 128.439 29.8478C128.62 29.8929 128.62 30.0281 128.575 30.2084ZM117.983 31.245L116.992 33.1831C116.946 33.2732 116.901 33.3633 116.811 33.3633C116.766 33.3633 116.676 33.3633 116.631 33.3183C115.865 33.0028 115.189 32.9126 114.287 32.9577C112.665 33.0929 110.231 34.8957 110.637 39.2676C110.862 41.7464 112.259 42.9633 113.972 42.7831C114.648 42.738 115.414 42.5577 116.315 42.0169C116.496 41.9267 116.586 41.9718 116.676 42.0619L117.577 43.9098C117.668 44.0901 117.622 44.2253 117.442 44.3605C116.27 45.1718 115.189 45.4422 113.611 45.5774C110.051 45.8929 107.752 43.8647 107.437 40.0338C106.896 34.0845 110.096 30.6591 114.152 30.2985C115.82 30.1633 116.856 30.2535 117.893 30.8394C118.073 30.8845 118.073 31.0647 117.983 31.245ZM144.665 16.6873L106.986 13.3971C105.814 13.307 104.822 14.1633 104.687 15.2901L101.397 53.014C101.307 54.1859 102.163 55.1774 103.29 55.3126L141.014 58.6028C142.186 58.6929 143.177 57.8366 143.313 56.7098L146.603 18.9859C146.693 17.814 145.837 16.7774 144.665 16.6873Z" fill="#F58220"/>
<rect x="88.5" y="0.5" width="71" height="71" rx="7.5" stroke="#E7EEF4"/>
</g>
<g filter="url(#filter1_d_986_25273)">
<rect width="72" height="72" rx="8" fill="white"/>
<g clip-path="url(#clip0_986_25273)">
<path d="M41.9523 34.9L23.0938 31.6V55.9837C23.0938 57.0973 24.0041 58 25.1271 58H57.6681C58.7911 58 59.7014 57.0973 59.7014 55.9837V47L41.9523 34.9Z" fill="#185C37"/>
<path d="M41.9523 14H25.1271C24.0041 14 23.0938 14.9027 23.0938 16.0163V25L41.9523 36L51.9362 39.3L59.7014 36V25L41.9523 14Z" fill="#21A366"/>
<path d="M23.0938 25H41.9523V36H23.0938V25Z" fill="#107C41"/>
<path opacity="0.1" d="M36.5909 22.8H23.0938V50.3H36.5909C37.7124 50.2964 38.6206 49.3958 38.6243 48.2838V24.8163C38.6206 23.7043 37.7124 22.8037 36.5909 22.8Z" fill="black"/>
<path opacity="0.2" d="M35.4816 23.9H23.0938V51.4H35.4816C36.6031 51.3964 37.5113 50.4958 37.515 49.3837V25.9163C37.5113 24.8043 36.6031 23.9036 35.4816 23.9Z" fill="black"/>
<path opacity="0.2" d="M35.4816 23.9H23.0938V49.2H35.4816C36.6031 49.1964 37.5113 48.2958 37.515 47.1837V25.9163C37.5113 24.8043 36.6031 23.9036 35.4816 23.9Z" fill="black"/>
<path opacity="0.2" d="M34.3723 23.9H23.0938V49.2H34.3723C35.4937 49.1964 36.402 48.2958 36.4056 47.1837V25.9163C36.402 24.8043 35.4937 23.9036 34.3723 23.9Z" fill="black"/>
<path d="M14.0334 23.9H34.3717C35.4947 23.9 36.4051 24.8027 36.4051 25.9163V46.0837C36.4051 47.1973 35.4947 48.1 34.3717 48.1H14.0334C12.9104 48.1 12 47.1973 12 46.0837V25.9163C12 24.8027 12.9104 23.9 14.0334 23.9Z" fill="url(#paint0_linear_986_25273)"/>
<path d="M18.2969 42.5538L22.5744 35.9813L18.6552 29.4451H21.8079L23.9467 33.6251C24.1441 34.0222 24.2795 34.317 24.3527 34.5117H24.3804C24.5209 34.1949 24.6688 33.8872 24.8241 33.5888L27.1104 29.4473H30.0047L25.9856 35.945L30.1068 42.5538H27.0273L24.5568 37.9657C24.4404 37.7705 24.3417 37.5654 24.2617 37.353H24.2251C24.1528 37.5611 24.0567 37.7604 23.9389 37.947L21.3952 42.5538H18.2969Z" fill="white"/>
<path d="M57.667 14H41.9512V25H59.7004V16.0163C59.7004 14.9027 58.79 14 57.667 14Z" fill="#33C481"/>
<path d="M41.9512 36H59.7004V47H41.9512V36Z" fill="#107C41"/>
</g>
<rect x="0.5" y="0.5" width="71" height="71" rx="7.5" stroke="#E7EEF4"/>
</g>
<g filter="url(#filter2_d_986_25273)">
<rect x="88" y="88" width="72" height="72" rx="8" fill="white"/>
<g clip-path="url(#clip1_986_25273)">
<path d="M123.959 135.73C134.579 150.207 144.971 131.689 144.956 120.554C144.938 107.388 131.594 100.03 123.951 100.03C111.683 100.03 100 110.169 100 124.041C100 139.459 113.392 148 123.951 148C121.561 147.656 113.599 145.95 113.492 127.61C113.42 115.206 117.538 110.25 123.933 112.43C124.077 112.483 130.988 115.21 130.988 124.115C130.988 132.983 123.959 135.73 123.959 135.73V135.73Z" fill="url(#paint1_linear_986_25273)"/>
<path d="M123.947 112.42C116.93 110.002 108.334 115.785 108.334 127.369C108.334 146.283 122.35 148 124.049 148C136.317 148 148 137.861 148 123.989C148 108.57 134.608 100.03 124.049 100.03C126.974 99.6249 139.811 103.195 139.811 120.741C139.811 132.183 130.226 138.412 123.991 135.751C123.848 135.698 116.937 132.972 116.937 124.066C116.937 115.198 123.947 112.42 123.947 112.42V112.42Z" fill="url(#paint2_linear_986_25273)"/>
</g>
<rect x="88.5" y="88.5" width="71" height="71" rx="7.5" stroke="#E7EEF4"/>
</g>
<circle cx="88" cy="36" r="4" fill="#FF008A"/>
<path d="M36.0009 72C33.0009 82.8333 28.8009 108.4 36.0009 124" stroke="url(#paint3_linear_986_25273)"/>
<circle cx="88" cy="124" r="4" fill="#6901F8"/>
<circle cx="36" cy="72" r="4" fill="#235794"/>
<circle cx="36" cy="124" r="4" fill="#235794"/>
<path d="M36.5 123C103 84 69.5 33.5 87 35.9999" stroke="url(#paint4_linear_986_25273)"/>
<path d="M88 124C77.6667 120.667 52.9 116.2 36.5 125" stroke="url(#paint5_linear_986_25273)"/>
<path d="M35.6207 74V71.2727H36.3771V74H35.6207ZM36.0007 70.9212C35.8882 70.9212 35.7917 70.8839 35.7112 70.8093C35.6319 70.7335 35.5923 70.643 35.5923 70.5376C35.5923 70.4335 35.6319 70.3441 35.7112 70.2695C35.7917 70.1938 35.8882 70.1559 36.0007 70.1559C36.1131 70.1559 36.209 70.1938 36.2883 70.2695C36.3688 70.3441 36.409 70.4335 36.409 70.5376C36.409 70.643 36.3688 70.7335 36.2883 70.8093C36.209 70.8839 36.1131 70.9212 36.0007 70.9212Z" fill="white"/>
<path d="M87.6207 126V123.273H88.3771V126H87.6207ZM88.0007 122.921C87.8882 122.921 87.7917 122.884 87.7112 122.809C87.6319 122.734 87.5923 122.643 87.5923 122.538C87.5923 122.433 87.6319 122.344 87.7112 122.27C87.7917 122.194 87.8882 122.156 88.0007 122.156C88.1131 122.156 88.209 122.194 88.2883 122.27C88.3688 122.344 88.409 122.433 88.409 122.538C88.409 122.643 88.3688 122.734 88.2883 122.809C88.209 122.884 88.1131 122.921 88.0007 122.921Z" fill="white"/>
<path d="M34.8536 126V122.364H37.2613V122.998H35.6225V123.864H37.1015V124.498H35.6225V126H34.8536Z" fill="white"/>
<path d="M87.6207 38V35.2727H88.3771V38H87.6207ZM88.0007 34.9212C87.8882 34.9212 87.7917 34.8839 87.7112 34.8093C87.6319 34.7335 87.5923 34.643 87.5923 34.5376C87.5923 34.4335 87.6319 34.3441 87.7112 34.2695C87.7917 34.1938 87.8882 34.1559 88.0007 34.1559C88.1131 34.1559 88.209 34.1938 88.2883 34.2695C88.3688 34.3441 88.409 34.4335 88.409 34.5376C88.409 34.643 88.3688 34.7335 88.2883 34.8093C88.209 34.8839 88.1131 34.9212 88.0007 34.9212Z" fill="white"/>
<defs>
<filter id="filter0_d_986_25273" x="42.6044" y="-23.5385" width="162.791" height="162.791" filterUnits="userSpaceOnUse" color-interpolation-filters="sRGB">
<feFlood flood-opacity="0" result="BackgroundImageFix"/>
<feColorMatrix in="SourceAlpha" type="matrix" values="0 0 0 0 0 0 0 0 0 0 0 0 0 0 0 0 0 0 127 0" result="hardAlpha"/>
<feOffset dy="21.8571"/>
<feGaussianBlur stdDeviation="22.6978"/>
<feComposite in2="hardAlpha" operator="out"/>
<feColorMatrix type="matrix" values="0 0 0 0 0.132056 0 0 0 0 0.0694444 0 0 0 0 0.133333 0 0 0 0.05 0"/>
<feBlend mode="normal" in2="BackgroundImageFix" result="effect1_dropShadow_986_25273"/>
<feBlend mode="normal" in="SourceGraphic" in2="effect1_dropShadow_986_25273" result="shape"/>
</filter>
<filter id="filter1_d_986_25273" x="-45.3956" y="-23.5385" width="162.791" height="162.791" filterUnits="userSpaceOnUse" color-interpolation-filters="sRGB">
<feFlood flood-opacity="0" result="BackgroundImageFix"/>
<feColorMatrix in="SourceAlpha" type="matrix" values="0 0 0 0 0 0 0 0 0 0 0 0 0 0 0 0 0 0 127 0" result="hardAlpha"/>
<feOffset dy="21.8571"/>
<feGaussianBlur stdDeviation="22.6978"/>
<feComposite in2="hardAlpha" operator="out"/>
<feColorMatrix type="matrix" values="0 0 0 0 0.132056 0 0 0 0 0.0694444 0 0 0 0 0.133333 0 0 0 0.05 0"/>
<feBlend mode="normal" in2="BackgroundImageFix" result="effect1_dropShadow_986_25273"/>
<feBlend mode="normal" in="SourceGraphic" in2="effect1_dropShadow_986_25273" result="shape"/>
</filter>
<filter id="filter2_d_986_25273" x="42.6044" y="64.4615" width="162.791" height="162.791" filterUnits="userSpaceOnUse" color-interpolation-filters="sRGB">
<feFlood flood-opacity="0" result="BackgroundImageFix"/>
<feColorMatrix in="SourceAlpha" type="matrix" values="0 0 0 0 0 0 0 0 0 0 0 0 0 0 0 0 0 0 127 0" result="hardAlpha"/>
<feOffset dy="21.8571"/>
<feGaussianBlur stdDeviation="22.6978"/>
<feComposite in2="hardAlpha" operator="out"/>
<feColorMatrix type="matrix" values="0 0 0 0 0.132056 0 0 0 0 0.0694444 0 0 0 0 0.133333 0 0 0 0.05 0"/>
<feBlend mode="normal" in2="BackgroundImageFix" result="effect1_dropShadow_986_25273"/>
<feBlend mode="normal" in="SourceGraphic" in2="effect1_dropShadow_986_25273" result="shape"/>
</filter>
<linearGradient id="paint0_linear_986_25273" x1="16.2397" y1="22.3245" x2="31.9647" y2="49.7905" gradientUnits="userSpaceOnUse">
<stop stop-color="#18884F"/>
<stop offset="0.5" stop-color="#117E43"/>
<stop offset="1" stop-color="#0B6631"/>
</linearGradient>
<linearGradient id="paint1_linear_986_25273" x1="107.099" y1="107.099" x2="142.955" y2="138.59" gradientUnits="userSpaceOnUse">
<stop/>
<stop offset="1" stop-color="white"/>
</linearGradient>
<linearGradient id="paint2_linear_986_25273" x1="140.914" y1="140.914" x2="102.106" y2="114.412" gradientUnits="userSpaceOnUse">
<stop/>
<stop offset="1" stop-color="white"/>
</linearGradient>
<linearGradient id="paint3_linear_986_25273" x1="34.0131" y1="72" x2="34.0131" y2="124" gradientUnits="userSpaceOnUse">
<stop stop-color="#235794"/>
<stop offset="1" stop-color="#235794" stop-opacity="0"/>
</linearGradient>
<linearGradient id="paint4_linear_986_25273" x1="88" y1="72" x2="36.5" y2="123.5" gradientUnits="userSpaceOnUse">
<stop stop-color="#FF008A"/>
<stop offset="1" stop-color="#FF008A" stop-opacity="0"/>
</linearGradient>
<linearGradient id="paint5_linear_986_25273" x1="88" y1="124" x2="37" y2="124" gradientUnits="userSpaceOnUse">
<stop stop-color="#6901F8"/>
<stop offset="1" stop-color="#6901F8" stop-opacity="0"/>
</linearGradient>
<clipPath id="clip0_986_25273">
<rect width="47.7009" height="44" fill="white" transform="translate(12 14)"/>
</clipPath>
<clipPath id="clip1_986_25273">
<rect width="48" height="48" fill="white" transform="translate(100 100)"/>
</clipPath>
</defs>
</svg>
