<svg version="1.1" id="Layer_1" xmlns="http://www.w3.org/2000/svg" xmlns:xlink="http://www.w3.org/1999/xlink" x="0" y="0" viewBox="0 0 899 690" xml:space="preserve">
  <style>
    .st0{fill:#ececec}.st1{fill:none;stroke:#4a23eb;stroke-width:1.8}.st5{fill:#fff}.st6{fill:#1f2327}.st7{fill:none;stroke:#6e767d;stroke-width:1.2;stroke-linecap:round;stroke-linejoin:round}.st14,.st15,.st18{fill:none;stroke-width:.9}.st14{stroke:#6e767d;stroke-linecap:round;stroke-linejoin:round}.st15,.st18{stroke:#e6e6e6}.st18{stroke:#6e767d;stroke-width:1.197;stroke-linecap:round;stroke-linejoin:round}.st21{fill:none;stroke:#ececec;stroke-width:.9}.st22{fill:#6901f8}.st29{fill:#fff;stroke:#dae2ee;stroke-width:.9}.st30{fill:#235794}.st32{fill:none;stroke:#4a23eb;stroke-width:1.2;stroke-linecap:round;stroke-linejoin:round}.st34,.st35{fill-rule:evenodd;clip-rule:evenodd;fill:#fff}.st35{fill:#dae2ee}.st37{fill:none;stroke:#dae2ee;stroke-width:.9}.st41{fill:#128383}.st47{fill:#fff;stroke:#4a23eb;stroke-width:3.6}
  </style>
  <path class="st0" d="M637.2 36.1 836.7 65c3.9.6 7.1 4.3 7.1 8.2v149.4c0 4-3.2 6.7-7.1 6.2l-199.5-28.9c-3.9-.6-7.1-4.3-7.1-8.2V42.3c0-4 3.2-6.7 7.1-6.2zM26.1 1l199.5 29c3.9.6 7.1 4.3 7.1 8.2V103c0 4-3.2 6.7-7.1 6.2l-199.5-29C22.2 79.7 19 76 19 72V7.2c0-4 3.2-6.7 7.1-6.2zM333 53.2l199.5 28.9c3.9.6 7.1 4.3 7.1 8.2v135c0 4-3.2 6.7-7.1 6.2L333 202.6c-3.9-.6-7.1-4.3-7.1-8.2v-135c0-4 3.2-6.7 7.1-6.2z"/>
  <path class="st1" d="M826 106.5c63.8 16.4 105.3 116.1 35.5 139.5s-562.3-26-550.9 38.4c4 23 47.7 35.6 79.2 35.6M612 76c-74.2-10.7-78-40-195-52.9-104.5-11.4-113.5 47.1-201.4 47.1"/>
  <path d="M214.8 70.7c20.6 9.9 39.6 74.2 92.7 55.3" fill="none" stroke="#235794" stroke-width="1.8"/>
  <path d="M521 122.7c20.5 9.9 49.5 19.3 91-12.7" fill="none" stroke="#128383" stroke-width="1.8"/>
  <path class="st0" d="m414.9 280 434.7 63c3.9.6 7.1 4.3 7.1 8.2v313.2c0 4-3.2 6.7-7.1 6.2l-434.7-63c-3.9-.6-7.1-4.3-7.1-8.2V286.2c0-4 3.2-6.7 7.1-6.2z"/>
  <defs>
    <path id="SVGID_1_" d="m7.9 18.7 200 29c3.9.6 7.1 4.3 7.1 8.2v65.4c0 4-3.2 6.7-7.1 6.2l-200-29C4 97.9.8 94.2.8 90.3V24.9c0-4 3.1-6.8 7.1-6.2z"/>
  </defs>
  <clipPath id="SVGID_00000013171419707597126880000012243815023888505773_">
    <use xlink:href="#SVGID_1_" overflow="visible"/>
  </clipPath>
  <g clip-path="url(#SVGID_00000013171419707597126880000012243815023888505773_)">
    <path class="st5" d="m7.9 18.7 200 29c3.9.6 7.1 4.3 7.1 8.2v65.4c0 4-3.2 6.7-7.1 6.2l-200-29C4 97.9.8 94.2.8 90.3V24.9c0-4 3.1-6.8 7.1-6.2z"/>
    <path class="st6" d="M21.7 39.5c0-.5-.2-.8-.6-1.1-.3-.3-.8-.5-1.4-.6-.4-.1-.7 0-1 0-.3.1-.5.2-.6.4-.1.2-.2.4-.2.7 0 .2 0 .4.1.6.1.2.2.3.4.5.2.1.4.3.6.4l.6.3 1 .4c.4.1.8.3 1.1.5.4.2.7.5 1 .7.3.3.5.6.7 1a2.66 2.66 0 0 1-.2 2.8c-.3.4-.8.7-1.3.9-.6.2-1.3.2-2.1.1s-1.5-.3-2.1-.7a3.45 3.45 0 0 1-1.9-3.1l1.8.3c0 .4.1.7.3 1 .2.3.5.5.8.7.3.2.7.3 1.1.3.4.1.8 0 1.1 0 .3-.1.6-.2.7-.4.2-.2.3-.4.3-.7 0-.3-.1-.5-.2-.7-.2-.2-.4-.4-.7-.5-.3-.2-.6-.3-1-.5l-1.2-.5c-.9-.3-1.5-.8-2-1.3s-.7-1.2-.7-1.9c0-.6.2-1.1.5-1.5.3-.4.8-.7 1.4-.9.6-.2 1.2-.2 1.9-.1s1.4.3 1.9.7c.6.3 1 .8 1.3 1.3.3.5.5 1 .5 1.6l-1.9-.7zm6.9 8.8c-.8-.1-1.4-.4-2-.8-.6-.4-1-1-1.3-1.6-.3-.7-.5-1.4-.5-2.2 0-.8.2-1.5.5-2.1.3-.6.7-1 1.3-1.2.6-.3 1.2-.3 2-.2s1.4.4 2 .8c.6.4 1 1 1.3 1.6.3.7.5 1.4.5 2.2 0 .8-.2 1.5-.5 2.1-.3.6-.7 1-1.3 1.2-.6.2-1.3.3-2 .2zm0-1.5c.4.1.8 0 1-.2.3-.2.5-.5.6-.8.1-.4.2-.8.2-1.3s-.1-.9-.2-1.3-.3-.8-.6-1c-.3-.3-.6-.4-1-.5-.4-.1-.8 0-1.1.2-.3.2-.5.5-.6.8-.1.4-.2.8-.2 1.3s.1.9.2 1.3.3.7.6 1c.3.2.7.4 1.1.5zm10.2-.5v-4.6l1.8.3v7.9l-1.8-.3v-1.4h-.1c-.2.4-.5.7-.9 1-.4.2-.9.3-1.5.2-.5-.1-1-.3-1.4-.5-.4-.3-.7-.7-.9-1.1-.2-.5-.3-1-.3-1.7v-5l1.8.3V46c0 .5.1.9.4 1.2.3.3.6.5 1.1.6.3 0 .5 0 .8-.1.3-.1.5-.3.6-.5.3-.2.4-.5.4-.9zm3.7 3.8v-7.9l1.8.3v1.3h.1c.1-.4.4-.7.7-.9.3-.2.7-.3 1.2-.2.1 0 .2 0 .3.1.1 0 .2.1.3.1v1.7c-.1 0-.2-.1-.4-.1s-.3-.1-.5-.1c-.3 0-.6 0-.9.1-.3.1-.5.3-.6.5-.2.2-.2.5-.2.9v4.6l-1.8-.4zm8.8 1.4c-.8-.1-1.4-.4-2-.8-.6-.4-1-1-1.3-1.6-.3-.7-.4-1.4-.4-2.2 0-.8.2-1.5.5-2 .3-.6.7-1 1.3-1.2.6-.3 1.2-.3 2-.2.6.1 1.2.3 1.7.6s.9.7 1.2 1.2c.3.5.5 1 .5 1.6l-1.8-.3c-.1-.4-.2-.7-.5-1-.3-.3-.6-.5-1.1-.5-.4-.1-.7 0-1 .2-.3.2-.5.4-.7.8-.2.4-.2.8-.2 1.3s.1 1 .2 1.4c.2.4.4.7.7 1 .3.2.6.4 1 .5h.7c.2-.1.4-.2.5-.4.1-.2.2-.4.3-.7l1.8.3c0 .5-.2 1-.5 1.4-.3.4-.7.7-1.1.8-.6-.1-1.2-.1-1.8-.2zm8.2 1.2c-.8-.1-1.5-.4-2-.8-.6-.4-1-.9-1.3-1.6-.3-.7-.5-1.4-.5-2.2 0-.8.2-1.5.5-2.1.3-.6.7-1 1.3-1.2.5-.3 1.2-.3 1.9-.2.5.1.9.2 1.4.4.4.2.8.5 1.1.9a4.84 4.84 0 0 1 1.1 3.2v.6l-6.4-.9v-1.2l4.6.7c0-.4-.1-.7-.2-1-.1-.3-.4-.6-.6-.7-.3-.2-.6-.3-.9-.4-.4-.1-.7 0-1 .1-.3.1-.5.3-.7.6-.2.3-.2.6-.2.9v1.1c0 .5.1.9.2 1.2.2.3.4.6.7.8.3.2.6.3 1 .4h.7c.2 0 .4-.1.6-.3.2-.1.3-.3.4-.5l1.7.4c-.1.4-.3.8-.6 1.1-.3.3-.7.5-1.2.6-.4.2-1 .2-1.6.1z"/>
    <path class="st7" d="M199.1 67.7c.3.4.3.9 0 1.2-.9 1-3 3.1-5.5 2.8-2.5-.4-4.6-3.1-5.5-4.4-.1-.2-.2-.4-.2-.7 0-.2.1-.4.2-.6.9-1 3-3.1 5.5-2.8 2.5.5 4.6 3.2 5.5 4.5h0z"/>
    <path class="st7" d="M193.6 69.3c1 .1 1.8-.5 1.8-1.5s-.8-1.9-1.8-2.1c-1-.1-1.8.5-1.8 1.5.1 1.1.9 2 1.8 2.1z"/>
    <defs>
      <path id="SVGID_00000179644726594188243430000001698418939337441671_" d="m15 56.3 185.3 26.9V112L15 85.1z"/>
    </defs>
    <clipPath id="SVGID_00000061430650458317490460000002314703140563840673_">
      <use xlink:href="#SVGID_00000179644726594188243430000001698418939337441671_" overflow="visible"/>
    </clipPath>
    <g clip-path="url(#SVGID_00000061430650458317490460000002314703140563840673_)">
      <path d="m20.3 57.6 174.6 25.3c2.7.4 4.9 2.9 4.9 5.7v18c0 2.7-2.2 4.6-4.9 4.2L20.3 85.5a5.9 5.9 0 0 1-4.9-5.7v-18c0-2.7 2.2-4.6 4.9-4.2z" fill="#fff" stroke="#ececec" stroke-width=".9"/>
      <defs>
        <path id="SVGID_00000182518057677015670240000009666716421176585600_" d="M22.1 63.7 38.2 66v16.2l-16.1-2.3z"/>
      </defs>
      <clipPath id="SVGID_00000001651443939317785340000010796830874984005267_">
        <use xlink:href="#SVGID_00000182518057677015670240000009666716421176585600_" overflow="visible"/>
      </clipPath>
      <g clip-path="url(#SVGID_00000001651443939317785340000010796830874984005267_)">
        <path d="m25.7 64.2 8.9 1.3c2 .3 3.6 2.1 3.6 4.1v9c0 2-1.6 3.4-3.6 3.1l-8.9-1.3c-2-.3-3.6-2.1-3.6-4.1v-9c0-2 1.6-3.4 3.6-3.1z" fill="#f2f2f2"/>
        <defs>
          <path id="SVGID_00000177449078460245130010000011445363158667659436_" d="m26.6 67 8.9 1.3v10.8l-8.9-1.3z"/>
        </defs>
        <clipPath id="SVGID_00000116225321050209364500000000478128753193782172_">
          <use xlink:href="#SVGID_00000177449078460245130010000011445363158667659436_" overflow="visible"/>
        </clipPath>
        <g clip-path="url(#SVGID_00000116225321050209364500000000478128753193782172_)">
          <path d="M29.8 67.5c.2 0 .4 0 .5.1.1.1.2.2.3.2v.1c.1.2.1.5.1.7-.1.1-.2.1-.2.1v.3c.2.1.3 0 .5 0 0-.1 0-.2.1-.3v.2s.1 0 .1.1v.1l2.3.3v.1h.1v-.4h.1v.3s0 .1.1.1v-.1c.1.1 0 .1 0 .2.2 0 .4.1.6.1h.5v.1h-.4c-.1-.1-.2-.1-.3-.1-.1 0-.3-.1-.4 0-.1 0-.2 0-.2-.1 0 0 0 .1-.1.1-.3 0-.6-.1-.9-.1h-.1c0 .1-.2.2-.3.2 0 .2.1.4.1.6h-.2c-.1.2 0 .5-.2.6-.1.1-.2.2-.4.2.1.1 0 .1 0 0-.4-.1-.6-.3-1-.5 0 .1 0 .2-.1.2.1 0 .2.1.2.3v.8c0 .2-.1.3-.1.4-.1.1-.2 0-.3-.1 0 0 0 .1-.1.1 0 .1 0 .2.1.3.2.2.4.5.5.8.1.3.3.6.4.9 0 .1.1.1.1.1v.2s0 .1.1.1c0 .4 0 .7-.1 1.1 0 .2.1.3 0 .5 0 .1-.1.1-.1.2v.5c0 .1.1.2.2.3.1.1.1.2.3.3.1.1.2.1.3.2v.2c-.2 0-.4 0-.7-.1-.2 0-.3-.1-.5-.2-.2 0-.4 0-.5-.1.1-.2.1-.4.2-.6v-.6l-.1-.1c0-.1-.1-.3-.1-.4 0-.2 0-.4-.1-.6 0-.1 0-.2.1-.2v-.3c0-.1-.1-.1-.1-.2-.1 0-.3 0-.4-.1-.2-.3-.3-.6-.5-.8-.1 0-.1 0-.2-.1s-.1-.2-.2-.3c-.1.1-.1.2-.1.2-.2.1-.2.4-.3.6-.1.1 0 .3-.1.4 0 .1-.1.1-.2.1 0 .1-.1.2-.2.2s-.1.2-.1.2v.3c-.1.3-.2.5-.3.7 0 .1-.1.2-.2.2-.2.3-.2.6-.2.9.1.1.1.2 0 .3-.2 0-.5 0-.8-.1-.1-.1 0-.3 0-.4.1-.3.2-.6.2-.9-.1-.1-.1-.2-.1-.3 0-.2.1-.3.2-.4 0-.1 0-.3.1-.4.1-.2.2-.3.3-.4 0-.1.1-.2.1-.3V74c0-.3.1-.6.1-.9-.1-.1-.1-.2-.1-.3 0 0 0-.1.1-.1 0 0 0-.1-.1-.1 0-.1 0-.3.2-.2 0-.4-.1-.7-.1-1.1 0 0 0 .1.1.1v-.1h.2c-.1 0-.3-.1-.4-.1V71c0-.3.1-.5.1-.8h.4c0-.4-.1-.7.1-1 .1-.3.3-.5.6-.6.1 0 .3 0 .4.1 0 0 .1 0 .1-.1.3-.4.5-1.1 1-1.1zm1.9 2.2c-.1 0-.1.1-.1.1h-.1s-.2 0-.1.1.1.2.1.3l.3-.3h.1v-.2c-.1.1-.2.1-.2 0z" fill="#231f20"/>
        </g>
      </g>
      <path class="st6" d="m53.7 74.5-1.1-.2-.3-.9c-.2-.3-.4-.5-.6-.7-.2-.2-.5-.4-.8-.5l-.9-.3c-.5-.1-1 0-1.5.2-.4.2-.8.6-1.1 1.1-.3.5-.4 1.2-.4 2s.1 1.5.4 2.1c.3.6.6 1 1.1 1.4.4.3.9.6 1.5.6h.9c.3 0 .5-.1.8-.3.2-.1.4-.3.6-.5.2-.2.3-.5.3-.8l1.1.2c-.1.5-.2.9-.5 1.2-.2.3-.5.6-.8.8-.3.2-.7.4-1.1.4-.4.1-.8.1-1.3 0-.8-.1-1.5-.4-2.1-.9-.6-.5-1.1-1.1-1.4-1.8-.3-.6-.5-1.5-.5-2.5s.2-1.8.5-2.4c.3-.7.8-1.1 1.4-1.4.6-.3 1.3-.4 2.1-.3.5.1.9.2 1.3.4s.8.4 1.1.7c.3.3.6.7.8 1.1.2.4.4.9.5 1.3zm6.7.4c-.1-.5-.3-.8-.6-1.1-.4-.3-.8-.5-1.4-.6-.4-.1-.8 0-1.1 0-.3.1-.5.2-.7.4-.2.2-.2.5-.2.7 0 .2.1.5.2.7.1.2.3.4.5.5.2.1.4.3.6.4l.6.3.9.4c.2.1.5.2.8.4.3.2.6.3.8.6.3.2.5.5.7.8.2.3.3.7.3 1.1 0 .5-.1.9-.4 1.3-.3.4-.6.6-1.1.8-.5.2-1.1.2-1.8.1-.6-.1-1.2-.3-1.7-.6s-.8-.6-1.1-1c-.3-.4-.4-.9-.5-1.4l1.1.2c0 .4.1.7.3.9.2.3.5.5.8.6.3.2.6.3 1 .3.4.1.8 0 1.1 0 .3-.1.6-.2.8-.5.2-.2.3-.5.3-.8 0-.3-.1-.6-.3-.8-.2-.2-.4-.4-.7-.6-.3-.2-.6-.3-.9-.4l-1.1-.5c-.7-.3-1.3-.7-1.7-1.1-.4-.4-.6-1-.6-1.6 0-.5.1-.9.4-1.3.3-.3.6-.6 1.1-.7.5-.1 1-.2 1.6-.1.6.1 1.1.3 1.6.5.5.3.8.6 1.1 1 .3.4.4.8.4 1.3l-1.1-.2zm3.6 7.5c-.2 0-.4-.1-.6-.3-.2-.2-.2-.4-.2-.6 0-.2.1-.4.2-.5.2-.1.3-.2.6-.2.2 0 .4.1.6.3.2.2.2.4.2.6 0 .1 0 .3-.1.4l-.3.3H64zm0-5.1c-.2 0-.4-.1-.6-.3-.2-.2-.2-.4-.2-.6 0-.2.1-.4.2-.5.2-.1.3-.2.6-.2.2 0 .4.1.6.3.2.2.2.4.2.6 0 .1 0 .3-.1.4l-.3.3H64zm9 0c-.1-.3-.2-.6-.4-.9-.2-.3-.3-.5-.6-.7-.2-.2-.5-.4-.7-.5l-.9-.3c-.5-.1-1 0-1.5.2-.4.2-.8.6-1 1.1-.3.5-.4 1.2-.4 2s.1 1.5.4 2.1c.3.6.6 1 1.1 1.4.4.3 1 .6 1.5.6.5.1 1 0 1.4-.1.4-.2.7-.4.9-.8.2-.4.3-.9.3-1.4l.3.1-2.7-.4v-1l3.5.5v1c0 .8-.2 1.4-.5 1.9s-.8.9-1.3 1.1a4 4 0 0 1-1.9.2c-.8-.1-1.5-.4-2.1-.9-.6-.5-1.1-1.1-1.4-1.8-.3-.8-.5-1.6-.5-2.6 0-.7.1-1.4.3-1.9.2-.6.5-1 .8-1.4.4-.4.8-.6 1.3-.8.5-.1 1-.2 1.6-.1.5.1.9.2 1.3.4a4.44 4.44 0 0 1 1.9 1.9c.2.4.4.8.5 1.3l-1.2-.2zm10.8 3.3c0 1-.2 1.8-.5 2.4-.3.7-.8 1.1-1.4 1.4-.6.3-1.3.4-2.1.3-.8-.1-1.5-.4-2.1-.9-.6-.5-1.1-1.1-1.4-1.8-.3-.8-.5-1.6-.5-2.6s.2-1.8.5-2.4c.3-.7.8-1.1 1.4-1.4.6-.3 1.3-.4 2.1-.3.8.1 1.5.4 2.1.9.6.5 1.1 1.1 1.4 1.8.3.8.5 1.7.5 2.6zm-1.1-.1c0-.8-.1-1.5-.4-2.1-.3-.6-.6-1-1.1-1.4-.4-.3-.9-.6-1.5-.6-.5-.1-1 0-1.5.2-.4.2-.8.6-1.1 1.1-.3.5-.4 1.2-.4 2s.1 1.5.4 2.1c.3.6.6 1 1.1 1.4.4.3.9.6 1.5.6.5.1 1 0 1.5-.2.4-.2.8-.6 1.1-1.1.3-.6.4-1.2.4-2zm6.4 5.5v-9.2l3.1.4c.7.1 1.3.3 1.7.6.5.3.8.7 1 1.2.2.5.3 1 .3 1.5s-.1 1-.3 1.4c-.2.4-.5.7-1 .9-.5.2-1 .2-1.7.1l-2.2-.1v-1l2.2.3c.5.1.9 0 1.2-.1.3-.1.5-.3.6-.6.1-.3.2-.6.2-1s-.1-.7-.2-1c-.1-.3-.3-.6-.6-.8-.3-.2-.7-.4-1.2-.4l-2-.2v8.2l-1.1-.2zm8.8-7.9v9.2l-1-.2v-9.2l1 .2zm3.9 9.9c-.4-.1-.8-.2-1.2-.4-.4-.2-.6-.5-.8-.8-.2-.3-.3-.7-.3-1.2 0-.4.1-.7.2-.9.2-.2.4-.4.6-.5.3-.1.5-.2.8-.2h1.9c.3 0 .4 0 .6-.1.1-.1.2-.2.2-.3 0-.4-.1-.8-.4-1.1-.2-.3-.6-.5-1.1-.5-.5-.1-.9 0-1.2.2-.3.2-.5.4-.6.6l-1-.5c.2-.4.4-.7.7-.9a3 3 0 0 1 1-.4h1c.2 0 .5.1.8.2.3.1.6.2.8.4.3.2.5.5.7.8.2.4.3.8.3 1.3v4.5l-1-.2v-.9h-.1c-.1.1-.2.3-.4.4-.2.1-.4.3-.7.3 0 .2-.4.2-.8.2zm.2-.9c.4.1.8 0 1-.1.3-.1.5-.3.6-.5.1-.2.2-.5.2-.8v-1s-.1.1-.3.1H102c-.3 0-.5 0-.8.1-.2 0-.4.1-.6.3-.1.1-.2.3-.2.6 0 .4.1.7.4.9.4.2.8.3 1.2.4zm5.3 4.1c-.2 0-.3-.1-.5-.1-.1 0-.2-.1-.3-.1l.3-.9c.3.1.5.2.7.2.2 0 .4-.1.5-.2.2-.1.3-.4.4-.7l.2-.5-2.5-7.3 1.1.2 1.9 5.7h.1l1.9-5.2 1.1.2-2.9 7.5c-.1.3-.3.6-.5.8-.2.2-.4.3-.7.4h-.8zm8.9-1.2c-.7-.1-1.2-.3-1.7-.7A4.06 4.06 0 0 1 113 86c0-.7.1-1.3.4-1.8.3-.5.6-.9 1.1-1.1.5-.2 1-.3 1.6-.2.4.1.7.2 1 .3.3.2.7.4.9.7.3.3.5.7.7 1.2.2.5.3 1 .3 1.7v.4l-5.2-.8v-.9l4.2.6c0-.4-.1-.7-.2-1.1-.2-.3-.4-.6-.6-.8-.3-.2-.6-.4-1-.4-.4-.1-.8 0-1.1.2-.3.2-.5.4-.7.7-.2.3-.2.7-.2 1v.6c0 .5.1 1 .3 1.4.2.4.4.7.7.9.3.2.7.4 1.1.4h.7c.2 0 .4-.1.6-.3.2-.1.3-.3.4-.5l1 .4c-.1.3-.3.6-.5.8-.3.2-.6.4-.9.5-.5.2-1 .2-1.4.1zm4.4.5v-6.9l1 .1v1h.1c.1-.3.3-.6.7-.7.3-.2.7-.2 1.1-.2h.3c.1 0 .2 0 .3.1V85s-.1 0-.2-.1c-.1 0-.3-.1-.4-.1-.3 0-.6 0-.9.1-.3.1-.5.3-.6.5-.1.2-.2.5-.2.8v4.3h-1.2zm8.3 1.2v-9.2l5.5.8v1l-4.4-.6v3.1l4.1.6v1l-4.1-.6v3.1l4.4.6v1l-5.5-.8zm12.8-5-2.5 6.5-1.1-.2-2.5-7.2 1.1.2 1.9 5.7h.1l1.9-5.2 1.1.2zm4 7.6c-.7-.1-1.2-.3-1.7-.7a4.06 4.06 0 0 1-1.5-3.3c0-.7.1-1.3.4-1.8.3-.5.6-.9 1.1-1.1.5-.2 1-.3 1.6-.2.4.1.7.2 1 .3.3.2.7.4.9.7.3.3.5.7.7 1.2.2.5.3 1 .3 1.7v.4l-5.2-.8v-.9l4.2.6c0-.4-.1-.7-.2-1.1-.2-.3-.4-.6-.6-.8-.3-.2-.6-.4-1-.4-.4-.1-.8 0-1.1.2-.3.2-.5.4-.7.7-.2.3-.2.7-.2 1v.6c0 .5.1 1 .3 1.4.2.4.4.7.7.9.3.2.7.4 1.1.4h.7c.2 0 .4-.1.6-.3.2-.1.3-.3.4-.5l1 .4c-.1.3-.3.6-.5.8-.3.2-.6.4-.9.5-.5.2-.9.2-1.4.1zm5.5-3.5V95l-1-.2V88l1 .1v1.1h.1c.2-.3.4-.6.7-.7.3-.2.7-.2 1.3-.1.5.1.9.2 1.2.5.3.2.6.6.8 1 .2.4.3.9.3 1.5v4.4l-1-.2v-4.3c0-.5-.1-1-.4-1.3-.3-.3-.7-.6-1.1-.6-.3 0-.6 0-.9.1-.3.1-.5.3-.6.6-.3 0-.4.3-.4.7zm9.2-1.4v.9l-3.5-.5v-.9l3.5.5zm-2.5-2 1 .2v6.6c0 .3 0 .5.1.7.1.2.2.3.3.3.1.1.3.1.4.1h.5l.2 1h-.8c-.3 0-.6-.1-.9-.3-.3-.2-.5-.4-.7-.7-.2-.3-.3-.6-.3-1v-6.9zm8.8 4.5-.9.1c-.1-.2-.1-.3-.3-.5-.1-.2-.3-.3-.5-.4-.2-.1-.4-.2-.7-.3-.4-.1-.8 0-1 .1-.3.2-.4.4-.4.7 0 .3.1.5.3.7.2.2.5.3.9.5l1 .4c.6.2 1.1.5 1.4.9.3.3.4.8.4 1.2 0 .4-.1.7-.3 1-.2.3-.5.5-.9.6-.4.1-.9.1-1.4.1-.7-.1-1.3-.3-1.7-.7-.5-.4-.7-.9-.9-1.5l1-.1c.1.4.3.7.5.9.3.2.6.4 1 .4.5.1.9 0 1.2-.1.3-.2.4-.4.4-.7 0-.2-.1-.5-.2-.6-.2-.2-.4-.3-.8-.5l-1.1-.4c-.6-.2-1.1-.5-1.4-.9a1.92 1.92 0 0 1-.1-2.2c.2-.3.5-.5.9-.6.4-.1.8-.1 1.3-.1.7.1 1.2.3 1.6.7.2.3.5.8.7 1.3z"/>
      <path class="st14" d="m184.2 93.9 3.6 4.1 3.6-3.1"/>
    </g>
  </g>
  <path class="st15" d="m7.9 19.1 200 29c3.7.5 6.7 4 6.7 7.7v65.4c0 3.7-3 6.3-6.7 5.8L7.9 98c-3.7-.5-6.7-4-6.7-7.7V24.9c0-3.7 3-6.3 6.7-5.8z"/>
  <defs>
    <path id="SVGID_00000155828452205260054560000003025341659045538959_" d="m207.6 62.4 14.3 2v14.4l-14.3-2z"/>
  </defs>
  <clipPath id="SVGID_00000026864549929375871500000000924823695872660373_">
    <use xlink:href="#SVGID_00000155828452205260054560000003025341659045538959_" overflow="visible"/>
  </clipPath>
  <g clip-path="url(#SVGID_00000026864549929375871500000000924823695872660373_)">
    <ellipse transform="rotate(-40.88 214.77 70.6)" cx="214.8" cy="70.6" rx="4.2" ry="4.8" fill="#fff" stroke="#4a23eb" stroke-width="5.4"/>
  </g>
  <path class="st5" d="m396.9 298.5 434.7 63c3.7.5 6.7 4 6.7 7.7v313.2c0 3.7-3 6.3-6.7 5.8l-434.7-63c-3.7-.5-6.7-4-6.7-7.7V304.3c0-3.8 3-6.4 6.7-5.8z"/>
  <path class="st6" d="m413.9 321-1.9-.3-.3-.9c-.1-.3-.3-.5-.5-.7-.2-.2-.5-.4-.7-.5l-.9-.3a2.17 2.17 0 0 0-2.5 1.3 5.33 5.33 0 0 0 0 4c.2.6.6 1 1 1.4.4.3.9.5 1.5.6h.9c.3 0 .5-.1.7-.3.2-.1.4-.3.6-.5.2-.2.3-.5.3-.8l1.9.3c-.1.5-.2.9-.5 1.3-.2.4-.5.7-.9 1-.4.3-.8.5-1.3.6-.5.1-1.1.1-1.7 0-.9-.1-1.7-.5-2.4-1a5.1 5.1 0 0 1-1.7-2.1c-.4-.9-.6-1.9-.6-3s.2-2.1.6-2.8c.4-.7 1-1.3 1.7-1.6.7-.3 1.5-.4 2.4-.3.6.1 1.1.2 1.6.5.5.2.9.5 1.3.9s.7.8 1 1.3c.2.7.4 1.3.4 1.9zm3.5 2.8v4.6l-1.8-.3v-10.5l1.8.3v4h.1c.2-.4.5-.7.8-.9.4-.2.9-.3 1.5-.2.5.1 1 .3 1.4.5.4.3.7.7.9 1.1.2.5.3 1 .3 1.7v5l-1.8-.3v-4.7c0-.5-.1-1-.4-1.3-.3-.3-.6-.5-1.1-.6-.3 0-.6 0-.9.1-.3.1-.5.3-.6.5-.1.3-.2.6-.2 1zm9.2 6.1c-.5-.1-.9-.2-1.3-.5-.4-.2-.7-.5-.9-.9-.2-.4-.3-.8-.3-1.3 0-.4.1-.8.2-1.1.2-.3.4-.5.7-.6l.9-.3c.4 0 .7-.1 1.1 0h1.1c.3 0 .5 0 .6-.1.1-.1.2-.2.2-.4 0-.4-.1-.7-.3-.9-.2-.2-.6-.4-1-.5-.4-.1-.8 0-1.1.1-.3.2-.4.4-.5.6l-1.7-.5c.1-.5.4-.8.7-1.1.3-.3.7-.5 1.1-.6.4-.1.9-.1 1.5 0l1.1.3c.4.1.7.3 1 .6.3.2.6.6.7.9.2.4.3.8.3 1.3v5.3l-1.8-.3v-.9h-.1c-.1.2-.3.4-.5.5-.2.2-.5.3-.8.3-.2.1-.5.1-.9.1zm.4-1.3c.4.1.7 0 1-.1.3-.1.5-.3.6-.5.1-.2.2-.5.2-.8v-.9c-.1 0-.2.1-.3.1h-1.4c-.3 0-.5 0-.7.1-.2.1-.4.1-.5.3-.1.1-.2.3-.2.6s.1.6.4.8c.2.2.6.3.9.4zm5.5 2v-7.9l1.8.3v1.3h.1c.1-.4.4-.7.7-.9.3-.2.7-.3 1.2-.2.1 0 .2 0 .3.1.1 0 .2.1.3.1v1.7c-.1 0-.2-.1-.4-.1s-.3-.1-.5-.1c-.3 0-.6 0-.9.1-.3.1-.5.3-.6.5-.2.2-.2.5-.2.9v4.6l-1.8-.4zm10-6.4v1.4l-4.5-.6v-1.4l4.5.6zm-3.4-2.4 1.8.3v7.4c0 .2 0 .4.1.6l.3.3c.1.1.3.1.4.1h.5l.3 1.5c-.1 0-.2 0-.4.1h-.7c-.5-.1-.9-.2-1.2-.4-.4-.2-.7-.5-.9-.9-.2-.4-.3-.8-.3-1.3v-7.7z"/>
  <path class="st18" d="M817.3 382.1c.3 0 .6-.2.6-.5s-.3-.6-.6-.7c-.3 0-.6.2-.6.5s.3.6.6.7zM817.3 377.9c.3 0 .6-.2.6-.5s-.3-.6-.6-.7c-.3 0-.6.2-.6.5s.3.6.6.7zM817.3 386.3c.3 0 .6-.2.6-.5s-.3-.6-.6-.7c-.3 0-.6.2-.6.5s.3.6.6.7z"/>
  <path class="st15" d="m396.9 298.5 434.7 63c3.7.5 6.7 4 6.7 7.7v313.2c0 3.7-3 6.3-6.7 5.8l-434.7-63c-3.7-.5-6.7-4-6.7-7.7V304.3c0-3.8 3-6.4 6.7-5.8z"/>
  <defs>
    <path id="SVGID_00000011726300901414354510000008318753296200986273_" d="m382.7 311.3 14.2 2v14.4l-14.2-2z"/>
  </defs>
  <clipPath id="SVGID_00000117671680565649402280000016317657624815042707_">
    <use xlink:href="#SVGID_00000011726300901414354510000008318753296200986273_" overflow="visible"/>
  </clipPath>
  <g clip-path="url(#SVGID_00000117671680565649402280000016317657624815042707_)">
    <ellipse transform="rotate(-40.88 389.8 319.5)" cx="389.8" cy="319.5" rx="6.7" ry="7.7" fill="#4a23eb"/>
    <path class="st5" d="m389.6 323.4-2.5-.4v-7.9l2.6.4a4.45 4.45 0 0 1 3.3 2.3c.3.6.4 1.3.4 2.2 0 .8-.1 1.5-.4 2-.3.5-.7.9-1.3 1.2-.6.2-1.3.3-2.1.2zm-1.3-1.3 1.3.2c.6.1 1.1 0 1.5-.1.4-.2.7-.5.9-.9.2-.4.3-.9.3-1.5s-.1-1.2-.3-1.6c-.2-.5-.5-.8-.9-1.1-.4-.3-.9-.5-1.4-.5l-1.4-.2v5.7z"/>
  </g>
  <path class="st6" d="M408.6 361.3v7.9l-1.2-.2v-6.7l-1.9 1v-1.1l1.9-1 1.2.1zm1.9 6.6v-1l3.4-4.9.7.1v1.4l-.5-.1-2.4 3.5v.1l4.6.7v1l-5.8-.8zm3.7 2v-7.8l1.1.2v7.9l-1.1-.3zm6.2 1.1c-.6-.1-1.1-.3-1.5-.7-.4-.4-.8-.9-1-1.5-.2-.6-.3-1.4-.3-2.2 0-.9.1-1.6.3-2.1.2-.6.6-1 1-1.2.4-.3.9-.3 1.5-.3.6.1 1.1.3 1.5.7.4.4.8.9 1 1.5.2.6.3 1.4.3 2.2 0 .9-.1 1.6-.3 2.1-.2.6-.6 1-1 1.2-.4.3-.9.4-1.5.3zm0-1.1c.5.1.9-.1 1.2-.6.3-.5.4-1.2.4-2.2 0-.7-.1-1.2-.2-1.7s-.3-.8-.6-1.1c-.2-.3-.5-.4-.9-.5-.5-.1-.9.1-1.2.6-.3.5-.4 1.2-.5 2.2 0 .7.1 1.2.2 1.7s.3.8.6 1.1c.3.3.6.5 1 .5zM409 394.1v7.9l-1.2-.2v-6.7l-1.9 1V395l1.9-1 1.2.1zm2.1 8.2v-.9l2.6-2.4.7-.7c.2-.2.3-.4.4-.6s.1-.4.1-.6a1.45 1.45 0 0 0-.7-1.2c-.2-.1-.4-.2-.7-.3-.3 0-.5 0-.7.1-.2.1-.4.2-.5.4-.1.2-.2.4-.2.7l-1.1-.2c0-.5.1-.9.3-1.2.2-.3.5-.6.9-.7.4-.1.8-.2 1.3-.1s.9.2 1.3.5c.4.2.7.6.9.9.2.4.3.8.3 1.2 0 .3-.1.6-.2.8-.1.3-.3.5-.6.9-.3.3-.6.7-1.1 1.1l-1.5 1.4v.1l3.5.5v1l-5-.7zm9.3 1.5c-.6-.1-1.1-.3-1.5-.7-.4-.4-.8-.9-1-1.5-.2-.6-.3-1.4-.3-2.2 0-.9.1-1.6.3-2.1.2-.6.6-1 1-1.2.4-.3.9-.3 1.5-.3.6.1 1.1.3 1.5.7.4.4.8.9 1 1.5.2.6.3 1.4.3 2.2 0 .9-.1 1.6-.3 2.1-.2.6-.6 1-1 1.2-.4.3-.9.4-1.5.3zm0-1.1c.5.1.9-.1 1.2-.6.3-.5.4-1.2.4-2.2 0-.7-.1-1.2-.2-1.7s-.3-.8-.6-1.1c-.2-.3-.5-.4-.9-.5-.5-.1-.9.1-1.2.6-.3.5-.4 1.2-.5 2.2 0 .7.1 1.2.2 1.7s.3.8.6 1.1c.3.3.6.5 1 .5zM408.7 426.9v7.9l-1.2-.2v-6.7l-1.9 1v-1.1l1.9-1 1.2.1zm4.8 8.7c-.6-.1-1.1-.3-1.5-.7-.4-.4-.8-.9-1-1.5-.2-.6-.3-1.4-.3-2.2 0-.9.1-1.6.3-2.1.2-.6.6-1 1-1.2.4-.3.9-.3 1.5-.3.6.1 1.1.3 1.5.7.4.4.8.9 1 1.5.2.6.3 1.4.3 2.2 0 .9-.1 1.6-.3 2.1-.2.6-.5 1-1 1.2-.4.3-.9.4-1.5.3zm0-1.1c.5.1.9-.1 1.2-.6.3-.5.4-1.2.4-2.2 0-.7-.1-1.2-.2-1.7s-.3-.8-.6-1.1c-.3-.3-.5-.4-.9-.5-.5-.1-.9.1-1.2.6-.3.5-.4 1.2-.5 2.2 0 .7.1 1.2.2 1.7s.3.8.6 1.1c.3.3.6.5 1 .5zm6.9 2.1c-.6-.1-1.1-.3-1.5-.7-.4-.4-.8-.9-1-1.5-.2-.6-.3-1.4-.3-2.2 0-.9.1-1.6.3-2.1.2-.6.6-1 1-1.2.4-.3.9-.3 1.5-.3.6.1 1.1.3 1.5.7.4.4.8.9 1 1.5.2.6.3 1.4.3 2.2 0 .9-.1 1.6-.3 2.1-.2.6-.6 1-1 1.2-.4.3-.9.4-1.5.3zm0-1.1c.5.1.9-.1 1.2-.6.3-.5.4-1.2.4-2.2 0-.7-.1-1.2-.2-1.7s-.3-.8-.6-1.1c-.2-.3-.5-.4-.9-.5-.5-.1-.9.1-1.2.6-.3.5-.4 1.2-.5 2.2 0 .7.1 1.2.2 1.7s.3.8.6 1.1c.3.3.6.5 1 .5zM413.6 468.4c-.5-.1-1-.2-1.4-.5-.4-.2-.7-.6-1-.9-.2-.4-.4-.8-.3-1.2 0-.3.1-.6.2-.9.1-.3.3-.5.6-.6.2-.2.5-.2.8-.2-.4-.2-.7-.4-.9-.8-.2-.4-.3-.7-.3-1.2 0-.4.1-.7.3-1 .2-.3.5-.5.9-.6.4-.1.8-.2 1.3-.1s.9.2 1.3.5c.4.2.7.5.9.9.2.3.3.7.3 1.1 0 .4-.1.8-.4 1.1-.2.3-.5.5-.9.5.3.1.6.3.8.5.2.2.4.5.6.8.1.3.2.6.2.9 0 .4-.1.8-.4 1.1-.2.3-.6.5-1 .6h-1.6zm0-1h.8c.2-.1.4-.2.5-.4.1-.2.2-.4.2-.7 0-.3-.1-.5-.2-.8-.1-.2-.3-.4-.6-.6-.2-.2-.5-.3-.8-.3-.3 0-.6 0-.8.1-.2.1-.4.2-.6.4-.1.2-.2.4-.2.7a1.45 1.45 0 0 0 .7 1.2c.4.2.6.3 1 .4zm0-3.7c.3 0 .5 0 .7-.1.2-.1.4-.2.5-.4.1-.2.2-.4.2-.6 0-.2-.1-.5-.2-.7-.1-.2-.3-.4-.5-.5-.2-.1-.4-.2-.7-.3-.3 0-.5 0-.7.1-.2.1-.4.2-.5.4s-.2.4-.2.6a1.45 1.45 0 0 0 .7 1.2c.2.2.4.3.7.3zm6.8 5.7c-.6-.1-1.1-.3-1.5-.7-.4-.4-.8-.9-1-1.5-.2-.6-.3-1.4-.3-2.2 0-.9.1-1.6.3-2.1.2-.6.6-1 1-1.2.4-.3.9-.3 1.5-.3.6.1 1.1.3 1.5.7.4.4.8.9 1 1.5.2.6.3 1.4.3 2.2 0 .9-.1 1.6-.3 2.1-.2.6-.6 1-1 1.2-.4.3-.9.4-1.5.3zm0-1.1c.5.1.9-.1 1.2-.6.3-.5.4-1.2.4-2.2 0-.7-.1-1.2-.2-1.7s-.3-.8-.6-1.1c-.2-.3-.5-.4-.9-.5-.5-.1-.9.1-1.2.6-.3.5-.4 1.2-.5 2.2 0 .7.1 1.2.2 1.7s.3.8.6 1.1c.3.3.6.5 1 .5zM413.6 501.2l-1-.3c-.3-.2-.6-.4-.9-.7-.3-.3-.5-.7-.7-1.2-.2-.5-.2-1.1-.2-1.8s.1-1.3.2-1.8.3-.9.6-1.3c.3-.3.6-.6.9-.7.4-.1.8-.2 1.2-.1.5.1.9.2 1.2.5.4.2.7.5.9.9.2.4.4.7.4 1.2l-1.2-.2c-.1-.3-.2-.6-.5-.9-.2-.2-.5-.4-.9-.4-.6-.1-1 .1-1.3.6-.3.5-.5 1.1-.5 2h.1c.1-.2.3-.4.5-.5.2-.1.4-.2.7-.3.2-.1.5-.1.8 0 .4.1.9.2 1.2.5.4.3.7.6.9 1a3.2 3.2 0 0 1 0 2.7c-.2.4-.5.7-.9.8h-1.5zm0-1c.3 0 .6 0 .8-.1.2-.1.4-.3.6-.5.1-.2.2-.5.2-.8 0-.3-.1-.6-.2-.9-.1-.3-.3-.5-.5-.7-.2-.2-.5-.3-.8-.3h-.6c-.2.1-.4.2-.5.3-.1.1-.3.3-.3.5-.1.2-.1.4-.1.6 0 .3.1.6.2.8.1.3.3.5.6.7 0 .2.3.3.6.4zm6.8 2c-.6-.1-1.1-.3-1.5-.7-.4-.4-.8-.9-1-1.5-.2-.6-.3-1.4-.3-2.2 0-.9.1-1.6.3-2.1.2-.6.6-1 1-1.2.4-.3.9-.3 1.5-.3.6.1 1.1.3 1.5.7.4.4.8.9 1 1.5.2.6.3 1.4.3 2.2 0 .9-.1 1.6-.3 2.1-.2.6-.6 1-1 1.2-.4.3-.9.4-1.5.3zm0-1.1c.5.1.9-.1 1.2-.6.3-.5.4-1.2.4-2.2 0-.7-.1-1.2-.2-1.7s-.3-.8-.6-1.1c-.2-.3-.5-.4-.9-.5-.5-.1-.9.1-1.2.6-.3.5-.4 1.2-.5 2.2 0 .7.1 1.2.2 1.7s.3.8.6 1.1c.3.3.6.5 1 .5zM410.5 531.9v-1l3.4-4.9.7.1v1.4l-.5-.1-2.4 3.5v.1l4.6.7v1l-5.8-.8zm3.7 2v-7.8l1.1.2v7.9l-1.1-.3zm6.2 1.1c-.6-.1-1.1-.3-1.5-.7-.4-.4-.8-.9-1-1.5-.2-.6-.3-1.4-.3-2.2 0-.9.1-1.6.3-2.1.2-.6.6-1 1-1.2.4-.3.9-.3 1.5-.3.6.1 1.1.3 1.5.7.4.4.8.9 1 1.5.2.6.3 1.4.3 2.2 0 .9-.1 1.6-.3 2.1-.2.6-.6 1-1 1.2-.4.3-.9.4-1.5.3zm0-1.1c.5.1.9-.1 1.2-.6.3-.5.4-1.2.4-2.2 0-.7-.1-1.2-.2-1.7s-.3-.8-.6-1.1c-.2-.3-.5-.4-.9-.5-.5-.1-.9.1-1.2.6-.3.5-.4 1.2-.5 2.2 0 .7.1 1.2.2 1.7s.3.8.6 1.1c.3.3.6.5 1 .5zM411.1 566.3v-.9l2.6-2.4.7-.7c.2-.2.3-.4.4-.6s.1-.4.1-.6a1.45 1.45 0 0 0-.7-1.2c-.2-.1-.4-.2-.7-.3-.3 0-.5 0-.7.1-.2.1-.4.2-.5.4-.1.2-.2.4-.2.7l-1.1-.2c0-.5.1-.9.3-1.2.2-.3.5-.6.9-.7.4-.1.8-.2 1.3-.1s.9.2 1.3.5c.4.2.7.6.9.9.2.4.3.8.3 1.2 0 .3-.1.6-.2.8-.1.3-.3.5-.6.9-.3.3-.6.7-1.1 1.1l-1.5 1.4v.1l3.5.5v1l-5-.7zm9.3 1.5c-.6-.1-1.1-.3-1.5-.7-.4-.4-.8-.9-1-1.5-.2-.6-.3-1.4-.3-2.2 0-.9.1-1.6.3-2.1.2-.6.6-1 1-1.2.4-.3.9-.3 1.5-.3.6.1 1.1.3 1.5.7.4.4.8.9 1 1.5.2.6.3 1.4.3 2.2 0 .9-.1 1.6-.3 2.1-.2.6-.6 1-1 1.2-.4.3-.9.4-1.5.3zm0-1.1c.5.1.9-.1 1.2-.6.3-.5.4-1.2.4-2.2 0-.7-.1-1.2-.2-1.7s-.3-.8-.6-1.1c-.2-.3-.5-.4-.9-.5-.5-.1-.9.1-1.2.6-.3.5-.4 1.2-.5 2.2 0 .7.1 1.2.2 1.7s.3.8.6 1.1c.3.3.6.5 1 .5zM420.4 600.6c-.6-.1-1.1-.3-1.5-.7-.4-.4-.8-.9-1-1.5-.2-.6-.3-1.4-.3-2.2 0-.9.1-1.6.3-2.1.2-.6.6-1 1-1.2.4-.3.9-.3 1.5-.3.6.1 1.1.3 1.5.7.4.4.8.9 1 1.5.2.6.3 1.4.3 2.2 0 .9-.1 1.6-.3 2.1-.2.6-.6 1-1 1.2-.4.3-.9.4-1.5.3zm0-1.1c.5.1.9-.1 1.2-.6.3-.5.4-1.2.4-2.2 0-.7-.1-1.2-.2-1.7s-.3-.8-.6-1.1c-.2-.3-.5-.4-.9-.5-.5-.1-.9.1-1.2.6-.3.5-.4 1.2-.5 2.2 0 .7.1 1.2.2 1.7s.3.8.6 1.1c.3.3.6.5 1 .5z"/>
  <path class="st21" d="m429 595.2 395.5 57.3M429 562.8l395.5 57.3M429 530.4l395.5 57.3M429 498l395.5 57.3M429 465.6l395.5 57.3M429 433.2l395.5 57.3M429 400.8l395.5 57.3M429 368.4l395.5 57.3"/>
  <path class="st0" d="M437.9 368.8c0-1 .8-1.7 1.8-1.5l60.6 8.8c1 .1 1.8 1.1 1.8 2.1v227.7l-64.1-9.3V368.8z"/>
  <path class="st22" d="m432.5 360 60.6 8.8c1 .1 1.8 1.1 1.8 2.1v225.9c0 1-.8 1.7-1.8 1.5l-60.6-8.8c-1-.1-1.8-1.1-1.8-2.1V361.6c0-1 .8-1.7 1.8-1.6z"/>
  <path d="M516.3 429.6c0-1 .8-1.7 1.8-1.5l60.6 8.8c1 .1 1.8 1.1 1.8 2.1v178.2l-64.1-9.3V429.6z" opacity=".8" fill="#ececec"/>
  <path class="st22" d="m510.9 420.9 60.6 8.8c1 .1 1.8 1.1 1.8 2.1v176.4c0 1-.8 1.7-1.8 1.5l-60.6-8.8c-1-.1-1.8-1.1-1.8-2.1V422.4c0-1 .8-1.6 1.8-1.5z"/>
  <path d="M594.7 507.6c0-1 .8-1.7 1.8-1.5l60.6 8.8c1 .1 1.8 1.1 1.8 2.1v111.6l-64.1-9.3V507.6z" opacity=".7" fill="#ececec"/>
  <path class="st22" d="m589.2 498.9 60.6 8.8c1 .1 1.8 1.1 1.8 2.1v109.8c0 1-.8 1.7-1.8 1.5l-60.6-8.8c-1-.1-1.8-1.1-1.8-2.1V500.4c.1-1 .9-1.7 1.8-1.5z"/>
  <path d="M673 552.2c0-1 .8-1.7 1.8-1.5l60.6 8.8c1 .1 1.8 1.1 1.8 2.1V640l-64.1-9.3v-78.5z" opacity=".6" fill="#ececec"/>
  <path class="st22" d="m667.6 543.4 60.6 8.8c1 .1 1.8 1.1 1.8 2.1v76.6c0 1-.8 1.7-1.8 1.5l-60.6-8.8c-1-.1-1.8-1.1-1.8-2.1V545c0-1 .8-1.7 1.8-1.6z"/>
  <path d="M751.4 603.7c0-1 .8-1.7 1.8-1.5l60.6 8.8c1 .1 1.8 1.1 1.8 2.1v38.2l-64.1-9.3v-38.3z" opacity=".5" fill="#ececec"/>
  <path class="st22" d="m746 595 60.6 8.8c1 .1 1.8 1.1 1.8 2.1v36.4c0 1-.8 1.7-1.8 1.5L746 635c-1-.1-1.8-1.1-1.8-2.1v-36.4c0-1 .8-1.7 1.8-1.5z"/>
  <path class="st6" d="m457.6 616.5-1.2-.2 2.8-7.4 1.4.2 2.8 8.3-1.2-.2-2.2-6.7h-.1l-2.3 6zm.2-3 4 .6v1l-4-.6v-1zm6.6 4v-7.9l1.2.2v3.8h.1l3.3-3.3 1.5.2-3.1 3.1 3.1 4.8-1.4-.2-2.5-3.9-.9.9v2.4l-1.3-.1zm6.8-.5v-1l3.4-4.9.7.1v1.4l-.5-.1-2.4 3.5v.1l4.6.7v1l-5.8-.8zm3.7 2v-7.8l1.1.2v7.9l-1.1-.3zm3.8.6 3.4-6.3v-.1l-3.9-.6v-1l5.1.7v1.1l-3.4 6.3-1.2-.1zM534.5 627.7v-7.9l1.2.2v3.4l3.9.6v-3.4l1.2.2v7.9l-1.2-.2V625l-3.9-.6v3.4l-1.2-.1zm7.7-.4v-1l3.4-4.9.7.1v1.4l-.5-.1-2.4 3.5v.1l4.6.7v1l-5.8-.8zm3.6 2v-7.8l1.1.2v7.9l-1.1-.3zm4.3.6-1.2-.2 2.8-7.4 1.4.2 2.8 8.3-1.2-.2-2.2-6.7h-.1l-2.3 6zm.2-3 4 .6v1l-4-.6v-1zm6.3 2.5v-1l3.4-4.9.7.1v1.4l-.5-.1-2.4 3.5v.1l4.6.7v1l-5.8-.8zm3.7 2v-7.8l1.1.2v7.9l-1.1-.3zM616.2 639.5l-1.2-.2 2.8-7.4 1.4.2 2.8 8.3-1.2-.2-2.2-6.7h-.1l-2.3 6zm.2-3 4 .6v1l-4-.6v-1zm7.5 4.1-2.2-8.2 1.2.2 1.5 6.3h.1l1.6-5.9 1.2.2 1.6 6.3h.1l1.5-5.9 1.2.2-2.2 7.5-1.2-.2-1.6-6.1h-.1l-1.6 5.6h-1.1zm8.9 1.3V634l2.8.4c.6.1 1.1.3 1.5.6.4.3.7.6.9 1 .2.4.3.9.3 1.3 0 .5-.1.9-.3 1.3-.2.4-.5.6-.9.8-.4.2-.9.2-1.5.1l-1.9-.3v-1l1.8.3c.4.1.7 0 .9-.1.2-.1.4-.3.5-.5.1-.2.2-.5.2-.8 0-.3-.1-.6-.2-.8-.1-.2-.3-.5-.5-.6-.2-.2-.6-.3-.9-.3l-1.5-.2v6.8l-1.2-.1zM692.7 644.8c0-.4-.2-.7-.5-.9-.3-.2-.7-.4-1.1-.5h-.8c-.2.1-.4.2-.5.3-.1.2-.2.3-.2.6 0 .2 0 .4.1.5.1.1.2.3.3.4.1.1.3.2.5.3.2.1.3.2.5.2l.8.3c.2.1.5.2.8.4.3.1.5.3.7.5.2.2.4.4.5.7.1.3.2.6.2.9 0 .4-.1.8-.3 1.1-.2.3-.6.5-1 .7-.4.1-.9.2-1.6.1-.6-.1-1.1-.2-1.5-.5-.4-.2-.8-.6-1-.9-.2-.4-.4-.8-.4-1.3l1.2.2c0 .3.1.5.3.7.2.2.4.4.6.5.3.1.5.2.8.3h.9c.3-.1.5-.2.6-.4.1-.2.2-.4.2-.6 0-.2-.1-.4-.2-.6-.1-.2-.3-.3-.5-.4-.2-.1-.5-.3-.7-.4l-.9-.4c-.6-.3-1.1-.6-1.5-1-.4-.4-.5-.9-.5-1.4 0-.5.1-.8.4-1.1.2-.3.6-.5 1-.6.4-.1.9-.2 1.4-.1.5.1 1 .2 1.4.5.4.2.7.5 1 .9.2.4.4.7.4 1.2l-1.4-.2zm7.9 1.6c-.1-.2-.2-.5-.3-.7-.1-.2-.3-.4-.4-.5-.2-.2-.4-.3-.6-.4-.2-.1-.5-.2-.7-.2-.4-.1-.8 0-1.2.2-.4.2-.6.5-.8.9-.2.4-.3.9-.3 1.6 0 .6.1 1.2.3 1.7.2.5.5.8.8 1.1.4.3.8.5 1.2.5.4.1.8 0 1.1-.1.3-.1.6-.3.7-.6.2-.3.3-.7.3-1.1l.3.1-2.2-.3v-1l3.1.4v.9c0 .7-.1 1.2-.4 1.7-.3.4-.7.8-1.1 1-.5.2-1 .2-1.7.2-.7-.1-1.3-.4-1.9-.8-.5-.4-.9-.9-1.2-1.6-.3-.6-.4-1.4-.4-2.2 0-.6.1-1.2.3-1.6.2-.5.4-.9.7-1.2.3-.3.7-.5 1.1-.6.4-.1.9-.2 1.4-.1.4.1.8.2 1.2.4.4.2.7.4 1 .7.3.3.5.6.7.9.2.3.3.7.4 1.1l-1.4-.4zm5.2 6.2c-.5-.1-.9-.2-1.3-.5-.4-.2-.7-.5-.9-.9-.2-.4-.3-.7-.4-1.2l1.1.2c0 .3.2.6.4.9s.6.4 1 .5c.3 0 .6 0 .8-.1.2-.1.4-.3.5-.5.1-.2.2-.5.2-.8 0-.3-.1-.6-.2-.9-.1-.3-.3-.5-.6-.7-.2-.2-.5-.3-.8-.3h-.7c-.2 0-.4.1-.6.2l-1.1-.3.4-3.9 4.3.6v1l-3.3-.5-.2 2.2.6-.3c.3-.1.5-.1.8 0 .5.1.9.2 1.3.5s.7.6.9 1.1a3.2 3.2 0 0 1 0 2.7c-.2.4-.5.6-.9.8-.3.3-.7.3-1.3.2zm6.7 1c-.5-.1-.9-.2-1.3-.5-.4-.2-.7-.5-.9-.9-.2-.4-.3-.7-.4-1.2l1.1.2c0 .3.2.6.4.9s.6.4 1 .5c.3 0 .6 0 .8-.1.2-.1.4-.3.5-.5.1-.2.2-.5.2-.8 0-.3-.1-.6-.2-.9-.1-.3-.3-.5-.6-.7-.2-.2-.5-.3-.8-.3h-.7c-.2 0-.4.1-.6.2l-1.1-.3.4-3.9 4.3.6v1l-3.3-.5-.2 2.2.6-.3c.3-.1.5-.1.8 0 .5.1.9.2 1.3.5s.7.6.9 1.1a3.2 3.2 0 0 1 0 2.7c-.2.4-.5.6-.9.8-.4.2-.8.3-1.3.2zm6.7 1-1-.3c-.3-.2-.6-.4-.9-.7-.3-.3-.5-.7-.7-1.2-.2-.5-.2-1.1-.2-1.8s.1-1.3.2-1.8.3-.9.6-1.3c.3-.3.6-.6.9-.7.4-.1.8-.2 1.2-.1.5.1.9.2 1.2.5.4.2.7.5.9.9.2.4.4.7.4 1.2l-1.2-.2c-.1-.3-.2-.6-.5-.9-.2-.2-.5-.4-.9-.4-.6-.1-1 .1-1.3.6-.3.5-.5 1.1-.5 2h.1c.1-.2.3-.4.5-.5.2-.1.4-.2.7-.3.2-.1.5-.1.8 0 .5.1.9.2 1.2.5.4.3.7.6.9 1a3.2 3.2 0 0 1 0 2.7c-.2.4-.5.7-.9.8-.4 0-.9.1-1.5 0zm0-1c.3 0 .6 0 .8-.1.2-.1.4-.3.6-.5.1-.2.2-.5.2-.8 0-.3-.1-.6-.2-.9-.1-.3-.3-.5-.5-.7-.2-.2-.5-.3-.8-.3h-.6c-.2.1-.4.2-.5.3-.1.1-.3.3-.3.5-.1.2-.1.4-.1.6 0 .3.1.6.2.8.1.3.3.5.6.7.1.2.3.3.6.4zM778.5 655.2l1.2.2v5.2c0 .5-.1 1-.4 1.4-.3.4-.6.7-1.1.8-.5.2-1 .2-1.6.1-.6-.1-1.2-.3-1.6-.6-.5-.3-.8-.7-1.1-1.2-.3-.5-.4-1-.4-1.5v-5.2l1.2.2v5.1c0 .4.1.7.2 1 .2.3.4.5.7.7.3.2.6.3 1 .4.4.1.7 0 1-.1.3-.1.5-.3.7-.6.2-.3.2-.6.2-.9v-5zm7.2 3.1c0-.4-.2-.7-.5-.9-.3-.2-.7-.4-1.1-.5h-.8c-.2.1-.4.2-.5.3-.1.2-.2.3-.2.6 0 .2 0 .4.1.5.1.1.2.3.3.4.1.1.3.2.5.3.2.1.3.2.5.2l.8.3c.2.1.5.2.8.4.3.1.5.3.7.5.2.2.4.4.5.7.1.3.2.6.2.9 0 .4-.1.8-.3 1.1-.2.3-.6.5-1 .7-.4.1-.9.2-1.6.1-.6-.1-1.1-.3-1.5-.5-.4-.2-.8-.6-1-.9-.2-.4-.4-.8-.4-1.3l1.2.2c0 .3.1.5.3.8.2.2.4.4.6.5.3.1.5.2.8.3h.9c.3-.1.5-.2.6-.4.1-.2.2-.4.2-.6 0-.2-.1-.4-.2-.6-.1-.2-.3-.3-.5-.4-.2-.1-.5-.3-.7-.4l-.9-.4c-.6-.3-1.1-.6-1.5-1-.4-.4-.5-.9-.5-1.4 0-.5.1-.8.4-1.1.2-.3.6-.5 1-.6.4-.1.9-.2 1.4-.1.5.1 1 .2 1.4.5.4.2.7.5 1 .9.2.4.4.7.4 1.2l-1.4-.3zm2.6 6.2v-7.9l2.8.4c.6.1 1.1.3 1.5.6.4.3.7.6.9 1 .2.4.3.9.3 1.3 0 .5-.1.9-.3 1.3-.2.4-.5.6-.9.8-.4.2-.9.2-1.5.1l-1.9-.3v-1l1.8.3c.4.1.7 0 .9-.1.2-.1.4-.3.5-.5.1-.2.2-.5.2-.8 0-.3-.1-.6-.2-.8-.1-.2-.3-.5-.5-.6-.2-.2-.6-.3-.9-.3l-1.5-.2v6.8l-1.2-.1z"/>
  <defs>
    <path id="SVGID_00000182524564743363497750000018316108743602982815_" d="m314.6 71 199.5 29c3.9.6 7.1 4.3 7.1 8.2v149.4c0 4-3.2 6.7-7.1 6.2l-199.5-28.9c-3.9-.6-7.1-4.3-7.1-8.2V77.2c0-4 3.2-6.7 7.1-6.2z"/>
  </defs>
  <clipPath id="SVGID_00000012432034884551333570000010300902762423694754_">
    <use xlink:href="#SVGID_00000182524564743363497750000018316108743602982815_" overflow="visible"/>
  </clipPath>
  <g clip-path="url(#SVGID_00000012432034884551333570000010300902762423694754_)">
    <path class="st5" d="m314.6 71 199.5 29c3.9.6 7.1 4.3 7.1 8.2v149.4c0 4-3.2 6.7-7.1 6.2l-199.5-28.9c-3.9-.6-7.1-4.3-7.1-8.2V77.2c0-4 3.2-6.7 7.1-6.2z"/>
    <path class="st6" d="m331.6 94-1.9-.3-.3-.9c-.1-.3-.3-.5-.5-.7-.2-.2-.5-.4-.7-.5l-.9-.3a2.17 2.17 0 0 0-2.5 1.3 5.33 5.33 0 0 0 0 4c.2.6.6 1 1 1.4.4.3.9.5 1.5.6h.9c.3 0 .5-.1.7-.3.2-.1.4-.3.6-.5.2-.2.3-.5.3-.8l1.9.3c-.1.5-.2.9-.5 1.3-.2.4-.5.7-.9 1-.4.3-.8.5-1.3.6-.5.1-1.1.1-1.7 0-.9-.1-1.7-.5-2.4-1a5.1 5.1 0 0 1-1.7-2.1c-.4-.9-.6-1.9-.6-3s.2-2.1.6-2.8c.4-.7 1-1.3 1.7-1.6.7-.3 1.5-.4 2.4-.3.6.1 1.1.2 1.6.5.5.2.9.5 1.3.9s.7.8 1 1.3c.2.7.4 1.3.4 1.9zm5.1 7.8c-.8-.1-1.4-.4-2-.8s-1-1-1.3-1.6c-.3-.7-.5-1.4-.5-2.2 0-.8.2-1.5.5-2.1.3-.6.7-1 1.3-1.2.6-.3 1.2-.3 2-.2s1.4.4 2 .8c.6.4 1 1 1.3 1.6.3.7.5 1.4.5 2.2 0 .8-.2 1.5-.5 2.1-.3.6-.7 1-1.3 1.2-.6.2-1.3.3-2 .2zm0-1.5c.4.1.8 0 1-.2.3-.2.5-.5.6-.8.1-.4.2-.8.2-1.3s-.1-.9-.2-1.3-.3-.8-.6-1c-.3-.3-.6-.4-1-.5-.4-.1-.8 0-1.1.2-.3.2-.5.5-.6.8-.1.4-.2.8-.2 1.3s.1.9.2 1.3.3.7.6 1c.3.3.7.4 1.1.5zm5.2 2.1v-7.9l1.8.3v1.3h.1c.2-.4.4-.7.8-.9.4-.2.8-.3 1.3-.2a2.62 2.62 0 0 1 2.1 1.8h.1c.2-.4.5-.7.9-.9.4-.2.9-.3 1.5-.2.7.1 1.3.4 1.8.9s.7 1.2.7 2.1v5.3l-1.8-.3v-5c0-.5-.1-.9-.4-1.1-.3-.3-.6-.4-.9-.5-.4-.1-.8 0-1 .3-.2.2-.4.6-.4 1v4.9l-1.8-.3v-5c0-.4-.1-.7-.4-1-.2-.3-.6-.4-.9-.5-.3 0-.5 0-.7.1-.2.1-.4.3-.5.5-.1.2-.2.5-.2.8v4.8l-2.1-.3zm12.8 4.8V96.4l1.8.3V98h.1c.1-.2.2-.4.4-.6.2-.2.4-.3.7-.5.3-.1.7-.1 1.1-.1.6.1 1.1.3 1.6.7.5.4.9.9 1.2 1.5.3.6.4 1.4.4 2.3 0 .9-.1 1.6-.4 2.1-.3.6-.7 1-1.1 1.2-.5.2-1 .3-1.6.2-.4-.1-.8-.2-1.1-.4-.3-.2-.5-.4-.7-.6-.2-.2-.3-.5-.4-.7h-.1v4.2l-1.9-.1zm1.8-6.6c0 .5.1 1 .2 1.4.1.4.4.7.6 1 .3.3.6.4 1 .5.4.1.7 0 1-.2.3-.2.5-.5.6-.8.1-.4.2-.8.2-1.3s-.1-.9-.2-1.3a2.07 2.07 0 0 0-1.6-1.5c-.4-.1-.7 0-1 .2-.3.2-.5.4-.6.8-.1.2-.2.7-.2 1.2zm9.4 5.4c-.5-.1-.9-.2-1.3-.5-.4-.2-.7-.5-.9-.9-.2-.4-.3-.8-.3-1.3 0-.4.1-.8.2-1.1.2-.3.4-.5.7-.6l.9-.3c.4 0 .7-.1 1.1 0h1.1c.3 0 .5 0 .6-.1.1-.1.2-.2.2-.4 0-.4-.1-.7-.3-.9-.2-.2-.6-.4-1-.5-.4-.1-.8 0-1.1.1-.3.2-.4.4-.5.6l-1.7-.5c.1-.5.4-.8.7-1.1.3-.3.7-.5 1.1-.6.4-.1.9-.1 1.5 0l1.1.3c.4.1.7.3 1 .6.3.2.6.6.7.9.2.4.3.8.3 1.3v5.3l-1.8-.3v-1.1h-.1c-.1.2-.3.4-.5.5-.2.2-.5.3-.8.3-.2.4-.5.4-.9.3zm.5-1.3c.4.1.7 0 1-.1.3-.1.5-.3.6-.5.1-.2.2-.5.2-.8v-.9c-.1 0-.2.1-.3.1h-1.4c-.3 0-.5 0-.7.1s-.4.1-.5.3c-.1.1-.2.3-.2.6s.1.6.4.8c.2.2.5.4.9.4zm5.4 2v-7.9l1.8.3v1.3h.1c.1-.4.4-.7.7-.9.3-.2.7-.3 1.2-.2.1 0 .2 0 .3.1.1 0 .2.1.3.1v1.7c-.1 0-.2-.1-.4-.1s-.3-.1-.5-.1c-.3 0-.6 0-.9.1-.3.1-.5.3-.6.5-.2.2-.2.5-.2.9v4.6l-1.8-.4zm8.8 1.5c-.8-.1-1.5-.4-2-.8-.6-.4-1-.9-1.3-1.6-.3-.7-.5-1.4-.5-2.2 0-.8.2-1.5.5-2.1.3-.6.7-1 1.3-1.2.6-.3 1.2-.3 1.9-.2.5.1.9.2 1.4.4.4.2.8.5 1.1.9.3.4.6.8.8 1.3.2.5.3 1.1.3 1.8v.6l-6.4-.9V103l4.6.7c0-.4-.1-.7-.2-1-.1-.3-.4-.6-.6-.8-.3-.2-.6-.3-.9-.4-.4-.1-.7 0-1 .1-.3.1-.5.3-.7.6-.2.3-.2.6-.2.9v1.1c0 .5.1.9.2 1.2.2.3.4.6.7.8.3.2.6.3 1 .4h.7c.2 0 .4-.1.6-.3.2-.1.3-.3.4-.5l1.7.4c-.1.4-.3.8-.6 1.1-.3.3-.7.5-1.2.6-.5.3-1 .3-1.6.3z"/>
    <defs>
      <path id="SVGID_00000081615413819283725900000002466061353017274783_" d="M321.7 113.5 507 140.3v28.8l-185.3-26.8z"/>
    </defs>
    <clipPath id="SVGID_00000086653750864950942510000013155081377108447649_">
      <use xlink:href="#SVGID_00000081615413819283725900000002466061353017274783_" overflow="visible"/>
    </clipPath>
    <g clip-path="url(#SVGID_00000086653750864950942510000013155081377108447649_)">
      <path class="st29" d="M327.1 114.7 501.7 140c2.7.4 4.9 2.9 4.9 5.7v18c0 2.7-2.2 4.6-4.9 4.2l-174.6-25.3a5.9 5.9 0 0 1-4.9-5.7v-18c0-2.7 2.2-4.6 4.9-4.2z"/>
      <ellipse transform="rotate(-40.88 332.43 129.82)" class="st30" cx="332.4" cy="129.8" rx="3.3" ry="3.8"/>
      <path class="st6" d="M340.5 138.1v-9.4l1 .1v1.1h.1c.1-.1.2-.2.3-.4.1-.2.3-.3.6-.4.3-.1.6-.1 1.1-.1.6.1 1.1.3 1.5.7.4.4.8.8 1 1.4.2.6.4 1.2.4 1.9s-.1 1.3-.4 1.8a2.17 2.17 0 0 1-2.5 1.3c-.4-.1-.8-.2-1-.4-.3-.2-.5-.4-.6-.6-.1-.2-.3-.4-.3-.5h-.1v3.6l-1.1-.1zm1-5.9c0 .5.1 1 .2 1.4.2.4.4.8.7 1 .3.3.6.4 1.1.5.4.1.8 0 1.1-.2.3-.2.5-.5.7-.9.2-.4.2-.8.2-1.3s-.1-.9-.2-1.3-.4-.8-.7-1c-.3-.3-.7-.4-1.1-.5-.4-.1-.8 0-1.1.2-.3.2-.5.4-.7.8-.1.3-.2.8-.2 1.3zm7.7-4.6v9.2l-1-.2v-9.2l1 .2zm3.9 9.9c-.4-.1-.8-.2-1.2-.4-.4-.2-.6-.5-.8-.8-.2-.3-.3-.7-.3-1.2 0-.4.1-.7.2-.9.2-.2.4-.4.6-.5.3-.1.5-.2.9-.2h1.9c.3 0 .4 0 .6-.1.1-.1.2-.2.2-.3 0-.4-.1-.8-.4-1.1-.2-.3-.6-.5-1.1-.5-.5-.1-.9 0-1.2.2-.3.2-.5.4-.6.6l-1-.5c.2-.4.4-.7.7-.9a3 3 0 0 1 1-.4h1c.2 0 .5.1.8.2.3.1.6.2.8.4.3.2.5.5.7.8.2.4.3.8.3 1.3v4.5l-1-.2v-.9h-.1c-.1.1-.2.3-.4.4-.2.1-.4.3-.7.3-.2.2-.5.2-.9.2zm.1-1c.4.1.8 0 1-.1.3-.1.5-.3.6-.5.1-.2.2-.5.2-.8v-1s-.1.1-.3.1h-1.5c-.3 0-.5 0-.8.1-.2 0-.4.1-.6.3-.1.1-.2.3-.2.6 0 .4.1.7.4.9.5.2.8.4 1.2.4zm5.3 4.2c-.2 0-.3-.1-.5-.1-.1 0-.2-.1-.3-.1l.3-.9c.3.1.5.2.7.2.2 0 .4-.1.5-.2.2-.1.3-.4.4-.7l.2-.5-2.5-7.3 1.1.2 1.9 5.7h.1l1.9-5.2 1.1.2-2.9 7.5c-.1.3-.3.6-.5.8-.2.2-.4.3-.7.4h-.8zm8.9-1.2c-.7-.1-1.2-.3-1.7-.7a4.06 4.06 0 0 1-1.5-3.3c0-.7.1-1.3.4-1.8.3-.5.6-.9 1.1-1.1.5-.2 1-.3 1.6-.2.4.1.7.2 1 .3.3.2.7.4.9.7.3.3.5.7.7 1.2.2.5.3 1 .3 1.7v.4l-5.2-.7v-1l4.2.6c0-.4-.1-.7-.2-1.1-.2-.3-.4-.6-.6-.8-.3-.2-.6-.4-1-.4-.4-.1-.8 0-1.1.2-.3.2-.5.4-.7.7-.2.3-.2.7-.2 1v.6c0 .5.1 1 .3 1.4.2.4.4.7.7.9.3.2.7.4 1.1.4h.7c.2 0 .4-.1.6-.3.2-.1.3-.3.4-.5l1 .4c-.1.3-.3.6-.5.8-.3.2-.6.4-.9.5-.5.2-.9.2-1.4.1zm4.4.5v-6.9l1 .1v1h.1c.1-.3.3-.6.7-.7.3-.2.7-.2 1.1-.2h.3c.1 0 .2 0 .3.1v1.1s-.1 0-.2-.1c-.1 0-.3-.1-.4-.1-.3 0-.6 0-.9.1-.3.1-.5.3-.6.5-.1.2-.2.5-.2.8v4.4l-1.2-.1z"/>
      <path class="st14" d="m490.8 151 3.6 4.1 3.6-3.1"/>
    </g>
    <path d="m327.1 154.3 25.4 3.7v27.9l-25.4-3.7a5.9 5.9 0 0 1-4.9-5.7v-18c0-2.7 2.2-4.6 4.9-4.2z" fill="#f3f0ff"/>
    <path class="st32" d="m342.2 168.6-8.9-1.3M342.2 172.2l-8.9-1.3"/>
    <path d="m327.1 154.3 25.4 3.7v27.9l-25.4-3.7a5.9 5.9 0 0 1-4.9-5.7v-18c0-2.7 2.2-4.6 4.9-4.2z" fill="none" stroke="#4a23eb" stroke-width=".9"/>
    <path class="st5" d="m353.4 158.1 30.2 4.4v27.9l-30.2-4.4z"/>
    <path class="st7" d="m373.4 173.2-8.9-1.3M373.4 176.8l-8.9-1.3M371.1 170.5l-3.9 7.5"/>
    <path class="st34" d="M383.2 190.8V162l.9.1v28.8l-.9-.1z"/>
    <path class="st35" d="m384.1 163-31.2-4.5v-.9l31.2 4.5v.9zM384.1 190.9l-31.2-4.5v-.9l31.2 4.5v.9z"/>
    <path fill="none" stroke="#fff" stroke-width=".9" d="m353.4 158.1 30.2 4.4v27.9l-30.2-4.4z"/>
    <path class="st5" d="m384.5 162.6 29.4 4.3v27.9l-29.4-4.3z"/>
    <path class="st7" d="m397.4 174.8 4.8 4.7-4.8 2.9"/>
    <path class="st34" d="M413.5 194.3v-27l.9.1v27l-.9-.1z"/>
    <path class="st35" d="m410.8 166.9-26.7-3.9v-.9l26.7 3.9v.9zM410.8 194.8l-26.7-3.9v-.9l26.7 3.9v.9z"/>
    <path class="st37" d="m384.5 162.6 29.4 4.3v27.9l-29.4-4.3z"/>
    <path class="st5" d="m414.8 167 29.4 4.3v27.9l-29.4-4.3z"/>
    <path class="st7" d="m431.3 179.8-4.8 3.4 4.8 4.3"/>
    <path class="st34" d="M443.8 198.7v-27l.9.1v27l-.9-.1z"/>
    <path class="st35" d="m441.1 171.3-26.7-3.9v-.9l26.7 3.9v.9zM441.1 199.2l-26.7-3.9v-.9l26.7 3.9v.9z"/>
    <path class="st37" d="m414.8 167 29.4 4.3v27.9l-29.4-4.3z"/>
    <path class="st5" d="m445.1 171.4 30.3 4.4v27.9l-30.3-4.4z"/>
    <defs>
      <path id="SVGID_00000096739843508633171720000005289940181898274462_" d="m453.6 179.4 14.2 2v14.4l-14.2-2z"/>
    </defs>
    <clipPath id="SVGID_00000126291367305106857490000003225714404731526546_">
      <use xlink:href="#SVGID_00000096739843508633171720000005289940181898274462_" overflow="visible"/>
    </clipPath>
    <g clip-path="url(#SVGID_00000126291367305106857490000003225714404731526546_)">
      <path class="st7" d="m464.3 193.5-7.1-1M458.9 181.9l4.8 4.7-4.8 2.9"/>
    </g>
    <path class="st35" d="M474.9 204.1v-28.8l.9.1v28.8l-.9-.1zM471.4 175.7l-26.7-3.9v-.9l26.7 3.9v.9zM471.4 203.6l-26.7-3.9v-.9l26.7 3.9v.9z"/>
    <path class="st37" d="m445.1 171.4 30.3 4.4v27.9l-30.3-4.4z"/>
    <path class="st5" d="m476.3 175.9 25.4 3.7c2.7.4 4.9 2.9 4.9 5.7v18c0 2.7-2.2 4.6-4.9 4.2l-25.4-3.7v-27.9z"/>
    <path class="st7" d="m495.4 198-7.1-1M493.6 187l-4.8 3.4 4.8 4.3"/>
    <path class="st34" d="M475.8 203.3v-27l.9.1v27l-.9-.1z"/>
    <path class="st37" d="m476.3 175.9 25.4 3.7c2.7.4 4.9 2.9 4.9 5.7v18c0 2.7-2.2 4.6-4.9 4.2l-25.4-3.7v-27.9z"/>
    <g>
      <defs>
        <path id="SVGID_00000075146655585952617280000012990298038461217933_" d="M321.7 192.7 507 219.5v28.8l-185.3-26.8z"/>
      </defs>
      <clipPath id="SVGID_00000090982974962841647880000011104383063987437698_">
        <use xlink:href="#SVGID_00000075146655585952617280000012990298038461217933_" overflow="visible"/>
      </clipPath>
      <g clip-path="url(#SVGID_00000090982974962841647880000011104383063987437698_)">
        <path class="st29" d="m327.1 193.9 174.6 25.3c2.7.4 4.9 2.9 4.9 5.7v18c0 2.7-2.2 4.6-4.9 4.2l-174.6-25.3a5.9 5.9 0 0 1-4.9-5.7v-18c0-2.7 2.2-4.6 4.9-4.2z"/>
        <path class="st6" d="M330 213.2V204l3.1.4c.7.1 1.3.3 1.7.6.5.3.8.7 1 1.1.2.5.3 1 .3 1.5s-.1 1-.3 1.4c-.2.4-.6.7-1 .8-.5.2-1 .2-1.7.1l-2.5-.4v-1l2.4.4c.5.1.9.1 1.2 0 .3-.1.5-.3.6-.5.1-.2.2-.6.2-.9s-.1-.7-.2-1c-.1-.3-.4-.5-.7-.7-.3-.2-.7-.3-1.2-.4l-1.9-.3v8.2l-1-.1zm4.2-3.5 2.2 4.4-1.3-.2-2.2-4.4 1.3.2zm3.6 7.2v-9.4l1 .1v1.1h.1c.1-.1.2-.2.3-.4.1-.2.3-.3.6-.4.3-.1.6-.1 1.1-.1.6.1 1.1.3 1.5.7.4.4.8.8 1 1.4.2.6.4 1.2.4 1.9s-.1 1.3-.4 1.8a2.17 2.17 0 0 1-2.5 1.3c-.4-.1-.8-.2-1-.4-.3-.2-.5-.4-.6-.6-.1-.2-.3-.4-.3-.5h-.1v3.6l-1.1-.1zm1-5.9c0 .5.1 1 .2 1.4.2.4.4.8.7 1 .3.3.6.4 1.1.5.4.1.8 0 1.1-.2.3-.2.5-.5.7-.9.1-.4.2-.8.2-1.3s-.1-.9-.2-1.3-.4-.8-.7-1c-.3-.3-.7-.4-1.1-.5-.4-.1-.8 0-1.1.2-.3.2-.5.4-.7.8-.1.4-.2.8-.2 1.3zm6.7 4.4v-9.2l1.1.2v4.5h.1l4.1-4 1.4.2-3.8 3.6 3.8 5.6-1.3-.2-3.2-4.7-1.1 1.1v3l-1.1-.1z"/>
        <path class="st14" d="m490.8 230.2 3.6 4.1 3.6-3.1"/>
      </g>
    </g>
  </g>
  <path class="st15" d="m314.6 71.5 199.5 28.9c3.7.5 6.7 4 6.7 7.7v149.4c0 3.7-3 6.3-6.7 5.8l-199.5-28.9c-3.7-.5-6.7-4-6.7-7.7V77.3c0-3.8 3-6.4 6.7-5.8z"/>
  <defs>
    <path id="SVGID_00000076590931936069827750000008731113105991372963_" d="m513.8 114.3 14.2 2.1.2 14.4-14.3-2.1z"/>
  </defs>
  <clipPath id="SVGID_00000078732143749572364750000009175039639219267500_">
    <use xlink:href="#SVGID_00000076590931936069827750000008731113105991372963_" overflow="visible"/>
  </clipPath>
  <g clip-path="url(#SVGID_00000078732143749572364750000009175039639219267500_)">
    <ellipse transform="rotate(-40.88 520.99 122.56)" class="st41" cx="521" cy="122.6" rx="6.6" ry="7.7"/>
    <path class="st5" d="m518.7 126.2-.1-7.9 2.8.4c.6.1 1 .2 1.4.5.4.2.6.5.8.9.2.3.3.7.3 1.1 0 .3-.1.6-.2.8-.1.2-.3.4-.5.5-.2.1-.4.2-.7.2v.1c.3.1.5.2.8.4.2.2.5.4.6.7.2.3.2.7.3 1.1 0 .4-.1.8-.3 1-.2.3-.5.5-.9.6-.4.1-.9.1-1.5.1l-2.8-.5zm1.2-.8 1.7.2c.6.1 1 0 1.2-.2.2-.2.4-.4.4-.8 0-.2-.1-.5-.2-.7-.1-.2-.3-.4-.5-.6-.2-.2-.5-.3-.8-.3l-1.7-.3-.1 2.7zm-.1-3.5 1.6.2c.3 0 .5 0 .7-.1.2-.1.4-.2.5-.4.1-.2.2-.4.2-.6 0-.3-.1-.6-.3-.9-.2-.3-.6-.4-1-.5l-1.6-.2-.1 2.5z"/>
  </g>
  <g>
    <defs>
      <path id="SVGID_00000024690934435007714670000006757408047977528721_" d="m300.3 117.6 14.3 2 .1 14.4-14.3-2z"/>
    </defs>
    <clipPath id="SVGID_00000147929754842721759810000008383400536455583143_">
      <use xlink:href="#SVGID_00000024690934435007714670000006757408047977528721_" overflow="visible"/>
    </clipPath>
    <g clip-path="url(#SVGID_00000147929754842721759810000008383400536455583143_)">
      <ellipse transform="rotate(-40.88 307.5 125.8)" class="st30" cx="307.5" cy="125.8" rx="6.6" ry="7.7"/>
      <path class="st5" d="M309.2 124.2c0-.4-.2-.7-.5-.9-.3-.2-.7-.4-1.1-.5h-.8c-.2.1-.4.2-.5.3-.1.2-.2.3-.2.6 0 .2 0 .4.1.5.1.1.2.3.3.4.1.1.3.2.5.3.2.1.3.2.5.2l.8.3c.2.1.5.2.8.4.3.1.5.3.7.5.2.2.4.4.5.7.1.3.2.6.2.9 0 .4-.1.8-.3 1.1-.2.3-.5.5-1 .7-.4.1-.9.2-1.5.1s-1.1-.3-1.5-.5c-.4-.2-.8-.6-1-.9-.2-.4-.4-.8-.4-1.3l1.2.2c0 .3.1.5.3.7.2.2.4.4.6.5.3.1.5.2.8.3h.9c.3-.1.5-.2.6-.4.1-.2.2-.4.2-.6 0-.2-.1-.4-.2-.6-.1-.2-.3-.3-.5-.4-.2-.1-.5-.3-.8-.4l-.9-.4c-.6-.3-1.1-.6-1.5-1-.4-.4-.5-.9-.6-1.4 0-.5.1-.8.4-1.1.2-.3.6-.5 1-.6.4-.1.9-.2 1.4-.1.5.1 1 .2 1.4.5.4.2.7.5 1 .9.2.4.4.8.4 1.2l-1.3-.2z"/>
    </g>
  </g>
  <g>
    <defs>
      <path id="SVGID_00000181781974477724320880000010606603439208904879_" d="m301 196.9 14.2 2 .1 14.4-14.2-2z"/>
    </defs>
    <clipPath id="SVGID_00000043454196385876408640000005070653195042662018_">
      <use xlink:href="#SVGID_00000181781974477724320880000010606603439208904879_" overflow="visible"/>
    </clipPath>
    <g clip-path="url(#SVGID_00000043454196385876408640000005070653195042662018_)">
      <ellipse transform="rotate(-40.88 308.14 205.1)" class="st30" cx="308.1" cy="205.1" rx="6.6" ry="7.7"/>
      <path class="st5" d="M309.8 203.5c0-.4-.2-.7-.5-.9-.3-.2-.7-.4-1.1-.5h-.8c-.2.1-.4.2-.5.3-.1.2-.2.3-.2.6 0 .2 0 .4.1.5.1.1.2.3.3.4.1.1.3.2.5.3.2.1.3.2.5.2l.8.3c.2.1.5.2.8.4.3.1.5.3.7.5.2.2.4.4.5.7.1.3.2.6.2.9 0 .4-.1.8-.3 1.1-.2.3-.5.5-1 .7-.4.1-.9.2-1.5.1s-1.1-.3-1.5-.5c-.4-.2-.8-.6-1-.9-.2-.4-.4-.8-.4-1.3l1.2.2c0 .3.1.5.3.8.2.2.4.4.6.5.3.1.5.2.8.3h.9c.3-.1.5-.2.6-.4.1-.2.2-.4.2-.6 0-.2-.1-.4-.2-.6-.1-.2-.3-.3-.5-.4-.2-.1-.5-.3-.8-.4l-.9-.4c-.6-.3-1.1-.6-1.5-1-.4-.4-.5-.9-.6-1.4 0-.5.1-.8.4-1.1.2-.3.6-.5 1-.6.4-.1.9-.2 1.4-.1.5.1 1 .2 1.4.5.4.2.7.6 1 .9.2.4.4.8.4 1.2l-1.3-.3z"/>
    </g>
  </g>
  <path class="st5" d="m619.1 55.5 199.5 28.9c3.7.5 6.7 4 6.7 7.7v111.6c0 3.7-3 6.3-6.7 5.8l-199.5-28.9c-3.7-.5-6.7-4-6.7-7.7V61.3c0-3.8 3-6.4 6.7-5.8z"/>
  <g>
    <defs>
      <path id="SVGID_00000116222069992559886470000014927066457611911051_" d="m619.1 55 199.5 29c3.9.6 7.1 4.3 7.1 8.2v111.6c0 4-3.2 6.7-7.1 6.2l-199.5-29c-3.9-.6-7.1-4.3-7.1-8.2V61.2c0-4 3.2-6.7 7.1-6.2z"/>
    </defs>
    <clipPath id="SVGID_00000106843049315740614090000003061680736681580426_">
      <use xlink:href="#SVGID_00000116222069992559886470000014927066457611911051_" overflow="visible"/>
    </clipPath>
    <g clip-path="url(#SVGID_00000106843049315740614090000003061680736681580426_)">
      <path class="st6" d="M627.3 82.6V72.1l6.6 1v1.6l-4.8-.7v2.8l4.3.6V79l-4.3-.6v4.4l-1.8-.2zm8.2 1.2V76l1.8.3v7.9l-1.8-.4zm1-8.8c-.3 0-.5-.2-.7-.4-.2-.2-.3-.5-.3-.8 0-.3.1-.5.3-.7.2-.2.5-.2.7-.2.3 0 .5.2.7.4.2.2.3.5.3.8 0 .3-.1.5-.3.7-.2.2-.4.2-.7.2zm4.6-.9v10.5l-1.8-.3V73.9l1.8.2zm5.8 3.5V79l-4.5-.6V77l4.5.6zm-3.4-2.4 1.8.3v7.4c0 .2 0 .4.1.6l.3.3c.1.1.3.1.4.1h.5l.3 1.5c-.1 0-.2 0-.4.1h-.7c-.5-.1-.9-.2-1.2-.4-.4-.2-.7-.5-.9-.9-.2-.4-.3-.8-.3-1.3v-7.7zm8.2 11.1c-.8-.1-1.5-.4-2-.8-.6-.4-1-.9-1.3-1.6-.3-.7-.5-1.4-.5-2.2 0-.8.2-1.5.5-2.1.3-.6.7-1 1.3-1.2.5-.3 1.2-.3 1.9-.2.5.1.9.2 1.4.4.4.2.8.5 1.1.9a4.84 4.84 0 0 1 1.1 3.2v.6l-6.4-.9v-1.2l4.6.7c0-.4-.1-.7-.2-1-.1-.3-.4-.6-.6-.7-.3-.2-.6-.3-.9-.4-.4-.1-.7 0-1 .1-.3.1-.5.3-.7.6-.2.3-.2.6-.2.9v1.1c0 .5.1.9.2 1.2.2.3.4.6.7.8.3.2.6.3 1 .4h.7c.2 0 .4-.1.6-.3.2-.1.3-.3.4-.5l1.7.4c-.1.4-.3.8-.6 1.1-.3.3-.7.5-1.2.6-.4.2-1 .2-1.6.1zm5.1.6V79l1.8.3v1.3h.1c.1-.4.4-.7.7-.9.3-.2.7-.3 1.2-.2.1 0 .2 0 .3.1.1 0 .2.1.3.1v1.7c-.1 0-.2-.1-.4-.1s-.3-.1-.5-.1c-.3 0-.6 0-.9.1-.3.1-.5.3-.6.5-.2.2-.2.5-.2.9v4.6l-1.8-.4z"/>
      <path class="st7" d="M809.9 103.7c.3.4.3.9 0 1.2-.9 1-3 3.1-5.5 2.8-2.5-.4-4.6-3.1-5.5-4.4-.1-.2-.2-.4-.2-.7 0-.2.1-.4.2-.6.9-1 3-3.1 5.5-2.8 2.5.5 4.6 3.2 5.5 4.5h0z"/>
      <path class="st7" d="M804.4 105.3c1 .1 1.8-.5 1.8-1.5s-.8-1.9-1.8-2.1c-1-.1-1.8.5-1.8 1.5s.8 2 1.8 2.1z"/>
      <path d="m629.9 106.1 10.7 1.5c.5.1.9.5.9 1l-.1 10.8c0 .5-.4.8-.9.8l-10.7-1.5c-.5-.1-.9-.5-.9-1l.1-10.8c0-.5.4-.9.9-.8z" fill="#fff" stroke="#6e767d" stroke-width="1.8"/>
      <path class="st6" d="m650.5 119.9.1-9.2 3.2.5c.6.1 1.2.3 1.6.6.4.3.7.6.9 1 .2.4.3.8.3 1.3 0 .4-.1.7-.2.9-.1.2-.3.4-.5.5-.2.1-.5.2-.7.2v.1c.3.1.6.2.8.4.3.2.5.5.7.9.2.4.3.8.3 1.3s-.1.9-.3 1.2c-.2.3-.5.6-1 .7-.4.2-1 .2-1.7.1l-3.5-.5zm1.2-.8 2.2.3c.7.1 1.2 0 1.5-.2.3-.2.5-.6.5-1 0-.3-.1-.6-.2-.9-.2-.3-.4-.5-.7-.7a3 3 0 0 0-1-.4l-2.2-.3-.1 3.2zm0-4.2 2 .3c.3 0 .6 0 .9-.1.3-.1.5-.2.6-.5.2-.2.2-.5.2-.8 0-.4-.1-.8-.4-1.1-.3-.3-.7-.5-1.3-.6l-2.1-.3.1 3.1zm7.5 8.8c-.2 0-.3-.1-.5-.1-.1 0-.2-.1-.3-.1l.3-.9c.3.1.5.2.7.2.2 0 .4-.1.5-.2.2-.1.3-.4.4-.7l.2-.5-2.5-7.3 1.1.2 1.8 5.7h.1l1.9-5.2 1.1.2-3 7.4c-.1.3-.3.6-.5.8-.2.2-.4.3-.7.4 0 .1-.3.2-.6.1zm6.2.9.1-9.4 1 .1v1.1h.1c.1-.1.2-.2.3-.4.1-.2.3-.3.6-.4.3-.1.6-.1 1.1-.1.6.1 1.1.3 1.5.7.4.4.8.8 1 1.4.2.6.4 1.2.4 1.9s-.1 1.3-.4 1.8a2.17 2.17 0 0 1-2.5 1.3c-.4-.1-.8-.2-1-.4-.3-.2-.5-.4-.6-.6-.1-.2-.2-.4-.3-.5h-.1v3.6l-1.2-.1zm1.1-5.8c0 .5.1 1 .2 1.4.1.4.4.8.7 1 .3.3.6.4 1.1.5.4.1.8 0 1.1-.2.3-.2.5-.5.7-.9.2-.4.2-.8.2-1.3s-.1-.9-.2-1.3-.4-.8-.7-1c-.3-.3-.7-.4-1.1-.5-.4-.1-.8 0-1.1.2-.3.2-.5.4-.7.8-.1.3-.2.8-.2 1.3zm8.6 4.8c-.4-.1-.8-.2-1.2-.4-.3-.2-.6-.5-.8-.8-.2-.3-.3-.7-.3-1.2 0-.4.1-.7.2-.9.2-.2.4-.4.6-.5.3-.1.5-.2.9-.2h1.9c.3 0 .5 0 .6-.1.1-.1.2-.2.2-.3 0-.4-.1-.8-.4-1.1-.2-.3-.6-.5-1.1-.5-.5-.1-.9 0-1.2.2-.3.2-.5.4-.6.6l-1-.5c.2-.4.4-.7.7-.9.3-.2.6-.3 1-.3h1c.2 0 .5.1.8.2.3.1.6.2.8.4a2.5 2.5 0 0 1 1 2.1v4.5l-1-.2v-.9h-.1c-.1.1-.2.3-.4.4-.2.1-.4.3-.7.3-.2.1-.6.2-.9.1zm.1-.9c.4.1.8 0 1-.1.3-.1.5-.3.7-.5.1-.2.2-.5.2-.8v-1s-.1.1-.3.1h-1.5c-.3 0-.5 0-.8.1-.2 0-.4.1-.6.3-.1.1-.2.3-.2.6 0 .4.1.7.4.9.4.2.7.3 1.1.4zm9.7-3.2-.9.1c-.1-.2-.1-.3-.3-.5-.1-.2-.3-.3-.5-.4-.2-.1-.4-.2-.7-.3-.4-.1-.8 0-1 .1-.3.2-.4.4-.4.7 0 .3.1.5.3.7.2.2.5.3.9.5l1 .4c.6.2 1.1.5 1.4.9.3.3.4.8.4 1.2 0 .4-.1.7-.3 1-.2.3-.5.5-.9.6-.4.1-.9.1-1.4.1-.7-.1-1.3-.3-1.7-.7-.5-.4-.7-.9-.9-1.5l1-.1c.1.4.3.7.5.9.3.2.6.4 1 .4.5.1.9 0 1.2-.1.3-.2.4-.4.4-.7 0-.2-.1-.5-.2-.6-.2-.2-.4-.3-.8-.5l-1.1-.4c-.6-.2-1.1-.5-1.4-.9a1.92 1.92 0 0 1-.1-2.2c.2-.3.5-.5.9-.6.4-.1.8-.1 1.3-.1.7.1 1.2.3 1.6.7.3.4.6.8.7 1.3zm6.6 1-.9.1c-.1-.2-.1-.3-.3-.5-.1-.2-.3-.3-.5-.4-.2-.1-.4-.2-.7-.3-.4-.1-.8 0-1 .1-.3.2-.4.4-.4.7 0 .3.1.5.3.7.2.2.5.3.9.5l1 .4c.6.2 1.1.5 1.4.9.3.3.4.8.4 1.2 0 .4-.1.7-.3 1-.2.3-.5.5-.9.6-.4.1-.9.1-1.4.1-.7-.1-1.3-.3-1.7-.7-.5-.4-.7-.9-.9-1.5l1-.1c.1.4.3.7.5.9.3.2.6.4 1 .4.5.1.9 0 1.2-.1.3-.2.4-.4.4-.7 0-.2-.1-.5-.2-.6-.2-.2-.4-.3-.8-.5l-1.1-.4c-.6-.2-1.1-.5-1.4-.9a1.92 1.92 0 0 1-.1-2.2c.2-.3.5-.5.9-.6.4-.1.8-.1 1.3-.1.7.1 1.2.3 1.6.7.2.3.5.8.7 1.3z"/>
      <path class="st5" d="m631.8 140.1 86.8 12.6-.2 27.9-86.8-12.6a5.9 5.9 0 0 1-4.9-5.7l.1-18c.1-2.7 2.3-4.6 5-4.2z"/>
      <path class="st7" d="m672.6 160-4.8-.7m4.8 5.5V160v4.8zm0-4.8v-4.8 4.8zm0 0 4.8.7-4.8-.7z"/>
      <path class="st37" d="m631.8 140.1 86.8 12.6-.2 27.9-86.8-12.6a5.9 5.9 0 0 1-4.9-5.7l.1-18c.1-2.7 2.3-4.6 5-4.2z"/>
      <path class="st5" d="m719.6 152.8 86.8 12.6c2.7.4 4.9 2.9 4.9 5.7l-.1 18c0 2.7-2.2 4.6-4.9 4.2l-86.8-12.6.1-27.9z"/>
      <path class="st34" d="m718.9 180.2.2-27 .9.1-.2 27-.9-.1z"/>
      <path class="st7" d="m769.9 174.1-9.5-1.4"/>
      <path class="st37" d="m719.6 152.8 86.8 12.6c2.7.4 4.9 2.9 4.9 5.7l-.1 18c0 2.7-2.2 4.6-4.9 4.2l-86.8-12.6.1-27.9z"/>
    </g>
  </g>
  <path class="st15" d="m619.1 55.5 199.5 28.9c3.7.5 6.7 4 6.7 7.7v111.6c0 3.7-3 6.3-6.7 5.8l-199.5-28.9c-3.7-.5-6.7-4-6.7-7.7V61.3c0-3.8 3-6.4 6.7-5.8z"/>
  <g>
    <defs>
      <path id="SVGID_00000057858533467760429430000008092428304049188782_" d="m818.6 98.4 14.3 2v14.4l-14.3-2z"/>
    </defs>
    <clipPath id="SVGID_00000008859422329690039270000012727227560653445258_">
      <use xlink:href="#SVGID_00000057858533467760429430000008092428304049188782_" overflow="visible"/>
    </clipPath>
    <g clip-path="url(#SVGID_00000008859422329690039270000012727227560653445258_)">
      <ellipse transform="rotate(-40.88 825.77 106.6)" class="st47" cx="825.8" cy="106.6" rx="5" ry="5.8"/>
    </g>
  </g>
  <g>
    <defs>
      <path id="SVGID_00000087378209526765715730000010785810662588045975_" d="m604.9 101.6 14.2 2V118l-14.2-2z"/>
    </defs>
    <clipPath id="SVGID_00000088091597358881555090000013645503782415016638_">
      <use xlink:href="#SVGID_00000087378209526765715730000010785810662588045975_" overflow="visible"/>
    </clipPath>
    <g clip-path="url(#SVGID_00000088091597358881555090000013645503782415016638_)">
      <ellipse transform="rotate(-40.88 612 109.8)" class="st41" cx="612" cy="109.8" rx="6.7" ry="7.7"/>
      <path class="st5" d="M609.7 113.4v-7.9l2.8.4c.6.1 1 .2 1.4.5.4.2.6.5.8.9.2.3.3.7.3 1.1 0 .3-.1.6-.2.8-.1.2-.3.4-.5.5-.2.1-.4.2-.7.2v.1c.3 0 .5.2.8.4.2.2.5.4.6.7.2.3.2.7.2 1.1 0 .4-.1.7-.3 1-.2.3-.5.5-.9.6-.4.1-.9.1-1.5.1l-2.8-.5zm1.2-.8 1.7.2c.6.1 1 0 1.2-.2.2-.2.4-.4.4-.8 0-.2-.1-.5-.2-.7s-.3-.4-.5-.6c-.2-.2-.5-.3-.8-.3l-1.7-.3v2.7zm0-3.4 1.6.2c.3 0 .5 0 .7-.1.2-.1.4-.2.5-.4.1-.2.2-.4.2-.6 0-.3-.1-.6-.3-.9-.2-.3-.6-.4-1-.5l-1.6-.2v2.5z"/>
    </g>
  </g>
  <g>
    <defs>
      <path id="SVGID_00000054946156568298936640000006383180305414733219_" d="m604.9 67.4 14.2 2v14.4l-14.2-2z"/>
    </defs>
    <clipPath id="SVGID_00000031198183105690272790000001780206745403578758_">
      <use xlink:href="#SVGID_00000054946156568298936640000006383180305414733219_" overflow="visible"/>
    </clipPath>
    <g clip-path="url(#SVGID_00000031198183105690272790000001780206745403578758_)">
      <ellipse transform="rotate(-40.88 612 75.6)" class="st47" cx="612" cy="75.6" rx="5" ry="5.8"/>
    </g>
  </g>
</svg>
